<svg width="78" height="75" viewBox="0 0 78 75" fill="none" xmlns="http://www.w3.org/2000/svg">
<path fill-rule="evenodd" clip-rule="evenodd" d="M8.58431 59.0361H68.5241V62.6506H8.58431V59.0361ZM77.1084 65.0619V66.1257C76.8852 68.7753 75.0682 72.2559 71.588 73.9976C70.7797 74.402 69.1911 75 68.0724 75H58.4338C57.8701 75 56.0052 72.7145 59.7881 72.7398C62.2776 72.7563 67.3913 72.9129 69.2508 72.4134C72.1916 71.623 74.8494 68.6966 74.8494 64.9096H2.259C2.259 69.3939 5.81891 72.7701 10.3896 72.7429L50.0001 72.7407C51.0488 72.7407 53.0057 72.4537 53.7523 72.9052C54.5914 73.4123 54.4491 75 53.1626 75H9.18686C6.75662 75 4.37716 73.5714 2.82298 72.0262C0.895259 70.1099 0 67.8878 0 64.759C0 63.763 1.11239 62.6506 2.10844 62.6506H6.32531V28.3133C6.32531 26.8023 7.82677 25.3011 9.33747 25.3011H25.3011C25.9824 25.3011 26.3826 26.3234 25.9768 27.0195C25.5501 27.752 24.853 27.5652 23.7957 27.5606L10.0807 27.5504C9.1519 27.5654 8.58431 27.8525 8.58431 28.765V56.6265H68.5241V28.765C68.5241 28.0364 68.0479 27.5601 67.3192 27.5601H62.6506V45.03C62.6506 46.224 62.3832 47.1149 61.8404 47.8343C61.3782 48.4466 60.5706 49.0186 59.6384 49.0963C59.6384 50.301 59.6336 51.5066 59.6389 52.7111C59.6447 54.0258 59.7528 55.1204 58.4338 55.1204H17.47C16.7256 55.1204 16.1145 54.5093 16.1145 53.7649V34.1865C16.1145 33.0576 16.642 32.5301 17.7712 32.5301H35.2409V27.5601H30.4217C28.9227 27.5601 28.8699 25.3011 30.4217 25.3011H35.2409V3.3131C35.2409 1.6727 36.7603 2.5912e-08 38.4037 2.5912e-08H59.6384C61.1623 -0.000242852 62.6506 1.70694 62.6506 4.06626V25.3011H67.771C69.2817 25.3011 70.7832 26.8023 70.7832 28.3133V62.6506H75C76.2656 62.6506 76.9734 63.6406 77.1084 65.0619ZM35.3917 46.3853C35.4746 50.1077 42.0941 49.2501 44.5783 49.2469C47.027 49.2435 46.5053 49.3066 49.1969 50.6524L53.3132 52.7108H22.5904C23.1832 52.1954 24.9791 51.5197 25.7031 51.1547L32.142 47.955C33.3409 47.4603 34.3187 46.9532 35.3917 46.3853ZM51.8073 49.2469H57.3794V51.9577C56.9646 51.861 56.4342 51.5934 55.9805 51.3988L51.8073 49.2469ZM37.5001 45.1807V40.5118H60.241V45.6324C60.241 46.3608 59.7648 46.8373 59.0361 46.8373H38.8554C37.931 46.8373 37.5001 46.1204 37.5001 45.1807ZM18.5241 51.9577V35.6926L26.7569 39.6586C28.1107 40.3355 29.5716 41.1601 30.8946 41.6956C32.0191 42.151 34.3954 43.5125 35.0903 43.6745V43.9757C34.2779 44.1652 31.8928 45.4993 31.0241 45.9336L18.5241 51.9577ZM37.5001 9.18662H60.241V38.1022H37.5001V9.18662ZM22.5904 34.9397H35.2409V41.1144C34.2864 40.8919 32.9287 40.1086 32.0281 39.6586C31.0797 39.1842 23.055 35.3434 22.5904 34.9397ZM37.5001 3.91567C37.5001 2.97573 37.931 2.259 38.8554 2.259H59.0361C60.6964 2.259 60.241 4.3917 60.241 6.77701H37.5001V3.91567Z" fill="#092C42"/>
<path fill-rule="evenodd" clip-rule="evenodd" d="M48.7957 25.6035L53.1631 31.1759H44.5788C45.06 30.2665 47.9199 26.9116 48.7957 25.6035ZM43.2234 28.9168V18.5253C43.552 18.7451 44.0192 19.3878 44.2794 19.7283L46.3201 22.3562C46.7031 22.8648 47.1201 23.1606 47.2896 23.7962L44.3207 27.6046C44.0581 27.9587 43.509 28.7075 43.2234 28.9168ZM50.3018 23.6457C50.8886 23.2158 53.7276 19.055 54.5186 18.5253V28.9168C54.19 28.6968 53.7227 28.0541 53.4628 27.7136L51.3576 24.9995C51.0142 24.5501 50.6204 24.1217 50.3018 23.6457ZM44.5788 16.2661L53.1631 16.2663L50.0006 20.3326C49.6909 20.7284 49.0815 21.332 48.9463 21.8384L44.5788 16.2661ZM40.9644 14.7602V32.3805C40.9644 33.2782 41.5723 33.5854 42.4704 33.5854H55.4221C56.1505 33.5854 56.7777 33.1577 56.7777 32.3805V15.0614C56.7777 14.333 56.3013 13.8564 55.5729 13.8564H42.1693C41.6189 13.8564 40.9644 14.272 40.9644 14.7602Z" fill="#092C42"/>
</svg>
