<svg width="89" height="75" viewBox="0 0 89 75" fill="none" xmlns="http://www.w3.org/2000/svg">
<path fill-rule="evenodd" clip-rule="evenodd" d="M43.0299 50.6336H45.4493V56.5092H43.0299V50.6336ZM0 65.6459V63.8333C0.117947 62.5296 0.494815 61.2518 1.15164 60.0803C1.47642 59.5005 1.86999 58.9239 2.28946 58.453C5.21004 55.1747 7.39368 54.7812 11.7512 54.7812C11.9326 54.0023 11.9628 53.2747 12.2043 52.4692C12.4469 51.6593 12.6398 51.2685 12.9587 50.6317L13.9457 49.0103C14.4121 48.1636 13.8248 48.0412 13.8248 47.0047V35.5992C13.8248 34.574 14.2752 33.9702 14.6889 33.3526C14.3539 32.7198 13.8248 31.8561 13.8248 30.9331V19.7005C13.8248 18.6233 14.3132 17.9909 14.6889 17.281C14.3183 16.5811 13.8248 16.1084 13.8248 15.0345V3.62899C13.8248 1.65634 15.8173 0 17.1081 0H24.0208C25.2616 0 25.6604 1.24292 25.0739 2.08139C24.5435 2.83969 23.2036 2.59241 21.9469 2.59216C20.7344 2.59192 19.5196 2.58175 18.3079 2.58248C16.9064 2.58321 16.417 2.954 16.417 4.3202V14.1706C16.417 14.9485 16.7439 15.8986 17.4537 15.8986H71.0253C71.7354 15.8986 72.0622 14.9485 72.0622 14.1706C72.0622 0.992744 73.0257 2.59216 67.5689 2.59216L30.7517 2.60064C27.7633 2.62511 28.6074 0 30.0691 0H71.3708C72.6617 0 74.6542 1.65634 74.6542 3.62899V15.0345C74.6542 16.1084 74.1606 16.5811 73.7903 17.281C74.1657 17.9909 74.6542 18.6233 74.6542 19.7005V30.9331C74.6542 31.8561 74.125 32.7198 73.7903 33.3526C74.9884 35.1419 74.6542 36.0707 74.6542 38.8826C78.5022 39.2027 78.3452 42.1659 76.3825 42.1659C76.0584 42.1659 72.7714 40.5035 69.1831 41.7063C66.8588 42.4854 67.163 42.9109 65.5972 41.0272C63.3492 38.3221 58.3768 37.3037 54.6541 39.9651C53.2659 40.9574 52.5611 41.9533 51.842 43.5471C51.1544 45.0713 51.0379 47.0749 51.5281 48.8751C51.8171 49.9364 53.522 52.7073 51.152 52.7073C49.0435 52.7073 50.6525 50.6336 48.2142 50.6336V56.5092H55.818C59.0842 56.5092 61.2829 57.5625 62.9491 59.2283C66.8806 63.1593 66.8135 68.9515 62.7304 68.9515H39.0553C36.5438 68.9515 36.9867 66.1867 38.7097 66.1867H63.076V65.1498C63.076 62.6572 60.1333 59.2743 56.8548 59.2743H31.6244C29.8402 59.2743 28.3652 60.1973 27.4303 61.1285C25.7519 62.8006 25.4032 63.999 25.4032 66.1867H32.1426C34.2226 66.1867 34.2226 68.9515 32.1426 68.9515H25.7488C19.8558 68.9515 22.517 56.5092 32.6612 56.5092H40.265V50.6336H17.6267C16.7582 50.6336 16.8529 50.4782 16.0714 50.461C15.8834 51.165 15.622 51.0616 15.1287 52.2832C14.0977 54.8371 14.805 55.57 14.1731 56.6848C13.185 58.4281 11.4191 57.3733 10.1958 57.3733C4.92763 57.3733 0.90579 62.7931 3.33836 68.0324C4.60405 70.7588 7.23159 72.4078 10.1958 72.4078H79.1474C87.1133 72.4078 88.1619 61.5596 81.1098 59.7311C80.0809 59.4642 79.1474 59.4656 79.1474 58.2372C79.1474 57.2038 80.1028 56.9592 80.8764 55.3004C83.5942 49.4724 79.8385 45.6283 79.8385 44.5852C79.8385 43.799 80.251 43.2028 81.2212 43.2028C82.7877 43.2028 85.6456 48.8598 83.918 54.8858C83.6071 55.9703 82.9972 56.5986 82.7765 57.546C84.2328 57.8853 85.9655 59.3961 86.7204 60.5143C88.0994 62.5572 88.4792 63.6597 88.4792 66.3596C88.4792 70.8123 84.2912 75 79.8385 75H9.15898C7.44572 75 5.34643 74.0085 4.0461 73.0276C3.71963 72.7813 3.04657 72.2703 2.81358 72.0135C1.17903 70.2133 0.204651 67.9464 0 65.6459ZM49.424 42.5115C48.1346 42.5115 47.1774 42.5919 47.1774 41.3018C47.1774 40.8864 47.4573 40.7939 47.6956 40.4379H50.4608C50.0839 41.0005 49.5976 41.7656 49.424 42.5115ZM47.8686 45.1037H48.5598V48.0415H18.1452C17.0406 48.0415 16.417 47.5583 16.417 46.4861V36.4631C16.417 35.6851 16.7439 34.735 17.4537 34.735H71.0253C72.3374 34.735 72.0622 37.4568 72.0622 38.5369C71.4868 38.5369 70.3621 38.6956 69.737 38.8038C68.776 38.9705 68.3756 39.2129 67.5691 39.4011C66.4366 37.7101 63.1579 35.7718 60.311 35.7718C53.9295 35.7718 54.9922 37.6745 52.3731 37.6842C51.0781 37.6893 48.2193 37.5711 47.3024 37.7978C44.1837 38.5687 43.3115 42.9518 46.4898 44.7545C46.8543 44.9613 47.2907 45.1037 47.8686 45.1037ZM16.417 30.2419V20.3917C16.417 19.361 16.7693 18.6637 17.7993 18.6637H70.6796C71.7096 18.6637 72.0622 19.361 72.0622 20.3917V30.2419C72.0622 31.2727 71.7096 31.9702 70.6796 31.9702H17.7993C16.7693 31.9702 16.417 31.2727 16.417 30.2419Z" fill="#0096ED"/>
<path fill-rule="evenodd" clip-rule="evenodd" d="M47.1777 25.0577C47.1777 24.6547 47.6389 24.1938 48.0417 24.1938C50.8758 24.1938 63.1769 23.9473 64.9774 24.3665C65.1183 24.9717 65.3949 26.2674 64.2859 26.2674H48.3875C47.5807 26.2674 47.1777 25.8644 47.1777 25.0577ZM49.2514 29.0325H63.422C69.5603 29.0325 69.18 21.4287 63.7675 21.4287H48.5601C43.4731 21.4287 42.535 29.0325 49.2514 29.0325Z" fill="#0096ED"/>
<path fill-rule="evenodd" clip-rule="evenodd" d="M64.9766 10.0224C63.1762 10.4419 50.875 10.1951 48.0409 10.1951C46.9765 10.1951 46.6812 8.12146 48.3867 8.12146H63.9395C65.2198 8.12146 65.4566 9.13576 64.9766 10.0224ZM48.2138 12.9602H63.9395C67.6032 12.9602 69.0887 8.92045 66.9286 6.68769C66.4861 6.23019 65.6031 5.5293 64.8037 5.5293H47.8682C43.4065 5.5293 43.3523 12.9602 48.2138 12.9602Z" fill="#0096ED"/>
<path fill-rule="evenodd" clip-rule="evenodd" d="M27.4771 9.15929C27.4771 12.7185 32.3158 12.0171 32.3158 9.33222C32.3158 5.92071 27.4771 5.92434 27.4771 9.15929Z" fill="#0096ED"/>
<path fill-rule="evenodd" clip-rule="evenodd" d="M37.1542 27.6502C40.3332 27.6502 40.6881 22.8115 36.9813 22.8115C34.1586 22.8115 33.9759 27.6502 37.1542 27.6502Z" fill="#0096ED"/>
<path fill-rule="evenodd" clip-rule="evenodd" d="M34.7354 41.3003C34.7354 44.4509 39.6874 44.596 39.6458 41.3257C39.6182 39.161 37.1177 38.1242 35.5638 39.5366C35.2611 39.812 34.7354 40.8297 34.7354 41.3003Z" fill="#0096ED"/>
<path fill-rule="evenodd" clip-rule="evenodd" d="M34.7354 9.15859C34.7354 12.3093 39.6874 12.4543 39.6458 9.18402C39.6182 7.01931 37.1177 5.9825 35.5638 7.3952C35.2611 7.67033 34.7354 8.68801 34.7354 9.15859Z" fill="#0096ED"/>
<path fill-rule="evenodd" clip-rule="evenodd" d="M20.0459 25.2311C20.0459 28.0916 24.8846 28.9582 24.8846 24.8855C24.8846 22.1192 20.0459 22.0536 20.0459 25.2311Z" fill="#0096ED"/>
<path fill-rule="evenodd" clip-rule="evenodd" d="M20.0459 9.15912C20.0459 12.4246 24.8846 12.2369 24.8846 9.50473C24.8846 5.55314 20.0459 6.2429 20.0459 9.15912Z" fill="#0096ED"/>
<path fill-rule="evenodd" clip-rule="evenodd" d="M20.0459 41.3017C20.0459 44.5672 24.8846 44.3795 24.8846 41.6473C24.8846 37.6957 20.0459 38.3855 20.0459 41.3017Z" fill="#0096ED"/>
<path fill-rule="evenodd" clip-rule="evenodd" d="M27.4771 41.3005C27.4771 44.8031 32.3158 44.2019 32.3158 41.4734C32.3158 37.9764 27.4771 38.1823 27.4771 41.3005Z" fill="#0096ED"/>
<path fill-rule="evenodd" clip-rule="evenodd" d="M27.4771 24.8858C27.4771 28.7855 32.3158 28.2321 32.3158 25.2314C32.3158 21.9923 27.4771 22.1909 27.4771 24.8858Z" fill="#0096ED"/>
</svg>
