<svg width="75" height="75" viewBox="0 0 75 75" fill="none" xmlns="http://www.w3.org/2000/svg">
<path fill-rule="evenodd" clip-rule="evenodd" d="M25.4882 32.0802C25.4882 29.8527 28.2152 28.5323 29.5898 28.4181L31.9111 35.6031C32.5946 35.4416 34.0614 34.6051 34.7168 34.2773C38.2747 32.4985 36.9405 32.5327 40.2344 34.1797C40.8515 34.4881 42.6009 35.4713 43.0665 35.5957L45.4728 28.4388C46.6589 28.507 49.5118 29.8052 49.5118 32.0802V36.1816H25.4882V32.0802ZM41.6016 32.0802L39.2592 30.9057C39.6595 30.3083 40.0517 29.6136 40.4215 28.9958C40.841 28.2949 41.2156 27.6827 41.6016 26.953C42.2036 27.0933 42.4895 27.3447 43.0665 27.3925C43.0519 28.0463 41.8732 31.514 41.6016 32.0802ZM31.9336 27.3925C32.5105 27.3447 32.7964 27.0933 33.3984 26.953L35.7421 30.9082L33.3997 32.0828C33.1224 31.5046 31.952 28.0606 31.9336 27.3925ZM35.1563 25.0487C37.7353 25.6496 37.2647 25.6496 39.8438 25.0487C39.5295 25.6425 37.8769 28.5813 37.5 28.8575C37.1428 28.5956 36.5738 27.4888 36.2818 26.9995C35.8604 26.293 35.5296 25.7544 35.1563 25.0487ZM32.6661 17.871C32.6661 12.2829 32.3567 13.3961 33.8706 13.0698C35.4447 12.7305 36.3163 12.0522 37.5 11.4257C38.6838 12.0522 39.5553 12.7305 41.1295 13.0698C42.6433 13.3961 42.3339 12.2829 42.3339 17.871C42.3339 18.635 42.1837 19.3959 41.9427 19.97C41.7202 20.4997 41.3305 21.1029 40.9751 21.4926C38.461 24.2497 32.6661 23.0039 32.6661 17.871ZM44.8243 17.7247V13.7694C45.2715 14.0689 45.8497 14.6474 45.8497 15.3809V16.1132C45.8497 16.847 45.2715 17.4252 44.8243 17.7247ZM29.1504 16.1132V15.3809C29.1504 14.6474 29.7286 14.0689 30.1757 13.7694V17.7247C29.7286 17.4252 29.1504 16.847 29.1504 16.1132ZM29.1504 11.4257C29.1504 8.83332 29.5313 6.99372 31.383 5.16225C33.1838 3.38113 34.7888 2.49018 37.6464 2.49018C41.0855 2.49018 43.9408 4.66348 45.2648 7.6161C45.772 8.74722 45.8497 9.77077 45.8497 11.4257C44.2804 10.5953 42.673 11.0281 40.9951 10.421C38.7093 9.59395 38.4901 8.58039 37.5 8.0566C37.0125 8.38314 36.407 8.99991 35.9123 9.3985C33.3762 11.4428 31.5296 10.2841 29.1504 11.4257ZM26.5138 11.7188C26.5138 15.2044 26.0271 18.4151 29.2922 20.073C29.9153 20.3893 30.3137 20.3778 30.5983 20.6714C30.7733 20.8521 31.1144 21.685 31.3155 22.0046C32.6523 24.1281 32.6661 22.8703 32.6661 24.6092L26.4402 26.8797C24.6192 27.7908 22.998 29.6984 22.998 31.9336V38.8184H52.002V31.9336C52.002 29.6987 50.1848 27.5867 48.5734 26.8661C47.5677 26.4162 46.5439 26.0991 45.4943 25.6972C44.7755 25.4218 42.9824 24.6634 42.3339 24.6092C42.3339 23.4595 42.2095 23.8141 42.8017 23.1728C43.846 22.0424 43.8268 21.5368 44.2786 20.841C44.6419 20.2815 44.0867 20.7102 44.8708 20.408C45.2365 20.2672 45.2579 20.2917 45.61 20.1218C49.0041 18.483 48.4862 15.1458 48.4862 11.5723C48.4862 7.48911 47.118 4.82191 44.2722 2.30978C42.9402 1.1342 40.1412 0 38.2325 0C35.8167 0 34.7664 0.0442224 32.5179 1.17023C31.4192 1.72034 30.1333 2.62764 29.3806 3.59933C27.3797 6.18198 26.5138 7.87954 26.5138 11.7188Z" fill="#0096ED"/>
<path fill-rule="evenodd" clip-rule="evenodd" d="M72.51 55.3712V60.7912C71.9054 60.8045 69.8356 61.2041 69.5259 61.7624C69.4061 61.9788 69.2326 62.556 69.1204 62.8225C68.6368 63.9733 68.4188 63.7479 70.1662 66.3577L66.3934 70.202C63.8994 68.4796 64.0195 68.4871 61.8646 69.4818C61.3503 69.7191 61.4576 69.6491 61.3071 70.2426C61.1221 70.9708 60.8068 71.8017 60.7912 72.51H55.3712C55.3234 71.9351 55.0462 70.9882 54.8781 70.3663C54.5638 69.2037 54.2804 69.5796 53.3213 69.1391C52.3174 68.6779 52.4617 68.5259 51.4218 69.1455C50.8242 69.5017 50.3007 69.8262 49.6583 70.1662L45.9617 66.3922C47.4968 63.6335 47.843 64.585 46.6587 61.8866C46.3848 61.2629 46.6048 61.4806 45.9213 61.3056C45.2011 61.1211 44.3492 60.8066 43.6524 60.7912V55.3712C44.1936 55.3263 46.2729 54.9992 46.6035 54.3673C46.7047 54.1739 46.8951 53.589 47.0182 53.3162C47.4671 52.3215 47.5576 52.4247 47.0335 51.555C46.6674 50.9476 46.3807 50.3791 45.9962 49.8048L49.769 45.9602C50.1545 46.2303 50.4836 46.4267 50.8919 46.6669C53.5303 48.2175 52.3624 46.7717 54.6389 46.5821L55.3712 43.6525H60.7912C60.8439 44.2854 61.1167 45.1083 61.2792 45.801C61.4893 46.6966 61.0779 46.303 62.8422 47.0223C64.4723 47.6866 63.5849 47.4633 66.3577 45.9962L70.1317 49.6929C68.705 52.5389 68.2906 51.3376 69.4431 54.19C69.6644 54.7378 69.6251 54.6466 70.2717 54.8262C70.8198 54.9783 71.8564 55.3168 72.51 55.3712ZM52.588 44.6778C51.9124 44.4974 49.7409 42.9199 49.3653 42.9199C48.9128 42.9199 47.9779 44.0878 47.6442 44.4215C47.0259 45.0399 42.9199 48.8962 42.9199 49.3653C42.9199 49.7744 44.4977 51.9134 44.6778 52.588C44.0651 52.6391 43.286 52.901 42.6565 53.0571C42.1043 53.1938 41.0156 53.2441 41.0156 53.9064V62.256C41.0156 62.9035 43.7143 63.3499 44.6778 63.5744C44.3673 64.1611 44.1282 64.6146 43.7909 65.1775C43.5334 65.607 43.0408 66.2787 42.9199 66.7972L49.3293 73.2785L52.588 71.4846C52.6733 72.5112 53.2367 74.0123 53.4669 75.0001H62.6955C62.9689 73.8261 63.3008 72.6584 63.5744 71.4846C64.3885 71.6742 66.0163 73.0338 66.7971 73.2423L73.2785 66.8332C73.0013 65.9663 71.6752 64.3933 71.4846 63.5744C72.6584 63.3008 73.8261 62.9689 75.0001 62.6955V53.4669C74.0123 53.2367 72.5112 52.6733 71.4846 52.588C71.6068 52.0634 72.861 50.0858 73.2422 49.3653L66.8332 42.8839L63.5744 44.6778C63.3498 43.7143 62.9035 41.0156 62.256 41.0156H53.9064C53.2441 41.0156 53.1938 42.1044 53.0571 42.6565C52.901 43.2861 52.6391 44.0651 52.588 44.6778Z" fill="#0096ED"/>
<path fill-rule="evenodd" clip-rule="evenodd" d="M2.49015 45.996H21.6796V72.5098H2.49015V45.996ZM0 74.9999H24.1698V43.5059H0V74.9999Z" fill="#0096ED"/>
<path fill-rule="evenodd" clip-rule="evenodd" d="M50.8298 58.1534C50.8298 50.7151 60.9585 47.7287 64.6018 55.0745C67.5199 60.9578 60.9795 67.3952 55.2707 64.6986C52.7236 63.4957 50.8298 61.2417 50.8298 58.1534ZM48.3394 57.8603C48.3394 61.8423 50.7263 65.5758 54.0698 66.9248C59.4615 69.1005 64.4157 66.9726 66.8464 62.1584C69.8537 56.2023 65.5418 48.3389 57.8608 48.3389C52.788 48.3389 48.3394 52.7875 48.3394 57.8603Z" fill="#0096ED"/>
<path fill-rule="evenodd" clip-rule="evenodd" d="M17.3172 12.9221L19.9558 15.6392C18.5288 15.6729 14.7848 15.4878 13.7084 15.7582C12.2622 16.121 10.8398 17.4816 10.8398 19.1886V41.1613H13.3303V19.4817C13.3303 18.0823 14.5467 18.1594 15.9666 18.163C17.285 18.1663 18.6036 18.1633 19.9218 18.1633L17.2512 20.9127L19.0078 22.7394L24.7912 16.8801L19.0781 11.2432L17.3172 12.9221Z" fill="#0096ED"/>
<path fill-rule="evenodd" clip-rule="evenodd" d="M50.8306 18.1652C58.6294 18.1652 58.0092 17.5783 58.0082 21.0949V34.4248L55.2587 31.7543L53.5813 33.514L59.2152 39.2237L65.0755 33.4358L63.3135 31.7558L60.5321 34.4588C60.4984 30.7141 60.4984 27.0032 60.4984 23.2922C60.4984 21.7295 60.7736 19.1418 60.2562 17.968C59.6808 16.6626 58.3917 15.6748 56.9829 15.6748H50.8306V18.1652Z" fill="#0096ED"/>
<path fill-rule="evenodd" clip-rule="evenodd" d="M24.9375 58.0423L30.5791 63.756L32.4082 61.9973L29.7006 59.361L36.7676 59.3255C39.126 59.3293 38.8183 59.8291 38.8183 56.8351H29.7361L32.4069 54.0856L30.6473 52.4082L24.9375 58.0423Z" fill="#0096ED"/>
<path fill-rule="evenodd" clip-rule="evenodd" d="M55.6642 58.1554C55.6642 56.8518 56.7443 55.6652 58.008 55.6652C60.1082 55.6652 61.1939 58.1433 59.8096 59.6641C58.3856 61.2283 55.6642 60.1728 55.6642 58.1554ZM53.1738 58.0089C53.1738 62.2879 58.3355 64.6337 61.4164 61.5641C64.8512 58.1418 62.0961 53.1748 58.008 53.1748C55.4044 53.1748 53.1738 55.4053 53.1738 58.0089Z" fill="#0096ED"/>
<path fill-rule="evenodd" clip-rule="evenodd" d="M4.83398 50.8293H19.336V48.3389H4.83398V50.8293Z" fill="#0096ED"/>
<path fill-rule="evenodd" clip-rule="evenodd" d="M4.83398 65.331H19.336V62.8408H4.83398V65.331Z" fill="#0096ED"/>
<path fill-rule="evenodd" clip-rule="evenodd" d="M4.83398 60.4979H19.336V58.0078H4.83398V60.4979Z" fill="#0096ED"/>
<path fill-rule="evenodd" clip-rule="evenodd" d="M4.83398 70.1672H14.502V67.6768H4.83398V70.1672Z" fill="#0096ED"/>
<path fill-rule="evenodd" clip-rule="evenodd" d="M9.66797 55.6652H19.3358V53.1748H9.66797V55.6652Z" fill="#0096ED"/>
<path fill-rule="evenodd" clip-rule="evenodd" d="M16.8457 70.1672H19.3359V67.6768H16.8457V70.1672Z" fill="#0096ED"/>
<path fill-rule="evenodd" clip-rule="evenodd" d="M4.83398 55.6652H7.32439V53.1748H4.83398V55.6652Z" fill="#0096ED"/>
</svg>
