<svg width="75" height="75" viewBox="0 0 75 75" fill="none" xmlns="http://www.w3.org/2000/svg">
<path fill-rule="evenodd" clip-rule="evenodd" d="M24.1935 69.1027C24.1935 68.3553 24.807 67.7418 25.5545 67.7418H49.4455C51.2947 67.7418 50.8065 70.3306 50.8065 72.5805H24.1935V69.1027ZM29.0322 55.6452H45.9678V65.3226H29.0322V55.6452ZM59.2743 55.6452H61.6935V58.0644H59.2743V55.6452ZM2.41945 49.2942V45.9676H72.5807C72.5807 48.7403 73.1851 53.2257 68.6492 53.2257H6.35093C4.03786 53.2257 2.41945 51.6073 2.41945 49.2942ZM2.41945 6.35074C2.41945 4.00397 4.00416 2.41925 6.35093 2.41925H68.6492C70.9621 2.41925 72.5807 4.03788 72.5807 6.35074V43.5483H2.41945V6.35074ZM0 5.59482V50.0504C0 52.8398 2.80535 55.6452 5.59482 55.6452H26.613V65.3226H25.1007C23.4374 65.3226 21.7743 66.9857 21.7743 68.649V73.7901C21.7743 74.5217 22.2524 75 22.9839 75H52.0161C52.7476 75 53.2257 74.5217 53.2257 73.7901V68.649C53.2257 66.9857 51.5626 65.3226 49.8993 65.3226H48.387V55.6452H56.8548C56.8548 60.5354 56.4308 60.4839 59.2743 60.4839V69.4051C59.2743 72.1946 62.0794 75 64.8691 75H75V72.5805H65.625C63.3119 72.5805 61.6935 70.9621 61.6935 68.649V60.4839C64.537 60.4839 64.113 60.5354 64.113 55.6452H69.4054C72.1946 55.6452 75 52.8398 75 50.0504V5.59482C75 2.80514 72.1946 0 69.4054 0H5.59482C2.80535 0 0 2.80514 0 5.59482Z" fill="#092C42"/>
<path fill-rule="evenodd" clip-rule="evenodd" d="M9.67755 16.9355H65.3227V38.7098H9.67755V16.9355ZM9.67755 7.25812H65.3227V14.5163H9.67755V7.25812ZM7.2583 6.04849V39.9194C7.2583 40.6509 7.73639 41.129 8.46792 41.129H66.5324C67.2639 41.129 67.7422 40.6509 67.7422 39.9194V6.04849C67.7422 5.31695 67.2639 4.83887 66.5324 4.83887H8.46792C7.73639 4.83887 7.2583 5.31695 7.2583 6.04849Z" fill="#092C42"/>
<path fill-rule="evenodd" clip-rule="evenodd" d="M44.6067 33.8706H41.1289V21.7737C43.3789 21.7737 45.9676 21.2855 45.9676 23.1347V32.5097C45.9676 33.2571 45.3541 33.8706 44.6067 33.8706ZM38.7095 20.5641V35.0802C38.7095 35.8118 39.1878 36.2899 39.9193 36.2899H45.0604C46.7237 36.2899 48.3869 34.6267 48.3869 32.9634V22.6812C48.3869 21.0176 46.7237 19.3545 45.0604 19.3545H39.9193C39.1878 19.3545 38.7095 19.8328 38.7095 20.5641Z" fill="#092C42"/>
<path fill-rule="evenodd" clip-rule="evenodd" d="M29.032 30.9987V24.648C29.032 20.793 33.8707 20.9168 33.8707 24.648V30.9987C33.8707 34.7797 29.032 34.7797 29.032 30.9987ZM26.6128 23.8919V31.7546C26.6128 34.1817 28.9947 36.2909 30.9978 36.2909C32.5685 36.2909 33.6656 36.1305 34.8977 34.8986C35.4968 34.2993 36.2902 33.0359 36.2902 31.906V23.7406C36.2902 22.6106 35.4968 21.3472 34.8977 20.7481C31.9145 17.7647 26.6128 19.8832 26.6128 23.8919Z" fill="#092C42"/>
<path fill-rule="evenodd" clip-rule="evenodd" d="M50.8062 20.5641V35.0802C50.8062 35.8118 51.2845 36.2899 52.0158 36.2899H59.2739V33.8706H53.2254V29.0319H59.2739V26.6124H53.2254V21.7737H59.2739V19.3545H52.0158C51.2845 19.3545 50.8062 19.8328 50.8062 20.5641Z" fill="#092C42"/>
<path fill-rule="evenodd" clip-rule="evenodd" d="M14.5161 22.6812V32.9634C14.5161 34.6267 16.1792 36.2899 17.8428 36.2899H20.867C22.5304 36.2899 24.1935 34.6267 24.1935 32.9634V31.4511H21.7743C21.7743 34.1226 21.3507 33.8706 18.2965 33.8706C17.5491 33.8706 16.9356 33.2571 16.9356 32.5097V23.1347C16.9356 21.4239 19.0123 21.7737 20.4133 21.7737C21.9491 21.7737 21.7743 23.3926 21.7743 24.1932H24.1935V22.6812C24.1935 21.0176 22.5304 19.3545 20.867 19.3545H17.8428C16.1792 19.3545 14.5161 21.0176 14.5161 22.6812Z" fill="#092C42"/>
<path fill-rule="evenodd" clip-rule="evenodd" d="M50.8062 12.096H53.2254V9.67676H50.8062V12.096Z" fill="#092C42"/>
<path fill-rule="evenodd" clip-rule="evenodd" d="M55.6455 12.096H58.0648V9.67676H55.6455V12.096Z" fill="#092C42"/>
<path fill-rule="evenodd" clip-rule="evenodd" d="M60.4839 12.096H62.9031V9.67676H60.4839V12.096Z" fill="#092C42"/>
<path fill-rule="evenodd" clip-rule="evenodd" d="M61.6934 50.8069H64.1128V48.3877H61.6934V50.8069Z" fill="#092C42"/>
<path fill-rule="evenodd" clip-rule="evenodd" d="M56.855 50.8069H59.2744V48.3877H56.855V50.8069Z" fill="#092C42"/>
<path fill-rule="evenodd" clip-rule="evenodd" d="M66.5322 50.8069H68.9517V48.3877H66.5322V50.8069Z" fill="#092C42"/>
</svg>
