<svg width="75" height="75" viewBox="0 0 75 75" fill="none" xmlns="http://www.w3.org/2000/svg">
<path fill-rule="evenodd" clip-rule="evenodd" d="M2.19725 72.0703V58.1543C2.19725 57.8127 2.5881 57.4218 2.92952 57.4218H16.8455C17.1871 57.4218 17.578 57.8127 17.578 58.1543V72.0703C17.578 72.4119 17.1871 72.8028 16.8455 72.8028H2.92952C2.5881 72.8028 2.19725 72.4119 2.19725 72.0703ZM41.0154 58.5938C41.0154 57.1865 43.0662 57.1865 43.0662 58.5938C43.0662 60.0008 41.0154 60.0008 41.0154 58.5938ZM26.66 47.1679V27.8321C26.66 27.1234 27.1234 26.6602 27.8319 26.6602H47.1679C47.8764 26.6602 48.3396 27.1234 48.3396 27.8321V47.1679C48.3396 47.8766 47.8764 48.3398 47.1679 48.3398H27.8319C27.1234 48.3398 26.66 47.8766 26.66 47.1679ZM18.7499 42.1875C18.7499 40.7803 20.8007 40.7803 20.8007 42.1875C20.8007 43.5946 18.7499 43.5946 18.7499 42.1875ZM59.1796 33.6914C57.4157 33.6914 57.4157 31.6405 59.1796 31.6405C60.2387 31.6405 60.2387 33.6914 59.1796 33.6914ZM32.8125 16.9923C32.8125 15.5851 34.8631 15.5851 34.8631 16.9923C34.8631 18.3993 32.8125 18.3993 32.8125 16.9923ZM57.4216 16.8457V2.92972C57.4216 2.58809 57.8125 2.19724 58.1541 2.19724H72.0701C72.4117 2.19724 72.8026 2.58809 72.8026 2.92972V16.8457C72.8026 17.1873 72.4117 17.5782 72.0701 17.5782H58.1541C57.8125 17.5782 57.4216 17.1873 57.4216 16.8457ZM0 2.63669V17.1387C0 18.49 1.28546 19.7754 2.6367 19.7754H8.78899V35.3027C8.78899 36.0113 9.2522 36.4747 9.96092 36.4747H24.3163V41.0156H22.8514C22.3881 39.0274 19.2384 37.9621 17.3942 39.8065C16.1172 41.0835 16.1172 43.2915 17.3942 44.5685C19.2384 46.4127 22.3881 45.3475 22.8514 43.3592H24.3163V47.0215C24.3163 49.1152 25.8846 50.6835 27.9783 50.6835H32.6659V63.5741H19.7752V57.8613C19.7752 56.51 18.4898 55.2246 17.1385 55.2246H2.6367C1.28546 55.2246 0 56.51 0 57.8613V72.3633C0 73.7143 1.28546 75 2.6367 75H17.1385C18.4898 75 19.7752 73.7143 19.7752 72.3633V65.918H33.6914C34.4888 65.918 35.0097 65.397 35.0097 64.5996V50.6835H40.869V55.5176C38.8807 55.9808 37.8155 59.1306 39.6599 60.9748C42.5253 63.8402 47.188 59.9212 44.7281 56.6391C44.3646 56.154 43.846 55.6651 43.2128 55.5176V50.6835H47.0213C49.1152 50.6835 50.6835 49.1152 50.6835 47.0215V39.6972H64.0136V55.2246H57.8611C56.5101 55.2246 55.2244 56.51 55.2244 57.8613C55.2244 58.8857 54.8062 62.1094 56.1033 62.1094C57.8759 62.1094 57.4216 60.2578 57.4216 57.8613C57.7236 57.6593 57.8019 57.4218 58.1541 57.4218H72.0701C72.4117 57.4218 72.8026 57.8127 72.8026 58.1543V72.0703C72.8026 72.4119 72.4117 72.8028 72.0701 72.8028H58.1541C57.8019 72.8028 57.7236 72.5653 57.4216 72.3633C57.4216 70.8983 57.4216 69.4336 57.4216 67.9686C57.4216 66.5853 57.7669 64.453 56.3963 64.453C55.6878 64.453 55.2244 64.9164 55.2244 65.6249V72.3633C55.2244 73.7143 56.5101 75 57.8611 75H72.3631C73.7143 75 74.9998 73.7143 74.9998 72.3633V57.8613C74.9998 56.51 73.7143 55.2246 72.3631 55.2246H66.2108V38.3789C66.2108 38.0262 65.6846 37.5 65.3319 37.5H50.6835V33.838H55.5174C56.1167 33.838 56.6403 36.0352 58.8866 36.0352C60.8222 36.0352 62.2558 34.6309 62.2558 32.373C62.2558 29.6054 58.1526 28.0252 56.2283 30.7402C55.9643 31.1128 55.9923 31.4941 55.5174 31.4941H50.6835C50.6835 28.8281 51.3184 24.3165 47.0213 24.3165H43.2128V10.9864H55.2244V17.1387C55.2244 18.49 56.5101 19.7754 57.8611 19.7754H72.3631C73.7143 19.7754 74.9998 18.49 74.9998 17.1387V2.63669C74.9998 1.28566 73.7143 0 72.3631 0H57.8611C56.5101 0 55.2244 1.28566 55.2244 2.63669V8.78919H42.0409C41.3324 8.78919 40.869 9.2524 40.869 9.96091V24.3165H35.0097V20.0684C36.7926 19.653 38.1444 16.729 36.2899 14.6866C34.3297 12.5278 30.4686 14.0191 30.4686 16.9923C30.4686 18.3637 31.5616 19.8111 32.6659 20.0684V24.3165H27.9783C25.8846 24.3165 24.3163 25.8846 24.3163 27.9785V34.1308H10.9862V19.7754H17.1385C18.4898 19.7754 19.7752 18.49 19.7752 17.1387C19.7752 15.3727 20.1769 12.8906 18.7499 12.8906C17.1394 12.8906 17.578 15.0196 17.578 17.1387C17.2762 17.3407 17.1977 17.5782 16.8455 17.5782H2.92952C2.5881 17.5782 2.19725 17.1873 2.19725 16.8457V2.92972C2.19725 2.58809 2.5881 2.19724 2.92952 2.19724H16.8455C17.1977 2.19724 17.2762 2.43468 17.578 2.63669C17.578 3.49034 17.3664 9.45567 17.7708 10.0611C18.3798 10.9726 19.7752 10.5217 19.7752 9.37504V2.63669C19.7752 1.28566 18.4898 0 17.1385 0H2.6367C1.28546 0 0 1.28566 0 2.63669Z" fill="#092C42"/>
<path fill-rule="evenodd" clip-rule="evenodd" d="M28.7109 30.4683V44.5306C28.7109 45.5744 29.663 46.2884 30.7618 46.2884H44.2383C45.5199 46.2884 46.2891 45.5193 46.2891 44.2378V30.4683C46.2891 28.3385 43.5871 28.7105 42.3339 28.7105C40.6297 28.7105 40.6297 31.0541 42.3339 31.0541H43.9452V43.9448H31.0546V31.0541H37.3535C39.0576 31.0541 39.0576 28.7105 37.3535 28.7105H30.4687C29.5888 28.7105 28.7109 29.5883 28.7109 30.4683Z" fill="#092C42"/>
<path fill-rule="evenodd" clip-rule="evenodd" d="M6.59178 6.59298H13.1835V13.1847H6.59178V6.59298ZM4.39453 5.86048V13.917C4.39453 14.6535 5.12278 15.3819 5.8593 15.3819H13.916C14.6523 15.3819 15.3808 14.6535 15.3808 13.917V5.86048C15.3808 5.12396 14.6523 4.39551 13.916 4.39551H5.8593C5.12278 4.39551 4.39453 5.12396 4.39453 5.86048Z" fill="#092C42"/>
<path fill-rule="evenodd" clip-rule="evenodd" d="M61.8161 6.59298H68.4078V13.1847H61.8161V6.59298ZM59.6187 5.86048V13.917C59.6187 14.6535 60.3471 15.3819 61.0836 15.3819H69.1401C69.8766 15.3819 70.6051 14.6535 70.6051 13.917V5.86048C70.6051 5.12396 69.8766 4.39551 69.1401 4.39551H61.0836C60.3471 4.39551 59.6187 5.12396 59.6187 5.86048Z" fill="#092C42"/>
<path fill-rule="evenodd" clip-rule="evenodd" d="M6.59178 61.8164H13.1835V68.4081H6.59178V61.8164ZM4.39453 61.0839V69.1406C4.39453 69.8771 5.12278 70.6056 5.8593 70.6056H13.916C14.6523 70.6056 15.3808 69.8771 15.3808 69.1406V61.0839C15.3808 60.3476 14.6523 59.6191 13.916 59.6191H5.8593C5.12278 59.6191 4.39453 60.3476 4.39453 61.0839Z" fill="#092C42"/>
<path fill-rule="evenodd" clip-rule="evenodd" d="M61.8161 61.8164H68.4078V68.4081H61.8161V61.8164ZM59.6187 61.0839V69.1406C59.6187 69.8771 60.3471 70.6056 61.0836 70.6056H69.1401C69.8766 70.6056 70.6051 69.8771 70.6051 69.1406V61.0839C70.6051 60.3476 69.8766 59.6191 69.1401 59.6191H61.0836C60.3471 59.6191 59.6187 60.3476 59.6187 61.0839Z" fill="#092C42"/>
</svg>
