<svg width="22" height="24" viewBox="0 0 22 24" fill="none" xmlns="http://www.w3.org/2000/svg">
<path fill-rule="evenodd" clip-rule="evenodd" d="M15.1795 0.875H6.65449C3.12332 0.875 0.260742 3.88824 0.260742 7.60526V16.5789C0.260742 20.296 3.12332 23.3092 6.65449 23.3092H15.1795C18.7107 23.3092 21.5732 20.296 21.5732 16.5789V7.60526C21.5732 3.88824 18.7107 0.875 15.1795 0.875ZM2.392 7.60526C2.392 5.12724 4.30038 3.11841 6.6545 3.11841H15.1795C17.5336 3.11841 19.442 5.12724 19.442 7.60526V16.5789C19.442 19.057 17.5336 21.0658 15.1795 21.0658H6.6545C4.30038 21.0658 2.392 19.057 2.392 16.5789V7.60526ZM10.917 17.7007C7.97435 17.7007 5.58887 15.1896 5.58887 12.0921C5.58887 8.99459 7.97435 6.48355 10.917 6.48355C13.8596 6.48355 16.2451 8.99459 16.2451 12.0921C16.2451 15.1896 13.8596 17.7007 10.917 17.7007ZM10.917 15.4572C12.6826 15.4572 14.1139 13.9506 14.1139 12.0921C14.1139 10.2336 12.6826 8.72696 10.917 8.72696C9.15141 8.72696 7.72012 10.2336 7.72012 12.0921C7.72012 13.9506 9.15141 15.4572 10.917 15.4572ZM16.2451 7.60527C16.8337 7.60527 17.3108 7.10306 17.3108 6.48356C17.3108 5.86405 16.8337 5.36185 16.2451 5.36185C15.6566 5.36185 15.1795 5.86405 15.1795 6.48356C15.1795 7.10306 15.6566 7.60527 16.2451 7.60527Z" fill="#262626"/>
</svg>
