<svg width="249" height="200" viewBox="0 0 249 200" fill="none" xmlns="http://www.w3.org/2000/svg">
<path d="M24.4095 60.5878C18.3528 59.3717 13.8432 53.968 13.9527 47.5699C14.0761 40.3568 20.0238 34.6267 27.2229 34.7518C31.7766 34.8331 35.742 37.2348 38.0146 40.8111C40.1513 37.7739 42.372 34.6508 44.6492 31.4921C44.5311 31.3637 44.4117 31.2367 44.2909 31.1109L46.4058 29.0639C43.9914 26.5605 41.0836 24.5181 37.8409 23.0958V23.1091L37.4972 23.8845L36.6514 25.7931C33.8228 24.548 30.7035 23.8325 27.4168 23.7725L27.4696 20.8207C23.848 20.7564 20.3675 21.411 17.1866 22.6605L18.2616 25.4098C15.2656 26.5649 12.5693 28.3185 10.2959 30.5028L8.25166 28.3872C5.74911 30.8041 3.70484 33.7085 2.28618 36.9484L4.98258 38.1381C3.73137 40.9692 3.01758 44.0886 2.9559 47.3761L0.00400614 47.325C-0.0576749 50.944 0.594434 54.4253 1.85444 57.601L4.59492 56.5331C5.74915 59.5273 7.50269 62.2201 9.68791 64.4952L7.5732 66.5378C9.98756 69.0544 12.8953 71.0836 16.138 72.5102L16.1469 72.4838L16.931 70.7091L17.3276 69.8121C17.569 69.9185 17.8126 70.021 18.0584 70.1195C19.6936 67.6379 21.8506 64.3883 24.4095 60.5878Z" fill="#DADFE3"/>
<path d="M93.0101 199.591C53.2347 197.454 -11.6359 138.483 9.785 94.5934C20.1738 75.5481 32.51 61.1992 51.2522 32.1968C73.0256 -1.51365 134.522 -10.9349 172.526 14.4186C232.286 54.2795 239.441 105.71 230.012 134.239C217.509 172.08 175.143 204.004 93.0101 199.591Z" fill="#DADFE3" fill-opacity="0.5"/>
<path d="M181.998 138.271C180.985 140.064 179.91 141.814 178.755 143.511C169.618 156.959 156.242 167.305 140.557 172.587H140.549C133.834 174.854 126.697 176.189 119.286 176.44C118.643 176.465 118 176.482 117.348 176.482C117.119 176.491 116.89 176.491 116.66 176.491C116.467 176.491 116.273 176.491 116.07 176.482C115.392 176.482 114.713 176.465 114.043 176.44C107.717 176.224 101.593 175.224 95.7506 173.522C78.7795 168.589 64.2844 157.803 54.5741 143.511C53.4198 141.814 52.3449 140.064 51.3315 138.271C45.5863 128.115 42.1587 116.495 41.7269 104.123C41.6916 103.258 41.6828 102.383 41.6828 101.503C41.6828 100.629 41.6916 99.7544 41.7269 98.8882C42.1323 86.8886 45.3837 75.6036 50.8116 65.6677C51.7897 63.8745 52.8383 62.1299 53.9573 60.4275C63.6588 45.661 78.4358 34.5145 95.7858 29.4813C101.61 27.7877 107.726 26.7841 114.043 26.5691C114.713 26.547 115.392 26.525 116.07 26.525C116.273 26.5215 116.467 26.5215 116.66 26.5215C116.89 26.5215 117.119 26.5215 117.348 26.525C118 26.525 118.643 26.547 119.286 26.5691C126.697 26.8228 133.834 28.1586 140.549 30.425H140.557C156.603 35.8282 170.235 46.5228 179.372 60.4275C180.491 62.1299 181.54 63.8745 182.518 65.6677C187.946 75.6036 191.198 86.8886 191.603 98.8882C191.638 99.7544 191.647 100.629 191.647 101.503C191.647 102.383 191.638 103.258 191.603 104.123C191.171 116.495 187.743 128.115 181.998 138.271ZM188.422 65.6677C187.532 63.8833 186.571 62.1343 185.549 60.4275C171.653 37.2072 146.347 21.5614 117.436 21.29C117.172 21.2812 116.916 21.2813 116.66 21.2813C116.449 21.2813 116.229 21.2812 116.017 21.29C87.0536 21.5182 61.6938 37.1772 47.7804 60.4275C46.7582 62.1343 45.7979 63.8833 44.9078 65.6677C39.4888 76.4566 36.4399 88.6333 36.4399 101.503C36.4399 114.749 39.6651 127.254 45.3749 138.271C46.3001 140.059 47.287 141.805 48.3356 143.511C62.3636 166.236 87.3973 181.476 115.955 181.722C116.185 181.727 116.431 181.727 116.66 181.727C116.916 181.727 117.172 181.727 117.436 181.722C145.959 181.459 170.975 166.223 184.985 143.511C186.034 141.805 187.03 140.059 187.955 138.271C193.665 127.254 196.89 114.749 196.89 101.503C196.89 88.6333 193.841 76.4566 188.422 65.6677Z" fill="#3B3261"/>
<path d="M39.0571 104.123H194.267V98.8838H39.0571V104.123Z" fill="#DADFE3"/>
<path d="M188.422 65.6689H44.9077C45.7978 63.8846 46.7581 62.1355 47.7803 60.4287H185.549C186.571 62.1355 187.532 63.8846 188.422 65.6689Z" fill="#DADFE3"/>
<path d="M187.955 138.271C187.03 140.059 186.034 141.805 184.985 143.511H48.3357C47.2871 141.805 46.3002 140.059 45.375 138.271H187.955Z" fill="#DADFE3"/>
<path d="M181.998 138.271C180.985 140.064 179.91 141.814 178.755 143.511C169.618 156.959 156.242 167.305 140.557 172.587H140.549C133.834 174.854 126.697 176.189 119.286 176.44C118.643 176.465 118 176.482 117.348 176.482C117.119 176.491 116.89 176.491 116.66 176.491C116.467 176.491 116.273 176.491 116.07 176.482C115.392 176.482 114.713 176.465 114.043 176.44C107.717 176.224 101.593 175.224 95.7506 173.522C78.7795 168.589 64.2844 157.803 54.5741 143.511C53.4198 141.814 52.3449 140.064 51.3315 138.271C45.5863 128.115 42.1587 116.495 41.7269 104.123C41.6916 103.258 41.6828 102.383 41.6828 101.503C41.6828 100.629 41.6916 99.7544 41.7269 98.8882C42.1323 86.8886 45.3837 75.6036 50.8116 65.6677C51.7897 63.8745 52.8383 62.1299 53.9573 60.4275C63.6588 45.661 78.4358 34.5145 95.7858 29.4813C101.61 27.7877 107.726 26.7841 114.043 26.5691C114.713 26.547 115.392 26.525 116.07 26.525C116.273 26.5215 116.467 26.5215 116.66 26.5215C116.89 26.5215 117.119 26.5215 117.348 26.525C118 26.525 118.643 26.547 119.286 26.5691C126.697 26.8228 133.834 28.1586 140.549 30.425H140.557C156.603 35.8282 170.235 46.5228 179.372 60.4275C180.491 62.1299 181.54 63.8745 182.518 65.6677C187.946 75.6036 191.198 86.8886 191.603 98.8882C191.638 99.7544 191.647 100.629 191.647 101.503C191.647 102.383 191.638 103.258 191.603 104.123C191.171 116.495 187.743 128.115 181.998 138.271ZM188.422 65.6677C187.532 63.8833 186.571 62.1343 185.549 60.4275C171.653 37.2072 146.347 21.5614 117.436 21.29C117.172 21.2812 116.916 21.2813 116.66 21.2813C116.449 21.2813 116.229 21.2812 116.017 21.29C87.0536 21.5182 61.6938 37.1772 47.7804 60.4275C46.7582 62.1343 45.7979 63.8833 44.9078 65.6677C39.4888 76.4566 36.4399 88.6333 36.4399 101.503C36.4399 114.749 39.6651 127.254 45.3749 138.271C46.3001 140.059 47.287 141.805 48.3356 143.511C62.3636 166.236 87.3973 181.476 115.955 181.722C116.185 181.727 116.431 181.727 116.66 181.727C116.916 181.727 117.172 181.727 117.436 181.722C145.959 181.459 170.975 166.223 184.985 143.511C186.034 141.805 187.03 140.059 187.955 138.271C193.665 127.254 196.89 114.749 196.89 101.503C196.89 88.6333 193.841 76.4566 188.422 65.6677Z" fill="#DADFE3"/>
<path d="M114.043 179.111H119.283V23.9014H114.043V179.111Z" fill="#DADFE3"/>
<path d="M72.6904 101.503C72.6904 80.7954 76.453 61.4487 83.282 47.0312C91.2565 30.1835 102.8 21.2812 116.669 21.2812V26.5215C91.2301 26.5215 77.9245 64.2411 77.9245 101.503C77.9245 138.767 91.2301 176.486 116.669 176.486V181.727C86.4542 181.727 72.6904 140.141 72.6904 101.503Z" fill="#DADFE3"/>
<path d="M116.669 181.727V176.486C145.985 176.486 159.344 137.62 159.344 101.503C159.344 65.391 145.985 26.5215 116.669 26.5215V21.2812C149.581 21.2812 164.578 62.8665 164.578 101.503C164.578 140.141 149.581 181.727 116.669 181.727Z" fill="#DADFE3"/>
<path d="M116.281 165.956C99.1692 165.956 83.0881 159.294 70.9898 147.195C58.8916 135.1 52.23 119.01 52.23 101.904C52.23 82.7347 60.7067 64.7319 75.5013 52.5076L75.7922 52.8653C61.1121 64.9988 52.6881 82.8766 52.6881 101.904C52.6881 136.966 81.2201 165.49 116.281 165.49C151.342 165.49 179.874 136.966 179.874 101.904C179.874 66.8395 151.342 38.3148 116.281 38.3148V37.8496C133.393 37.8496 149.474 44.5102 161.573 56.6103C173.671 68.7094 180.333 84.794 180.333 101.904C180.333 119.01 173.671 135.1 161.573 147.195C149.474 159.294 133.393 165.956 116.281 165.956Z" fill="#0096ED"/>
<path d="M117.057 126.601V126.14C130.045 126.14 140.619 115.566 140.619 102.569C140.619 89.5742 130.045 79.0004 117.057 79.0004C104.06 79.0004 93.4859 89.5742 93.4859 102.569C93.4859 107.874 95.2042 112.881 98.4557 117.051L98.0945 117.34C94.7725 113.084 93.019 107.977 93.019 102.569C93.019 89.3204 103.795 78.5352 117.057 78.5352C130.301 78.5352 141.086 89.3204 141.086 102.569C141.086 115.819 130.301 126.601 117.057 126.601Z" fill="#0096ED"/>
<path d="M117.057 133.725C99.8746 133.725 85.8994 119.747 85.8994 102.567H86.3577C86.3577 119.488 100.13 133.26 117.057 133.26V133.725Z" fill="#0096ED"/>
<path d="M148.206 102.569H147.748C147.748 85.6436 133.975 71.8774 117.057 71.8774V71.4121C134.231 71.4121 148.206 85.3899 148.206 102.569Z" fill="#0096ED"/>
<path d="M88.7896 128.258C82.3836 121.216 78.8589 112.09 78.8589 102.568C78.8589 81.5063 95.9886 64.374 117.057 64.374C126.9 64.374 136.257 68.11 143.377 74.8966L143.06 75.2324C136.02 68.5278 126.785 64.8357 117.057 64.8357C96.253 64.8357 79.326 81.7644 79.326 102.568C79.326 111.974 82.8065 120.988 89.1333 127.943L88.7896 128.258Z" fill="#0096ED"/>
<path d="M117.057 147.553C92.2434 147.553 72.0649 127.37 72.0649 102.568C72.0649 90.4091 76.8409 79.0202 85.5114 70.4932L85.8375 70.8254C77.2638 79.2617 72.532 90.5334 72.532 102.568C72.532 127.115 92.5078 147.088 117.057 147.088V147.553Z" fill="#0096ED"/>
<path d="M151.766 131.18L151.405 130.882C157.96 122.941 161.573 112.885 161.573 102.569C161.573 78.0216 141.597 58.0503 117.057 58.0503V57.585C141.853 57.585 162.04 77.7634 162.04 102.569C162.04 112.992 158.383 123.153 151.766 131.18Z" fill="#0096ED"/>
<path d="M117.057 155.092C101.839 155.092 87.3971 148.505 77.4048 137.021L77.7572 136.715C87.6527 148.099 101.98 154.628 117.057 154.628C145.756 154.628 169.116 131.274 169.116 102.567H169.574C169.574 131.532 146.02 155.092 117.057 155.092Z" fill="#0096ED"/>
<path d="M65.0074 101.917H64.5493C64.5493 87.9212 70.0124 74.8483 79.9255 65.0974C89.8033 55.3897 102.985 50.042 117.057 50.042C128.935 50.042 140.135 53.9076 149.458 61.2283L149.175 61.5939C139.932 54.3384 128.821 50.5072 117.057 50.5072C88.3581 50.5072 65.0074 73.5679 65.0074 101.917Z" fill="#0096ED"/>
<path d="M117.057 119.561C107.681 119.561 100.06 111.938 100.06 102.566C100.06 93.195 107.681 85.5723 117.057 85.5723C126.424 85.5723 134.046 93.195 134.046 102.566H133.579C133.579 93.4532 126.168 86.0375 117.057 86.0375C107.937 86.0375 100.526 93.4532 100.526 102.566C100.526 111.68 107.937 119.095 117.057 119.095C120.705 119.095 124.159 117.927 127.058 115.722L127.34 116.092C124.362 118.358 120.802 119.561 117.057 119.561Z" fill="#0096ED"/>
<path d="M128.027 113.767C127.049 113.767 126.239 114.569 126.239 115.56C126.239 116.547 127.049 117.348 128.027 117.348C129.014 117.348 129.816 116.547 129.816 115.56C129.816 114.569 129.014 113.767 128.027 113.767ZM128.027 117.813C126.785 117.813 125.771 116.801 125.771 115.56C125.771 114.314 126.785 113.303 128.027 113.303C129.27 113.303 130.283 114.314 130.283 115.56C130.283 116.801 129.27 117.813 128.027 117.813Z" fill="#0096ED"/>
<path d="M133.728 102.608C132.741 102.608 131.948 103.41 131.948 104.397C131.948 105.383 132.741 106.189 133.728 106.189C134.715 106.189 135.526 105.383 135.526 104.397C135.526 103.41 134.715 102.608 133.728 102.608ZM133.728 106.654C132.495 106.654 131.481 105.642 131.481 104.397C131.481 103.155 132.495 102.143 133.728 102.143C134.98 102.143 135.993 103.155 135.993 104.397C135.993 105.642 134.98 106.654 133.728 106.654Z" fill="#0096ED"/>
<path d="M148.047 102.251C147.06 102.251 146.259 103.057 146.259 104.044C146.259 105.03 147.06 105.831 148.047 105.831C149.034 105.831 149.845 105.03 149.845 104.044C149.845 103.057 149.034 102.251 148.047 102.251ZM148.047 106.297C146.814 106.297 145.8 105.284 145.8 104.044C145.8 102.799 146.814 101.785 148.047 101.785C149.299 101.785 150.312 102.799 150.312 104.044C150.312 105.284 149.299 106.297 148.047 106.297Z" fill="#0096ED"/>
<path d="M152.471 114.431C151.484 114.431 150.682 115.233 150.682 116.224C150.682 117.211 151.484 118.012 152.471 118.012C153.457 118.012 154.259 117.211 154.259 116.224C154.259 115.233 153.457 114.431 152.471 114.431ZM152.471 118.477C151.228 118.477 150.215 117.465 150.215 116.224C150.215 114.978 151.228 113.966 152.471 113.966C153.713 113.966 154.718 114.978 154.718 116.224C154.718 117.465 153.713 118.477 152.471 118.477Z" fill="#0096ED"/>
<path d="M150.752 130.385C149.765 130.385 148.972 131.191 148.972 132.178C148.972 133.164 149.765 133.966 150.752 133.966C151.739 133.966 152.55 133.164 152.55 132.178C152.55 131.191 151.739 130.385 150.752 130.385ZM150.752 134.432C149.519 134.432 148.505 133.419 148.505 132.178C148.505 130.932 149.519 129.92 150.752 129.92C152.004 129.92 153.017 130.932 153.017 132.178C153.017 133.419 152.004 134.432 150.752 134.432Z" fill="#0096ED"/>
<path d="M169.371 98.7866C168.384 98.7866 167.582 99.5875 167.582 100.574C167.582 101.561 168.384 102.362 169.371 102.362C170.358 102.362 171.16 101.561 171.16 100.574C171.16 99.5875 170.358 98.7866 169.371 98.7866ZM169.371 102.828C168.129 102.828 167.115 101.82 167.115 100.574C167.115 99.3337 168.129 98.3213 169.371 98.3213C170.613 98.3213 171.627 99.3337 171.627 100.574C171.627 101.82 170.613 102.828 169.371 102.828Z" fill="#0096ED"/>
<path d="M143.826 74.2826C142.84 74.2826 142.038 75.0835 142.038 76.0704C142.038 77.0573 142.84 77.8627 143.826 77.8627C144.813 77.8627 145.615 77.0573 145.615 76.0704C145.615 75.0835 144.813 74.2826 143.826 74.2826ZM143.826 78.3279C142.584 78.3279 141.571 77.3155 141.571 76.0704C141.571 74.8298 142.584 73.8164 143.826 73.8164C145.069 73.8164 146.082 74.8298 146.082 76.0704C146.082 77.3155 145.069 78.3279 143.826 78.3279Z" fill="#0096ED"/>
<path d="M150.47 61.0775C149.483 61.0775 148.681 61.8794 148.681 62.8663C148.681 63.8532 149.483 64.6586 150.47 64.6586C151.457 64.6586 152.268 63.8532 152.268 62.8663C152.268 61.8794 151.457 61.0775 150.47 61.0775ZM150.47 65.1238C149.228 65.1238 148.214 64.1114 148.214 62.8663C148.214 61.6247 149.228 60.6123 150.47 60.6123C151.721 60.6123 152.726 61.6247 152.726 62.8663C152.726 64.1114 151.721 65.1238 150.47 65.1238Z" fill="#0096ED"/>
<path d="M115.999 56.3305C115.013 56.3305 114.211 57.1315 114.211 58.1183C114.211 59.1052 115.013 59.9107 115.999 59.9107C116.986 59.9107 117.788 59.1052 117.788 58.1183C117.788 57.1315 116.986 56.3305 115.999 56.3305ZM115.999 60.3759C114.748 60.3759 113.744 59.3635 113.744 58.1183C113.744 56.8778 114.748 55.8652 115.999 55.8652C117.242 55.8652 118.246 56.8778 118.246 58.1183C118.246 59.3635 117.242 60.3759 115.999 60.3759Z" fill="#0096ED"/>
<path d="M114.351 36.3803C113.364 36.3803 112.563 37.1813 112.563 38.1682C112.563 39.1551 113.364 39.9613 114.351 39.9613C115.338 39.9613 116.14 39.1551 116.14 38.1682C116.14 37.1813 115.338 36.3803 114.351 36.3803ZM114.351 40.4265C113.109 40.4265 112.096 39.4141 112.096 38.1682C112.096 36.9274 113.109 35.915 114.351 35.915C115.594 35.915 116.607 36.9274 116.607 38.1682C116.607 39.4141 115.594 40.4265 114.351 40.4265Z" fill="#0096ED"/>
<path d="M76.6824 49.6459C75.6956 49.6459 74.8937 50.4521 74.8937 51.439C74.8937 52.4259 75.6956 53.227 76.6824 53.227C77.6693 53.227 78.4712 52.4259 78.4712 51.439C78.4712 50.4521 77.6693 49.6459 76.6824 49.6459ZM76.6824 53.6922C75.44 53.6922 74.4268 52.6797 74.4268 51.439C74.4268 50.1931 75.44 49.1807 76.6824 49.1807C77.9249 49.1807 78.9382 50.1931 78.9382 51.439C78.9382 52.6797 77.9249 53.6922 76.6824 53.6922Z" fill="#0096ED"/>
<path d="M86.1723 68.1058C85.1854 68.1058 84.3836 68.9068 84.3836 69.8937C84.3836 70.885 85.1854 71.6869 86.1723 71.6869C87.1592 71.6869 87.9611 70.885 87.9611 69.8937C87.9611 68.9068 87.1592 68.1058 86.1723 68.1058ZM86.1723 72.1521C84.9299 72.1521 83.9165 71.1397 83.9165 69.8937C83.9165 68.653 84.9299 67.6406 86.1723 67.6406C87.4147 67.6406 88.428 68.653 88.428 69.8937C88.428 71.1397 87.4147 72.1521 86.1723 72.1521Z" fill="#0096ED"/>
<path d="M114.951 69.6274C113.964 69.6274 113.162 70.4293 113.162 71.4162C113.162 72.4022 113.964 73.204 114.951 73.204C115.938 73.204 116.74 72.4022 116.74 71.4162C116.74 70.4293 115.938 69.6274 114.951 69.6274ZM114.951 73.6693C113.709 73.6693 112.695 72.6613 112.695 71.4162C112.695 70.1746 113.709 69.1621 114.951 69.1621C116.194 69.1621 117.207 70.1746 117.207 71.4162C117.207 72.6613 116.194 73.6693 114.951 73.6693Z" fill="#0096ED"/>
<path d="M86.2694 99.1634C85.2825 99.1634 84.4807 99.9653 84.4807 100.952C84.4807 101.938 85.2825 102.744 86.2694 102.744C87.2563 102.744 88.0582 101.938 88.0582 100.952C88.0582 99.9653 87.2563 99.1634 86.2694 99.1634ZM86.2694 103.21C85.0269 103.21 84.0137 102.197 84.0137 100.952C84.0137 99.7107 85.0269 98.6982 86.2694 98.6982C87.5118 98.6982 88.5252 99.7107 88.5252 100.952C88.5252 102.197 87.5118 103.21 86.2694 103.21Z" fill="#0096ED"/>
<path d="M64.9897 102.011C64.0028 102.011 63.2097 102.813 63.2097 103.804C63.2097 104.791 64.0028 105.592 64.9897 105.592C65.9766 105.592 66.7873 104.791 66.7873 103.804C66.7873 102.813 65.9766 102.011 64.9897 102.011ZM64.9897 106.057C63.7561 106.057 62.7427 105.045 62.7427 103.804C62.7427 102.558 63.7561 101.546 64.9897 101.546C66.2409 101.546 67.2542 102.558 67.2542 103.804C67.2542 105.045 66.2409 106.057 64.9897 106.057Z" fill="#0096ED"/>
<path d="M99.2752 116.163C98.2883 116.163 97.4864 116.969 97.4864 117.955C97.4864 118.942 98.2883 119.744 99.2752 119.744C100.262 119.744 101.073 118.942 101.073 117.955C101.073 116.969 100.262 116.163 99.2752 116.163ZM99.2752 120.209C98.0416 120.209 97.0283 119.196 97.0283 117.955C97.0283 116.71 98.0416 115.697 99.2752 115.697C100.526 115.697 101.54 116.71 101.54 117.955C101.54 119.196 100.526 120.209 99.2752 120.209Z" fill="#0096ED"/>
<path d="M90.349 127.847C89.3621 127.847 88.5602 128.648 88.5602 129.635C88.5602 130.622 89.3621 131.424 90.349 131.424C91.3359 131.424 92.1465 130.622 92.1465 129.635C92.1465 128.648 91.3359 127.847 90.349 127.847ZM90.349 131.889C89.1065 131.889 88.0933 130.88 88.0933 129.635C88.0933 128.39 89.1065 127.382 90.349 127.382C91.5915 127.382 92.6047 128.39 92.6047 129.635C92.6047 130.88 91.5915 131.889 90.349 131.889Z" fill="#0096ED"/>
<path d="M100.042 134.404C99.0549 134.404 98.253 135.205 98.253 136.191C98.253 137.178 99.0549 137.979 100.042 137.979C101.029 137.979 101.831 137.178 101.831 136.191C101.831 135.205 101.029 134.404 100.042 134.404ZM100.042 138.445C98.7994 138.445 97.7861 137.437 97.7861 136.191C97.7861 134.946 98.7994 133.938 100.042 133.938C101.284 133.938 102.298 134.946 102.298 136.191C102.298 137.437 101.284 138.445 100.042 138.445Z" fill="#0096ED"/>
<path d="M76.1098 133.353C75.1229 133.353 74.321 134.155 74.321 135.142C74.321 136.129 75.1229 136.934 76.1098 136.934C77.0967 136.934 77.8986 136.129 77.8986 135.142C77.8986 134.155 77.0967 133.353 76.1098 133.353ZM76.1098 137.399C74.8674 137.399 73.854 136.387 73.854 135.142C73.854 133.9 74.8674 132.888 76.1098 132.888C77.3522 132.888 78.3567 133.9 78.3567 135.142C78.3567 136.387 77.3522 137.399 76.1098 137.399Z" fill="#0096ED"/>
<path d="M116.651 140.763C111.585 140.763 106.448 139.75 101.513 137.613L101.698 137.187C120.793 145.459 143.051 136.661 151.325 117.572L151.748 117.757C145.509 132.149 131.42 140.763 116.651 140.763Z" fill="#0096ED"/>
<path d="M117.638 123.697C116.396 123.697 115.383 124.705 115.383 125.95C115.383 127.196 116.396 128.208 117.638 128.208C118.881 128.208 119.894 127.196 119.894 125.95C119.894 124.705 118.881 123.697 117.638 123.697ZM117.638 128.674C116.14 128.674 114.916 127.454 114.916 125.95C114.916 124.451 116.14 123.231 117.638 123.231C119.136 123.231 120.361 124.451 120.361 125.95C120.361 127.454 119.136 128.674 117.638 128.674Z" fill="#0096ED"/>
<path d="M127.772 102.048C127.772 108.154 122.82 113.105 116.705 113.105C110.598 113.105 105.646 108.154 105.646 102.048C105.646 95.9377 110.598 90.9873 116.705 90.9873C122.82 90.9873 127.772 95.9377 127.772 102.048Z" fill="#FD7A3F"/>
<path d="M116.704 109.863C112.395 109.863 108.888 106.356 108.888 102.047C108.888 98.945 110.73 96.1314 113.567 94.8863C114.008 94.696 114.51 94.8942 114.704 95.3251C114.898 95.7604 114.695 96.2688 114.263 96.4583C112.043 97.432 110.606 99.6252 110.606 102.047C110.606 105.408 113.347 108.144 116.704 108.144C120.07 108.144 122.81 105.408 122.81 102.047C122.81 99.5089 121.277 97.2768 118.916 96.3595C118.475 96.1868 118.255 95.6917 118.431 95.2476C118.607 94.8078 119.101 94.5885 119.541 94.7612C122.564 95.9367 124.52 98.7986 124.52 102.047C124.52 106.356 121.013 109.863 116.704 109.863Z" fill="white"/>
<path d="M116.704 102.904C116.237 102.904 115.85 102.52 115.85 102.046V94.1573C115.85 93.6832 116.237 93.2998 116.704 93.2998C117.18 93.2998 117.568 93.6832 117.568 94.1573V102.046C117.568 102.52 117.18 102.904 116.704 102.904Z" fill="white"/>
<path d="M211.632 192.347L204.194 187.114L203.851 186.683C202.864 185.438 202.397 183.912 202.458 182.111C201.841 182.46 201.145 182.779 200.423 182.985L199.859 183.696L197.436 183.063C196.554 182.827 195.541 182.568 194.343 182.274C192.898 181.926 191.347 181.56 189.726 181.181C185.558 180.202 180.835 179.095 176.305 177.807L174.957 177.423L174.191 176.268L172.887 177.919L170.428 175.97C164.947 174.071 160.982 172.063 158.339 169.839C155.061 167.09 153.589 162.941 154.638 159.477C154.7 159.252 154.761 159.029 154.841 158.808C154.523 158.313 154.277 157.792 154.083 157.257C153.854 157.029 153.66 156.801 153.492 156.581L151.016 154.62L152.365 152.914C151.889 149.226 151.721 146.343 151.712 146.205L151.704 145.999L151.712 145.899C149.28 143.956 146.937 142.043 144.725 140.199L144.505 140.013L144.496 140.031L143.068 138.807L141.896 137.829L141.905 137.816L141.509 137.475C137.314 133.899 133.613 130.556 130.485 127.544L128.133 125.269C120.202 119.086 116.475 113.725 116.731 108.882C116.819 107.219 117.409 105.663 118.422 104.375C119.065 103.565 119.876 102.863 120.828 102.289L120.925 102.234L121.022 102.182C123.242 101.023 125.11 102.281 126.917 103.492C128.133 104.302 129.736 105.452 131.781 106.908C133.79 108.343 136.054 109.96 138.627 111.756L138.636 111.747L140.434 113.006L142.275 114.281L142.266 114.29C145.562 116.595 149.245 119.198 153.51 122.231L153.986 122.567V122.563L155.598 123.717C155.995 123.235 156.435 122.774 156.902 122.339C158.7 120.671 160.859 119.465 162.974 118.913C163.035 118.81 163.097 118.706 163.15 118.612C163.573 117.909 164.102 117.039 164.806 116.147C166.745 113.699 169.221 112.235 172.164 111.795C172.358 111.665 172.754 111.273 173.045 110.981C174.596 109.433 177.477 106.559 183.205 107.701L183.293 107.719L183.39 107.744C183.76 107.835 192.395 110.049 198.74 113.423L199.189 113.66L199.55 114.001C199.912 114.333 200.264 114.686 200.608 115.044C207.313 122.054 213.164 135.403 217.861 146.127C218.31 147.141 218.742 148.127 219.165 149.084C219.738 150.389 220.249 151.518 220.698 152.505C221.518 153.521 221.852 154.836 221.703 156.43C224.091 155.314 226.179 155.189 227.994 156.047L248.72 164.061C246.129 170.961 240.254 178.197 229.933 185.735C224.349 189.814 218.176 191.87 211.632 192.347Z" fill="#E7E9EC"/>
<path d="M156.348 153.998C156.348 153.998 157.291 156.493 162.04 154.274C166.79 152.055 168.385 147.905 167.028 146.66C165.68 145.414 156.956 150.361 156.348 153.998Z" fill="#0084D1"/>
<path d="M161.538 154.654C160.401 153.451 158.815 153.107 157.995 153.882C157.176 154.657 157.432 156.261 158.568 157.463C159.705 158.66 161.291 159.01 162.111 158.23C162.93 157.454 162.674 155.851 161.538 154.654Z" fill="#3D3466"/>
<path d="M161.194 150.842L157.995 153.884L162.11 158.231L165.309 155.194L161.194 150.842Z" fill="#3D3466"/>
<path d="M164.516 151.817C163.379 150.616 161.793 150.27 160.965 151.047C160.146 151.826 160.41 153.429 161.547 154.628C162.683 155.829 164.269 156.174 165.089 155.398C165.908 154.622 165.653 153.019 164.516 151.817Z" fill="#092C42"/>
<path d="M163.917 152.379C163.238 151.659 162.286 151.452 161.793 151.917C161.3 152.383 161.458 153.348 162.137 154.068C162.824 154.792 163.776 154.999 164.26 154.529C164.763 154.064 164.604 153.103 163.917 152.379Z" fill="#3D3466"/>
<path d="M163.459 152.818C163.133 152.469 162.675 152.369 162.437 152.593C162.199 152.818 162.269 153.283 162.595 153.632C162.93 153.981 163.388 154.079 163.626 153.856C163.864 153.627 163.794 153.167 163.459 152.818Z" fill="#092C42"/>
<path d="M159.44 152.504C159.44 152.504 159.317 153.986 160.665 155.291C162.005 156.601 163.837 156.592 163.837 156.592L163.141 157.251C163.141 157.251 161.661 157.7 159.934 155.925C158.198 154.153 158.771 153.141 158.771 153.141L159.44 152.504Z" fill="#092C42"/>
<path d="M175.566 159.161C175.857 159.556 176.059 160.044 176.209 160.574C176.588 161.952 176.605 163.641 177.046 164.844C177.099 164.986 177.143 165.123 177.187 165.266C177.099 166.571 176.799 167.847 176.068 168.985C175.68 169.571 175.231 170.118 174.755 170.631C174.218 171.217 173.627 171.764 172.958 172.207C172.729 172.354 172.508 172.484 172.27 172.591C167.556 170.996 163.415 169.144 160.78 166.933C158.753 165.231 157.625 162.565 158.286 160.513C159.167 157.032 161.926 154.925 165.177 153.74C165.662 153.559 166.164 153.4 166.666 153.266C168.058 153.369 172.623 156.601 175.566 159.161Z" fill="#00A1FF"/>
<path d="M172.173 148.324C169.758 147.045 166.851 147.061 164.295 147.915C162.965 148.363 161.705 149.022 160.55 149.837C159.616 150.487 158.762 151.233 157.977 152.043C157.387 152.655 156.832 153.31 156.347 153.999C155.704 149.681 155.501 145.994 155.501 145.994C155.501 145.994 155.51 145.851 155.537 145.593C155.554 145.481 155.572 145.339 155.598 145.179C155.642 144.903 155.695 144.567 155.783 144.184L155.801 144.084C155.995 143.235 156.286 142.175 156.761 141.068C158.013 138.134 160.489 134.846 165.344 134.123C171.803 133.161 172.393 142.645 172.173 148.324Z" fill="#90D7FF"/>
<path d="M156.761 141.067L164.295 147.915C162.965 148.362 161.705 149.022 160.55 149.837C160.145 148.905 158.242 144.872 155.537 145.592C155.554 145.48 155.572 145.338 155.598 145.179C155.642 144.902 155.695 144.566 155.783 144.183L155.801 144.083C155.995 143.235 156.286 142.175 156.761 141.067Z" fill="#0084D1"/>
<path d="M172.27 172.591C172.27 172.591 169.415 171.6 169.565 169.118C169.715 166.632 172.508 159.324 175.539 159.139C177.213 160.609 177.248 163.68 176.993 166.951C176.755 170.217 174.473 172.979 172.27 172.591Z" fill="#0084D1"/>
<path d="M175.566 159.161C175.856 159.556 176.059 160.044 176.209 160.574C174.896 161.202 172.878 161.957 172.843 160.677C172.781 158.812 165.379 153.877 165.177 153.74C165.661 153.559 166.164 153.4 166.666 153.266C168.058 153.369 172.623 156.601 175.566 159.161Z" fill="#0084D1"/>
<path d="M175.645 166.84C173.592 166.25 171.601 166.909 171.196 168.314C170.799 169.718 172.138 171.33 174.191 171.92C176.244 172.506 178.236 171.847 178.641 170.447C179.047 169.042 177.707 167.431 175.645 166.84Z" fill="#3D3466"/>
<path d="M172.755 162.826L171.195 168.311L178.641 170.445L180.201 164.959L172.755 162.826Z" fill="#3D3466"/>
<path d="M177.099 161.729C175.037 161.143 173.055 161.802 172.649 163.202C172.244 164.607 173.583 166.218 175.637 166.808C177.699 167.399 179.69 166.74 180.095 165.335C180.492 163.935 179.152 162.319 177.099 161.729Z" fill="#092C42"/>
<path d="M176.808 162.746C175.574 162.393 174.376 162.785 174.129 163.629C173.891 164.474 174.693 165.443 175.936 165.797C177.169 166.15 178.368 165.753 178.606 164.909C178.843 164.069 178.042 163.099 176.808 162.746Z" fill="#3D3466"/>
<path d="M176.579 163.534C175.989 163.361 175.407 163.556 175.293 163.96C175.178 164.366 175.566 164.835 176.156 165.004C176.755 165.175 177.337 164.986 177.443 164.576C177.566 164.172 177.178 163.702 176.579 163.534Z" fill="#092C42"/>
<path d="M171.9 165.832C171.9 165.832 172.737 167.556 175.09 168.129C177.451 168.697 179.478 167.487 179.478 167.487L179.143 168.676C179.143 168.676 177.786 170.154 174.693 169.318C171.609 168.478 171.574 166.978 171.574 166.978L171.9 165.832Z" fill="#092C42"/>
<path d="M134.997 120.08C133.711 119.128 133.2 117.65 133.843 116.776C134.495 115.896 136.064 115.957 137.341 116.904C138.628 117.857 139.148 119.335 138.496 120.214C137.844 121.088 136.275 121.028 134.997 120.08Z" fill="#3D3466"/>
<path d="M131.306 120.192L133.843 116.775L138.496 120.214L135.949 123.631L131.306 120.192Z" fill="#3D3466"/>
<path d="M132.627 123.263C131.349 122.311 130.829 120.833 131.481 119.954C132.125 119.079 133.693 119.139 134.98 120.087C136.257 121.04 136.777 122.517 136.125 123.397C135.473 124.271 133.913 124.211 132.627 123.263Z" fill="#092C42"/>
<path d="M133.103 122.631C132.327 122.059 132.019 121.17 132.407 120.645C132.794 120.119 133.737 120.154 134.504 120.723C135.279 121.295 135.587 122.184 135.2 122.709C134.812 123.235 133.869 123.201 133.103 122.631Z" fill="#3D3466"/>
<path d="M133.464 122.135C133.094 121.859 132.935 121.432 133.129 121.178C133.314 120.924 133.772 120.941 134.142 121.217C134.513 121.492 134.662 121.919 134.477 122.173C134.292 122.427 133.834 122.41 133.464 122.135Z" fill="#092C42"/>
<path d="M132.697 118.322C132.697 118.322 134.098 118.03 135.508 119.167C136.918 120.305 137.121 122.058 137.121 122.058L137.676 121.317C137.676 121.317 137.931 119.839 136.028 118.392C134.125 116.943 133.226 117.603 133.226 117.603L132.697 118.322Z" fill="#092C42"/>
<path d="M149.536 131.593C148.25 130.645 147.73 129.163 148.382 128.288C149.025 127.413 150.594 127.47 151.88 128.421C153.167 129.369 153.678 130.852 153.035 131.727C152.383 132.606 150.814 132.545 149.536 131.593Z" fill="#3D3466"/>
<path d="M145.844 131.709L148.382 128.288L153.035 131.726L150.488 135.148L145.844 131.709Z" fill="#3D3466"/>
<path d="M147.166 134.777C145.879 133.829 145.368 132.347 146.012 131.472C146.664 130.594 148.223 130.654 149.51 131.606C150.796 132.554 151.316 134.036 150.664 134.911C150.012 135.785 148.444 135.73 147.166 134.777Z" fill="#092C42"/>
<path d="M147.633 134.144C146.858 133.575 146.549 132.683 146.946 132.157C147.334 131.631 148.268 131.667 149.043 132.239C149.81 132.808 150.127 133.7 149.739 134.225C149.343 134.752 148.4 134.713 147.633 134.144Z" fill="#3D3466"/>
<path d="M148.003 133.652C147.624 133.376 147.475 132.945 147.66 132.69C147.854 132.437 148.303 132.454 148.682 132.729C149.052 133.005 149.202 133.436 149.008 133.691C148.823 133.944 148.373 133.928 148.003 133.652Z" fill="#092C42"/>
<path d="M147.228 129.833C147.228 129.833 148.629 129.545 150.039 130.678C151.458 131.816 151.66 133.569 151.66 133.569L152.207 132.828C152.207 132.828 152.471 131.35 150.568 129.903C148.664 128.459 147.765 129.118 147.765 129.118L147.228 129.833Z" fill="#092C42"/>
<path d="M202.388 164.927C204 166.858 204.882 169.043 204.661 171.515L198.423 179.401C197.445 179.138 196.378 178.867 195.242 178.59C190.096 177.336 183.531 175.919 177.345 174.157C175.883 171.964 175.574 164.432 177.345 162.415C175.988 160.804 174.226 159.132 172.085 157.279C170.208 155.655 168.032 153.892 165.573 151.918C167.168 151.548 170.649 152.518 172.182 152.466C179.575 153.97 196.273 157.594 202.388 164.927Z" fill="#00A1FF"/>
<path d="M196.969 116.772C197.269 117.051 197.568 117.349 197.859 117.659C204.723 124.824 210.944 139.849 215.694 150.613C216.39 152.203 217.068 153.698 217.703 155.064L198.899 178.801C197.903 178.026 196.872 177.224 195.824 176.393C188.651 170.753 180.218 163.919 172.085 157.279C169.547 155.207 167.036 153.151 164.604 151.156C163.661 150.393 162.736 149.635 161.829 148.89C159.273 146.795 156.824 144.787 154.541 142.922C154.541 142.922 149.122 137.902 155.449 131.232C155.819 130.845 156.224 130.452 156.674 130.056C156.709 129.788 156.762 129.521 156.832 129.263C157.22 127.737 158.216 126.29 159.485 125.118C161.035 123.679 162.992 122.658 164.745 122.42C166.402 122.231 167.107 116.344 172.79 115.534C176.024 115.078 176.403 110.209 182.456 111.419C182.456 111.419 190.942 113.574 196.969 116.772Z" fill="#00A1FF"/>
<path d="M136.795 115.094L130.856 122.583C123.022 116.559 120.361 112.091 120.52 109.083C120.599 107.502 121.471 106.325 122.784 105.541C123.269 105.287 128.75 109.505 136.795 115.094Z" fill="#90D7FF"/>
<path d="M178.059 144.575L169.432 154.782C169.432 154.782 167.582 153.425 164.604 151.154C160.365 147.935 153.871 142.885 147.157 137.284L154.717 127.749C155.422 128.252 156.127 128.757 156.832 129.261C157.537 129.765 158.242 130.269 158.938 130.769C169.424 138.288 178.059 144.575 178.059 144.575Z" fill="#00A1FF"/>
<path d="M151.316 125.319L143.967 134.588C140.196 131.364 136.46 128.034 133.12 124.816L139.394 116.899C143.174 119.545 147.254 122.432 151.316 125.319Z" fill="#90D7FF"/>
<path d="M217.579 154.727C219.077 155.912 215.949 162.367 210.583 169.136C205.216 175.909 199.656 180.433 198.149 179.244C196.651 178.055 199.788 171.605 205.155 164.836C210.512 158.062 216.081 153.537 217.579 154.727Z" fill="#0084D1"/>
<path d="M217.156 157.6C218.205 158.432 215.412 163.71 210.909 169.394C206.406 175.077 201.904 179.011 200.864 178.18C200.811 178.145 200.776 178.102 200.749 178.051C200.644 177.874 200.617 177.602 200.67 177.249C200.74 176.728 200.978 176.025 201.366 175.193C202.397 172.949 204.459 169.738 207.111 166.386C209.763 163.038 212.425 160.294 214.372 158.777C215.095 158.213 215.72 157.821 216.214 157.627C216.54 157.497 216.813 157.458 217.007 157.523C217.068 157.54 217.121 157.566 217.156 157.6Z" fill="#092C42"/>
<path d="M216.02 156.697L217.024 157.499L217.006 157.524C216.813 157.46 216.539 157.499 216.213 157.628C215.72 157.822 215.094 158.214 214.372 158.778C212.424 160.295 209.763 163.039 207.111 166.388C204.459 169.74 202.397 172.951 201.366 175.195C200.978 176.027 200.74 176.729 200.67 177.251C200.617 177.604 200.643 177.875 200.749 178.052L200.723 178.078L199.709 177.276C198.67 176.444 201.472 171.166 205.966 165.483C210.468 159.799 214.971 155.866 216.02 156.697Z" fill="#3D3466"/>
<path d="M213.094 171.778C210.406 169.503 209.49 166.168 211.041 164.328C212.592 162.492 216.028 162.846 218.725 165.124C221.421 167.4 222.337 170.735 220.787 172.575C219.236 174.41 215.79 174.052 213.094 171.778Z" fill="#3D3466"/>
<path d="M204.953 171.497L211.041 164.327L220.787 172.574L214.698 179.739L204.953 171.497Z" fill="#3D3466"/>
<path d="M207.429 178.451C204.732 176.172 203.816 172.84 205.367 171.001C206.918 169.165 210.363 169.519 213.051 171.798C215.747 174.073 216.672 177.408 215.112 179.244C213.562 181.084 210.116 180.726 207.429 178.451Z" fill="#092C42"/>
<path d="M208.547 177.122C206.935 175.756 206.379 173.752 207.314 172.649C208.248 171.547 210.31 171.762 211.931 173.127C213.543 174.493 214.099 176.497 213.164 177.6C212.239 178.703 210.169 178.492 208.547 177.122Z" fill="#3D3466"/>
<path d="M209.429 176.091C208.644 175.427 208.38 174.462 208.83 173.932C209.279 173.398 210.275 173.501 211.059 174.161C211.834 174.82 212.099 175.785 211.658 176.319C211.2 176.853 210.204 176.75 209.429 176.091Z" fill="#092C42"/>
<path d="M208.283 167.573C208.283 167.573 211.411 167.134 214.363 169.84C217.306 172.55 217.5 176.441 217.5 176.441L218.821 174.885C218.821 174.885 219.606 171.666 215.614 168.203C211.64 164.747 209.56 166.074 209.56 166.074L208.283 167.573Z" fill="#092C42"/>
<path d="M226.479 159.523C221.289 156.8 202.732 179.163 206.82 184.329L217.092 191.55C221.62 190.535 225.929 188.659 229.933 185.734C238.545 179.445 244.054 173.366 247.151 167.517L226.479 159.523Z" fill="#00A1FF"/>
<path d="M197.256 117.255C204.12 124.421 210.341 139.445 215.091 150.209C211.795 153.242 206.297 158.62 201.785 164.523C198.921 168.289 196.445 172.266 195.221 175.989C194.974 176.735 194.78 177.467 194.639 178.186C189.493 176.932 182.928 175.515 176.743 173.753C175.28 171.56 174.972 164.028 176.743 162.011C175.386 160.4 173.624 158.727 171.482 156.875C167.966 154.005 164.503 151.174 161.226 148.486C163.42 147.193 190.436 131.086 197.256 117.255Z" fill="#0096ED"/>
<path d="M147.862 129.671C145.536 126.216 139.482 122.756 136.125 121.023L139.394 116.899C143.174 119.545 147.254 122.432 151.316 125.319L147.862 129.671Z" fill="#0096ED"/>
<path d="M136.795 115.094L133.684 119.019C133.208 118.942 132.715 118.58 132.23 117.822C130.01 114.361 123.947 110.868 120.52 109.083C120.599 107.502 121.471 106.325 122.784 105.541C123.269 105.287 128.749 109.505 136.795 115.094Z" fill="#0096ED"/>
<path d="M159.485 125.115C159.273 126.554 159 128.756 158.938 130.768C158.894 132.156 158.956 133.448 159.212 134.34C158.26 133.439 156.736 132.224 155.449 131.23C154.471 130.462 153.625 129.828 153.272 129.57L154.718 127.748C155.423 128.251 156.128 128.756 156.832 129.26C157.22 127.735 158.216 126.287 159.485 125.115Z" fill="#0096ED"/>
<path d="M212.336 181.855C212.336 181.855 213.57 178.326 216.531 175.47C217.899 176.307 223.95 179.76 231.887 184.262C231.251 184.751 230.607 185.241 229.933 185.733C227.996 187.148 225.982 188.296 223.914 189.246L212.336 181.855Z" fill="#90D7FF"/>
<path d="M161.741 126.264C162.181 126.613 161.952 127.638 161.229 128.548C160.507 129.461 159.564 129.918 159.124 129.569C158.683 129.215 158.912 128.194 159.635 127.285C160.357 126.372 161.3 125.915 161.741 126.264Z" fill="#90D7FF"/>
<path d="M162.798 125.801C163.239 126.15 163.01 127.175 162.296 128.085C161.565 128.998 160.622 129.455 160.181 129.106C159.749 128.753 159.97 127.731 160.692 126.822C161.415 125.908 162.358 125.452 162.798 125.801Z" fill="#90D7FF"/>
<path d="M170.49 119.159C170.931 119.508 170.702 120.529 169.979 121.443C169.256 122.352 168.314 122.809 167.873 122.46C167.432 122.11 167.662 121.089 168.384 120.176C169.107 119.267 170.05 118.81 170.49 119.159Z" fill="#90D7FF"/>
<path d="M179.425 113.238C179.866 113.587 179.637 114.609 178.923 115.522C178.192 116.435 177.249 116.888 176.808 116.539C176.367 116.19 176.597 115.169 177.319 114.255C178.042 113.346 178.985 112.889 179.425 113.238Z" fill="#90D7FF"/>
</svg>
