<svg width="225" height="200" viewBox="0 0 225 200" fill="none" xmlns="http://www.w3.org/2000/svg">
<path d="M77.8532 191.506C39.4706 186.174 -18.5757 123.693 5.78757 82.9048C17.416 65.2924 30.5542 52.3999 51.0939 25.8219C74.9641 -5.07026 135.347 -9.16245 170.112 18.5306C224.767 62.0653 227.486 112.507 216.008 139.386C200.785 175.042 157.109 202.514 77.8532 191.506Z" fill="#DADFE3" fill-opacity="0.5"/>
<path d="M135.137 199.397L140.324 166.303L146.725 166.292L171.019 166.263L172.078 188.841C161.103 193.521 148.485 197.259 135.137 199.397Z" fill="#00A1FF"/>
<path d="M135.137 199.398L140.324 166.304L146.725 166.292C150.606 169.482 154.488 172.627 154.488 172.627C154.488 172.627 150.338 183.3 146.767 197.102C142.97 197.998 139.084 198.765 135.137 199.398Z" fill="#3BB7FD"/>
<path d="M155.668 172.644C147.191 172.635 140.32 169.811 140.325 166.33C140.328 162.85 147.204 160.041 155.682 160.049C164.16 160.057 171.03 162.883 171.026 166.363C171.022 169.844 164.147 172.652 155.668 172.644Z" fill="#0096ED"/>
<path d="M155.67 171.084C148.731 171.076 143.109 168.856 143.112 166.125C143.115 163.391 148.742 161.182 155.681 161.19C162.62 161.199 168.242 163.42 168.239 166.15C168.236 168.884 162.609 171.093 155.67 171.084Z" fill="#092C42"/>
<path d="M146.372 165.525C145.255 165.114 144.374 164.626 143.804 164.087C143.328 163.639 143.07 163.155 143.07 162.65C143.071 160.301 148.714 158.403 155.671 158.411C162.627 158.42 168.265 160.329 168.264 162.679C168.263 163.184 168.003 163.665 167.526 164.112C166.955 164.65 166.072 165.136 164.954 165.545C162.649 166.39 159.339 166.921 155.661 166.917C151.984 166.912 148.675 166.379 146.372 165.525Z" fill="#3D3466"/>
<path d="M143.066 165.524L143.069 162.649C143.069 163.154 143.328 163.639 143.804 164.086C144.373 164.625 145.255 165.114 146.372 165.524C148.675 166.378 151.983 166.912 155.661 166.916C159.339 166.92 162.649 166.39 164.954 165.544C166.072 165.135 166.955 164.65 167.526 164.112C168.003 163.664 168.263 163.183 168.264 162.678L168.261 165.549C168.257 167.898 162.615 169.796 155.659 169.787C148.701 169.779 143.064 167.869 143.066 165.524Z" fill="#092C42"/>
<path d="M148.494 164.873C147.631 164.555 146.951 164.178 146.511 163.763C146.144 163.415 145.944 163.042 145.944 162.653C145.946 160.842 150.3 159.375 155.67 159.384C161.039 159.388 165.39 160.863 165.389 162.674C165.389 163.063 165.188 163.436 164.819 163.779C164.379 164.194 163.697 164.572 162.834 164.89C161.056 165.541 158.501 165.951 155.663 165.947C152.824 165.942 150.27 165.528 148.494 164.873Z" fill="#092C42"/>
<path d="M155.594 155.813C155.989 151.513 153.93 147.809 150.997 147.54C148.063 147.271 145.366 150.539 144.971 154.84C144.576 159.136 146.634 162.84 149.568 163.109C152.501 163.378 155.2 160.11 155.594 155.813Z" fill="#3D3466"/>
<path d="M162.468 148.568L150.997 147.541L149.568 163.11L161.039 164.138L162.468 148.568Z" fill="#3D3466"/>
<path d="M166.277 156.767C166.671 152.471 164.613 148.766 161.679 148.497C158.745 148.227 156.048 151.493 155.653 155.793C155.258 160.09 157.316 163.793 160.25 164.062C163.184 164.332 165.882 161.068 166.277 156.767Z" fill="#092C42"/>
<path d="M164.155 156.57C164.392 153.99 163.156 151.764 161.394 151.603C159.631 151.441 158.011 153.405 157.773 155.986C157.537 158.567 158.773 160.792 160.535 160.954C162.298 161.115 163.918 159.151 164.155 156.57Z" fill="#3D3466"/>
<path d="M162.505 156.424C162.618 155.177 162.023 154.104 161.172 154.025C160.321 153.946 159.539 154.895 159.425 156.137C159.311 157.384 159.907 158.458 160.758 158.537C161.607 158.615 162.39 157.666 162.505 156.424Z" fill="#092C42"/>
<path d="M156.188 148.008C156.188 148.008 153.078 150.312 152.833 155.205C152.588 160.093 155.757 163.665 155.757 163.665L153.266 163.441C153.266 163.441 149.822 161.303 150.326 154.856C150.828 148.422 153.786 147.793 153.786 147.793L156.188 148.008Z" fill="#092C42"/>
<path d="M175.062 115.315C174.774 116.674 173.586 117.573 172.41 117.325C171.233 117.077 170.513 115.771 170.801 114.412C171.089 113.053 172.277 112.154 173.453 112.407C174.63 112.656 175.35 113.96 175.062 115.315Z" fill="#6D64AF"/>
<path d="M175.952 115.639C175.664 116.998 174.476 117.897 173.299 117.644C172.122 117.395 171.402 116.09 171.69 114.735C171.978 113.377 173.166 112.478 174.343 112.726C175.519 112.974 176.239 114.28 175.952 115.639Z" fill="#3D3466"/>
<path d="M175.01 115.44C174.85 116.198 174.187 116.699 173.53 116.558C172.872 116.422 172.47 115.692 172.631 114.935C172.792 114.177 173.455 113.671 174.112 113.812C174.77 113.953 175.172 114.677 175.01 115.44Z" fill="#6D64AF"/>
<path d="M174.459 115.32C174.372 115.73 174.017 116 173.664 115.925C173.312 115.85 173.096 115.457 173.183 115.051C173.269 114.645 173.624 114.375 173.977 114.45C174.329 114.524 174.545 114.914 174.459 115.32Z" fill="#3D3466"/>
<path d="M180.533 92.3235C180.268 93.5706 179.178 94.3992 178.097 94.1671C177.016 93.9391 176.354 92.742 176.618 91.4948C176.883 90.2477 177.974 89.4191 179.055 89.6513C180.136 89.8793 180.798 91.0763 180.533 92.3235Z" fill="#6D64AF"/>
<path d="M181.35 92.6165C181.085 93.8637 179.994 94.6922 178.913 94.46C177.832 94.2322 177.171 93.035 177.435 91.7879C177.701 90.5407 178.791 89.7122 179.872 89.9442C180.953 90.1722 181.615 91.3694 181.35 92.6165Z" fill="#3D3466"/>
<path d="M180.487 92.4338C180.338 93.1294 179.729 93.5937 179.125 93.465C178.521 93.3371 178.152 92.6661 178.3 91.9696C178.447 91.274 179.056 90.8096 179.66 90.9385C180.265 91.0664 180.634 91.7374 180.487 92.4338Z" fill="#6D64AF"/>
<path d="M179.979 92.3273C179.9 92.7001 179.573 92.9484 179.249 92.878C178.926 92.812 178.727 92.451 178.807 92.0782C178.885 91.7055 179.212 91.4572 179.536 91.5275C179.861 91.5936 180.059 91.9546 179.979 92.3273Z" fill="#3D3466"/>
<path d="M184.045 82.7965L181.731 91.5672L179.527 91.0656L176.295 90.3244C176.295 90.3244 176.914 88.5926 177.048 88.2655C177.4 87.3988 177.691 86.6286 178.012 86.0695C179.404 83.6624 180.714 82.7177 181.757 82.4272C181.988 82.361 182.205 82.3323 182.407 82.3195H182.456C183.435 82.2908 184.045 82.7965 184.045 82.7965Z" fill="#3BB7FD"/>
<path d="M177.592 103.451C177.327 104.698 176.237 105.522 175.155 105.294C174.074 105.062 173.413 103.865 173.678 102.618C173.942 101.371 175.033 100.546 176.115 100.774C177.195 101.002 177.856 102.2 177.592 103.451Z" fill="#6D64AF"/>
<path d="M178.409 103.744C178.145 104.991 177.053 105.817 175.973 105.589C174.892 105.357 174.23 104.159 174.495 102.912C174.76 101.665 175.85 100.841 176.931 101.068C178.012 101.297 178.674 102.494 178.409 103.744Z" fill="#3D3466"/>
<path d="M177.546 103.557C177.397 104.257 176.788 104.717 176.184 104.589C175.58 104.46 175.21 103.793 175.358 103.093C175.506 102.397 176.115 101.937 176.719 102.066C177.323 102.194 177.693 102.861 177.546 103.557Z" fill="#6D64AF"/>
<path d="M177.038 103.449C176.959 103.826 176.632 104.071 176.309 104.005C175.985 103.934 175.786 103.578 175.865 103.201C175.945 102.828 176.272 102.58 176.595 102.651C176.919 102.721 177.118 103.077 177.038 103.449Z" fill="#3D3466"/>
<path d="M181.577 93.5445L179.572 103.24C179.071 103.194 177.789 102.874 176.484 102.527C174.733 102.054 172.943 101.524 172.943 101.524L175.546 92.3643C175.546 92.3643 177.154 92.6541 178.709 92.9481C180.12 93.2175 181.489 93.4869 181.577 93.5445Z" fill="#3BB7FD"/>
<path d="M178.998 105.456L177.509 114.897L173.654 114.044L169.371 113.095L169.388 113.025L172.386 103.943C172.386 103.943 174.319 104.416 176.191 104.846C177.277 105.095 178.342 105.331 178.998 105.456Z" fill="#3BB7FD"/>
<path d="M178.998 105.457L177.508 114.899L173.653 114.045C174.044 113.697 175.233 112.454 175.793 109.869C176.316 107.462 176.248 105.581 176.191 104.848C177.277 105.096 178.342 105.332 178.998 105.457Z" fill="#046CA8"/>
<path d="M178.709 92.9473C180.121 93.2167 181.489 93.4861 181.577 93.5437L179.573 103.239C179.071 103.193 177.789 102.873 176.484 102.526C177.006 101.88 177.852 100.542 178.299 98.2586C178.774 95.8354 178.76 93.892 178.709 92.9473Z" fill="#046CA8"/>
<path d="M184.045 82.7965L181.731 91.5672L179.526 91.0656C180.05 90.4108 180.88 89.0771 181.322 86.8235C181.675 85.0215 181.758 83.4837 181.757 82.4272C181.988 82.361 182.204 82.3323 182.407 82.3195H182.456C183.435 82.2908 184.045 82.7965 184.045 82.7965Z" fill="#046CA8"/>
<path d="M176.298 118.158C176.298 120.13 174.701 121.725 172.731 121.725C170.76 121.725 169.163 120.13 169.163 118.158C169.163 116.19 170.76 114.591 172.731 114.591C174.701 114.591 176.298 116.19 176.298 118.158Z" fill="#3D3466"/>
<path d="M182.086 117.575C181.599 119.071 180.156 119.937 178.864 119.514C177.571 119.091 176.918 117.542 177.406 116.05C177.893 114.555 179.335 113.688 180.628 114.111C181.92 114.534 182.573 116.083 182.086 117.575Z" fill="#6D64AF"/>
<path d="M183.047 118.042C182.561 119.534 181.118 120.404 179.825 119.981C178.533 119.559 177.88 118.009 178.367 116.513C178.854 115.022 180.297 114.156 181.589 114.579C182.882 114.997 183.534 116.551 183.047 118.042Z" fill="#3D3466"/>
<path d="M182.014 117.705C181.742 118.538 180.936 119.023 180.214 118.786C179.492 118.55 179.127 117.684 179.399 116.852C179.671 116.015 180.477 115.529 181.2 115.766C181.921 116.002 182.287 116.868 182.014 117.705Z" fill="#6D64AF"/>
<path d="M181.409 117.506C181.263 117.953 180.83 118.214 180.443 118.087C180.056 117.962 179.86 117.493 180.006 117.046C180.152 116.603 180.584 116.342 180.971 116.467C181.359 116.595 181.554 117.059 181.409 117.506Z" fill="#3D3466"/>
<path d="M190.998 92.3883C190.55 93.7599 189.226 94.5556 188.038 94.17C186.85 93.7803 186.25 92.3552 186.697 90.9835C187.146 89.6128 188.471 88.8171 189.658 89.2027C190.846 89.5915 191.445 91.0166 190.998 92.3883Z" fill="#6D64AF"/>
<path d="M191.881 92.815C191.434 94.1857 190.109 94.9855 188.921 94.5957C187.734 94.2069 187.134 92.7818 187.581 91.4101C188.029 90.0426 189.354 89.2436 190.541 89.6326C191.728 90.018 192.328 91.4433 191.881 92.815Z" fill="#3D3466"/>
<path d="M190.932 92.508C190.682 93.2705 189.942 93.7179 189.278 93.5018C188.615 93.2824 188.28 92.4869 188.53 91.7209C188.78 90.9542 189.521 90.511 190.184 90.7262C190.848 90.9423 191.182 91.7412 190.932 92.508Z" fill="#6D64AF"/>
<path d="M190.375 92.3255C190.242 92.7356 189.845 92.971 189.489 92.8558C189.133 92.7398 188.953 92.3128 189.087 91.9027C189.221 91.4926 189.618 91.2519 189.974 91.3681C190.33 91.4841 190.51 91.9146 190.375 92.3255Z" fill="#3D3466"/>
<path d="M196.09 82.102L192.435 91.6852L190.425 90.9928L186.474 89.6339C186.474 89.6339 187.379 87.7657 187.568 87.4091C188.069 86.4771 188.488 85.6442 188.915 85.0596C191.054 82.1265 192.839 81.3766 194.092 81.3682C194.166 81.3682 194.237 81.3682 194.306 81.3724L194.362 81.3766C195.466 81.464 196.09 82.102 196.09 82.102Z" fill="#00A1FF"/>
<path d="M189.891 91.6514L189.877 91.6556L189.891 91.6514Z" fill="#046CA8"/>
<path d="M196.09 82.102L192.435 91.6852L190.425 90.9928C191.049 90.1269 192.087 88.474 192.87 86.3322C193.561 84.4428 193.916 82.5908 194.092 81.3682C194.166 81.3682 194.237 81.3682 194.306 81.3724L194.362 81.3766C195.466 81.464 196.09 82.102 196.09 82.102Z" fill="#046CA8"/>
<path d="M186.356 104.538C185.909 105.909 184.583 106.705 183.396 106.319C182.208 105.93 181.608 104.505 182.057 103.134C182.504 101.762 183.829 100.967 185.016 101.352C186.204 101.742 186.804 103.167 186.356 104.538Z" fill="#6D64AF"/>
<path d="M187.239 104.967C186.792 106.339 185.466 107.138 184.279 106.749C183.092 106.359 182.491 104.934 182.939 103.563C183.387 102.195 184.712 101.396 185.9 101.785C187.087 102.17 187.687 103.596 187.239 104.967Z" fill="#3D3466"/>
<path d="M186.29 104.66C186.04 105.423 185.299 105.87 184.636 105.655C183.973 105.436 183.637 104.64 183.887 103.873C184.138 103.107 184.877 102.663 185.541 102.878C186.205 103.095 186.54 103.894 186.29 104.66Z" fill="#6D64AF"/>
<path d="M185.733 104.478C185.599 104.888 185.202 105.124 184.847 105.008C184.491 104.892 184.311 104.466 184.445 104.055C184.579 103.645 184.976 103.405 185.332 103.52C185.688 103.636 185.867 104.063 185.733 104.478Z" fill="#3D3466"/>
<path d="M192.024 93.8825L188.607 104.538C188.035 104.426 186.579 103.893 185.12 103.328C183.243 102.6 181.363 101.817 181.363 101.817L185.389 91.832C185.389 91.832 187.236 92.3742 188.981 92.9004C190.495 93.3605 191.934 93.8079 192.024 93.8825Z" fill="#00A1FF"/>
<path d="M187.695 106.964L185.264 115.991L184.886 117.396L184.775 117.359L181.037 116.103L175.956 114.396L175.984 114.318L180.443 104.474C180.443 104.474 182.44 105.19 184.435 105.883C185.686 106.313 186.937 106.736 187.695 106.964Z" fill="#00A1FF"/>
<path d="M180.658 116.596L180.645 116.6L180.658 116.596Z" fill="#046CA8"/>
<path d="M187.695 106.963L185.264 115.99L184.775 117.358L181.037 116.102C181.602 115.278 182.662 113.488 183.404 111.152C184.057 109.093 184.325 107.099 184.435 105.882C185.686 106.312 186.937 106.735 187.695 106.963Z" fill="#046CA8"/>
<path d="M192.024 93.8835L188.607 104.539C188.035 104.427 186.579 103.894 185.12 103.329C185.729 102.513 186.843 100.79 187.672 98.5195C188.501 96.2531 188.846 94.0452 188.981 92.9014C190.495 93.3615 191.934 93.8089 192.024 93.8835Z" fill="#046CA8"/>
<path d="M182.002 120.039C182.002 122.007 180.405 123.606 178.434 123.606C176.465 123.606 174.867 122.007 174.867 120.039C174.867 118.066 176.465 116.472 178.434 116.472C180.405 116.472 182.002 118.066 182.002 120.039Z" fill="#3D3466"/>
<path d="M188.769 121.169C187.981 122.743 186.24 123.464 184.878 122.781C183.518 122.101 183.052 120.274 183.84 118.699C184.627 117.13 186.368 116.409 187.729 117.092C189.09 117.772 189.555 119.598 188.769 121.169Z" fill="#6D64AF"/>
<path d="M189.755 121.848C188.968 123.418 187.227 124.139 185.866 123.455C184.504 122.776 184.039 120.949 184.827 119.378C185.613 117.804 187.355 117.083 188.717 117.767C190.078 118.451 190.543 120.274 189.755 121.848Z" fill="#3D3466"/>
<path d="M188.668 121.302C188.228 122.181 187.255 122.583 186.495 122.202C185.734 121.821 185.474 120.801 185.914 119.923C186.353 119.044 187.327 118.643 188.087 119.024C188.848 119.405 189.108 120.424 188.668 121.302Z" fill="#6D64AF"/>
<path d="M188.029 120.982C187.794 121.454 187.271 121.669 186.864 121.463C186.456 121.259 186.317 120.713 186.553 120.241C186.788 119.772 187.311 119.557 187.718 119.76C188.126 119.963 188.265 120.51 188.029 120.982Z" fill="#3D3466"/>
<path d="M202.82 94.7626C202.098 96.2047 200.497 96.8672 199.248 96.2419C197.996 95.6158 197.569 93.9383 198.293 92.4921C199.015 91.0509 200.615 90.3874 201.866 91.0128C203.116 91.6389 203.544 93.3172 202.82 94.7626Z" fill="#6D64AF"/>
<path d="M203.728 95.384C203.004 96.826 201.405 97.4893 200.154 96.8632C198.903 96.238 198.476 94.5596 199.199 93.1142C199.923 91.6721 201.522 91.0097 202.773 91.635C204.023 92.2602 204.45 93.9385 203.728 95.384Z" fill="#3D3466"/>
<path d="M202.728 94.8821C202.324 95.6896 201.431 96.059 200.732 95.7107C200.033 95.3583 199.794 94.422 200.198 93.6138C200.602 92.8063 201.496 92.4378 202.195 92.7894C202.893 93.1376 203.132 94.0738 202.728 94.8821Z" fill="#6D64AF"/>
<path d="M202.142 94.5879C201.925 95.0183 201.446 95.2174 201.071 95.031C200.697 94.8446 200.569 94.3388 200.785 93.9084C201.002 93.4771 201.481 93.2781 201.856 93.4645C202.23 93.6517 202.359 94.1566 202.142 94.5879Z" fill="#3D3466"/>
<path d="M210.167 84.2166L204.529 94.2219L202.423 93.1246L198.269 90.9574C198.269 90.9574 199.582 89.0392 199.849 88.6783C200.559 87.7303 201.162 86.8763 201.732 86.2967C204.392 83.6033 206.398 82.9577 207.784 83.0399C207.972 83.0526 208.149 83.0772 208.314 83.1103L208.374 83.1272C209.583 83.4051 210.167 84.2166 210.167 84.2166Z" fill="#0096ED"/>
<path d="M195.663 107.443C194.939 108.89 193.339 109.552 192.089 108.927C190.838 108.297 190.411 106.619 191.134 105.178C191.858 103.731 193.457 103.072 194.708 103.698C195.958 104.324 196.386 106.002 195.663 107.443Z" fill="#6D64AF"/>
<path d="M196.569 108.065C195.845 109.51 194.246 110.173 192.995 109.548C191.745 108.918 191.317 107.24 192.04 105.798C192.764 104.352 194.364 103.69 195.614 104.319C196.865 104.945 197.292 106.623 196.569 108.065Z" fill="#3D3466"/>
<path d="M195.57 107.568C195.166 108.371 194.272 108.745 193.573 108.392C192.875 108.044 192.636 107.104 193.04 106.301C193.444 105.492 194.337 105.124 195.036 105.472C195.735 105.824 195.974 106.761 195.57 107.568Z" fill="#6D64AF"/>
<path d="M194.983 107.274C194.767 107.705 194.288 107.904 193.913 107.717C193.538 107.527 193.41 107.025 193.627 106.595C193.843 106.16 194.323 105.961 194.698 106.151C195.072 106.338 195.2 106.839 194.983 107.274Z" fill="#3D3466"/>
<path d="M203.708 96.5899L198.154 107.822C197.599 107.623 196.303 106.927 194.938 106.153C192.843 104.963 190.584 103.604 190.584 103.604L196.702 93.2178C196.702 93.2178 198.493 94.0464 200.264 94.8876C201.949 95.6833 203.617 96.4907 203.708 96.5899Z" fill="#0096ED"/>
<path d="M196.741 110.358L191.898 121.441L188.434 119.667L182.509 116.634L182.553 116.552L189.127 106.389C189.127 106.389 191.432 107.631 193.627 108.78C194.833 109.405 196.004 110.006 196.741 110.358Z" fill="#0096ED"/>
<path d="M187.703 120.403L187.688 120.408L187.703 120.403Z" fill="#046CA8"/>
<path d="M196.74 110.357L191.898 121.44L188.434 119.666C189.21 118.783 190.457 117.168 191.5 115.043C192.787 112.42 193.412 109.809 193.627 108.778C194.833 109.404 196.003 110.004 196.74 110.357Z" fill="#046CA8"/>
<path d="M203.709 96.5899L198.154 107.822C197.599 107.624 196.304 106.927 194.939 106.153C195.708 105.294 197.001 103.641 198.077 101.45C199.516 98.5165 200.128 95.6003 200.265 94.8877C201.95 95.6834 203.617 96.4908 203.709 96.5899Z" fill="#046CA8"/>
<path d="M210.167 84.2197L204.529 94.2249L202.423 93.1277C203.051 92.5016 204.668 90.6419 205.968 87.99C206.869 86.1591 207.445 84.3316 207.784 83.043C207.972 83.0557 208.149 83.0802 208.314 83.1133L208.374 83.1302C209.583 83.4081 210.167 84.2197 210.167 84.2197Z" fill="#046CA8"/>
<path d="M189.314 123.274C189.477 125.238 188.018 126.961 186.054 127.123C184.091 127.285 182.367 125.826 182.203 123.862C182.04 121.898 183.5 120.175 185.464 120.013C187.427 119.847 189.151 121.31 189.314 123.274Z" fill="#3D3466"/>
<path d="M193.193 124.347C192.076 125.682 190.235 125.98 189.079 125.015C187.924 124.045 187.892 122.181 189.007 120.846C190.124 119.513 191.966 119.215 193.122 120.184C194.277 121.149 194.31 123.014 193.193 124.347Z" fill="#6D64AF"/>
<path d="M193.989 125.226C192.873 126.56 191.031 126.859 189.876 125.888C188.719 124.923 188.688 123.06 189.804 121.721C190.92 120.387 192.762 120.092 193.918 121.058C195.073 122.023 195.106 123.892 193.989 125.226Z" fill="#3D3466"/>
<path d="M193.066 124.452C192.442 125.198 191.413 125.363 190.768 124.825C190.121 124.282 190.103 123.243 190.728 122.497C191.351 121.751 192.38 121.585 193.026 122.124C193.671 122.666 193.689 123.707 193.066 124.452Z" fill="#6D64AF"/>
<path d="M192.523 123.999C192.188 124.397 191.637 124.488 191.291 124.198C190.945 123.908 190.935 123.349 191.269 122.947C191.604 122.549 192.155 122.458 192.502 122.748C192.848 123.038 192.858 123.598 192.523 123.999Z" fill="#3D3466"/>
<path d="M212.745 102.112C211.719 103.338 210.027 103.612 208.965 102.722C207.904 101.834 207.874 100.12 208.9 98.8972C209.925 97.6713 211.617 97.3975 212.68 98.2837C213.741 99.175 213.77 100.887 212.745 102.112Z" fill="#6D64AF"/>
<path d="M213.477 102.916C212.451 104.142 210.759 104.416 209.698 103.529C208.636 102.638 208.607 100.927 209.632 99.701C210.658 98.4743 212.35 98.2015 213.411 99.0877C214.473 99.9781 214.503 101.69 213.477 102.916Z" fill="#3D3466"/>
<path d="M212.628 102.208C212.055 102.892 211.11 103.045 210.517 102.548C209.924 102.055 209.907 101.094 210.48 100.41C211.053 99.7265 211.999 99.5732 212.592 100.071C213.185 100.568 213.202 101.524 212.628 102.208Z" fill="#6D64AF"/>
<path d="M212.131 101.788C211.823 102.157 211.316 102.239 210.998 101.974C210.68 101.705 210.671 101.191 210.978 100.827C211.285 100.458 211.792 100.375 212.111 100.645C212.428 100.91 212.438 101.423 212.131 101.788Z" fill="#3D3466"/>
<path d="M222.222 93.6305L214.513 101.983L212.81 100.508L209.228 97.4126C209.228 97.4126 210.929 95.8639 211.269 95.5775C212.167 94.8235 212.943 94.1406 213.625 93.7136C216.847 91.6955 218.939 91.5548 220.251 91.9733C220.409 92.0233 220.555 92.0809 220.69 92.1436L220.746 92.1681C221.846 92.7146 222.222 93.6305 222.222 93.6305Z" fill="#0096ED"/>
<path d="M202.96 112.696C201.935 113.922 200.242 114.196 199.181 113.309C198.119 112.418 198.09 110.708 199.115 109.481C200.141 108.255 201.833 107.981 202.894 108.868C203.956 109.759 203.986 111.47 202.96 112.696Z" fill="#6D64AF"/>
<path d="M203.692 113.502C202.666 114.729 200.974 115.003 199.912 114.116C198.851 113.225 198.822 111.514 199.847 110.288C200.872 109.062 202.564 108.788 203.626 109.679C204.687 110.566 204.717 112.281 203.692 113.502Z" fill="#3D3466"/>
<path d="M202.842 112.791C202.27 113.475 201.325 113.628 200.732 113.135C200.138 112.638 200.122 111.681 200.695 110.993C201.267 110.31 202.213 110.156 202.806 110.654C203.399 111.151 203.416 112.107 202.842 112.791Z" fill="#6D64AF"/>
<path d="M202.345 112.379C202.038 112.743 201.531 112.826 201.212 112.562C200.895 112.292 200.886 111.782 201.194 111.414C201.501 111.045 202.007 110.967 202.326 111.232C202.643 111.497 202.652 112.01 202.345 112.379Z" fill="#3D3466"/>
<path d="M213.183 104.075L205.275 113.629C204.881 113.372 204.1 112.697 203.217 111.889C201.316 110.161 198.945 107.837 198.945 107.837L207.204 99.2275C207.204 99.2275 209.495 101.03 211.241 102.439C212.285 103.284 213.134 103.984 213.183 104.075Z" fill="#0096ED"/>
<path d="M203.336 115.748L196.147 125.318L193.554 123.109L188.198 118.549L188.258 118.482L196.906 110.191C196.906 110.191 199.3 112.321 201.31 114.045C202.102 114.728 202.833 115.346 203.336 115.748Z" fill="#0096ED"/>
<path d="M203.336 115.748L196.147 125.318L193.554 123.11C194.484 122.506 196.231 121.187 197.892 119.232C199.574 117.252 200.747 115.156 201.31 114.045C202.102 114.729 202.833 115.346 203.336 115.748Z" fill="#046CA8"/>
<path d="M202.666 112.205L202.653 112.201L202.666 112.205Z" fill="#046CA8"/>
<path d="M213.183 104.075L205.275 113.629C204.881 113.372 204.1 112.697 203.217 111.889C204.112 111.317 205.936 109.975 207.666 107.936C209.524 105.753 210.759 103.421 211.241 102.438C212.285 103.284 213.134 103.984 213.183 104.075Z" fill="#046CA8"/>
<path d="M212.087 100.934L212.073 100.93L212.087 100.934Z" fill="#046CA8"/>
<path d="M222.223 93.6318L214.513 101.984L212.81 100.51C213.753 99.8836 215.461 98.5822 217.088 96.6683C218.547 94.9492 219.624 93.1429 220.251 91.9746C220.409 92.0245 220.555 92.0822 220.69 92.1449L220.746 92.1694C221.846 92.7158 222.223 93.6318 222.223 93.6318Z" fill="#046CA8"/>
<path d="M191.18 125.81C191.309 127.774 189.819 129.474 187.853 129.602C185.887 129.731 184.189 128.239 184.061 126.275C183.932 124.307 185.423 122.609 187.388 122.48C189.355 122.355 191.052 123.843 191.18 125.81Z" fill="#3D3466"/>
<path d="M194.773 133.115C194.733 133.16 170.875 152.285 169.068 153.905C166.376 158.798 144.262 153.905 143.624 148.589C141.317 142.64 139.919 138.004 142.514 133.135C144.506 129.398 148.852 125.521 156.949 120.806C160.282 118.863 163.682 117.537 166.576 116.638C173.502 114.509 193.047 124.419 195.029 130.749C195.303 131.619 195.244 132.423 194.773 133.115Z" fill="#0096ED"/>
<path d="M194.773 133.114C194.733 133.159 170.875 152.284 169.068 153.904C166.376 158.797 144.262 153.904 143.624 148.588C141.317 142.639 139.919 138.003 142.514 133.135C143.247 137.187 146.429 142.83 158.011 144.835C173.73 147.552 190.041 134.995 195.029 130.748C195.303 131.618 195.244 132.422 194.773 133.114Z" fill="#0084D1"/>
<path d="M151.191 134.449C151.191 134.449 167.105 122.419 165.969 120.525C164.832 118.636 149.627 128.678 147.276 129.971C143.929 131.819 146.961 134.864 151.191 134.449Z" fill="#3BB7FD"/>
<path d="M162.551 137.003C162.551 137.003 174.701 126.173 172.897 124.582C171.092 122.991 159.099 131.066 157.326 132.785C154.803 135.23 158.64 138.254 162.551 137.003Z" fill="#3BB7FD"/>
<path d="M161.254 142.601C161.254 142.601 162.766 134.381 173.681 129.844C184.596 125.308 182.643 136.324 180.037 139.519C172.76 148.434 159.269 150.684 161.254 142.601Z" fill="#3D3466"/>
<path d="M175.983 137.684C176.912 139.931 175.966 142.557 173.805 143.581C171.57 144.637 168.902 143.589 167.914 141.202C166.926 138.816 168.042 136.119 170.335 135.203C172.553 134.317 175.053 135.439 175.983 137.684Z" fill="#2F2752"/>
<path d="M188.235 132.975L184.538 138.041L175.596 144.873C172.205 142.375 170.675 138.969 169.341 134.229L178.294 128.172L184.652 127.133L188.235 132.975Z" fill="#00A1FF"/>
<path d="M188.287 132.975L184.594 138.038C181.644 135.159 179.273 131.957 178.352 128.174L184.707 127.138L188.287 132.975Z" fill="#046CA8"/>
<path d="M183.208 132.471C181.843 130.652 181.836 128.261 183.172 127.171C184.476 126.111 186.559 126.699 187.845 128.455C189.121 130.196 189.175 132.491 187.949 133.613C186.692 134.77 184.561 134.273 183.208 132.471Z" fill="#6D64AF"/>
<path d="M182.027 133.212C180.642 131.377 180.645 128.957 182.01 127.851C183.34 126.77 185.46 127.358 186.763 129.127C188.056 130.88 188.104 133.199 186.852 134.347C185.567 135.52 183.399 135.031 182.027 133.212Z" fill="#3D3466"/>
<path d="M183.11 132.281C182.348 131.266 182.343 129.923 183.09 129.302C183.828 128.684 185.019 129.004 185.755 129.997C186.488 130.988 186.509 132.297 185.796 132.931C185.073 133.577 183.868 133.287 183.11 132.281Z" fill="#6D64AF"/>
<path d="M183.735 131.739C183.33 131.201 183.325 130.485 183.721 130.148C184.115 129.817 184.756 129.983 185.153 130.517C185.55 131.051 185.559 131.756 185.173 132.096C184.783 132.44 184.138 132.282 183.735 131.739Z" fill="#3D3466"/>
<path d="M197.114 126.551L193.752 130.421L185.808 136.905C183.317 133.772 181.425 130.793 180.178 126.825L188.583 121.663L193.9 121.148L197.114 126.551Z" fill="#00A1FF"/>
<path d="M197.114 126.551L193.751 130.421C191.356 127.579 189.388 124.658 188.583 121.663L193.9 121.148L197.114 126.551Z" fill="#046CA8"/>
<path d="M192.872 125.607C191.84 123.792 192.013 121.716 193.238 120.987C194.434 120.278 196.182 121.137 197.162 122.88C198.138 124.62 198.018 126.643 196.872 127.421C195.7 128.217 193.898 127.413 192.872 125.607Z" fill="#6D64AF"/>
<path d="M191.804 126.055C190.76 124.224 190.944 122.124 192.193 121.386C193.412 120.665 195.186 121.527 196.178 123.288C197.165 125.04 197.036 127.083 195.868 127.874C194.673 128.682 192.843 127.883 191.804 126.055Z" fill="#3D3466"/>
<path d="M192.801 125.425C192.225 124.41 192.321 123.246 193.009 122.827C193.687 122.413 194.685 122.885 195.245 123.879C195.803 124.865 195.724 126.017 195.062 126.452C194.391 126.891 193.376 126.435 192.801 125.425Z" fill="#6D64AF"/>
<path d="M193.378 125.061C193.072 124.518 193.121 123.897 193.487 123.668C193.849 123.445 194.386 123.698 194.688 124.233C194.99 124.762 194.946 125.384 194.587 125.612C194.227 125.848 193.685 125.599 193.378 125.061Z" fill="#3D3466"/>
<path d="M190.34 121.008C191.252 123.738 192.918 126.571 194.957 129.43L204.337 123.543C204.337 123.543 202.633 118.994 198.3 118.87C193.642 118.737 190.34 121.008 190.34 121.008Z" fill="#00A1FF"/>
<path d="M91.3614 199.999L86.0322 166L79.6305 165.993L55.3366 165.964L54.3049 187.975C65.9538 194.306 78.5473 198.142 91.3614 199.999Z" fill="#00A1FF"/>
<path d="M91.3617 200L86.0325 166.002L79.6307 165.994C75.7503 169.18 71.8682 172.324 71.8682 172.324C71.8682 172.324 76.212 183.495 79.8356 197.76C83.645 198.695 87.4926 199.44 91.3617 200Z" fill="#3BB7FD"/>
<path d="M70.6878 172.34C79.1661 172.332 86.0355 169.506 86.0323 166.027C86.0279 162.551 79.1526 159.738 70.6742 159.746C62.1967 159.755 55.3264 162.584 55.3298 166.06C55.3341 169.54 62.2095 172.353 70.6878 172.34Z" fill="#0096ED"/>
<path d="M70.686 170.782C77.6241 170.778 83.2472 168.553 83.2438 165.822C83.2413 163.088 77.614 160.88 70.6759 160.888C63.7369 160.896 58.1146 163.117 58.1172 165.847C58.1197 168.581 63.748 170.79 70.686 170.782Z" fill="#092C42"/>
<path d="M79.9851 165.226C81.1018 164.811 81.9829 164.322 82.5522 163.784C83.0284 163.336 83.2868 162.852 83.2868 162.351C83.2852 160.002 77.6434 158.104 70.6858 158.112C63.7291 158.121 58.0915 160.026 58.0933 162.376C58.0941 162.881 58.3533 163.362 58.8311 163.809C59.4022 164.348 60.2842 164.832 61.4034 165.243C63.7079 166.092 67.0181 166.618 70.6951 166.614C74.373 166.61 77.6823 166.076 79.9851 165.226Z" fill="#3D3466"/>
<path d="M83.2902 165.222L83.2868 162.352C83.2868 162.852 83.0284 163.337 82.5522 163.784C81.9829 164.323 81.1018 164.812 79.9851 165.226C77.6823 166.076 74.373 166.611 70.6951 166.614C67.0181 166.618 63.7079 166.092 61.4034 165.243C60.2842 164.832 59.4022 164.348 58.8311 163.81C58.3533 163.362 58.0941 162.881 58.0933 162.376L58.0957 165.247C58.0991 167.596 63.7409 169.494 70.6984 169.485C77.6552 169.477 83.2928 167.571 83.2902 165.222Z" fill="#092C42"/>
<path d="M77.8643 164.57C78.726 164.251 79.4055 163.874 79.8452 163.46C80.2121 163.111 80.4128 162.739 80.4119 162.35C80.4111 160.538 76.0563 159.072 70.6864 159.08C65.3175 159.084 60.966 160.559 60.9678 162.37C60.9678 162.76 61.1685 163.133 61.5371 163.48C61.9776 163.894 62.6588 164.268 63.5222 164.586C65.3005 165.237 67.8559 165.647 70.694 165.643C73.5323 165.639 76.0859 165.224 77.8643 164.57Z" fill="#092C42"/>
<path d="M70.7619 155.511C70.3671 151.215 72.4258 147.512 75.3598 147.242C78.2938 146.973 80.9915 150.237 81.3863 154.538C81.7802 158.834 79.7223 162.537 76.7883 162.807C73.8551 163.076 71.1566 159.812 70.7619 155.511Z" fill="#3D3466"/>
<path d="M63.8877 148.265L75.3593 147.242L76.7879 162.807L65.3171 163.835L63.8877 148.265Z" fill="#3D3466"/>
<path d="M60.0798 156.464C59.6858 152.168 61.7438 148.464 64.677 148.194C67.611 147.926 70.3094 151.19 70.7034 155.491C71.0983 159.79 69.0403 163.49 66.1071 163.76C63.1731 164.029 60.4747 160.765 60.0798 156.464Z" fill="#092C42"/>
<path d="M62.2013 156.268C61.9641 153.687 63.2001 151.461 64.9624 151.3C66.7247 151.139 68.3454 153.102 68.5826 155.683C68.8198 158.265 67.583 160.49 65.8207 160.651C64.0592 160.812 62.4385 158.853 62.2013 156.268Z" fill="#3D3466"/>
<path d="M63.8524 156.121C63.738 154.874 64.3345 153.801 65.1843 153.722C66.0349 153.644 66.817 154.592 66.9314 155.839C67.0457 157.082 66.4493 158.155 65.5986 158.234C64.7488 158.313 63.9668 157.368 63.8524 156.121Z" fill="#092C42"/>
<path d="M70.1687 147.705C70.1687 147.705 73.2789 150.009 73.5237 154.902C73.7686 159.795 70.599 163.362 70.599 163.362L73.0899 163.138C73.0899 163.138 76.5349 161.005 76.0315 154.559C75.5283 148.124 72.5706 147.49 72.5706 147.49L70.1687 147.705Z" fill="#092C42"/>
<path d="M51.2949 115.017C51.583 116.376 52.7699 117.275 53.9468 117.022C55.1227 116.774 55.8438 115.468 55.5557 114.114C55.2676 112.755 54.0799 111.856 52.9038 112.105C51.7271 112.353 51.0068 113.658 51.2949 115.017Z" fill="#6D64AF"/>
<path d="M50.405 115.336C50.6931 116.695 51.88 117.594 53.0577 117.345C54.2338 117.092 54.9539 115.792 54.6658 114.433C54.3777 113.074 53.19 112.175 52.0139 112.423C50.8372 112.672 50.1169 113.977 50.405 115.336Z" fill="#3D3466"/>
<path d="M51.3455 115.136C51.5065 115.894 52.17 116.396 52.8274 116.259C53.4848 116.118 53.8873 115.389 53.7254 114.631C53.5644 113.873 52.902 113.371 52.2436 113.508C51.587 113.649 51.1845 114.378 51.3455 115.136Z" fill="#6D64AF"/>
<path d="M51.8972 115.022C51.9835 115.427 52.3394 115.697 52.6919 115.622C53.0444 115.548 53.2603 115.155 53.174 114.748C53.0876 114.342 52.7317 114.073 52.3793 114.147C52.0268 114.222 51.8108 114.612 51.8972 115.022Z" fill="#3D3466"/>
<path d="M45.8231 92.0238C46.0882 93.271 47.1786 94.0952 48.2597 93.8674C49.3407 93.6352 50.0033 92.4381 49.7382 91.191C49.4738 89.9438 48.3825 89.1195 47.3014 89.3474C46.2204 89.5753 45.5587 90.7725 45.8231 92.0238Z" fill="#6D64AF"/>
<path d="M45.0064 92.3138C45.2716 93.5651 46.362 94.3895 47.4431 94.1615C48.5242 93.9293 49.1859 92.7323 48.9207 91.4851C48.6563 90.238 47.5651 89.4094 46.484 89.6415C45.4037 89.8695 44.7421 91.0665 45.0064 92.3138Z" fill="#3D3466"/>
<path d="M45.8695 92.1319C46.0178 92.8317 46.6278 93.2918 47.2311 93.163C47.8351 93.0351 48.2054 92.3682 48.0572 91.6675C47.9088 90.9719 47.2997 90.5119 46.6956 90.6408C46.0924 90.7644 45.7221 91.4355 45.8695 92.1319Z" fill="#6D64AF"/>
<path d="M46.3772 92.0246C46.4568 92.4017 46.7838 92.6457 47.1075 92.5796C47.4311 92.5092 47.6294 92.1484 47.5506 91.7755C47.4709 91.4027 47.144 91.1545 46.8194 91.2248C46.4958 91.2909 46.2976 91.6518 46.3772 92.0246Z" fill="#3D3466"/>
<path d="M42.311 82.4938L44.6258 91.2687L46.8294 90.7629L50.0617 90.0214C50.0617 90.0214 49.4423 88.2939 49.3085 87.9628C48.956 87.0959 48.6654 86.3259 48.3443 85.7666C46.9531 83.3597 45.6416 82.415 44.5986 82.1243C44.3682 82.0624 44.1513 82.0295 43.9497 82.021L43.8996 82.0168C42.9211 81.988 42.311 82.4938 42.311 82.4938Z" fill="#3BB7FD"/>
<path d="M48.7635 103.148C49.0287 104.395 50.1191 105.219 51.2001 104.992C52.2813 104.764 52.9438 103.566 52.6786 102.316C52.4143 101.068 51.3231 100.244 50.2419 100.471C49.1609 100.704 48.4991 101.902 48.7635 103.148Z" fill="#6D64AF"/>
<path d="M47.9474 103.442C48.2117 104.689 49.303 105.513 50.384 105.285C51.465 105.058 52.1268 103.86 51.8616 102.609C51.5973 101.362 50.506 100.538 49.4249 100.765C48.3447 100.998 47.6822 102.194 47.9474 103.442Z" fill="#3D3466"/>
<path d="M48.8107 103.258C48.959 103.954 49.569 104.414 50.1722 104.286C50.7763 104.157 51.1458 103.49 50.9983 102.795C50.8501 102.094 50.2409 101.635 49.6368 101.763C49.0327 101.891 48.6633 102.558 48.8107 103.258Z" fill="#6D64AF"/>
<path d="M49.3183 103.152C49.3981 103.525 49.725 103.774 50.0479 103.703C50.3723 103.632 50.5706 103.277 50.491 102.904C50.4121 102.527 50.0851 102.282 49.7614 102.349C49.4379 102.419 49.2387 102.775 49.3183 103.152Z" fill="#3D3466"/>
<path d="M44.7791 93.2416L46.7835 102.937C47.2851 102.891 48.5679 102.572 49.8727 102.224C51.623 101.751 53.4132 101.225 53.4132 101.225L50.8097 92.0615C50.8097 92.0615 49.2024 92.3513 47.6469 92.6495C46.2354 92.9147 44.8671 93.1841 44.7791 93.2416Z" fill="#3BB7FD"/>
<path d="M47.3584 105.158L48.8487 114.595L52.7037 113.742L56.9856 112.797L56.9686 112.723L53.9711 103.646C53.9711 103.646 52.0377 104.114 50.1662 104.544C49.08 104.794 48.0142 105.033 47.3584 105.158Z" fill="#3BB7FD"/>
<path d="M47.3584 105.157L48.8487 114.595L52.7037 113.742C52.3131 113.393 51.1235 112.15 50.5634 109.566C50.0399 107.159 50.1085 105.278 50.1662 104.544C49.08 104.793 48.0142 105.033 47.3584 105.157Z" fill="#046CA8"/>
<path d="M47.6469 92.6494C46.2354 92.9146 44.8671 93.1839 44.7791 93.2415L46.7835 102.937C47.2851 102.891 48.5679 102.572 49.8727 102.224C49.3499 101.578 48.5044 100.24 48.0579 97.9565C47.5834 95.5334 47.5961 93.594 47.6469 92.6494Z" fill="#046CA8"/>
<path d="M42.311 82.4938L44.6258 91.2687L46.8294 90.7629C46.3059 90.1079 45.4764 88.7744 45.0333 86.5207C44.6809 84.7186 44.5978 83.1851 44.5986 82.1243C44.3682 82.0624 44.1513 82.0295 43.9497 82.021L43.8996 82.0168C42.9211 81.988 42.311 82.4938 42.311 82.4938Z" fill="#046CA8"/>
<path d="M50.0588 117.861C50.0588 119.829 51.6559 121.428 53.6265 121.428C55.5964 121.428 57.1942 119.829 57.1942 117.861C57.1942 115.888 55.5964 114.293 53.6265 114.293C51.6559 114.293 50.0588 115.888 50.0588 117.861Z" fill="#3D3466"/>
<path d="M44.2704 117.275C44.7575 118.767 46.2004 119.633 47.4933 119.21C48.7854 118.792 49.4386 117.238 48.9514 115.747C48.4642 114.255 47.0213 113.386 45.7293 113.808C44.4364 114.23 43.7841 115.784 44.2704 117.275Z" fill="#6D64AF"/>
<path d="M43.3095 117.74C43.7967 119.231 45.2387 120.101 46.5316 119.678C47.8245 119.256 48.4769 117.707 47.9896 116.21C47.5025 114.719 46.0606 113.853 44.7677 114.276C43.4756 114.699 42.8224 116.249 43.3095 117.74Z" fill="#3D3466"/>
<path d="M44.3419 117.402C44.6139 118.235 45.4205 118.719 46.1415 118.483C46.8642 118.247 47.2293 117.381 46.9565 116.549C46.6845 115.716 45.8789 115.231 45.157 115.467C44.4342 115.699 44.0691 116.569 44.3419 117.402Z" fill="#6D64AF"/>
<path d="M44.9488 117.205C45.0945 117.652 45.5267 117.913 45.9138 117.785C46.301 117.661 46.4968 117.196 46.351 116.749C46.2045 116.302 45.7724 116.041 45.3852 116.17C44.998 116.293 44.8022 116.758 44.9488 117.205Z" fill="#3D3466"/>
<path d="M35.3576 92.0856C35.8049 93.4573 37.1308 94.2528 38.3179 93.8674C39.5057 93.4776 40.1056 92.0526 39.6582 90.6809C39.2108 89.31 37.8849 88.5145 36.698 88.9033C35.5101 89.2889 34.9103 90.7139 35.3576 92.0856Z" fill="#6D64AF"/>
<path d="M34.4754 92.5157C34.9227 93.8832 36.2486 94.683 37.4355 94.2932C38.6225 93.9086 39.2232 92.4828 38.7759 91.1119C38.3277 89.7402 37.0027 88.9404 35.8148 89.3301C34.6278 89.7199 34.0279 91.1449 34.4754 92.5157Z" fill="#3D3466"/>
<path d="M35.4244 92.2049C35.6743 92.9708 36.4148 93.4147 37.0782 93.1988C37.7416 92.9835 38.077 92.1837 37.8271 91.4221C37.5764 90.6554 36.8368 90.2079 36.1733 90.4232C35.5091 90.6425 35.1744 91.4382 35.4244 92.2049Z" fill="#6D64AF"/>
<path d="M35.9816 92.0237C36.1153 92.4338 36.5128 92.6735 36.8678 92.5583C37.2236 92.4422 37.4032 92.011 37.2693 91.601C37.1354 91.1909 36.7381 90.9545 36.3831 91.0705C36.0264 91.1867 35.8468 91.6137 35.9816 92.0237Z" fill="#3D3466"/>
<path d="M30.2661 81.8025L33.922 91.3815L35.9325 90.6893L39.8823 89.3303C39.8823 89.3303 38.9775 87.4622 38.7885 87.1097C38.2887 86.1735 37.8693 85.3448 37.4415 84.7569C35.303 81.8237 33.5178 81.0739 32.2639 81.0654C32.1911 81.0654 32.1199 81.0654 32.0504 81.0688L31.9953 81.0739C30.8905 81.1603 30.2661 81.8025 30.2661 81.8025Z" fill="#00A1FF"/>
<path d="M30.2661 81.8025L33.922 91.3815L35.9325 90.6893C35.3064 89.8234 34.2694 88.1704 33.4865 86.0285C32.7952 84.1392 32.441 82.2914 32.2639 81.0654C32.1911 81.0654 32.1199 81.0654 32.0504 81.0688L31.9953 81.0739C30.8905 81.1603 30.2661 81.8025 30.2661 81.8025Z" fill="#046CA8"/>
<path d="M40.0009 104.237C40.4483 105.609 41.7733 106.405 42.9603 106.019C44.1482 105.629 44.7481 104.204 44.3006 102.834C43.8533 101.462 42.5274 100.666 41.3404 101.056C40.1535 101.441 39.5536 102.867 40.0009 104.237Z" fill="#6D64AF"/>
<path d="M39.1172 104.664C39.5653 106.036 40.8904 106.835 42.0782 106.446C43.2653 106.061 43.865 104.636 43.4177 103.264C42.9696 101.893 41.6445 101.093 40.4575 101.482C39.2696 101.872 38.6697 103.297 39.1172 104.664Z" fill="#3D3466"/>
<path d="M40.0662 104.357C40.3161 105.124 41.0565 105.567 41.72 105.352C42.3834 105.137 42.7188 104.337 42.4689 103.57C42.219 102.808 41.4785 102.36 40.8151 102.575C40.1517 102.796 39.8161 103.591 40.0662 104.357Z" fill="#6D64AF"/>
<path d="M40.6224 104.174C40.7572 104.584 41.1537 104.824 41.5104 104.708C41.8663 104.592 42.0458 104.161 41.9119 103.751C41.7772 103.341 41.3808 103.105 41.0241 103.221C40.6691 103.337 40.4895 103.764 40.6224 104.174Z" fill="#3D3466"/>
<path d="M34.3315 93.5839L37.7494 104.24C38.3212 104.124 39.7768 103.589 41.2357 103.026C43.1132 102.297 44.9933 101.513 44.9933 101.513L40.9663 91.5293C40.9663 91.5293 39.1202 92.0715 37.3757 92.5976C35.86 93.0576 34.4214 93.5093 34.3315 93.5839Z" fill="#00A1FF"/>
<path d="M38.6624 106.665L41.0931 115.693L41.4702 117.097L41.582 117.056L45.32 115.8L50.4009 114.094L50.373 114.015L45.9131 104.171C45.9131 104.171 43.917 104.888 41.9226 105.58C40.6713 106.01 39.4198 106.437 38.6624 106.665Z" fill="#00A1FF"/>
<path d="M45.6978 116.293L45.7113 116.297L45.6978 116.293Z" fill="#046CA8"/>
<path d="M38.6624 106.666L41.0931 115.694L41.582 117.057L45.32 115.801C44.7558 114.981 43.6942 113.187 42.952 110.851C42.2996 108.792 42.031 106.799 41.9226 105.581C40.6713 106.011 39.4198 106.438 38.6624 106.666Z" fill="#046CA8"/>
<path d="M41.6626 103.54L41.677 103.544L41.6626 103.54Z" fill="#046CA8"/>
<path d="M34.3315 93.5849L37.7494 104.241C38.3212 104.125 39.7768 103.59 41.2357 103.027C40.6275 102.211 39.5133 100.487 38.6839 98.221C37.8544 95.9504 37.5096 93.7466 37.3757 92.5986C35.86 93.0586 34.4214 93.5103 34.3315 93.5849Z" fill="#046CA8"/>
<path d="M44.3542 119.736C44.3542 121.704 45.9513 123.303 47.922 123.303C49.8927 123.303 51.4888 121.704 51.4888 119.736C51.4888 117.763 49.8927 116.169 47.922 116.169C45.9513 116.169 44.3542 117.763 44.3542 119.736Z" fill="#3D3466"/>
<path d="M37.588 120.871C38.3751 122.441 40.1161 123.162 41.4777 122.478C42.8392 121.798 43.3043 119.972 42.5172 118.401C41.7301 116.827 39.9882 116.106 38.6276 116.789C37.266 117.469 36.8009 119.296 37.588 120.871Z" fill="#6D64AF"/>
<path d="M36.6007 121.548C37.3877 123.118 39.1297 123.839 40.4912 123.159C41.8519 122.476 42.317 120.649 41.53 119.078C40.7421 117.508 39.0009 116.787 37.6402 117.467C36.2788 118.15 35.8136 119.977 36.6007 121.548Z" fill="#3D3466"/>
<path d="M37.6881 120.999C38.1287 121.877 39.1012 122.283 39.8621 121.903C40.6229 121.522 40.8822 120.498 40.4425 119.619C40.0027 118.745 39.0301 118.339 38.2693 118.721C37.5085 119.102 37.2492 120.125 37.6881 120.999Z" fill="#6D64AF"/>
<path d="M38.3277 120.681C38.5632 121.153 39.0851 121.369 39.4926 121.166C39.9002 120.958 40.04 120.412 39.8036 119.944C39.5681 119.472 39.0462 119.256 38.6386 119.459C38.231 119.666 38.0913 120.213 38.3277 120.681Z" fill="#3D3466"/>
<path d="M23.5354 94.4598C24.259 95.906 25.8585 96.5644 27.1091 95.9391C28.3596 95.3129 28.7874 93.6355 28.0639 92.1934C27.3403 90.7481 25.7408 90.0847 24.4894 90.7099C23.2389 91.3404 22.8127 93.0178 23.5354 94.4598Z" fill="#6D64AF"/>
<path d="M22.6289 95.0804C23.3515 96.5266 24.9519 97.1858 26.2024 96.5597C27.453 95.9344 27.8809 94.2559 27.1573 92.8106C26.4338 91.3686 24.8341 90.706 23.5828 91.3312C22.3331 91.9608 21.9053 93.6392 22.6289 95.0804Z" fill="#3D3466"/>
<path d="M23.6277 94.5807C24.0318 95.3881 24.9258 95.7576 25.6247 95.4093C26.3229 95.0568 26.5617 94.1206 26.1576 93.3123C25.7535 92.5091 24.8597 92.1364 24.1615 92.488C23.4625 92.8362 23.2236 93.7767 23.6277 94.5807Z" fill="#6D64AF"/>
<path d="M24.2143 94.2871C24.4311 94.7217 24.9107 94.9209 25.2851 94.7303C25.6596 94.5438 25.7875 94.0423 25.5716 93.6076C25.3546 93.1764 24.8751 92.9773 24.5006 93.1637C24.1261 93.3544 23.9974 93.8558 24.2143 94.2871Z" fill="#3D3466"/>
<path d="M16.1892 83.9183L21.8276 93.919L23.933 92.822L28.087 90.659C28.087 90.659 26.7747 88.7366 26.5069 88.3764C25.7978 87.4275 25.1954 86.5735 24.6251 85.9983C21.964 83.3007 19.9586 82.655 18.5734 82.7372C18.3844 82.7499 18.2082 82.7745 18.0422 82.8117L17.9819 82.8245C16.773 83.1024 16.1892 83.9183 16.1892 83.9183Z" fill="#0096ED"/>
<path d="M30.695 107.146C31.4176 108.588 33.0172 109.25 34.2677 108.625C35.5182 108 35.9462 106.321 35.2226 104.876C34.4999 103.434 32.8994 102.771 31.6489 103.397C30.3984 104.022 29.9714 105.7 30.695 107.146Z" fill="#6D64AF"/>
<path d="M29.7875 107.769C30.5111 109.21 32.1115 109.873 33.3612 109.247C34.6117 108.618 35.0387 106.944 34.316 105.498C33.5924 104.056 31.9929 103.393 30.7424 104.019C29.4918 104.645 29.064 106.322 29.7875 107.769Z" fill="#3D3466"/>
<path d="M30.7872 107.267C31.1913 108.071 32.0851 108.444 32.7833 108.092C33.4822 107.743 33.7204 106.803 33.3171 106C32.9128 105.192 32.019 104.823 31.3201 105.171C30.6219 105.523 30.3831 106.459 30.7872 107.267Z" fill="#6D64AF"/>
<path d="M31.3732 106.972C31.5901 107.402 32.0688 107.601 32.4441 107.415C32.8187 107.229 32.9465 106.723 32.7296 106.292C32.5137 105.857 32.034 105.662 31.6596 105.849C31.2851 106.036 31.1563 106.537 31.3732 106.972Z" fill="#3D3466"/>
<path d="M22.6472 96.2913L28.2018 107.523C28.7567 107.321 30.053 106.624 31.4179 105.85C33.5123 104.665 35.771 103.301 35.771 103.301L29.6531 92.915C29.6531 92.915 27.8638 93.7435 26.0922 94.5849C24.4061 95.3838 22.7388 96.1879 22.6472 96.2913Z" fill="#0096ED"/>
<path d="M29.6152 110.056L34.458 121.139L37.9215 119.365L43.8472 116.332L43.804 116.25L37.2293 106.091C37.2293 106.091 34.924 107.329 32.7296 108.477C31.524 109.107 30.3523 109.703 29.6152 110.056Z" fill="#0096ED"/>
<path d="M29.6152 110.054L34.458 121.137L37.9215 119.364C37.1455 118.485 35.8992 116.869 34.8554 114.739C33.5693 112.117 32.9431 109.507 32.7296 108.476C31.524 109.105 30.3523 109.702 29.6152 110.054Z" fill="#046CA8"/>
<path d="M22.6472 96.2914L28.2018 107.523C28.7567 107.321 30.053 106.624 31.4179 105.85C30.6478 104.992 29.3549 103.339 28.2789 101.147C26.8411 98.218 26.2285 95.3017 26.0922 94.585C24.4061 95.3839 22.7388 96.188 22.6472 96.2914Z" fill="#046CA8"/>
<path d="M16.1892 83.9213L21.8276 93.9221L23.933 92.825C23.3052 92.1988 21.6879 90.3425 20.3882 87.6914C19.4883 85.8563 18.9123 84.0289 18.5734 82.7402C18.3844 82.7529 18.2082 82.7775 18.0422 82.8147L17.9819 82.8275C16.773 83.1055 16.1892 83.9213 16.1892 83.9213Z" fill="#046CA8"/>
<path d="M37.0422 122.972C36.8795 124.936 38.3385 126.66 40.3023 126.821C42.2654 126.987 43.9896 125.524 44.1522 123.56C44.3157 121.596 42.8559 119.873 40.892 119.711C38.929 119.55 37.2048 121.009 37.0422 122.972Z" fill="#3D3466"/>
<path d="M33.1643 124.045C34.2801 125.379 36.122 125.677 37.2776 124.712C38.4333 123.746 38.4655 121.878 37.3488 120.544C36.2321 119.21 34.391 118.912 33.2346 119.881C32.079 120.846 32.0476 122.711 33.1643 124.045Z" fill="#6D64AF"/>
<path d="M32.3672 124.922C33.4831 126.256 35.3258 126.554 36.4806 125.584C37.6362 124.619 37.6684 122.755 36.5526 121.421C35.436 120.087 33.5949 119.788 32.4383 120.754C31.2827 121.723 31.2514 123.587 32.3672 124.922Z" fill="#3D3466"/>
<path d="M33.2908 124.148C33.9144 124.894 34.9437 125.06 35.5893 124.521C36.235 123.982 36.2527 122.939 35.6291 122.193C35.0056 121.447 33.9761 121.281 33.3306 121.82C32.685 122.362 32.6671 123.402 33.2908 124.148Z" fill="#6D64AF"/>
<path d="M33.8328 123.697C34.1675 124.095 34.719 124.186 35.0656 123.897C35.4112 123.606 35.4214 123.047 35.0867 122.649C34.753 122.247 34.2005 122.161 33.8541 122.45C33.5075 122.736 33.4982 123.296 33.8328 123.697Z" fill="#3D3466"/>
<path d="M13.6119 101.81C14.637 103.036 16.329 103.309 17.3906 102.423C18.4522 101.532 18.4819 99.8204 17.4558 98.5944C16.4307 97.3685 14.7387 97.0948 13.6772 97.981C12.6155 98.8722 12.5867 100.583 13.6119 101.81Z" fill="#6D64AF"/>
<path d="M12.8797 102.615C13.9048 103.838 15.5976 104.111 16.6584 103.224C17.7208 102.338 17.7497 100.623 16.7244 99.3965C15.6985 98.1697 14.0065 97.8968 12.945 98.7872C11.8833 99.6736 11.8546 101.389 12.8797 102.615Z" fill="#3D3466"/>
<path d="M13.728 101.905C14.3007 102.593 15.2462 102.742 15.8393 102.249C16.4323 101.752 16.4494 100.796 15.8758 100.108C15.303 99.4238 14.3575 99.2704 13.7644 99.7678C13.1714 100.265 13.1553 101.222 13.728 101.905Z" fill="#6D64AF"/>
<path d="M14.2263 101.49C14.5338 101.855 15.0404 101.938 15.359 101.673C15.6767 101.408 15.6851 100.894 15.3777 100.525C15.0709 100.157 14.5643 100.078 14.2457 100.343C13.928 100.608 13.9195 101.122 14.2263 101.49Z" fill="#3D3466"/>
<path d="M4.13379 93.3278L11.8437 101.68L13.5467 100.209L17.1289 97.11C17.1289 97.11 15.4275 95.5612 15.0878 95.2749C14.1889 94.5208 13.4145 93.8378 12.7325 93.4108C9.51042 91.3927 7.41776 91.2521 6.10537 91.6706C5.94859 91.7206 5.8012 91.7783 5.6665 91.8409L5.61142 91.8698C4.51077 92.4128 4.13379 93.3278 4.13379 93.3278Z" fill="#0096ED"/>
<path d="M23.3965 112.393C24.4216 113.619 26.1135 113.893 27.176 113.007C28.2376 112.12 28.2663 110.405 27.2412 109.178C26.2161 107.952 24.5233 107.679 23.4625 108.566C22.4001 109.456 22.3713 111.171 23.3965 112.393Z" fill="#6D64AF"/>
<path d="M22.6648 113.204C23.6899 114.431 25.3827 114.705 26.4444 113.813C27.5059 112.927 27.5347 111.211 26.5096 109.986C25.4844 108.76 23.7925 108.485 22.7308 109.376C21.6684 110.263 21.6396 111.978 22.6648 113.204Z" fill="#3D3466"/>
<path d="M23.5135 112.488C24.0862 113.176 25.0317 113.325 25.6248 112.832C26.2179 112.335 26.234 111.378 25.6613 110.695C25.0876 110.007 24.1431 109.853 23.55 110.351C22.956 110.848 22.9407 111.804 23.5135 112.488Z" fill="#6D64AF"/>
<path d="M24.0118 112.077C24.3186 112.442 24.8252 112.525 25.1438 112.26C25.4623 111.994 25.4708 111.481 25.1633 111.112C24.8566 110.747 24.3491 110.665 24.0305 110.93C23.7128 111.195 23.7044 111.709 24.0118 112.077Z" fill="#3D3466"/>
<path d="M13.1731 103.773L21.0821 113.326C21.4753 113.07 22.2573 112.394 23.1393 111.59C25.0404 109.858 27.4119 107.539 27.4119 107.539L19.1529 98.9248C19.1529 98.9248 16.8612 100.732 15.115 102.14C14.0712 102.981 13.2223 103.681 13.1731 103.773Z" fill="#0096ED"/>
<path d="M23.0205 115.445L30.2094 125.015L32.8018 122.811L38.1582 118.249L38.098 118.179L29.4502 109.889C29.4502 109.889 27.0559 112.019 25.0462 113.746C24.2549 114.426 23.5229 115.043 23.0205 115.445Z" fill="#0096ED"/>
<path d="M23.0205 115.446L30.2094 125.016L32.8018 122.812C31.8724 122.203 30.1263 120.885 28.464 118.93C26.7822 116.95 25.6105 114.854 25.0462 113.747C24.2549 114.427 23.5229 115.044 23.0205 115.446Z" fill="#046CA8"/>
<path d="M23.6899 111.903L23.7034 111.898L23.6899 111.903Z" fill="#046CA8"/>
<path d="M13.1731 103.773L21.0821 113.327C21.4753 113.07 22.2573 112.395 23.1393 111.591C22.2437 111.019 20.4212 109.673 18.6904 107.634C16.8332 105.451 15.5971 103.123 15.115 102.141C14.0712 102.982 13.2223 103.682 13.1731 103.773Z" fill="#046CA8"/>
<path d="M14.2693 100.633L14.2829 100.629L14.2693 100.633Z" fill="#046CA8"/>
<path d="M4.13379 93.3291L11.8437 101.681L13.5467 100.21C12.6037 99.5852 10.8956 98.2805 9.26896 96.3656C7.80919 94.6509 6.73226 92.8403 6.10537 91.6719C5.94859 91.7219 5.8012 91.7796 5.6665 91.8422L5.61142 91.8711C4.51077 92.4141 4.13379 93.3291 4.13379 93.3291Z" fill="#046CA8"/>
<path d="M35.1759 125.509C35.0479 127.472 36.5374 129.171 38.503 129.299C40.4695 129.428 42.1673 127.94 42.2961 125.973C42.424 124.009 40.9345 122.31 38.9681 122.182C37.0025 122.053 35.3046 123.541 35.1759 125.509Z" fill="#3D3466"/>
<path d="M31.5836 132.812C31.6226 132.857 55.481 151.986 57.289 153.602C59.9807 158.495 82.0954 153.602 82.7325 148.286C85.0395 142.337 86.4367 137.701 83.8433 132.833C81.8506 129.095 77.5042 125.222 69.4071 120.503C66.0749 118.564 62.6741 117.234 59.7799 116.335C52.8537 114.206 33.3103 124.12 31.3269 130.447C31.0533 131.316 31.1126 132.12 31.5836 132.812Z" fill="#0096ED"/>
<path d="M31.5836 132.811C31.6226 132.856 55.481 151.985 57.289 153.6C59.9807 158.493 82.0954 153.6 82.7325 148.285C85.0395 142.336 86.4367 137.699 83.8433 132.831C83.1105 136.883 79.9282 142.526 68.3455 144.531C52.6258 147.249 36.3155 134.692 31.3269 130.445C31.0533 131.314 31.1126 132.119 31.5836 132.811Z" fill="#0084D1"/>
<path d="M75.1649 134.145C75.1649 134.145 59.252 122.114 60.3881 120.225C61.5252 118.332 76.729 128.374 79.08 129.671C82.4267 131.515 79.396 134.56 75.1649 134.145Z" fill="#3BB7FD"/>
<path d="M63.805 136.705C63.805 136.705 51.6556 125.871 53.4602 124.28C55.2647 122.689 67.2584 130.764 69.0308 132.483C71.5539 134.931 67.7158 137.952 63.805 136.705Z" fill="#3BB7FD"/>
<path d="M65.1022 142.305C65.1022 142.305 63.5907 134.081 52.6748 129.544C41.7598 125.008 43.7136 136.028 46.3189 139.219C53.5958 148.134 67.0873 150.383 65.1022 142.305Z" fill="#3D3466"/>
<path d="M50.3729 137.381C49.4434 139.627 50.3907 142.254 52.5511 143.277C54.7861 144.334 57.455 143.286 58.442 140.899C59.4299 138.517 58.314 135.815 56.0205 134.9C53.8026 134.013 51.3031 135.14 50.3729 137.381Z" fill="#2F2752"/>
<path d="M38.1208 132.675L41.8182 137.738L50.76 144.57C54.1515 142.072 55.6816 138.666 57.0152 133.927L48.0632 127.87L41.703 126.83L38.1208 132.675Z" fill="#3BB7FD"/>
<path d="M38.0693 132.679L41.7625 137.742C44.7126 134.859 47.0831 131.655 48.004 127.877L41.6497 126.837L38.0693 132.679Z" fill="#046CA8"/>
<path d="M43.149 132.169C44.5139 130.35 44.5199 127.959 43.1838 126.87C41.8808 125.809 39.7965 126.402 38.5104 128.154C37.2353 129.894 37.1811 132.19 38.4079 133.316C39.6644 134.469 41.7952 133.971 43.149 132.169Z" fill="#6D64AF"/>
<path d="M44.3293 132.911C45.7136 131.076 45.7119 128.661 44.347 127.55C43.016 126.469 40.8963 127.057 39.5931 128.827C38.3002 130.583 38.2528 132.903 39.5051 134.047C40.7886 135.219 42.9567 134.73 44.3293 132.911Z" fill="#3D3466"/>
<path d="M43.2469 131.978C44.0086 130.963 44.0144 129.624 43.2663 128.999C42.5292 128.381 41.3388 128.701 40.6026 129.695C39.8698 130.685 39.8485 131.994 40.5611 132.629C41.2847 133.275 42.4894 132.989 43.2469 131.978Z" fill="#6D64AF"/>
<path d="M42.6216 131.44C43.0266 130.897 43.0316 130.185 42.6351 129.848C42.2412 129.513 41.6015 129.679 41.2041 130.214C40.8076 130.747 40.7974 131.452 41.1846 131.792C41.5736 132.136 42.2183 131.978 42.6216 131.44Z" fill="#3D3466"/>
<path d="M29.2419 126.253L32.6046 130.122L40.5483 136.602C43.0402 133.47 44.9312 130.491 46.1783 126.522L37.7737 121.36L32.4564 120.846L29.2419 126.253Z" fill="#3BB7FD"/>
<path d="M29.2419 126.253L32.6046 130.122C34.9998 127.276 36.9688 124.355 37.7737 121.36L32.4564 120.846L29.2419 126.253Z" fill="#046CA8"/>
<path d="M33.4848 125.308C34.5176 123.493 34.343 121.413 33.1188 120.689C31.9225 119.976 30.1755 120.834 29.1944 122.583C28.2183 124.318 28.3395 126.34 29.485 127.119C30.6575 127.914 32.4579 127.114 33.4848 125.308Z" fill="#6D64AF"/>
<path d="M34.5522 125.757C35.5969 123.926 35.4122 121.821 34.1642 121.083C32.9451 120.367 31.1701 121.225 30.1779 122.986C29.1909 124.742 29.3205 126.784 30.488 127.572C31.6835 128.383 33.5126 127.58 34.5522 125.757Z" fill="#3D3466"/>
<path d="M33.5551 125.123C34.1313 124.113 34.0354 122.944 33.3484 122.526C32.6697 122.111 31.6717 122.588 31.1125 123.578C30.5533 124.568 30.6322 125.716 31.2946 126.151C31.9649 126.59 32.9807 126.134 33.5551 125.123Z" fill="#6D64AF"/>
<path d="M32.9781 124.756C33.2849 124.217 33.2357 123.591 32.8706 123.368C32.5079 123.141 31.9699 123.393 31.6683 123.928C31.3666 124.461 31.4116 125.079 31.7691 125.311C32.1292 125.543 32.6723 125.294 32.9781 124.756Z" fill="#3D3466"/>
<path d="M36.017 120.71C35.1037 123.436 33.4379 126.269 31.3995 129.129L22.0188 123.241C22.0188 123.241 23.7234 118.696 28.0571 118.572C32.7144 118.436 36.017 120.71 36.017 120.71Z" fill="#3BB7FD"/>
<path d="M163.021 78.2566C162.051 86.911 158.467 96.0224 152.594 102.038C145.777 109.022 136.731 113.452 128.03 117.591C118.711 122.028 107.511 124.924 97.2373 121.746C86.9154 118.556 79.0225 109.471 74.9651 99.7299C73.0969 95.2472 71.9057 90.4162 71.9793 85.5403C72.0937 78.021 74.4262 70.7906 75.7377 63.4408C76.901 56.9204 77.2687 50.3492 81.1889 44.7227C84.5787 39.8552 89.5511 36.0934 95.0913 34.0134C102.665 31.1667 111.034 31.2125 118.854 32.9612C126.821 34.7422 133.941 39.1512 140.92 43.2358C152.114 49.7857 163.054 58.8843 163.284 72.9282C163.313 74.6608 163.224 76.4502 163.021 78.2566Z" fill="#DADFE3"/>
<path d="M81.5571 95.915C81.5571 95.915 84.1251 101.226 86.1712 101.226C88.2173 101.226 89.6974 99.3117 91.6563 99.3117C93.615 99.3117 100.363 115.395 103.627 115.395C106.892 115.395 112.856 100.791 115.337 100.791C117.818 100.791 123.565 106.906 126.829 106.906C130.094 106.906 135.492 98.1806 138.234 98.1806C140.977 98.1806 144.926 101.359 147.784 101.359C150.641 101.359 154.602 96.0016 154.602 96.0016L81.5571 95.915Z" fill="#91F2F2"/>
<path d="M131.714 82.8965C131.663 82.8965 131.622 82.8551 131.622 82.8016V67.8114C131.622 67.7623 131.663 67.7207 131.714 67.7207C131.766 67.7207 131.807 67.7623 131.807 67.8114V82.8016C131.807 82.8551 131.766 82.8965 131.714 82.8965Z" fill="#312A52"/>
<path d="M129.812 82.8965C129.761 82.8965 129.719 82.8551 129.719 82.8016V67.8114C129.719 67.7623 129.761 67.7207 129.812 67.7207C129.864 67.7207 129.905 67.7623 129.905 67.8114V82.8016C129.905 82.8551 129.864 82.8965 129.812 82.8965Z" fill="#312A52"/>
<path d="M129.824 82.844L129.758 82.8152L129.761 82.6865L131.505 80.992H129.811L129.747 80.8395L131.505 79.1281H129.808L129.744 78.9748L131.499 77.2675H129.817L129.752 77.1151L131.492 75.4248H129.807L129.744 75.2672L131.499 73.56H129.814L129.75 73.4066L131.492 71.7121H129.809L129.745 71.5546L131.499 69.8559H129.812L129.749 69.6983L131.499 68.0003H129.819C129.768 68.0003 129.728 67.9589 129.728 67.9089C129.728 67.8547 129.768 67.8174 129.819 67.8174H131.724L131.788 67.9707L130.038 69.6738H131.724L131.788 69.827L130.034 71.53H131.718L131.781 71.6876L130.039 73.3778H131.724L131.788 73.5354L130.033 75.2418H131.718L131.781 75.3951L130.041 77.0854H131.724L131.788 77.243L130.033 78.946H131.73L131.794 79.1035L130.035 80.8099H131.73L131.794 80.9675L129.888 82.8195L129.824 82.844Z" fill="#312A52"/>
<path d="M133.307 69.3114L133.271 69.3028L133.236 69.241V68.1921L131.485 69.2986H131.412L131.375 69.2368V68.1964C131.316 68.2302 131.257 68.2666 131.198 68.304C130.658 68.6353 130.147 68.9461 129.641 69.2901L129.567 69.2944L129.529 69.2326V68.1921C129.044 68.5073 128.484 68.8597 127.776 69.2986H127.704L127.668 69.2368V68.2049C127.42 68.3709 127.164 68.52 126.914 68.6649C126.585 68.8555 126.246 69.0504 125.934 69.2901L125.859 69.2944L125.819 69.2326V68.1921C125.628 68.3124 125.43 68.4327 125.239 68.5489C124.847 68.7895 124.442 69.0377 124.072 69.2944L123.998 69.2986L123.96 69.2368V68.1964C123.764 68.3167 123.566 68.4412 123.374 68.5615C122.995 68.797 122.604 69.0419 122.215 69.2944L122.116 69.2741L122.136 69.1783C122.527 68.9216 122.919 68.6776 123.298 68.4412C123.527 68.2963 123.763 68.1515 123.993 68.0057L124.066 68.0015L124.103 68.0642V69.0996C124.445 68.8682 124.81 68.6438 125.164 68.4285C125.392 68.2921 125.628 68.1472 125.852 68.0015H125.925L125.962 68.0642V69.0919C126.248 68.8844 126.549 68.7107 126.842 68.5404C127.127 68.3751 127.422 68.2049 127.697 68.0057L127.772 68.0015L127.81 68.0642V69.108C128.519 68.6691 129.078 68.3167 129.561 68.0015L129.634 67.998L129.671 68.0599V69.0996C130.144 68.7809 130.621 68.487 131.124 68.1802C131.218 68.1218 131.313 68.0642 131.409 68.0057H131.481L131.518 68.0684V69.108L133.269 68.0015L133.342 67.998L133.378 68.0642V69.1164C133.852 68.8343 134.365 68.5115 134.944 68.1219L135.043 68.143L135.024 68.2421C134.398 68.6607 133.848 69.0046 133.343 69.3028L133.307 69.3114Z" fill="#312A52"/>
<path d="M128.585 69.3093C126.446 69.3093 124.304 69.3093 122.176 69.3051C122.135 69.3051 122.103 69.2721 122.103 69.2349C122.103 69.1933 122.135 69.1603 122.176 69.1603C126.41 69.1687 130.692 69.1687 134.907 69.1603L134.909 68.141C131.31 68.1537 127.651 68.1537 124.031 68.141C123.992 68.141 123.958 68.108 123.958 68.0665C123.959 68.025 123.992 67.9961 124.032 67.9961C127.675 68.008 131.359 68.008 134.981 67.9961L135.033 68.0164L135.054 68.0665L135.051 69.2349C135.051 69.2721 135.018 69.3051 134.979 69.3051C132.86 69.3093 130.724 69.3093 128.585 69.3093Z" fill="#312A52"/>
<path d="M122.253 73.103C122.213 73.103 122.18 73.07 122.18 73.0285V69.2296C122.18 69.1922 122.213 69.1592 122.253 69.1592C122.293 69.1592 122.326 69.1922 122.326 69.2296V73.0285C122.326 73.07 122.293 73.103 122.253 73.103Z" fill="#312A52"/>
<path d="M129.181 70.0893H132.359V67.3096H129.181V70.0893Z" fill="#312A52"/>
<path d="M131.723 67.9763L131.657 67.9306L129.933 63.4648V67.7281C129.933 67.7655 129.901 67.7984 129.862 67.7984C129.822 67.7984 129.791 67.7655 129.791 67.7281V63.0794L129.928 63.0547L131.79 67.8772L131.749 67.9721L131.723 67.9763Z" fill="#312A52"/>
<path d="M129.879 67.2597L129.838 67.2478L129.821 67.1478L130.741 65.8516H129.879C129.84 65.8516 129.808 65.8227 129.808 65.7804C129.808 65.7389 129.84 65.7109 129.879 65.7109H130.879L130.937 65.8227L129.938 67.2308L129.879 67.2597Z" fill="#312A52"/>
<path d="M136.392 77.8715L148.273 67.7715V95.8194H136.392V77.8715Z" fill="#312A52"/>
<path d="M127.34 77.8715L139.221 67.7715V95.8194H127.34V77.8715Z" fill="#312A52"/>
<path d="M142.708 77.2122H144.096V75.8242H142.708V77.2122Z" fill="#48C6C6"/>
<path d="M144.503 77.2122H145.892V75.8242H144.503V77.2122Z" fill="#48C6C6"/>
<path d="M142.708 79.0635H144.096V77.6758H142.708V79.0635Z" fill="#48C6C6"/>
<path d="M144.503 79.0635H145.892V77.6758H144.503V79.0635Z" fill="#48C6C6"/>
<path d="M107.26 95.8832V89.3831L103.407 78.4291V71.9824H95.2057V78.4291L91.3525 89.3831V95.8832H107.26Z" fill="#312A52"/>
<path d="M94.7117 72.3402H103.786V71.959H94.7117V72.3402Z" fill="#312A52"/>
<path d="M135.061 94.8909V78.6788L126.68 72.3652L118.636 78.6788H101.738V94.8909H135.061Z" fill="#48C6C6"/>
<path d="M103.517 86.4927H107.07V83.1367H103.517V86.4927Z" fill="#312A52"/>
<path d="M107.897 86.4927H111.45V83.1367H107.897V86.4927Z" fill="#312A52"/>
<path d="M103.517 94.5588H107.07V88.543H103.517V94.5588Z" fill="#3BA3A3"/>
<path d="M107.266 94.5588H110.819V88.543H107.266V94.5588Z" fill="#3BA3A3"/>
<path d="M112.124 94.5588H115.677V88.543H112.124V94.5588Z" fill="#3BA3A3"/>
<path d="M115.872 94.5588H119.425V88.543H115.872V94.5588Z" fill="#3BA3A3"/>
<path d="M120.595 94.5588H124.149V88.543H120.595V94.5588Z" fill="#3BA3A3"/>
<path d="M124.344 94.5588H127.898V88.543H124.344V94.5588Z" fill="#3BA3A3"/>
<path d="M129.797 94.5588H133.35V88.543H129.797V94.5588Z" fill="#3BA3A3"/>
<path d="M112.277 86.4927H115.83V83.1367H112.277V86.4927Z" fill="#312A52"/>
<path d="M116.656 86.4927H120.209V83.1367H116.656V86.4927Z" fill="#312A52"/>
<path d="M121.036 86.4927H124.589V83.1367H121.036V86.4927Z" fill="#312A52"/>
<path d="M125.416 86.4927H128.969V83.1367H125.416V86.4927Z" fill="#312A52"/>
<path d="M129.795 86.4927H133.349V83.1367H129.795V86.4927Z" fill="#312A52"/>
<path d="M110.981 79.3572H105.287L105.627 72.5336L105.799 69.0785L106.065 63.7383H110.203L110.469 69.0785L110.64 72.5336L110.981 79.3572Z" fill="#48C6C6"/>
<path d="M105.621 64.0363H110.756V63.6924H105.621V64.0363Z" fill="#48C6C6"/>
<path d="M99.6467 95.8841H136.822V94.6328H99.6467V95.8841Z" fill="#48C6C6"/>
<path d="M97.0539 95.9246V89.3831L95.0519 83.6904L93.2007 78.4291V71.9824H84.9993V78.4291L83.1473 83.6904L81.1453 89.3831V95.9246H97.0539Z" fill="#48C6C6"/>
<path d="M84.5056 72.3402H93.5798V71.959H84.5056V72.3402Z" fill="#48C6C6"/>
<path d="M95.0524 83.6921H83.1477L84.9997 78.4308V75.9365H93.2011V78.4308L95.0524 83.6921Z" fill="white"/>
<path d="M110.469 69.0781L110.64 72.5332H105.626L105.798 69.0781H110.469Z" fill="white"/>
<path d="M119.23 79.36H112.482L112.822 72.5364L112.994 69.0813L113.403 60.8486H118.309L118.717 69.0813L118.89 72.5364L119.23 79.36Z" fill="#48C6C6"/>
<path d="M112.962 61.174H118.855V60.8301H112.962V61.174Z" fill="#48C6C6"/>
<path d="M118.89 72.5332H112.823L112.994 69.0781H118.718L118.89 72.5332Z" fill="white"/>
<path d="M137.93 95.8645H152.289V81.1777H137.93V95.8645Z" fill="#BFF0FF"/>
<path d="M138.696 85.1307H142.584V82.7402H138.696V85.1307Z" fill="#73DAE1"/>
<path d="M138.696 88.4012H142.584V86.0107H138.696V88.4012Z" fill="#73DAE1"/>
<path d="M138.696 91.6707H142.584V89.2842H138.696V91.6707Z" fill="#73DAE1"/>
<path d="M138.696 94.9433H142.584V92.5527H138.696V94.9433Z" fill="#73DAE1"/>
<path d="M142.841 85.1307H146.729V82.7402H142.841V85.1307Z" fill="#73DAE1"/>
<path d="M142.841 88.4012H146.729V86.0107H142.841V88.4012Z" fill="#73DAE1"/>
<path d="M142.841 91.6707H146.729V89.2842H142.841V91.6707Z" fill="#73DAE1"/>
<path d="M142.841 94.9433H146.729V92.5527H142.841V94.9433Z" fill="#73DAE1"/>
<path d="M146.986 85.1307H150.873V82.7402H146.986V85.1307Z" fill="#73DAE1"/>
<path d="M146.986 88.4012H150.873V86.0107H146.986V88.4012Z" fill="#73DAE1"/>
<path d="M146.986 91.6707H150.873V89.2842H146.986V91.6707Z" fill="#73DAE1"/>
<path d="M146.986 94.9433H150.873V92.5527H146.986V94.9433Z" fill="#73DAE1"/>
<path d="M137.761 81.2422H152.289V80.4053H137.761V81.2422Z" fill="#73DAE1"/>
<path d="M137.93 81.3729H152.289V81.2402H137.93V81.3729Z" fill="#48ACB3"/>
<path d="M89.0056 95.4045C89.0056 95.4045 89.9436 95.1267 89.7063 94.1329C89.4691 93.1382 89.2699 93.4076 89.4004 92.6121C89.5292 91.8165 89.3377 91.6013 88.9557 91.2031C88.5727 90.8099 88.7142 90.5694 88.6032 90.1305C88.4752 89.6205 87.8542 89.5544 87.8 90.5033C87.7466 91.4564 87.2975 91.5107 87.3077 92.0732C87.3222 92.8315 87.5542 92.873 87.4891 93.3416C87.4229 93.805 86.9604 94.7336 87.3425 95.1682C87.7237 95.5995 89.0056 95.4045 89.0056 95.4045Z" fill="#FFFBBA"/>
<path d="M88.4435 93.4024C88.4588 94.2438 88.4487 95.0801 88.4342 95.9213H88.5189C88.5232 95.0801 88.5232 94.2395 88.4978 93.4024C88.4851 92.9754 88.4664 92.5536 88.4376 92.1308C88.4079 91.708 88.3699 91.2852 88.314 90.8632L88.3003 90.8506L88.2893 90.8666C88.3402 91.2852 88.3741 91.708 88.3978 92.1308C88.4215 92.5578 88.4359 92.9796 88.4435 93.4024Z" fill="#AF5F23"/>
<path d="M88.4817 94.5753H88.4791C88.1954 94.4719 87.9793 94.2313 87.8191 93.85L87.8259 93.833L87.842 93.8381C87.9988 94.2194 88.2105 94.4507 88.4877 94.5508L88.4952 94.5668L88.4817 94.5753Z" fill="#AF5F23"/>
<path d="M88.4802 94.0326L88.475 94.0293L88.4734 94.0123C88.664 93.7717 88.814 93.4234 88.9054 93.0016L88.9199 92.9932L88.9292 93.0092C88.8369 93.432 88.6861 93.7844 88.4921 94.0293L88.4802 94.0326Z" fill="#AF5F23"/>
<path d="M88.4192 92.3469H88.4134C88.1905 92.169 87.9295 91.8538 87.8694 91.4853L87.8796 91.4727L87.8939 91.4811C87.9532 91.842 88.2091 92.1521 88.4295 92.3267L88.4311 92.3427L88.4192 92.3469Z" fill="#AF5F23"/>
<path d="M88.7927 93.4446L88.7825 93.432L88.7952 93.4201C88.8952 93.4234 88.9859 93.3786 89.0722 93.2871H89.0901V93.304C89.0002 93.3989 88.9003 93.4489 88.7943 93.4446H88.7927Z" fill="#AF5F23"/>
<path d="M95.0799 95.5109C95.0799 95.5109 96.1467 95.2339 95.9145 94.1019C95.6815 92.9709 95.4485 93.27 95.6213 92.3744C95.795 91.484 95.5874 91.2348 95.1697 90.7756C94.7521 90.3156 94.9189 90.0504 94.8096 89.5489C94.6833 88.9735 93.9853 88.8779 93.8912 89.9471C93.7971 91.0197 93.2905 91.0612 93.2829 91.695C93.2728 92.5532 93.5328 92.6108 93.4431 93.1327C93.3524 93.6546 92.7983 94.6823 93.2143 95.1839C93.6294 95.6889 95.0799 95.5109 95.0799 95.5109Z" fill="#FD9463"/>
<path d="M94.5068 93.2372C94.4915 94.1319 94.4517 95.0267 94.4067 95.9213H94.5414C94.5686 95.0267 94.5915 94.1319 94.5889 93.2372C94.5872 92.7603 94.5788 92.2799 94.5593 91.8029C94.539 91.3225 94.5076 90.8464 94.4576 90.3702L94.4441 90.3574L94.4339 90.3702C94.4729 90.8506 94.4949 91.3267 94.505 91.8029C94.5161 92.2799 94.5153 92.7603 94.5068 93.2372Z" fill="#96583B"/>
<path d="M94.5211 94.5723L94.5347 94.5639L94.5287 94.5477C94.2169 94.402 93.9052 94.0334 93.8196 93.7107L93.8052 93.7021L93.7959 93.7191C93.884 94.0504 94.195 94.4189 94.5186 94.5723H94.5211Z" fill="#96583B"/>
<path d="M94.536 93.9582L94.5479 93.9538C94.8183 93.6065 94.9962 93.2209 95.0766 92.8066L95.0673 92.7939L95.0521 92.8024C94.9733 93.2125 94.7962 93.5937 94.5276 93.9377L94.5302 93.9582H94.536Z" fill="#96583B"/>
<path d="M94.5267 92.0452L94.5394 92.041L94.5351 92.0249C94.2064 91.8089 94.0183 91.4945 93.9624 91.0548L93.9479 91.043L93.937 91.059C93.9946 91.4987 94.1903 91.83 94.5216 92.0452H94.5267Z" fill="#96583B"/>
<path d="M94.9187 93.2997H94.9211C95.0525 93.2912 95.1627 93.2377 95.249 93.1463L95.2482 93.126L95.2305 93.1294C95.1483 93.2166 95.0466 93.2666 94.9195 93.2742L94.9084 93.287L94.9187 93.2997Z" fill="#96583B"/>
<path d="M90.5362 95.4416C90.5362 95.4416 89.0866 95.0518 89.4128 93.515C89.7381 91.9781 90.0532 92.3839 89.8246 91.1655C89.5958 89.9523 89.8813 89.6126 90.4532 88.9906C91.025 88.3696 90.7997 88.0045 90.953 87.3292C91.1301 86.5422 92.0815 86.4143 92.2001 87.8766C92.3197 89.3346 93.0093 89.3965 93.0143 90.2632C93.022 91.4265 92.6661 91.5018 92.7848 92.2145C92.9034 92.927 93.649 94.3317 93.0796 95.0112C92.5095 95.6899 90.5362 95.4416 90.5362 95.4416Z" fill="#6CCC9F"/>
<path d="M91.408 95.9209C91.358 94.7195 91.3149 93.5224 91.3047 92.3252C91.2987 91.6745 91.303 91.0239 91.3224 90.3698C91.3411 89.7234 91.3767 89.0726 91.436 88.422L91.4249 88.4102L91.4114 88.422C91.3411 89.0684 91.2962 89.7191 91.2665 90.3698C91.2369 91.0197 91.2225 91.6703 91.2182 92.3252C91.2098 93.5224 91.2343 94.7195 91.2665 95.9209H91.408Z" fill="#36664F"/>
<path d="M91.2855 94.1343L91.2744 94.1257L91.2812 94.1097C91.743 93.9139 92.0683 93.5335 92.2479 92.9734L92.2641 92.9658L92.2716 92.9819C92.0894 93.5496 91.7591 93.9351 91.2905 94.13L91.2855 94.1343Z" fill="#36664F"/>
<path d="M91.2636 93.2877H91.256C90.8476 92.8734 90.6087 92.3472 90.5486 91.7296L90.5595 91.7178L90.5731 91.7296C90.6333 92.3388 90.8688 92.8572 91.2738 93.2673V93.2877H91.2636Z" fill="#36664F"/>
<path d="M91.288 90.7173L91.2786 90.708L91.2828 90.6919C91.6591 90.4478 91.9072 89.8472 92.0809 89.349L92.097 89.3457L92.1046 89.3575C91.9293 89.859 91.6784 90.464 91.2964 90.7122L91.288 90.7173Z" fill="#36664F"/>
<path d="M90.7007 92.3908C90.5449 92.3737 90.4136 92.3035 90.311 92.1874L90.3119 92.167L90.3296 92.1712C90.4279 92.283 90.5533 92.3492 90.7025 92.3661L90.7143 92.3779L90.7007 92.3908Z" fill="#36664F"/>
<path d="M91.7276 90.2019L91.7166 90.1891L91.7276 90.1773C91.8995 90.1604 92.03 90.0942 92.1182 89.9739L92.1351 89.9697L92.1377 89.9867C92.0461 90.1146 91.9089 90.1858 91.7302 90.2019H91.7276Z" fill="#36664F"/>
<path d="M146.932 95.4045C146.932 95.4045 147.87 95.1267 147.633 94.1329C147.397 93.1382 147.197 93.4076 147.327 92.6121C147.457 91.8165 147.265 91.6013 146.883 91.2031C146.5 90.8099 146.641 90.5694 146.531 90.1305C146.403 89.6205 145.781 89.5544 145.727 90.5033C145.673 91.4564 145.225 91.5107 145.235 92.0732C145.25 92.8315 145.483 92.873 145.417 93.3416C145.35 93.805 144.888 94.7336 145.269 95.1682C145.652 95.5995 146.932 95.4045 146.932 95.4045Z" fill="#FFFBBA"/>
<path d="M146.371 93.4024C146.386 94.2438 146.377 95.0801 146.363 95.9213H146.447C146.45 95.0801 146.45 94.2395 146.426 93.4024C146.413 92.9754 146.394 92.5536 146.365 92.1308C146.336 91.708 146.297 91.2852 146.242 90.8632L146.228 90.8506L146.217 90.8666C146.268 91.2852 146.301 91.708 146.326 92.1308C146.35 92.5578 146.364 92.9796 146.371 93.4024Z" fill="#AF5F23"/>
<path d="M146.409 94.5753H146.407C146.122 94.4719 145.906 94.2313 145.747 93.85L145.754 93.833L145.77 93.8381C145.927 94.2194 146.138 94.4507 146.416 94.5508L146.422 94.5668L146.409 94.5753Z" fill="#AF5F23"/>
<path d="M146.408 94.0326L146.403 94.0293L146.401 94.0123C146.592 93.7717 146.742 93.4234 146.833 93.0016L146.848 92.9932L146.857 93.0092C146.765 93.432 146.614 93.7844 146.421 94.0293L146.408 94.0326Z" fill="#AF5F23"/>
<path d="M146.347 92.3469H146.341C146.118 92.169 145.858 91.8538 145.797 91.4853L145.807 91.4727L145.821 91.4811C145.881 91.842 146.137 92.1521 146.356 92.3267L146.359 92.3427L146.347 92.3469Z" fill="#AF5F23"/>
<path d="M146.721 93.4446L146.71 93.432L146.723 93.4201C146.823 93.4234 146.913 93.3786 147 93.2871H147.017L147.018 93.304C146.928 93.3989 146.828 93.4489 146.722 93.4446H146.721Z" fill="#AF5F23"/>
<path d="M153.008 95.5109C153.008 95.5109 154.074 95.2339 153.841 94.1019C153.609 92.9709 153.375 93.27 153.549 92.3744C153.723 91.484 153.515 91.2348 153.098 90.7756C152.68 90.3156 152.847 90.0504 152.737 89.5489C152.61 88.9735 151.913 88.8779 151.819 89.9471C151.725 91.0197 151.218 91.0612 151.21 91.695C151.2 92.5532 151.461 92.6108 151.37 93.1327C151.28 93.6546 150.726 94.6823 151.141 95.1839C151.557 95.6889 153.008 95.5109 153.008 95.5109Z" fill="#FD9463"/>
<path d="M152.434 93.2372C152.419 94.1319 152.379 95.0267 152.333 95.9213H152.469C152.496 95.0267 152.518 94.1319 152.516 93.2372C152.515 92.7603 152.506 92.2799 152.486 91.8029C152.467 91.3225 152.435 90.8464 152.385 90.3702L152.372 90.3574L152.361 90.3702C152.4 90.8506 152.423 91.3267 152.433 91.8029C152.443 92.2799 152.442 92.7603 152.434 93.2372Z" fill="#96583B"/>
<path d="M152.449 94.5723L152.462 94.5639L152.456 94.5477C152.144 94.402 151.833 94.0334 151.747 93.7107L151.732 93.7021L151.723 93.7191C151.811 94.0504 152.122 94.4189 152.445 94.5723H152.449Z" fill="#96583B"/>
<path d="M152.464 93.9582L152.475 93.9538C152.746 93.6065 152.924 93.2209 153.005 92.8066L152.994 92.7939L152.98 92.8024C152.901 93.2125 152.724 93.5937 152.456 93.9377L152.458 93.9582H152.464Z" fill="#96583B"/>
<path d="M152.455 92.0452L152.467 92.041L152.463 92.0249C152.134 91.8089 151.946 91.4945 151.89 91.0548L151.876 91.043L151.865 91.059C151.922 91.4987 152.118 91.83 152.449 92.0452H152.455Z" fill="#96583B"/>
<path d="M152.846 93.2997H152.848C152.98 93.2912 153.09 93.2377 153.176 93.1463L153.175 93.126L153.158 93.1294C153.075 93.2166 152.973 93.2666 152.847 93.2742L152.835 93.287L152.846 93.2997Z" fill="#96583B"/>
<path d="M148.464 95.4416C148.464 95.4416 147.015 95.0518 147.34 93.515C147.666 91.9781 147.982 92.3839 147.753 91.1655C147.524 89.9523 147.809 89.6126 148.381 88.9906C148.953 88.3696 148.728 88.0045 148.881 87.3292C149.058 86.5422 150.009 86.4143 150.127 87.8766C150.247 89.3346 150.937 89.3965 150.942 90.2632C150.949 91.4265 150.594 91.5018 150.713 92.2145C150.832 92.927 151.577 94.3317 151.007 95.0112C150.438 95.6899 148.464 95.4416 148.464 95.4416Z" fill="#6CCC9F"/>
<path d="M149.336 95.9209C149.285 94.7195 149.242 93.5224 149.232 92.3252C149.226 91.6745 149.23 91.0239 149.25 90.3698C149.27 89.7234 149.304 89.0726 149.364 88.422L149.353 88.4102L149.339 88.422C149.269 89.0684 149.224 89.7191 149.194 90.3698C149.165 91.0197 149.15 91.6703 149.146 92.3252C149.138 93.5224 149.162 94.7195 149.194 95.9209H149.336Z" fill="#36664F"/>
<path d="M149.212 94.1343L149.202 94.1257L149.209 94.1097C149.67 93.9139 149.996 93.5335 150.175 92.9734L150.191 92.9658L150.198 92.9819C150.017 93.5496 149.687 93.9351 149.218 94.13L149.212 94.1343Z" fill="#36664F"/>
<path d="M149.191 93.2877H149.183C148.774 92.8734 148.536 92.3472 148.475 91.7296L148.487 91.7178L148.5 91.7296C148.56 92.3388 148.796 92.8572 149.201 93.2673L149.2 93.2877H149.191Z" fill="#36664F"/>
<path d="M149.215 90.7173L149.206 90.708L149.21 90.6919C149.587 90.4478 149.834 89.8472 150.008 89.349L150.024 89.3457L150.031 89.3575C149.856 89.859 149.607 90.464 149.224 90.7122L149.215 90.7173Z" fill="#36664F"/>
<path d="M148.629 92.3908H148.628C148.473 92.3737 148.34 92.3035 148.238 92.1874L148.24 92.167L148.257 92.1712C148.356 92.283 148.482 92.3492 148.63 92.3661L148.641 92.3779L148.629 92.3908Z" fill="#36664F"/>
<path d="M149.655 90.2019L149.644 90.1891L149.655 90.1773C149.826 90.1604 149.957 90.0942 150.045 89.9739L150.063 89.9697L150.065 89.9867C149.973 90.1146 149.836 90.1858 149.658 90.2019H149.655Z" fill="#36664F"/>
<path d="M91.8824 95.9643C91.6707 95.8567 91.3224 95.7279 90.9132 95.7279C89.9058 95.7279 90.0413 95.3762 89.6119 95.0907C89.1941 94.8129 88.979 94.8578 88.0512 94.8578C87.1226 94.8578 87.281 94.3401 86.4059 94.2943C85.2129 94.2325 85.1511 94.5765 84.2581 95.0941C83.5693 95.4923 83.2507 95.2271 82.4552 95.5668C82.1595 95.6948 82.0511 95.8363 82.0308 95.9643H91.8824Z" fill="#60B58D"/>
<path d="M113.555 95.9643C113.188 95.8567 112.585 95.7279 111.875 95.7279C110.128 95.7279 110.362 95.3762 109.617 95.0907C108.894 94.8129 108.52 94.8578 106.911 94.8578C105.302 94.8578 105.576 94.3401 104.059 94.2943C101.99 94.2325 101.883 94.5765 100.334 95.0941C99.1387 95.4923 98.5863 95.2271 97.2079 95.5668C96.6945 95.6948 96.5055 95.8363 96.4717 95.9643H113.555Z" fill="#60B58D"/>
<path d="M137.501 95.3471C137.501 95.3471 138.439 95.0692 138.201 94.0745C137.965 93.0807 137.766 93.3501 137.896 92.5546C138.024 91.7589 137.834 91.5438 137.451 91.1456C137.069 90.7525 137.209 90.5077 137.099 90.073C136.971 89.563 136.349 89.4968 136.295 90.4449C136.241 91.398 135.794 91.4523 135.804 92.0156C135.818 92.7739 136.05 92.8156 135.984 93.2833C135.919 93.7475 135.456 94.6753 135.838 95.1065C136.22 95.5412 137.501 95.3471 137.501 95.3471Z" fill="#FFFBBA"/>
<path d="M136.939 93.3438C136.955 94.1842 136.944 95.0213 136.931 95.8584H137.015C137.019 95.0213 137.019 94.1799 136.994 93.3438C136.982 92.9168 136.962 92.494 136.933 92.0712C136.905 91.6492 136.866 91.2265 136.81 90.8037L136.797 90.791L136.786 90.8079C136.836 91.2265 136.87 91.6492 136.894 92.0712C136.918 92.4982 136.932 92.921 136.939 93.3438Z" fill="#AF5F23"/>
<path d="M136.977 94.5176H136.974C136.691 94.4134 136.475 94.1736 136.315 93.7924L136.322 93.7754L136.338 93.7796C136.494 94.1566 136.706 94.393 136.984 94.4921L136.99 94.509L136.977 94.5176Z" fill="#AF5F23"/>
<path d="M136.976 93.9752L136.971 93.9709L136.969 93.954C137.16 93.7142 137.309 93.3659 137.401 92.9432L137.416 92.9355L137.425 92.9475C137.333 93.3745 137.181 93.7269 136.988 93.9709L136.976 93.9752Z" fill="#AF5F23"/>
<path d="M136.915 92.2895H136.909C136.687 92.1106 136.426 91.7964 136.365 91.427L136.376 91.415L136.389 91.4237C136.449 91.7837 136.705 92.0945 136.925 92.2682L136.927 92.2852L136.915 92.2895Z" fill="#AF5F23"/>
<path d="M137.288 93.3856L137.279 93.3738L137.291 93.361C137.39 93.3653 137.481 93.3195 137.568 93.2288L137.585 93.2246L137.586 93.2449C137.495 93.3407 137.396 93.3899 137.29 93.3856H137.288Z" fill="#AF5F23"/>
<path d="M138.711 95.342C138.711 95.342 137.261 94.9522 137.587 93.4153C137.912 91.8785 138.228 92.2842 138 91.0702C137.771 89.8518 138.056 89.5121 138.628 88.8911C139.2 88.2693 138.975 87.905 139.127 87.2297C139.305 86.4468 140.256 86.3181 140.375 87.7771C140.494 89.2351 141.183 89.297 141.189 90.1628C141.196 91.3311 140.841 91.4015 140.959 92.114C141.078 92.8266 141.823 94.2313 141.254 94.9108C140.684 95.5903 138.711 95.342 138.711 95.342Z" fill="#FD9463"/>
<path d="M139.583 95.8231C139.533 94.6251 139.489 93.4237 139.478 92.2267C139.473 91.5768 139.477 90.9261 139.496 90.2753C139.516 89.6255 139.55 88.9749 139.611 88.3243L139.6 88.3115L139.586 88.3243C139.516 88.9707 139.472 89.6205 139.441 90.2711C139.411 90.9219 139.398 91.5768 139.393 92.2267C139.384 93.4237 139.409 94.6251 139.441 95.8231H139.583Z" fill="#36664F"/>
<path d="M139.459 94.0332L139.449 94.0247L139.455 94.0087C139.917 93.8181 140.242 93.4326 140.422 92.8776L140.437 92.8691L140.446 92.8818C140.264 93.4495 139.933 93.8341 139.466 94.0332H139.459Z" fill="#36664F"/>
<path d="M139.438 93.1922L139.43 93.1879C139.021 92.7736 138.783 92.2518 138.722 91.6342L138.733 91.6172L138.747 91.6299C138.807 92.2433 139.043 92.761 139.448 93.1711V93.1879L139.438 93.1922Z" fill="#36664F"/>
<path d="M139.462 90.6188L139.454 90.6103L139.457 90.5942C139.833 90.3494 140.081 89.7486 140.255 89.2555L140.271 89.2471L140.278 89.2641C140.103 89.7614 139.853 90.3662 139.471 90.6145L139.462 90.6188Z" fill="#36664F"/>
<path d="M138.875 92.2935C138.719 92.2765 138.588 92.2105 138.485 92.0901L138.486 92.0732H138.504C138.603 92.185 138.728 92.2519 138.877 92.268L138.888 92.2808L138.875 92.2935Z" fill="#36664F"/>
<path d="M139.903 90.1012L139.891 90.0927L139.903 90.0759C140.074 90.064 140.205 89.9936 140.293 89.8734L140.31 89.8691L140.313 89.8852C140.221 90.0139 140.083 90.0843 139.905 90.1012H139.903Z" fill="#36664F"/>
<path d="M152.405 95.62C151.745 95.62 151.765 95.0565 150.529 95.1235C149.922 95.1566 149.552 94.7829 148.506 95.0032C148.226 95.0607 148.09 95.0362 147.992 94.9735C147.575 94.6964 147.36 94.7422 146.432 94.7422C145.504 94.7422 145.662 94.2203 144.787 94.1745C143.594 94.116 143.532 94.4558 142.64 94.9735C141.95 95.3759 141.632 95.1108 140.836 95.4506C140.541 95.5742 140.432 95.7191 140.413 95.8478H153.038C152.899 95.7776 152.672 95.62 152.405 95.62Z" fill="#60B58D"/>
<path d="M117.479 93.8917H126.834V89.7402H117.479V93.8917Z" fill="white"/>
<path d="M117.852 93.4323H118.164V90.126H117.852V93.4323Z" fill="#BFF0FF"/>
<path d="M118.544 93.4323H118.856V90.126H118.544V93.4323Z" fill="#BFF0FF"/>
<path d="M119.235 93.4323H119.547V90.126H119.235V93.4323Z" fill="#BFF0FF"/>
<path d="M119.926 93.4323H120.238V90.126H119.926V93.4323Z" fill="#BFF0FF"/>
<path d="M120.618 93.4323H120.93V90.126H120.618V93.4323Z" fill="#BFF0FF"/>
<path d="M121.308 93.4323H121.62V90.126H121.308V93.4323Z" fill="#BFF0FF"/>
<path d="M122 93.4323H122.312V90.126H122V93.4323Z" fill="#BFF0FF"/>
<path d="M122.691 93.4323H123.003V90.126H122.691V93.4323Z" fill="#BFF0FF"/>
<path d="M123.382 93.4323H123.694V90.126H123.382V93.4323Z" fill="#BFF0FF"/>
<path d="M124.073 93.4323H124.385V90.126H124.073V93.4323Z" fill="#BFF0FF"/>
<path d="M124.765 93.4323H125.077V90.126H124.765V93.4323Z" fill="#BFF0FF"/>
<path d="M125.457 93.4323H125.768V90.126H125.457V93.4323Z" fill="#BFF0FF"/>
<path d="M126.147 93.4323H126.459V90.126H126.147V93.4323Z" fill="#BFF0FF"/>
<path d="M117.208 94.5232H126.926V93.8604H117.208V94.5232Z" fill="#312A52"/>
<path d="M120.088 94.9165C120.088 95.4511 119.654 95.8858 119.118 95.8858C118.584 95.8858 118.15 95.4511 118.15 94.9165C118.15 94.3819 118.584 93.9473 119.118 93.9473C119.654 93.9473 120.088 94.3819 120.088 94.9165Z" fill="#262626"/>
<path d="M119.607 94.9157C119.607 95.1851 119.389 95.4044 119.118 95.4044C118.849 95.4044 118.63 95.1851 118.63 94.9157C118.63 94.6463 118.849 94.4268 119.118 94.4268C119.389 94.4268 119.607 94.6463 119.607 94.9157Z" fill="#494752"/>
<path d="M122.455 94.9414C122.441 95.476 121.996 95.8987 121.461 95.886C120.925 95.87 120.503 95.4261 120.518 94.8923C120.531 94.3576 120.977 93.9347 121.513 93.9475C122.047 93.9636 122.47 94.4068 122.455 94.9414Z" fill="#262626"/>
<path d="M121.974 94.9276C121.967 95.197 121.743 95.4087 121.474 95.4045C121.203 95.3961 120.992 95.1725 120.998 94.9031C121.006 94.6336 121.23 94.4226 121.499 94.4268C121.769 94.4353 121.981 94.659 121.974 94.9276Z" fill="#494752"/>
<path d="M124.062 95.1673H126.84V94.0986H124.062V95.1673Z" fill="#312A52"/>
<path d="M120.486 95.0331L120.088 95.0246C120.103 94.4527 119.673 93.9723 119.13 93.9554C118.878 93.952 118.634 94.0469 118.447 94.2214C118.243 94.4155 118.128 94.6806 118.12 94.9669L117.722 94.9585C117.732 94.5646 117.892 94.2002 118.173 93.935C118.438 93.6826 118.783 93.5495 119.141 93.558C119.903 93.5825 120.506 94.2417 120.486 95.0331Z" fill="#312A52"/>
<path d="M122.856 95.0331L122.458 95.0246C122.472 94.4527 122.043 93.9723 121.501 93.9554C121.248 93.952 121.005 94.0469 120.818 94.2214C120.614 94.4155 120.498 94.6806 120.491 94.9669L120.093 94.9585C120.103 94.5646 120.262 94.2002 120.543 93.935C120.809 93.6826 121.152 93.5495 121.512 93.558C122.273 93.5825 122.877 94.2417 122.856 95.0331Z" fill="#312A52"/>
<path d="M127.324 90.2705V93.8587H131.762V92.5327L129.76 90.296L127.324 90.2705Z" fill="white"/>
<path d="M127.245 94.5232H132.051V93.8604H127.245V94.5232Z" fill="#312A52"/>
<path d="M130.449 95.0331L130.051 95.0246C130.066 94.4527 129.636 93.9723 129.093 93.9554C128.84 93.952 128.598 94.0469 128.41 94.2214C128.207 94.4155 128.091 94.6806 128.083 94.9669L127.685 94.9585C127.695 94.5646 127.856 94.2002 128.136 93.935C128.402 93.6826 128.746 93.5495 129.104 93.558C129.866 93.5825 130.47 94.2417 130.449 95.0331Z" fill="#312A52"/>
<path d="M130.036 94.9414C130.022 95.476 129.576 95.8987 129.041 95.886C128.506 95.87 128.084 95.4261 128.099 94.8923C128.112 94.3576 128.558 93.9347 129.093 93.9475C129.628 93.9636 130.05 94.4068 130.036 94.9414Z" fill="#262626"/>
<path d="M129.555 94.9276C129.547 95.197 129.323 95.4087 129.054 95.4045C128.784 95.3961 128.571 95.1725 128.579 94.9031C128.586 94.6336 128.81 94.4226 129.08 94.4268C129.349 94.4353 129.562 94.659 129.555 94.9276Z" fill="#494752"/>
<path d="M130.396 91.3068L129.872 90.7095L129.809 90.6807H129.203C129.155 90.6807 129.117 90.7187 129.117 90.7679V91.9736C129.117 92.0235 129.155 92.0609 129.203 92.0609H130.396V91.3068Z" fill="#312A52"/>
<path d="M127.758 92.0621H128.741L128.805 91.9951V90.7073L128.741 90.6445H127.758L127.694 90.7073V91.9951L127.758 92.0621Z" fill="#312A52"/>
<path d="M127.539 93.8788H128.946V90.5729C128.946 90.5228 128.908 90.4821 128.861 90.4821H127.623C127.577 90.4821 127.539 90.5228 127.539 90.5729V93.8788ZM128.966 93.8957H127.519V90.5729C127.519 90.511 127.566 90.4609 127.623 90.4609H128.861C128.919 90.4609 128.966 90.511 128.966 90.5729V93.8957Z" fill="#312A52"/>
<path d="M130.81 92.5752C130.728 92.5752 130.66 92.509 130.66 92.426V91.8669C130.66 91.7838 130.728 91.7178 130.81 91.7178C130.894 91.7178 130.961 91.7838 130.961 91.8669V92.426C130.961 92.509 130.894 92.5752 130.81 92.5752Z" fill="#312A52"/>
<path d="M131.403 93.3084H131.877V92.5254H131.403V93.3084Z" fill="#312A52"/>
<path d="M99.4224 93.8917H108.777V89.7402H99.4224V93.8917Z" fill="white"/>
<path d="M99.7952 93.4323H100.107V90.126H99.7952V93.4323Z" fill="#BFF0FF"/>
<path d="M100.486 93.4323H100.798V90.126H100.486V93.4323Z" fill="#BFF0FF"/>
<path d="M101.177 93.4323H101.489V90.126H101.177V93.4323Z" fill="#BFF0FF"/>
<path d="M101.868 93.4323H102.18V90.126H101.868V93.4323Z" fill="#BFF0FF"/>
<path d="M102.56 93.4323H102.872V90.126H102.56V93.4323Z" fill="#BFF0FF"/>
<path d="M103.251 93.4323H103.562V90.126H103.251V93.4323Z" fill="#BFF0FF"/>
<path d="M103.942 93.4323H104.254V90.126H103.942V93.4323Z" fill="#BFF0FF"/>
<path d="M104.634 93.4323H104.946V90.126H104.634V93.4323Z" fill="#BFF0FF"/>
<path d="M105.325 93.4323H105.637V90.126H105.325V93.4323Z" fill="#BFF0FF"/>
<path d="M106.016 93.4323H106.328V90.126H106.016V93.4323Z" fill="#BFF0FF"/>
<path d="M106.708 93.4323H107.019V90.126H106.708V93.4323Z" fill="#BFF0FF"/>
<path d="M107.399 93.4323H107.711V90.126H107.399V93.4323Z" fill="#BFF0FF"/>
<path d="M108.091 93.4323H108.403V90.126H108.091V93.4323Z" fill="#BFF0FF"/>
<path d="M99.1514 94.5232H108.869V93.8604H99.1514V94.5232Z" fill="#312A52"/>
<path d="M102.03 94.9165C102.03 95.4511 101.597 95.8858 101.062 95.8858C100.526 95.8858 100.092 95.4511 100.092 94.9165C100.092 94.3819 100.526 93.9473 101.062 93.9473C101.597 93.9473 102.03 94.3819 102.03 94.9165Z" fill="#262626"/>
<path d="M101.549 94.9157C101.549 95.1851 101.33 95.4044 101.062 95.4044C100.791 95.4044 100.573 95.1851 100.573 94.9157C100.573 94.6463 100.791 94.4268 101.062 94.4268C101.33 94.4268 101.549 94.6463 101.549 94.9157Z" fill="#494752"/>
<path d="M104.397 94.9414C104.384 95.476 103.938 95.8987 103.403 95.886C102.868 95.87 102.446 95.4261 102.46 94.8923C102.474 94.3576 102.92 93.9347 103.455 93.9475C103.99 93.9636 104.412 94.4068 104.397 94.9414Z" fill="#262626"/>
<path d="M103.917 94.9276C103.909 95.197 103.685 95.4087 103.415 95.4045C103.146 95.3961 102.933 95.1725 102.941 94.9031C102.948 94.6336 103.172 94.4226 103.441 94.4268C103.712 94.4353 103.923 94.659 103.917 94.9276Z" fill="#494752"/>
<path d="M106.006 95.1673H108.783V94.0986H106.006V95.1673Z" fill="#312A52"/>
<path d="M102.428 95.0331L102.03 95.0246C102.044 94.4527 101.615 93.9723 101.072 93.9554C100.82 93.952 100.577 94.0469 100.389 94.2214C100.186 94.4155 100.07 94.6806 100.063 94.9669L99.6646 94.9585C99.6748 94.5646 99.8348 94.2002 100.115 93.935C100.38 93.6826 100.724 93.5495 101.084 93.558C101.845 93.5825 102.449 94.2417 102.428 95.0331Z" fill="#312A52"/>
<path d="M104.799 95.0331L104.401 95.0246C104.415 94.4527 103.986 93.9723 103.443 93.9554C103.19 93.952 102.948 94.0469 102.76 94.2214C102.556 94.4155 102.44 94.6806 102.433 94.9669L102.034 94.9585C102.045 94.5646 102.206 94.2002 102.485 93.935C102.751 93.6826 103.095 93.5495 103.455 93.558C104.216 93.5825 104.819 94.2417 104.799 95.0331Z" fill="#312A52"/>
<path d="M109.267 90.2705V93.8587H113.704V92.5327L111.702 90.296L109.267 90.2705Z" fill="white"/>
<path d="M109.188 94.5232H113.993V93.8604H109.188V94.5232Z" fill="#312A52"/>
<path d="M112.392 95.0331L111.993 95.0246C112.008 94.4527 111.578 93.9723 111.035 93.9554C110.783 93.952 110.54 94.0469 110.352 94.2214C110.149 94.4155 110.033 94.6806 110.025 94.9669L109.628 94.9585C109.637 94.5646 109.797 94.2002 110.079 93.935C110.343 93.6826 110.688 93.5495 111.046 93.558C111.808 93.5825 112.411 94.2417 112.392 95.0331Z" fill="#312A52"/>
<path d="M111.978 94.9414C111.964 95.476 111.519 95.8987 110.984 95.886C110.449 95.87 110.026 95.4261 110.041 94.8923C110.054 94.3576 110.501 93.9347 111.035 93.9475C111.571 93.9636 111.993 94.4068 111.978 94.9414Z" fill="#262626"/>
<path d="M111.497 94.9276C111.491 95.197 111.267 95.4087 110.997 95.4045C110.727 95.3961 110.515 95.1725 110.522 94.9031C110.529 94.6336 110.754 94.4226 111.023 94.4268C111.292 94.4353 111.505 94.659 111.497 94.9276Z" fill="#494752"/>
<path d="M112.338 91.3068L111.814 90.7095L111.752 90.6807H111.145C111.098 90.6807 111.061 90.7187 111.061 90.7679V91.9736C111.061 92.0235 111.098 92.0609 111.145 92.0609H112.338V91.3068Z" fill="#312A52"/>
<path d="M109.7 92.0621H110.684L110.747 91.9951V90.7073L110.684 90.6445H109.7L109.636 90.7073V91.9951L109.7 92.0621Z" fill="#312A52"/>
<path d="M109.482 93.8788H110.888V90.5729C110.888 90.5228 110.851 90.4821 110.804 90.4821H109.566C109.52 90.4821 109.482 90.5228 109.482 90.5729V93.8788ZM110.908 93.8957H109.462V90.5729C109.462 90.511 109.509 90.4609 109.566 90.4609H110.804C110.862 90.4609 110.908 90.511 110.908 90.5729V93.8957Z" fill="#312A52"/>
<path d="M112.754 92.5752C112.67 92.5752 112.603 92.509 112.603 92.426V91.8669C112.603 91.7838 112.67 91.7178 112.754 91.7178C112.837 91.7178 112.904 91.7838 112.904 91.8669V92.426C112.904 92.509 112.837 92.5752 112.754 92.5752Z" fill="#312A52"/>
<path d="M113.345 93.3084H113.82V92.5254H113.345V93.3084Z" fill="#312A52"/>
<path d="M79.6492 96.2036H155.071V95.7891H79.6492V96.2036Z" fill="#2A7555"/>
<path d="M130.166 52.863C130.188 52.6935 130.205 52.5275 130.205 52.3538C130.205 50.2823 128.524 48.5996 126.451 48.5996C124.896 48.5996 123.562 49.5452 122.992 50.8957C122.529 50.4813 121.92 50.228 121.25 50.228C119.802 50.228 118.628 51.4049 118.628 52.8512H118.138C116.745 52.8512 115.606 53.9907 115.606 55.3819C115.606 56.7789 116.745 57.9176 118.138 57.9176H129.979C131.372 57.9176 132.512 56.7789 132.512 55.3819C132.512 54.0568 131.472 52.9587 130.166 52.863Z" fill="white"/>
<path d="M105.226 56.5538C105.243 56.4343 105.254 56.3099 105.254 56.1853C105.254 54.6611 104.02 53.4258 102.498 53.4258C101.356 53.4258 100.378 54.1222 99.9593 55.1126C99.6195 54.8101 99.1722 54.6238 98.6807 54.6238C97.6174 54.6238 96.755 55.4854 96.755 56.5495H96.3958C95.3732 56.5495 94.5369 57.3867 94.5369 58.4059C94.5369 59.4293 95.3732 60.2664 96.3958 60.2664H105.088C106.111 60.2664 106.948 59.4293 106.948 58.4059C106.948 57.4323 106.185 56.6249 105.226 56.5538Z" fill="white"/>
<path d="M144.623 61.403C144.635 61.3073 144.645 61.2082 144.645 61.1091C144.645 59.895 143.663 58.9131 142.451 58.9131C141.541 58.9131 140.762 59.468 140.429 60.2551C140.158 60.0153 139.802 59.8662 139.41 59.8662C138.564 59.8662 137.877 60.5533 137.877 61.3988H137.591C136.777 61.3988 136.11 62.0657 136.11 62.8781C136.11 63.6941 136.777 64.3608 137.591 64.3608H144.513C145.328 64.3608 145.994 63.6941 145.994 62.8781C145.994 62.1029 145.386 61.4607 144.623 61.403Z" fill="white"/>
<path d="M77.0888 42.2661C77.0888 44.6892 75.124 46.6531 72.6992 46.6531C70.2753 46.6531 68.3096 44.6892 68.3096 42.2661C68.3096 39.8422 70.2753 37.874 72.6992 37.874C75.124 37.874 77.0888 39.8422 77.0888 42.2661Z" fill="#DADFE3"/>
<path d="M186.682 26.9611C189.882 22.8734 195.34 20.8923 200.649 22.3794C207.687 24.3476 211.791 31.6348 209.825 38.6618C208.845 42.1664 206.545 44.9426 203.615 46.6043C206.195 50.4426 208.557 54.5639 210.499 58.9245C213.571 57.1935 216.316 54.8687 218.539 52.0558L218.528 52.0516L217.856 51.5085L216.198 50.1995C218.144 47.7426 219.643 44.8679 220.54 41.6611L223.421 42.4651C224.409 38.9312 224.657 35.3516 224.241 31.9168L221.274 32.2643C220.907 29.0329 219.877 25.9463 218.315 23.1539L220.913 21.6915C219.184 18.6212 216.857 15.876 214.043 13.6537L212.188 15.9946C209.733 14.0477 206.857 12.5498 203.649 11.6525L204.455 8.77193C200.92 7.7832 197.342 7.53493 193.908 7.95091L194.254 10.9188C191.022 11.2848 187.933 12.3159 185.144 13.8766L183.682 11.2797C180.712 12.9426 178.066 15.1662 175.889 17.8427C178.347 19.6925 182.252 22.8008 186.682 26.9611Z" fill="#DADFE3"/>
</svg>
