<svg width="350" height="208" viewBox="0 0 350 208" fill="none" xmlns="http://www.w3.org/2000/svg">
<path d="M105.062 151.828C105.062 151.828 101.895 153.205 105.754 159.913C109.613 166.621 112.217 169.906 112.217 169.906C112.217 169.906 112.92 171.473 111.589 171.79C110.258 172.107 107.274 171.785 106.759 173.462C106.225 175.202 107.546 176.75 110.129 178.035C112.713 179.321 118.271 182.345 118.773 182.62C119.265 182.891 119.782 183.61 118.909 183.972C118.037 184.333 111.416 185.368 112.094 188.484C112.772 191.601 120.558 193.998 121.404 194.276C122.25 194.554 122.467 194.896 122.422 195.356C122.378 195.816 120.12 195.953 118.248 196.325C116.377 196.697 114.273 197.456 114.815 199.221C115.357 200.986 120.075 204.513 131.125 205.032L136.261 204.936L138.831 200.456C143.747 190.534 142.962 184.69 141.685 183.358C140.408 182.026 138.722 183.499 137.489 184.956C136.255 186.413 135.038 188.323 134.615 188.138C134.192 187.954 133.999 187.598 134.167 186.723C134.335 185.847 136.026 177.868 133.636 175.76C131.245 173.652 127.125 178.944 126.385 179.532C125.646 180.12 125.269 179.318 125.272 178.756C125.276 178.183 125.336 171.85 125.47 168.964C125.604 166.078 124.894 164.17 123.116 163.792C121.402 163.428 120.233 166.195 119.31 167.206C118.386 168.217 117.36 166.84 117.36 166.84C117.36 166.84 115.758 162.965 111.778 156.328C107.798 149.692 104.999 151.86 104.999 151.86L105.062 151.828Z" fill="#EBEBEB"/>
<path d="M136.588 206.131C133.684 201.246 128.669 192.476 124.324 184.969C119.981 177.464 116.042 170.674 113.164 165.774C111.724 163.33 110.558 161.35 109.748 159.975C109.348 159.294 109.036 158.764 108.821 158.397C108.719 158.221 108.64 158.084 108.583 157.985C108.53 157.892 108.507 157.842 108.507 157.842C108.507 157.842 108.54 157.886 108.597 157.977C108.657 158.073 108.741 158.207 108.848 158.381C109.07 158.744 109.39 159.269 109.802 159.943C110.628 161.301 111.81 163.273 113.261 165.717C116.164 170.602 120.119 177.384 124.462 184.889C128.807 192.396 133.806 201.174 136.685 206.074L136.588 206.131Z" fill="#DFDFDF"/>
<path d="M110.914 174.081C110.917 174.071 111.046 174.1 111.277 174.163C111.508 174.224 111.839 174.323 112.246 174.449C113.062 174.702 114.179 175.081 115.404 175.52C116.611 175.959 117.701 176.355 118.536 176.658C118.913 176.792 119.231 176.906 119.487 176.997C119.712 177.076 119.835 177.124 119.832 177.135C119.829 177.145 119.7 177.117 119.469 177.056C119.238 176.994 118.906 176.895 118.5 176.765C117.687 176.504 116.575 176.111 115.35 175.671C114.141 175.242 113.048 174.853 112.211 174.556C111.833 174.424 111.514 174.312 111.258 174.222C111.034 174.141 110.911 174.092 110.914 174.081Z" fill="#DFDFDF"/>
<path d="M120.166 176.789C120.124 176.776 120.802 174.436 121.68 171.563C122.558 168.688 123.304 166.369 123.346 166.382C123.388 166.395 122.711 168.735 121.832 171.609C120.954 174.483 120.208 176.802 120.166 176.789Z" fill="#DFDFDF"/>
<path d="M126.318 188.616C126.309 188.61 126.378 188.493 126.51 188.289C126.662 188.057 126.851 187.768 127.076 187.425C127.552 186.696 128.205 185.686 128.885 184.545C129.567 183.405 130.149 182.352 130.564 181.587C130.76 181.227 130.925 180.923 131.057 180.68C131.175 180.467 131.245 180.351 131.254 180.356C131.264 180.361 131.213 180.486 131.113 180.708C131.012 180.93 130.86 181.249 130.664 181.639C130.274 182.419 129.706 183.484 129.021 184.627C128.34 185.771 127.67 186.774 127.169 187.489C126.917 187.845 126.71 188.131 126.561 188.324C126.413 188.518 126.327 188.623 126.318 188.616Z" fill="#DFDFDF"/>
<path d="M117.411 188.01C117.412 187.999 117.536 187.995 117.762 187.998C118.021 188.005 118.339 188.014 118.714 188.025C119.519 188.055 120.629 188.107 121.854 188.174C123.08 188.242 124.19 188.312 124.992 188.37C125.367 188.401 125.684 188.427 125.942 188.448C126.166 188.47 126.29 188.487 126.29 188.498C126.289 188.509 126.164 188.513 125.939 188.51C125.68 188.503 125.362 188.493 124.986 188.483C124.182 188.453 123.072 188.401 121.846 188.334C120.62 188.266 119.511 188.196 118.708 188.138C118.334 188.107 118.016 188.081 117.758 188.06C117.534 188.038 117.41 188.021 117.411 188.01Z" fill="#DFDFDF"/>
<path d="M121.517 199.145C121.517 199.134 121.677 199.131 121.966 199.134C122.284 199.142 122.694 199.152 123.187 199.164C124.217 199.197 125.641 199.252 127.213 199.324C128.785 199.395 130.208 199.469 131.237 199.53C131.729 199.562 132.138 199.589 132.456 199.61C132.743 199.633 132.902 199.651 132.902 199.662C132.901 199.673 132.742 199.676 132.453 199.673C132.135 199.665 131.725 199.655 131.232 199.642C130.201 199.61 128.778 199.554 127.205 199.483C125.634 199.412 124.211 199.338 123.181 199.277C122.69 199.244 122.28 199.217 121.963 199.196C121.675 199.174 121.516 199.156 121.517 199.145Z" fill="#DFDFDF"/>
<path d="M132.634 199.572C132.625 199.566 132.709 199.416 132.867 199.151C133.042 198.862 133.27 198.485 133.545 198.03C134.115 197.084 134.898 195.774 135.722 194.303C136.548 192.833 137.261 191.483 137.77 190.502C138.015 190.031 138.219 189.64 138.374 189.34C138.518 189.066 138.602 188.917 138.612 188.922C138.622 188.927 138.557 189.085 138.43 189.367C138.303 189.65 138.114 190.055 137.871 190.553C137.387 191.548 136.689 192.909 135.861 194.381C135.036 195.854 134.236 197.158 133.64 198.09C133.341 198.555 133.095 198.929 132.92 199.184C132.745 199.439 132.644 199.578 132.634 199.572Z" fill="#DFDFDF"/>
<path fill-rule="evenodd" clip-rule="evenodd" d="M268.621 19.7904C268.751 21.2268 268.684 22.6555 268.437 24.0425L271.554 26.4569L268.803 32.3756L264.951 31.542C264.05 32.6242 263.001 33.5953 261.82 34.4206L262.319 38.3332L256.194 40.5701L254.06 37.2551C252.625 37.3853 251.198 37.3181 249.813 37.0707L247.402 40.1917L241.491 37.4369L242.324 33.5798C241.243 32.6777 240.274 31.6275 239.449 30.4448L235.542 30.9442L233.308 24.8112L236.618 22.6744C236.489 21.2381 236.556 19.8089 236.803 18.422L233.685 16.0077L236.437 10.089L240.289 10.9226C241.19 9.84053 242.239 8.8696 243.42 8.04432L242.921 4.13153L249.046 1.89453L251.18 5.20965C252.614 5.07944 254.041 5.14636 255.426 5.39395L257.838 2.27277L263.748 5.02767L262.916 8.88506C263.996 9.78703 264.966 10.8373 265.79 12.0198L269.698 11.5203L271.932 17.6533L268.621 19.7904ZM259.292 19.1112C257.968 15.4775 253.954 13.6062 250.325 14.9317C246.696 16.2571 244.827 20.2773 246.151 23.911C247.474 27.5445 251.489 29.416 255.118 28.0906C258.747 26.765 260.616 22.7449 259.292 19.1112Z" fill="#DFDFDF"/>
<path fill-rule="evenodd" clip-rule="evenodd" d="M301.704 40.3084C301.806 41.4463 301.754 42.5784 301.558 43.6771L304.028 45.5898L301.848 50.2787L298.796 49.6183C298.083 50.4758 297.252 51.2451 296.316 51.8988L296.711 54.9987L291.859 56.7707L290.168 54.1444C289.032 54.2476 287.901 54.1944 286.804 53.9983L284.894 56.4709L280.211 54.2885L280.87 51.2328C280.014 50.5181 279.246 49.686 278.593 48.7492L275.497 49.1449L273.728 44.2861L276.351 42.5931C276.248 41.4554 276.301 40.323 276.496 39.2244L274.027 37.3116L276.207 32.6227L279.258 33.2831C279.972 32.4259 280.803 31.6567 281.739 31.0029L281.343 27.903L286.196 26.1309L287.886 28.7572C289.023 28.6541 290.153 28.707 291.251 28.9031L293.161 26.4305L297.843 28.6131L297.184 31.669C298.04 32.3834 298.808 33.2156 299.461 34.1524L302.557 33.7567L304.327 38.6155L301.704 40.3084ZM294.313 39.7704C293.264 36.8917 290.084 35.4093 287.209 36.4592C284.334 37.5094 282.854 40.6941 283.902 43.5728C284.951 46.4515 288.131 47.9341 291.006 46.8841C293.881 45.8339 295.362 42.6491 294.313 39.7704Z" fill="#EBEBEB"/>
<path fill-rule="evenodd" clip-rule="evenodd" d="M268.294 60.2684C268.382 61.2358 268.337 62.1984 268.17 63.1326L270.27 64.7591L268.417 68.7461L265.822 68.1846C265.215 68.9138 264.509 69.5679 263.713 70.1237L264.049 72.7595L259.923 74.2663L258.486 72.0333C257.519 72.1209 256.558 72.0757 255.625 71.909L254 74.0116L250.019 72.1557L250.58 69.5574C249.851 68.9498 249.198 68.2422 248.643 67.4455L246.011 67.782L244.506 63.6506L246.736 62.211C246.649 61.2435 246.694 60.2808 246.86 59.3464L244.76 57.7201L246.614 53.7331L249.209 54.2946C249.816 53.5657 250.522 52.9116 251.318 52.3556L250.982 49.7198L255.108 48.2129L256.545 50.4461C257.512 50.3585 258.473 50.4034 259.406 50.5702L261.03 48.4678L265.012 50.3236L264.451 52.9219C265.179 53.5295 265.832 54.2371 266.387 55.0337L269.02 54.6972L270.525 58.8287L268.294 60.2684ZM262.01 59.8108C261.118 57.363 258.414 56.1025 255.969 56.9952C253.525 57.8882 252.266 60.5963 253.158 63.044C254.049 65.4918 256.754 66.7525 259.198 65.8596C261.643 64.9666 262.902 62.2587 262.01 59.8108Z" fill="#F4F4F4"/>
<path d="M95.6055 123.094H112.072V120.837H95.6055V123.094Z" fill="#DFDFDF"/>
<path d="M95.6055 119.275H112.072V117.018H95.6055V119.275Z" fill="#DFDFDF"/>
<path d="M104.947 127.181H112.072V124.924H104.947V127.181Z" fill="#DFDFDF"/>
<path d="M345.824 206.626C345.824 206.7 268.403 206.76 172.921 206.76C77.405 206.76 0 206.7 0 206.626C0 206.552 77.405 206.492 172.921 206.492C268.403 206.492 345.824 206.552 345.824 206.626Z" fill="#092C42"/>
<path d="M244.739 181.921C243.515 182.17 242.47 183.032 241.813 184.096C241.155 185.159 240.851 186.409 240.731 187.655C240.498 190.064 241.33 192.723 242.369 194.908C244.714 193.6 245.809 190.68 246.271 189.164C247.002 186.768 246.869 181.993 244.739 181.921Z" fill="#0096ED"/>
<path d="M239.247 198.306C239.845 197.043 239.602 195.467 238.775 194.341C237.949 193.215 236.606 192.527 235.223 192.342C234.583 192.257 233.864 192.296 233.394 192.738C232.954 193.152 232.848 193.837 233.01 194.419C233.173 195 233.563 195.493 233.996 195.913C235.482 197.354 237.185 198.476 239.247 198.306Z" fill="#0096ED"/>
<path d="M240.253 206.061C240.266 206.061 240.275 205.884 240.285 205.563C240.295 205.21 240.308 204.754 240.323 204.206C240.336 203.068 240.386 201.444 239.861 199.746C239.346 198.053 238.412 196.69 237.544 195.927C237.115 195.539 236.723 195.279 236.439 195.127C236.3 195.045 236.183 195 236.107 194.963C236.029 194.929 235.988 194.914 235.985 194.919C235.963 194.954 236.636 195.229 237.46 196.017C238.29 196.789 239.187 198.134 239.694 199.797C240.209 201.461 240.181 203.066 240.199 204.205C240.203 204.778 240.206 205.242 240.217 205.563C240.228 205.884 240.242 206.061 240.253 206.061Z" fill="#092C42"/>
<path d="M244.519 185.569C244.514 185.568 244.49 185.639 244.451 185.775C244.408 185.93 244.354 186.128 244.286 186.374C244.146 186.895 243.954 187.651 243.724 188.587C243.263 190.459 242.663 193.055 242.065 195.936C241.468 198.817 240.986 201.438 240.664 203.339C240.502 204.289 240.378 205.06 240.299 205.593C240.264 205.845 240.235 206.049 240.212 206.208C240.194 206.348 240.188 206.423 240.194 206.424C240.2 206.425 240.218 206.352 240.247 206.213C240.278 206.056 240.318 205.854 240.367 205.604C240.47 205.053 240.612 204.292 240.786 203.361C241.139 201.466 241.64 198.851 242.237 195.971C242.834 193.093 243.415 190.494 243.844 188.616C244.055 187.692 244.228 186.937 244.352 186.39C244.407 186.142 244.451 185.94 244.485 185.784C244.513 185.645 244.525 185.571 244.519 185.569Z" fill="#092C42"/>
<path d="M242.365 200.467C243.418 197.716 245.88 195.549 248.74 194.856C249.468 194.68 250.375 194.656 250.814 195.264C251.254 195.873 250.944 196.732 250.533 197.361C248.821 199.976 245.418 201.356 242.371 200.67L242.365 200.467Z" fill="#0096ED"/>
<path d="M247.947 197.02C247.944 197.008 247.781 197.042 247.488 197.114C247.341 197.149 247.162 197.193 246.96 197.266C246.759 197.34 246.521 197.403 246.276 197.517C246.028 197.624 245.752 197.735 245.475 197.891C245.188 198.031 244.9 198.212 244.597 198.404C244.003 198.803 243.385 199.3 242.819 199.905C242.258 200.515 241.807 201.168 241.457 201.793C241.291 202.111 241.132 202.413 241.019 202.712C240.887 203.002 240.801 203.287 240.718 203.545C240.626 203.8 240.588 204.043 240.534 204.251C240.48 204.459 240.455 204.642 240.436 204.793C240.395 205.092 240.379 205.258 240.39 205.259C240.43 205.266 240.501 204.599 240.836 203.583C240.926 203.331 241.017 203.053 241.153 202.769C241.27 202.477 241.431 202.183 241.598 201.872C241.95 201.262 242.397 200.624 242.947 200.024C243.504 199.43 244.107 198.939 244.687 198.538C244.982 198.346 245.263 198.162 245.543 198.02C245.814 197.86 246.083 197.744 246.325 197.631C247.304 197.202 247.957 197.057 247.947 197.02Z" fill="#092C42"/>
<path fill-rule="evenodd" clip-rule="evenodd" d="M131.508 81.4987C131.89 80.7509 132.366 80.0679 132.918 79.4616L132.133 77.3019L135.326 75.2437L136.964 76.8534C137.744 76.6008 138.562 76.4492 139.4 76.4106L140.37 74.3281L144.081 75.1337L144.102 77.4308C144.849 77.8134 145.532 78.2908 146.137 78.844L148.294 78.0575L150.349 81.2548L148.742 82.8953C148.994 83.6761 149.145 84.4954 149.184 85.3344L151.263 86.3052L150.459 90.0215L148.165 90.043C147.783 90.7908 147.306 91.4739 146.754 92.0801L147.539 94.2398L144.346 96.298L142.708 94.6882C141.928 94.9405 141.11 95.0922 140.272 95.1308L139.303 97.2133L135.591 96.408L135.57 94.1108C134.823 93.7282 134.141 93.2509 133.535 92.6977L131.378 93.4841L129.323 90.2869L130.931 88.6461C130.679 87.8656 130.527 87.0463 130.489 86.2073L128.409 85.2365L129.213 81.5203L131.508 81.4987ZM135.891 84.738C135.415 86.9399 136.811 89.1116 139.01 89.5886C141.209 90.0657 143.378 88.6677 143.854 86.4658C144.33 84.264 142.934 82.0923 140.735 81.6151C138.536 81.138 136.368 82.5361 135.891 84.738Z" fill="#0096ED"/>
<path fill-rule="evenodd" clip-rule="evenodd" d="M125.498 64.5703C125.684 64.2074 125.915 63.8758 126.183 63.5816L125.802 62.5332L127.352 61.5343L128.147 62.3157C128.525 62.193 128.922 62.1194 129.329 62.1006L129.8 61.0898L131.601 61.4809L131.612 62.5958C131.974 62.7815 132.305 63.0132 132.599 63.2818L133.646 62.9001L134.644 64.4519L133.863 65.2482C133.986 65.6273 134.059 66.0249 134.078 66.4321L135.087 66.9032L134.697 68.7071L133.583 68.7175C133.398 69.0806 133.167 69.4122 132.898 69.7063L133.28 70.7546L131.73 71.7537L130.935 70.9722C130.556 71.0948 130.159 71.1685 129.752 71.1871L129.282 72.1979L127.48 71.8071L127.47 70.6919C127.107 70.5063 126.776 70.2746 126.483 70.0062L125.436 70.3878L124.438 68.8359L125.218 68.0395C125.096 67.6607 125.022 67.2631 125.004 66.8559L123.994 66.3846L124.385 64.5808L125.498 64.5703ZM127.626 66.1426C127.395 67.2113 128.073 68.2655 129.14 68.4971C130.207 68.7286 131.26 68.05 131.491 66.9813C131.722 65.9125 131.045 64.8584 129.977 64.6269C128.91 64.3953 127.857 65.0739 127.626 66.1426Z" fill="#0096ED"/>
<path d="M114.681 78.7376C114.672 78.7356 114.678 78.6798 114.697 78.574C114.715 78.468 114.759 78.3136 114.843 78.1261C115.004 77.7554 115.368 77.2269 116.045 76.8938C116.702 76.5559 117.709 76.4879 118.569 77.0252C119.427 77.5309 120.022 78.6892 119.762 79.8396C119.524 80.9953 118.502 81.8031 117.512 81.9078C116.507 82.0405 115.618 81.561 115.16 80.9812C114.682 80.3972 114.569 79.7654 114.575 79.3611C114.577 79.1556 114.6 78.9968 114.628 78.8932C114.654 78.7886 114.672 78.7356 114.681 78.7376C114.707 78.742 114.655 78.963 114.68 79.3577C114.704 79.7453 114.842 80.332 115.304 80.8582C115.748 81.3817 116.57 81.7965 117.479 81.6631C118.375 81.5542 119.286 80.8215 119.501 79.7831C119.734 78.749 119.208 77.7048 118.437 77.2342C117.665 76.7361 116.745 76.7728 116.125 77.0653C115.487 77.3527 115.119 77.8296 114.936 78.1723C114.751 78.5215 114.707 78.7443 114.681 78.7376Z" fill="#092C42"/>
<path d="M111.955 76.7227C111.959 76.7291 111.839 76.7365 111.6 76.7461C111.339 76.7541 110.983 76.7649 110.529 76.7788L110.57 76.7453C110.447 77.3461 110.287 78.1237 110.095 79.0608L110.057 78.9849C110.451 79.1652 110.888 79.3652 111.355 79.5788L111.397 79.5983L111.4 79.6464C111.425 80.1231 111.512 80.629 111.68 81.1391L111.697 81.1894L111.659 81.2279C111.349 81.5476 111.014 81.8935 110.665 82.253L110.677 82.1346C111.082 82.7593 111.512 83.4215 111.963 84.1168L111.839 84.0748C112.254 83.9218 112.71 83.7536 113.178 83.5811L113.24 83.558L113.29 83.6032C113.638 83.9195 114.062 84.2218 114.533 84.4606L114.595 84.4921L114.596 84.5625C114.601 85.0052 114.607 85.4933 114.613 85.9904L114.519 85.8749C115.244 86.0307 116.026 86.1985 116.827 86.3704L116.688 86.4397C116.875 86.0361 117.08 85.5929 117.288 85.144L117.321 85.0742L117.398 85.0705C117.869 85.0485 118.382 84.9613 118.878 84.7992L118.953 84.775L119.009 84.8299C119.328 85.1431 119.677 85.4846 120.028 85.8296L119.866 85.813C120.494 85.4073 121.167 84.9725 121.85 84.5318L121.797 84.6892C121.642 84.2652 121.476 83.8077 121.308 83.3468L121.28 83.2706L121.335 83.2109C121.657 82.8576 121.956 82.4353 122.191 81.9748L122.192 81.9737C122.427 81.8279 122.257 81.9333 122.31 81.9006H122.31H122.311H122.314H122.319L122.33 81.9005L122.353 81.9003L122.398 81.8997L122.488 81.899L122.667 81.8973L123.025 81.8941C123.263 81.8917 123.5 81.8897 123.736 81.8875L123.606 81.9929C123.776 81.2123 123.943 80.4419 124.108 79.6827L124.181 79.831C123.746 79.6275 123.315 79.426 122.889 79.2265L122.817 79.1927L122.813 79.1133C122.79 78.6042 122.698 78.1045 122.546 77.6309L122.522 77.5559L122.577 77.5001C122.915 77.1557 123.249 76.8166 123.578 76.4816L123.561 76.6401C123.127 75.9608 122.702 75.2972 122.287 74.6501L122.433 74.6993C121.978 74.864 121.53 75.026 121.091 75.1851L121.022 75.2099L120.969 75.1609C120.59 74.8123 120.171 74.5231 119.733 74.2968L119.67 74.2645L119.67 74.1948C119.666 73.7051 119.663 73.2304 119.661 72.7667L119.748 72.8745C118.938 72.6954 118.172 72.5261 117.443 72.365L117.557 72.3081C117.343 72.7623 117.143 73.1887 116.949 73.6L116.924 73.6531L116.866 73.6556C116.326 73.6783 115.83 73.7745 115.375 73.9185L115.323 73.9348L115.286 73.8976C114.918 73.5321 114.587 73.2024 114.274 72.8905L114.372 72.9006C113.601 73.3886 112.943 73.8053 112.376 74.164L112.4 74.0931C112.588 74.6281 112.742 75.0693 112.873 75.4414L112.881 75.4662L112.864 75.4855C112.168 76.2534 111.98 76.7403 111.955 76.7227C111.953 76.7196 111.965 76.6879 111.989 76.6331C112.016 76.5758 112.058 76.4892 112.121 76.3771C112.247 76.1537 112.453 75.8207 112.8 75.4273L112.792 75.471C112.653 75.1021 112.488 74.6646 112.287 74.1343L112.271 74.0898L112.311 74.0631C112.872 73.6952 113.524 73.2677 114.286 72.7674L114.339 72.733L114.384 72.7775C114.702 73.0854 115.037 73.411 115.409 73.7719L115.32 73.7511C115.788 73.5971 116.299 73.4923 116.857 73.4634L116.775 73.5188C116.965 73.1057 117.162 72.6775 117.372 72.2215L117.406 72.1475L117.486 72.1645C118.217 72.3202 118.983 72.4837 119.795 72.6568L119.882 72.6751L119.883 72.7647C119.889 73.2283 119.895 73.7031 119.901 74.1926L119.838 74.0905C120.296 74.3234 120.733 74.6223 121.131 74.9836L121.009 74.9595C121.448 74.7984 121.894 74.6344 122.349 74.4676L122.441 74.4336L122.494 74.5166C122.911 75.1622 123.338 75.8242 123.776 76.5019L123.831 76.5875L123.76 76.6605C123.432 76.9963 123.099 77.3364 122.762 77.6818L122.792 77.5511C122.953 78.0459 123.05 78.5685 123.075 79.1011L123 78.9881C123.427 79.187 123.858 79.3877 124.293 79.5906L124.389 79.6352L124.366 79.739C124.202 80.4982 124.036 81.2687 123.868 82.0495L123.845 82.1539L123.738 82.1549C123.502 82.1572 123.265 82.1596 123.027 82.1618L122.669 82.1651L122.49 82.1669L122.4 82.1677L122.356 82.1682L122.333 82.1683L122.322 82.1685H122.316H122.313H122.313H122.312C122.365 82.136 122.194 82.2414 122.43 82.0956L122.429 82.0969C122.183 82.5792 121.87 83.0215 121.532 83.3911L121.559 83.2553C121.726 83.7162 121.893 84.1739 122.047 84.5981L122.083 84.6981L121.994 84.7557C121.31 85.1953 120.636 85.629 120.008 86.0336L119.919 86.0904L119.845 86.017C119.494 85.6711 119.146 85.3287 118.827 85.015L118.958 85.0457C118.438 85.214 117.902 85.3035 117.41 85.3248L117.519 85.2515C117.309 85.6997 117.102 86.1421 116.914 86.5449L116.872 86.6355L116.775 86.6142C115.974 86.4386 115.193 86.2673 114.468 86.1084L114.375 86.0878L114.374 85.9927C114.371 85.4955 114.368 85.0074 114.365 84.5647L114.428 84.6663C113.939 84.4148 113.5 84.0977 113.141 83.7667L113.253 83.789C112.784 83.9581 112.327 84.1232 111.911 84.2731L111.831 84.3017L111.786 84.2309C111.341 83.5319 110.917 82.866 110.517 82.2379L110.476 82.1731L110.529 82.1193C110.881 81.7634 111.22 81.4212 111.534 81.1047L111.513 81.1933C111.346 80.6656 111.262 80.1438 111.243 79.6537L111.288 79.7212C110.825 79.5007 110.391 79.2943 110 79.1081L109.95 79.0845L109.962 79.032C110.174 78.0992 110.351 77.3251 110.487 76.727L110.494 76.6929L110.528 76.6934C110.975 76.6987 111.325 76.703 111.583 76.706C111.693 76.7092 111.783 76.7117 111.858 76.7139C111.92 76.7167 111.953 76.7196 111.955 76.7227Z" fill="#092C42"/>
<path fill-rule="evenodd" clip-rule="evenodd" d="M131.508 81.4987C131.89 80.7509 132.366 80.0679 132.918 79.4616L132.133 77.3019L135.326 75.2437L136.964 76.8534C137.744 76.6008 138.562 76.4492 139.4 76.4106L140.37 74.3281L144.081 75.1337L144.102 77.4308C144.849 77.8134 145.532 78.2908 146.137 78.844L148.294 78.0575L150.349 81.2548L148.742 82.8953C148.994 83.6761 149.145 84.4954 149.184 85.3344L151.263 86.3052L150.459 90.0215L148.165 90.043C147.783 90.7908 147.306 91.4739 146.754 92.0801L147.539 94.2398L144.346 96.298L142.708 94.6882C141.928 94.9405 141.11 95.0922 140.272 95.1308L139.303 97.2133L135.591 96.408L135.57 94.1108C134.823 93.7282 134.141 93.2509 133.535 92.6977L131.378 93.4841L129.323 90.2869L130.931 88.6461C130.679 87.8656 130.527 87.0463 130.489 86.2073L128.409 85.2365L129.213 81.5203L131.508 81.4987ZM135.891 84.738C135.415 86.9399 136.811 89.1116 139.01 89.5886C141.209 90.0657 143.378 88.6677 143.854 86.4658C144.33 84.264 142.934 82.0923 140.735 81.6151C138.536 81.138 136.368 82.5361 135.891 84.738Z" fill="white" fill-opacity="0.8"/>
<path d="M225.022 77.6273C224.101 67.2695 220.498 56.9128 213.479 49.2491C206.46 41.5852 195.752 36.9851 185.512 38.7118C175.271 40.4383 166.208 49.2052 165.517 59.581C165.15 65.0879 166.987 70.5579 166.681 76.0688C166.154 85.5932 159.343 93.6526 151.706 99.3545C145.125 104.267 138.035 106.029 133.316 112.754C124.858 124.808 126.266 138.7 131.266 147.009C132.984 149.865 135.8 152.548 139.175 154.84C148.869 161.421 160.996 163.12 172.346 160.222C189.965 155.723 205.865 144.595 215.029 130.157C225.676 113.382 226.535 94.6419 225.022 77.6273Z" fill="#0096ED"/>
<path d="M225.022 77.6283C224.101 67.2705 220.498 56.9138 213.479 49.2501C206.46 41.5862 195.752 36.9861 185.512 38.7128C175.271 40.4393 166.208 49.2062 165.517 59.582C165.15 65.0889 166.987 70.5589 166.681 76.0698C166.154 85.5941 159.343 93.6536 151.706 99.3554C145.125 104.268 138.035 106.03 133.316 112.755C124.858 124.809 126.266 138.701 131.266 147.01C132.984 149.866 135.8 152.549 139.175 154.841C148.869 161.422 160.996 163.121 172.346 160.223C189.965 155.724 205.865 144.596 215.029 130.158C225.676 113.383 226.535 94.6429 225.022 77.6283Z" fill="white" fill-opacity="0.8"/>
<path fill-rule="evenodd" clip-rule="evenodd" d="M151.631 150.753C151.631 151.157 151.304 151.484 150.901 151.484C150.498 151.484 150.171 151.157 150.171 150.753C150.171 150.35 150.498 150.022 150.901 150.022C151.304 150.022 151.631 150.35 151.631 150.753Z" fill="#0096ED"/>
<path fill-rule="evenodd" clip-rule="evenodd" d="M162.238 163.58C162.087 163.429 162.087 163.184 162.238 163.032C162.389 162.881 162.634 162.881 162.785 163.032C162.936 163.184 162.936 163.429 162.785 163.58C162.634 163.731 162.389 163.731 162.238 163.58Z" fill="#0096ED"/>
<path d="M187.915 165.557C185.287 166.636 182.279 170.41 182.066 173.377C181.853 176.344 183.419 179.297 185.808 181.065C188.198 182.833 191.309 183.476 194.262 183.156C196.372 182.927 198.513 182.174 199.944 180.605C201.524 178.872 202.025 176.361 201.792 174.026C201.472 170.811 199.791 167.689 197.091 165.919C194.391 164.15 190.684 163.898 187.915 165.557Z" fill="#0096ED"/>
<path d="M187.915 165.557C185.287 166.636 182.279 170.41 182.066 173.377C181.853 176.344 183.419 179.297 185.808 181.065C188.198 182.833 191.309 183.476 194.262 183.156C196.372 182.927 198.513 182.174 199.944 180.605C201.524 178.872 202.025 176.361 201.792 174.026C201.472 170.811 199.791 167.689 197.091 165.919C194.391 164.15 190.684 163.898 187.915 165.557Z" fill="white" fill-opacity="0.8"/>
<path fill-rule="evenodd" clip-rule="evenodd" d="M208.369 108.562C208.369 109.29 207.78 109.88 207.053 109.88C206.326 109.88 205.737 109.29 205.737 108.562C205.737 107.834 206.326 107.244 207.053 107.244C207.78 107.244 208.369 107.834 208.369 108.562Z" fill="#0096ED"/>
<path fill-rule="evenodd" clip-rule="evenodd" d="M187.984 59.0785C187.984 59.4821 187.657 59.8092 187.254 59.8092C186.851 59.8092 186.524 59.4821 186.524 59.0785C186.524 58.6749 186.851 58.3477 187.254 58.3477C187.657 58.3477 187.984 58.6749 187.984 59.0785Z" fill="#0096ED"/>
<path d="M204.932 193.103C204.932 193.962 192.225 194.659 176.549 194.659C160.874 194.659 148.167 193.962 148.167 193.103C148.167 192.244 160.874 191.548 176.549 191.548C192.225 191.548 204.932 192.244 204.932 193.103Z" fill="#F9F9F9"/>
<path d="M133.513 206.624L139.996 193.234H211.508L220.03 206.591C220.03 206.591 133.513 207.493 133.513 206.624Z" fill="#092C42"/>
<path d="M177.929 206.843C177.869 206.843 177.821 204.244 177.821 201.038C177.821 197.832 177.869 195.233 177.929 195.233C177.989 195.233 178.037 197.832 178.037 201.038C178.037 204.244 177.989 206.843 177.929 206.843Z" fill="#5F7684"/>
<path d="M214.271 198.502C214.272 198.509 214.178 198.523 213.998 198.546C213.801 198.568 213.537 198.598 213.205 198.636C212.494 198.709 211.491 198.811 210.241 198.939C207.694 199.182 204.148 199.521 200.064 199.911L200.142 199.862C199.463 200.961 198.748 202.116 198.013 203.305L197.982 203.354L197.924 203.356C197.659 203.361 197.373 203.367 197.087 203.373C191.804 203.47 187.023 203.558 183.54 203.623C181.821 203.644 180.423 203.661 179.435 203.674C178.964 203.675 178.592 203.676 178.318 203.677C178.201 203.675 178.106 203.673 178.028 203.672C177.962 203.67 177.929 203.667 177.929 203.663C177.929 203.659 177.962 203.655 178.027 203.65C178.105 203.645 178.201 203.64 178.317 203.633C178.59 203.623 178.963 203.608 179.433 203.59C180.421 203.561 181.819 203.52 183.537 203.47C187.02 203.39 191.8 203.279 197.082 203.157C197.369 203.151 197.654 203.146 197.919 203.14L197.83 203.191C198.567 202.004 199.284 200.85 199.966 199.752L199.993 199.708L200.045 199.703C204.131 199.344 207.68 199.031 210.229 198.807C211.481 198.705 212.486 198.623 213.199 198.565C213.532 198.542 213.797 198.523 213.995 198.509C214.176 198.499 214.271 198.496 214.271 198.502Z" fill="#5F7684"/>
<path d="M207.808 199.095C207.749 199.104 207.531 198.01 207.32 196.652C207.109 195.293 206.985 194.184 207.044 194.175C207.103 194.166 207.321 195.26 207.532 196.619C207.743 197.977 207.867 199.086 207.808 199.095Z" fill="#5F7684"/>
<path d="M150.484 207.002C150.475 207.004 150.436 206.93 150.372 206.788C150.3 206.623 150.211 206.418 150.103 206.169C149.872 205.606 149.56 204.846 149.189 203.941L149.267 203.991C147.849 203.884 146.169 203.758 144.364 203.623C141.871 203.428 139.615 203.243 137.983 203.101C137.195 203.029 136.544 202.969 136.052 202.924C135.596 202.878 135.345 202.848 135.347 202.836C135.348 202.825 135.602 202.833 136.06 202.859C136.554 202.891 137.207 202.932 137.998 202.983C139.634 203.095 141.892 203.262 144.386 203.456C146.189 203.601 147.868 203.737 149.285 203.851L149.346 203.856L149.362 203.901C149.704 204.812 149.99 205.578 150.203 206.146C150.292 206.399 150.365 206.608 150.424 206.775C150.472 206.921 150.493 206.999 150.484 207.002Z" fill="#5F7684"/>
<path d="M177.929 198.501C177.929 198.505 177.9 198.508 177.845 198.511C177.777 198.514 177.696 198.517 177.597 198.521C177.362 198.525 177.043 198.531 176.639 198.539C175.787 198.547 174.579 198.558 173.08 198.571C170.039 198.58 165.819 198.593 161.025 198.608L161.062 198.601C160.009 198.998 158.911 199.411 157.79 199.834C157.182 200.062 156.58 200.288 156.015 200.501L155.99 200.51L155.964 200.507C150.814 199.869 146.23 199.3 142.912 198.889C141.275 198.677 139.952 198.505 139.019 198.384C138.575 198.322 138.225 198.273 137.968 198.237C137.859 198.22 137.769 198.206 137.696 198.194C137.635 198.183 137.604 198.176 137.604 198.172C137.605 198.169 137.637 198.169 137.699 198.173C137.773 198.179 137.863 198.187 137.973 198.196C138.231 198.223 138.583 198.259 139.029 198.305C139.964 198.41 141.289 198.56 142.929 198.745C146.249 199.138 150.837 199.682 155.99 200.294L155.94 200.3C156.505 200.087 157.106 199.861 157.714 199.632C158.835 199.21 159.934 198.798 160.988 198.402L161.006 198.395H161.025C165.819 198.41 170.039 198.422 173.08 198.432C174.579 198.445 175.787 198.456 176.639 198.464C177.043 198.471 177.362 198.477 177.597 198.482C177.696 198.486 177.777 198.489 177.845 198.491C177.9 198.495 177.929 198.498 177.929 198.501Z" fill="#5F7684"/>
<path d="M231.221 92.5045H214.754V90.2471H231.221V92.5045Z" fill="#0096ED"/>
<path d="M221.88 96.5943H214.754V94.3369H221.88V96.5943Z" fill="#0096ED"/>
<path d="M317.141 95.1173C317.137 95.1138 317.173 95.0809 317.245 95.0195C317.33 94.9494 317.437 94.8613 317.57 94.7518C317.644 94.6929 317.725 94.6284 317.814 94.5583C317.913 94.4985 318.02 94.4339 318.135 94.3644C318.252 94.2941 318.378 94.219 318.511 94.139C318.655 94.0754 318.807 94.008 318.967 93.937C320.238 93.3501 322.405 93.0415 324.822 93.8361C326.014 94.2399 327.28 94.8895 328.357 95.9292C329.443 96.958 330.31 98.3479 330.843 99.9371C331.923 103.122 331.645 107.03 330.089 110.554C328.513 114.092 326.049 116.898 323.717 119.24C321.361 121.583 319.093 123.527 317.292 125.266C315.479 126.993 314.112 128.491 313.233 129.581C312.79 130.123 312.46 130.555 312.242 130.853C312.139 130.99 312.056 131.101 311.99 131.188C311.932 131.263 311.9 131.3 311.896 131.298C311.893 131.295 311.917 131.253 311.967 131.173C312.028 131.081 312.104 130.965 312.198 130.822C312.402 130.513 312.719 130.069 313.152 129.516C314.008 128.403 315.36 126.878 317.161 125.13C318.95 123.369 321.206 121.409 323.542 119.066C325.856 116.723 328.291 113.935 329.845 110.446C331.376 106.977 331.653 103.134 330.609 100.016C330.094 98.4589 329.253 97.0969 328.205 96.0902C327.162 95.0692 325.926 94.4229 324.761 94.0158C322.399 93.2138 320.27 93.4846 319.007 94.0334C317.718 94.5687 317.17 95.1623 317.141 95.1173Z" fill="#092C42"/>
<path d="M274.647 179.696V163.322C274.647 157.518 278.528 153.583 283.354 153.523L333.226 152.9C336.567 152.858 339.297 155.558 339.297 158.904V179.394L274.647 179.696Z" fill="#0096ED"/>
<path d="M333.187 167.449H312.983V157.992H333.187V167.449Z" fill="#F9F9F9"/>
<path d="M306.647 179.299C306.574 179.299 306.514 173.506 306.514 166.362C306.514 159.215 306.574 153.423 306.647 153.423C306.721 153.423 306.781 159.215 306.781 166.362C306.781 173.506 306.721 179.299 306.647 179.299Z" fill="#092C42"/>
<path d="M306.851 145.578C306.845 145.565 307.014 145.467 307.342 145.34C307.669 145.212 308.166 145.077 308.796 145.018C310.035 144.888 311.908 145.191 313.401 146.483C314.884 147.789 315.439 149.606 315.479 150.853C315.506 151.486 315.44 151.997 315.358 152.339C315.277 152.682 315.203 152.863 315.189 152.858C315.131 152.849 315.391 152.097 315.29 150.866C315.203 149.658 314.638 147.928 313.225 146.685C311.804 145.454 310.016 145.128 308.809 145.207C307.577 145.274 306.868 145.634 306.851 145.578Z" fill="#092C42"/>
<path d="M282.103 153.638L306.648 87.502L324.391 95.9361L303.571 157.992L282.103 153.638Z" fill="#0096ED"/>
<path d="M296.669 172.072C294.475 177.057 288.66 179.318 283.682 177.12C278.703 174.923 276.446 169.101 278.64 164.116C280.835 159.131 286.649 156.871 291.628 159.068C296.606 161.265 298.863 167.087 296.669 172.072Z" fill="#092C42" fill-opacity="0.4"/>
<path d="M298.14 168.336C295.883 173.465 289.901 175.79 284.78 173.529C279.658 171.269 277.336 165.279 279.594 160.151C281.851 155.023 287.833 152.698 292.954 154.958C298.075 157.218 300.397 163.208 298.14 168.336Z" fill="#092C42"/>
<path d="M292.393 165.8C291.535 167.75 289.26 168.634 287.313 167.775C285.366 166.916 284.483 164.638 285.341 162.688C286.199 160.738 288.474 159.854 290.421 160.713C292.368 161.573 293.251 163.85 292.393 165.8Z" fill="#5F7684"/>
<path d="M292.599 155.767C292.59 155.764 292.633 155.623 292.723 155.357C292.823 155.068 292.957 154.682 293.126 154.197C293.497 153.169 294.017 151.725 294.657 149.951C295.982 146.353 297.798 141.423 299.804 135.977C301.141 132.393 302.396 129.033 303.462 126.175L303.533 126.325C300.558 125.273 298.069 124.392 296.297 123.766C295.445 123.456 294.766 123.209 294.275 123.031C294.059 122.948 293.884 122.881 293.745 122.828C293.626 122.781 293.565 122.753 293.567 122.747C293.569 122.741 293.634 122.757 293.757 122.794C293.899 122.838 294.077 122.894 294.298 122.963C294.795 123.127 295.481 123.353 296.342 123.637C298.121 124.242 300.62 125.09 303.609 126.105L303.721 126.144L303.68 126.256C302.623 129.117 301.38 132.482 300.054 136.071C298.02 141.506 296.179 146.426 294.835 150.017C294.161 151.779 293.614 153.213 293.224 154.234C293.035 154.711 292.885 155.092 292.773 155.375C292.667 155.635 292.607 155.77 292.599 155.767Z" fill="#092C42"/>
<path d="M315.402 123.575C315.374 123.644 311.032 121.985 305.703 119.87C300.372 117.755 296.075 115.985 296.102 115.916C296.129 115.847 300.471 117.506 305.801 119.621C311.13 121.736 315.429 123.506 315.402 123.575Z" fill="#092C42"/>
<path d="M293.93 174.013C293.917 173.995 294.177 173.779 294.632 173.373C295.089 172.969 295.727 172.359 296.453 171.549C297.918 169.939 299.636 167.435 301.023 164.411C302.414 161.387 303.309 158.496 303.956 156.41C304.265 155.395 304.52 154.559 304.711 153.933C304.796 153.667 304.867 153.446 304.926 153.262C304.977 153.11 305.009 153.031 305.018 153.033C305.027 153.036 305.012 153.12 304.977 153.277C304.932 153.464 304.877 153.69 304.811 153.962C304.661 154.555 304.435 155.411 304.137 156.464C303.536 158.565 302.667 161.477 301.266 164.524C299.868 167.57 298.106 170.086 296.593 171.677C295.842 172.477 295.179 173.071 294.7 173.453C294.465 173.65 294.267 173.784 294.138 173.88C294.007 173.974 293.936 174.02 293.93 174.013Z" fill="#092C42"/>
<path d="M281.03 168.489C281.027 168.498 280.967 168.486 280.853 168.454C280.743 168.415 280.577 168.354 280.388 168.231C280.006 167.996 279.517 167.512 279.211 166.756C278.895 166.002 278.831 165.014 278.948 163.968C279.068 162.921 279.266 161.787 279.523 160.604C280.041 158.237 280.759 156.158 281.361 154.693C281.659 153.959 281.932 153.378 282.125 152.98C282.324 152.584 282.442 152.369 282.458 152.377C282.475 152.385 282.389 152.615 282.22 153.023C282.057 153.433 281.812 154.023 281.537 154.762C280.983 156.238 280.299 158.311 279.785 160.662C279.317 162.996 278.806 165.214 279.387 166.687C279.656 167.414 280.098 167.894 280.446 168.145C280.796 168.403 281.04 168.464 281.03 168.489Z" fill="#092C42"/>
<path d="M286.159 192.961C286.159 197.899 282.161 201.902 277.229 201.902C272.298 201.902 268.3 197.899 268.3 192.961C268.3 188.023 272.298 184.02 277.229 184.02C282.161 184.02 286.159 188.023 286.159 192.961Z" fill="#5F7684"/>
<path d="M280.29 192.964C280.29 194.657 278.92 196.029 277.23 196.029C275.539 196.029 274.169 194.657 274.169 192.964C274.169 191.272 275.539 189.899 277.23 189.899C278.92 189.899 280.29 191.272 280.29 192.964Z" fill="#092C42"/>
<path d="M315.493 193.199C315.493 198.137 311.495 202.141 306.563 202.141C301.632 202.141 297.634 198.137 297.634 193.199C297.634 188.261 301.632 184.258 306.563 184.258C311.495 184.258 315.493 188.261 315.493 193.199Z" fill="#5F7684"/>
<path d="M309.624 193.201C309.624 194.893 308.254 196.266 306.564 196.266C304.873 196.266 303.503 194.893 303.503 193.201C303.503 191.508 304.873 190.136 306.564 190.136C308.254 190.136 309.624 191.508 309.624 193.201Z" fill="#092C42"/>
<path d="M345.055 193.199C345.055 198.137 341.057 202.141 336.126 202.141C331.194 202.141 327.196 198.137 327.196 193.199C327.196 188.261 331.194 184.258 336.126 184.258C341.057 184.258 345.055 188.261 345.055 193.199Z" fill="#5F7684"/>
<path d="M339.187 193.201C339.187 194.893 337.817 196.266 336.126 196.266C334.436 196.266 333.065 194.893 333.065 193.201C333.065 191.508 334.436 190.136 336.126 190.136C337.817 190.136 339.187 191.508 339.187 193.201Z" fill="#092C42"/>
<path d="M336.448 206.535H277.027C269.554 206.535 263.475 200.448 263.475 192.964C263.475 185.482 269.554 179.394 277.027 179.394H336.448C343.921 179.394 350.001 185.482 350.001 192.964C350.001 200.448 343.921 206.535 336.448 206.535ZM277.027 183.842C272.004 183.842 267.917 187.934 267.917 192.964C267.917 197.994 272.004 202.086 277.027 202.086H336.448C341.472 202.086 345.558 197.994 345.558 192.964C345.558 187.934 341.472 183.842 336.448 183.842H277.027Z" fill="#092C42"/>
<path d="M306.563 183.834C306.519 183.834 306.483 182.86 306.483 181.658C306.483 180.456 306.519 179.481 306.563 179.481C306.608 179.481 306.644 180.456 306.644 181.658C306.644 182.86 306.608 183.834 306.563 183.834Z" fill="#5F7684"/>
<path d="M317.701 183.834C317.656 183.834 317.621 182.86 317.621 181.658C317.621 180.456 317.656 179.481 317.701 179.481C317.745 179.481 317.781 180.456 317.781 181.658C317.781 182.86 317.745 183.834 317.701 183.834Z" fill="#5F7684"/>
<path d="M328.839 183.834C328.795 183.834 328.759 182.86 328.759 181.658C328.759 180.456 328.795 179.481 328.839 179.481C328.883 179.481 328.919 180.456 328.919 181.658C328.919 182.86 328.883 183.834 328.839 183.834Z" fill="#5F7684"/>
<path d="M339.186 184.258C339.144 184.245 339.392 183.302 339.741 182.152C340.089 181.002 340.406 180.08 340.449 180.093C340.491 180.106 340.243 181.049 339.894 182.199C339.546 183.349 339.229 184.271 339.186 184.258Z" fill="#5F7684"/>
<path d="M345.056 189.846C345.035 189.806 345.886 189.331 346.954 188.784C348.023 188.237 348.906 187.825 348.926 187.865C348.946 187.904 348.097 188.38 347.027 188.927C345.959 189.474 345.076 189.885 345.056 189.846Z" fill="#5F7684"/>
<path d="M306.015 202.276C306.06 202.276 306.096 203.251 306.096 204.453C306.096 205.655 306.06 206.629 306.015 206.629C305.971 206.629 305.935 205.655 305.935 204.453C305.935 203.251 305.971 202.276 306.015 202.276Z" fill="#5F7684"/>
<path d="M317.153 202.141C317.197 202.141 317.233 203.115 317.233 204.317C317.233 205.519 317.197 206.493 317.153 206.493C317.109 206.493 317.073 205.519 317.073 204.317C317.073 203.115 317.109 202.141 317.153 202.141Z" fill="#5F7684"/>
<path d="M328.292 202.141C328.336 202.141 328.372 203.115 328.372 204.317C328.372 205.519 328.336 206.493 328.292 206.493C328.247 206.493 328.211 205.519 328.211 204.317C328.211 203.115 328.247 202.141 328.292 202.141Z" fill="#5F7684"/>
<path d="M338.639 201.852C338.681 201.839 338.998 202.761 339.346 203.911C339.695 205.061 339.943 206.004 339.901 206.017C339.858 206.03 339.541 205.108 339.193 203.957C338.844 202.807 338.596 201.865 338.639 201.852Z" fill="#5F7684"/>
<path d="M344.814 196.722C344.834 196.683 345.717 197.094 346.786 197.641C347.855 198.188 348.705 198.664 348.685 198.703C348.665 198.742 347.782 198.331 346.713 197.784C345.644 197.237 344.794 196.762 344.814 196.722Z" fill="#5F7684"/>
<path d="M295.929 202.279C295.973 202.279 296.009 203.254 296.009 204.455C296.009 205.658 295.973 206.632 295.929 206.632C295.885 206.632 295.849 205.658 295.849 204.455C295.849 203.254 295.885 202.279 295.929 202.279Z" fill="#5F7684"/>
<path d="M284.791 202.279C284.835 202.279 284.871 203.254 284.871 204.455C284.871 205.658 284.835 206.632 284.791 206.632C284.747 206.632 284.711 205.658 284.711 204.455C284.711 203.254 284.747 202.279 284.791 202.279Z" fill="#5F7684"/>
<path d="M274.444 201.853C274.486 201.866 274.238 202.808 273.889 203.958C273.541 205.109 273.224 206.031 273.182 206.018C273.139 206.005 273.387 205.062 273.736 203.912C274.084 202.762 274.401 201.84 274.444 201.853Z" fill="#5F7684"/>
<path d="M268.575 196.267C268.595 196.307 267.745 196.782 266.676 197.329C265.607 197.876 264.724 198.287 264.704 198.248C264.684 198.208 265.534 197.733 266.603 197.186C267.672 196.639 268.555 196.228 268.575 196.267Z" fill="#5F7684"/>
<path d="M296.477 183.97C296.432 183.97 296.396 182.995 296.396 181.794C296.396 180.591 296.432 179.617 296.477 179.617C296.521 179.617 296.557 180.591 296.557 181.794C296.557 182.995 296.521 183.97 296.477 183.97Z" fill="#5F7684"/>
<path d="M285.339 183.97C285.294 183.97 285.258 182.995 285.258 181.794C285.258 180.591 285.294 179.617 285.339 179.617C285.383 179.617 285.419 180.591 285.419 181.794C285.419 182.995 285.383 183.97 285.339 183.97Z" fill="#5F7684"/>
<path d="M274.991 184.257C274.948 184.27 274.631 183.348 274.283 182.198C273.934 181.048 273.686 180.105 273.728 180.092C273.771 180.079 274.088 181.001 274.436 182.151C274.785 183.301 275.033 184.244 274.991 184.257Z" fill="#5F7684"/>
<path d="M268.817 189.392C268.796 189.432 267.913 189.021 266.845 188.474C265.776 187.927 264.926 187.451 264.946 187.412C264.966 187.372 265.849 187.783 266.918 188.331C267.987 188.877 268.837 189.353 268.817 189.392Z" fill="#5F7684"/>
<path d="M251.896 115.372L285.217 101.946L287.118 109.126L255.286 122.993L251.896 115.372Z" fill="#DFDFDF"/>
<path d="M311.802 104.366L288.308 113.695L282.801 98.9196L309.41 87.7646L311.802 104.366Z" fill="#0096ED"/>
<path d="M320.203 93.6422L334.889 87.5198L332.471 81.4375L318.215 87.2016L320.203 93.6422Z" fill="#DFDFDF"/>
<path d="M319.696 93.2988C323.162 97.0624 322.926 102.927 319.167 106.399C315.409 109.87 309.551 109.633 306.085 105.87C302.618 102.106 302.855 96.2409 306.613 92.7696C310.372 89.2982 316.229 89.5352 319.696 93.2988Z" fill="#092C42" fill-opacity="0.4"/>
<path d="M319.892 88.1219C323.458 91.9938 323.215 98.0273 319.348 101.598C315.481 105.169 309.456 104.926 305.89 101.054C302.323 97.1824 302.567 91.1486 306.433 87.5775C310.3 84.0063 316.325 84.2501 319.892 88.1219Z" fill="#092C42"/>
<path d="M315.553 92.1278C316.909 93.6 316.816 95.8942 315.346 97.2521C313.876 98.61 311.585 98.5173 310.229 97.0452C308.872 95.5729 308.965 93.2786 310.435 91.9207C311.906 90.5628 314.197 90.6555 315.553 92.1278Z" fill="#5F7684"/>
<path d="M285.712 96.9449C285.722 96.935 285.859 97.063 286.103 97.3084C286.374 97.5879 286.719 97.9442 287.137 98.3767C288.04 99.3389 289.257 100.636 290.667 102.138L290.528 102.107C291.535 101.706 292.63 101.269 293.771 100.815C296.51 99.7304 298.994 98.7627 300.798 98.0746C301.668 97.7486 302.389 97.4785 302.938 97.2728C303.446 97.0891 303.73 96.9956 303.737 97.0128C303.743 97.03 303.472 97.1563 302.977 97.3698C302.436 97.5958 301.725 97.8925 300.867 98.2509C299.082 98.9839 296.608 99.9794 293.869 101.064C292.726 101.513 291.629 101.945 290.621 102.342L290.539 102.374L290.482 102.31C289.099 100.781 287.907 99.4618 287.022 98.483C286.625 98.0304 286.298 97.6576 286.042 97.3652C285.817 97.1019 285.701 96.9548 285.712 96.9449Z" fill="#092C42"/>
<path d="M227.38 121.612L250.903 111.615L257.604 125.51L233.221 136.038L227.38 121.612Z" fill="#0096ED"/>
<path d="M229.943 120.974C233.812 119.337 238.273 121.15 239.909 125.024C241.544 128.897 239.733 133.365 235.864 135.002C231.995 136.64 227.534 134.827 225.899 130.953C224.264 127.079 226.074 122.611 229.943 120.974Z" fill="#092C42" fill-opacity="0.4"/>
<path d="M226.752 121.661C230.892 119.909 235.666 121.849 237.416 125.994C239.165 130.139 237.228 134.92 233.088 136.672C228.948 138.424 224.174 136.484 222.424 132.338C220.675 128.193 222.612 123.412 226.752 121.661Z" fill="#092C42"/>
<path d="M228.715 126.313C230.289 125.646 232.105 126.384 232.77 127.96C233.435 129.537 232.699 131.355 231.124 132.021C229.55 132.687 227.735 131.949 227.07 130.373C226.404 128.797 227.141 126.979 228.715 126.313Z" fill="#5F7684"/>
<path d="M242.341 132.1C242.325 132.102 242.283 131.896 242.217 131.516C242.15 131.093 242.063 130.547 241.957 129.883C241.748 128.44 241.466 126.489 241.14 124.24L241.126 124.142L241.219 124.104C242.124 123.735 243.099 123.337 244.109 122.924C246.94 121.775 249.509 120.749 251.373 120.018C252.275 119.671 253.021 119.384 253.586 119.166C254.11 118.971 254.404 118.87 254.411 118.888C254.417 118.905 254.137 119.038 253.625 119.263C253.068 119.5 252.333 119.814 251.444 120.194C249.598 120.969 247.041 122.024 244.21 123.173C243.198 123.581 242.221 123.976 241.316 124.342L241.394 124.205C241.682 126.459 241.932 128.415 242.117 129.861C242.193 130.529 242.255 131.079 242.303 131.504C242.342 131.888 242.356 132.097 242.341 132.1Z" fill="#092C42"/>
<path d="M209.197 135.041L209.033 134.08L214.852 133.083L215.016 134.044L209.197 135.041Z" fill="#092C42"/>
<path d="M225.915 128.094L222.496 128.68L222.198 126.938L220.878 127.165L221.268 129.447L218.869 129.858L219.064 130.999L219.834 135.504L222.233 135.093L222.603 137.255L223.773 137.055L223.537 135.673L227.105 135.062L225.915 128.094Z" fill="#092C42"/>
<path d="M213.606 131.935L214.222 135.539L219.68 134.604L219.064 131L213.606 131.935Z" fill="#5F7684"/>
<path d="M178.696 97.7512C178.696 97.7512 155.071 96.986 155.071 109.565C155.072 123.829 159.766 150.556 178.696 150.279C197.625 150.002 201.101 112.525 201.314 110.854C201.314 110.854 202.302 98.8445 178.696 97.7512Z" fill="#0096ED"/>
<path d="M200.747 107.607C200.749 107.611 200.716 107.636 200.65 107.683C200.569 107.737 200.471 107.803 200.35 107.885C200.088 108.062 199.688 108.306 199.164 108.605C198.115 109.196 196.545 109.976 194.505 110.682C192.468 111.39 189.963 112.015 187.137 112.395C184.311 112.784 181.174 112.93 177.889 112.906C174.605 112.865 171.472 112.793 168.638 112.439C165.805 112.095 163.295 111.413 161.325 110.519C159.349 109.634 157.924 108.58 157.03 107.773C156.585 107.365 156.26 107.026 156.052 106.786C155.958 106.675 155.882 106.585 155.819 106.51C155.767 106.447 155.743 106.413 155.746 106.41C155.75 106.407 155.781 106.435 155.839 106.492C155.907 106.562 155.99 106.646 156.091 106.75C156.312 106.976 156.646 107.301 157.098 107.695C158.008 108.472 159.435 109.491 161.402 110.345C163.362 111.209 165.851 111.866 168.668 112.194C171.483 112.532 174.614 112.597 177.891 112.639C181.168 112.662 184.291 112.524 187.104 112.15C189.917 111.785 192.411 111.184 194.444 110.502C196.48 109.824 198.054 109.074 199.114 108.513C199.643 108.229 200.051 108.001 200.322 107.839C200.448 107.767 200.551 107.708 200.635 107.66C200.706 107.621 200.744 107.603 200.747 107.607Z" fill="#092C42"/>
<path d="M186.468 112.358C186.477 112.358 186.489 112.479 186.502 112.711C186.516 112.943 186.526 113.285 186.524 113.726C186.516 114.605 186.474 115.891 186.132 117.44C185.962 118.212 185.705 119.047 185.326 119.899C184.949 120.75 184.456 121.632 183.77 122.434C183.097 123.244 182.243 123.971 181.248 124.544C180.747 124.823 180.208 125.057 179.642 125.237C179.072 125.407 178.474 125.51 177.863 125.538C176.637 125.578 175.441 125.262 174.436 124.703C173.426 124.147 172.589 123.392 171.929 122.574C170.588 120.927 170.02 119.049 169.744 117.504C169.479 115.941 169.483 114.656 169.508 113.777C169.522 113.336 169.546 112.995 169.566 112.764C169.587 112.533 169.602 112.412 169.611 112.412C169.621 112.413 169.623 112.535 169.62 112.767C169.618 113.025 169.615 113.361 169.612 113.778C169.619 114.654 169.645 115.931 169.93 117.47C170.226 118.992 170.804 120.824 172.12 122.418C172.768 123.211 173.585 123.94 174.561 124.472C175.533 125.009 176.679 125.308 177.853 125.27C178.439 125.243 179.015 125.145 179.565 124.982C180.111 124.809 180.633 124.585 181.12 124.315C182.086 123.763 182.922 123.059 183.582 122.274C184.255 121.499 184.744 120.641 185.124 119.808C185.505 118.975 185.768 118.157 185.948 117.397C186.309 115.874 186.38 114.598 186.42 113.723C186.432 113.306 186.441 112.97 186.448 112.712C186.452 112.48 186.459 112.359 186.468 112.358Z" fill="#092C42"/>
<path d="M192.089 141.415C192.059 141.425 191.905 140.909 191.503 140.029C191.102 139.152 190.421 137.917 189.318 136.59C188.208 135.278 186.651 133.882 184.619 132.855C182.6 131.815 180.095 131.229 177.474 131.32C174.852 131.427 172.399 132.202 170.464 133.391C168.515 134.57 167.067 136.08 166.06 137.472C165.06 138.879 164.475 140.161 164.141 141.067C163.806 141.974 163.692 142.5 163.661 142.492C163.652 142.49 163.679 142.359 163.737 142.109C163.788 141.858 163.893 141.495 164.043 141.032C164.349 140.109 164.913 138.801 165.905 137.362C166.906 135.939 168.36 134.391 170.336 133.181C172.298 131.958 174.796 131.161 177.464 131.052C180.131 130.959 182.682 131.564 184.73 132.635C186.792 133.693 188.359 135.125 189.464 136.469C190.561 137.828 191.223 139.09 191.598 139.987C191.782 140.438 191.914 140.792 191.984 141.038C192.062 141.282 192.097 141.412 192.089 141.415Z" fill="#092C42"/>
<path d="M188.416 128.903L189.502 124.012L199.05 124.012C198.712 125.461 198.234 127.152 197.694 128.953L188.416 128.903Z" fill="#F9F9F9"/>
<path d="M167.068 128.903L165.982 124.012L156.434 124.012C156.772 125.461 157.059 127.152 157.6 128.953L167.068 128.903Z" fill="#F9F9F9"/>
<path d="M200.068 106.411C197.785 102.677 191.738 98.3553 178.696 97.7512C178.696 97.7512 164.082 97.2779 157.842 103.196C157.842 103.196 156.625 104.467 156.245 105.173C155.866 105.88 161.124 112.201 178.013 111.658C195.436 111.098 200.068 106.411 200.068 106.411Z" fill="#092C42" fill-opacity="0.4"/>
<path d="M154.662 84.0997C153.823 82.2224 153.419 80.0706 153.988 78.0947C154.558 76.1189 156.255 74.3979 158.301 74.2168L154.662 84.0997Z" fill="#092C42"/>
<path d="M157.62 74.3351C157.644 74.3695 157.276 74.6502 156.787 75.2097C156.3 75.7656 155.667 76.5908 155.192 77.6101C154.74 78.6492 154.404 79.6284 154.198 80.3437C153.991 81.0605 153.898 81.5153 153.858 81.5088C153.825 81.5041 153.853 81.0358 154.015 80.2969C154.177 79.5574 154.487 78.5602 154.949 77.4989C155.444 76.4386 156.115 75.616 156.649 75.0798C157.186 74.5406 157.603 74.3081 157.62 74.3351Z" fill="#0096ED"/>
<path d="M201.893 84.0997C202.732 82.2224 203.136 80.0706 202.567 78.0947C201.997 76.1189 200.3 74.3979 198.254 74.2168L201.893 84.0997Z" fill="#092C42"/>
<path d="M198.935 74.3351C198.951 74.3081 199.369 74.5406 199.906 75.0798C200.439 75.616 201.111 76.4386 201.606 77.4989C202.068 78.5602 202.378 79.5574 202.54 80.2969C202.702 81.0358 202.73 81.5041 202.697 81.5088C202.657 81.5153 202.563 81.0605 202.357 80.3437C202.151 79.6284 201.815 78.6492 201.362 77.6101C200.888 76.5908 200.255 75.7656 199.768 75.2097C199.279 74.6502 198.91 74.3695 198.935 74.3351Z" fill="#0096ED"/>
<path d="M156.553 93.4201C154.233 91.0771 153.278 87.7039 153.918 84.4668C155.28 77.5749 160.289 65.1684 178.696 65.4298C198.007 65.7043 201.63 79.0884 202.254 85.5357C202.512 88.2008 201.711 90.8605 200.005 92.9223C197.132 96.3944 191.033 100.876 178.696 100.872C166.474 100.868 159.905 96.8038 156.553 93.4201Z" fill="#0096ED"/>
<path d="M170.094 66.2472C170.103 66.2441 170.139 66.3237 170.202 66.478C170.274 66.6617 170.361 66.8852 170.466 67.1551C170.697 67.7414 171.02 68.5967 171.525 69.5992C172.034 70.5931 172.735 71.7554 173.832 72.7431C174.907 73.721 176.429 74.5399 178.129 74.4749C179.822 74.4216 181.338 73.637 182.454 72.6986C183.577 71.7434 184.339 70.6207 184.891 69.65C185.444 68.6731 185.8 67.8317 186.048 67.253C186.293 66.672 186.424 66.3482 186.443 66.3551C186.452 66.3581 186.43 66.4431 186.381 66.6022C186.332 66.7614 186.253 66.9941 186.145 67.2912C185.926 67.8839 185.595 68.7411 185.056 69.7419C184.518 70.7363 183.761 71.8914 182.613 72.8869C181.474 73.8619 179.912 74.6857 178.136 74.7426C177.255 74.7729 176.393 74.5781 175.639 74.2401C174.879 73.9071 174.225 73.4339 173.666 72.9258C172.546 71.8974 171.849 70.6987 171.356 69.6831C170.866 68.658 170.57 67.7891 170.368 67.1904C170.269 66.8903 170.197 66.6557 170.151 66.4956C170.105 66.3357 170.085 66.2501 170.094 66.2472Z" fill="#092C42"/>
<path d="M190.898 92.6422C181.938 94.8364 173.192 94.9189 164.676 92.7378C161.477 91.9182 159.257 89.0015 159.257 85.6942V85.5699C159.257 81.5484 162.513 78.2881 166.529 78.2881H189.155C193.171 78.2881 196.427 81.5484 196.427 85.5699C196.427 88.9191 194.147 91.8467 190.898 92.6422Z" fill="#092C42"/>
<path d="M171.154 86.9678C171.01 87.8684 170.164 88.4816 169.265 88.3372C168.365 88.1929 167.753 87.3457 167.897 86.4452C168.041 85.5445 168.887 84.9314 169.786 85.0757C170.686 85.2201 171.298 86.0673 171.154 86.9678Z" fill="white"/>
<path d="M190.048 86.0137C189.903 86.9143 189.057 87.5273 188.158 87.3831C187.259 87.2387 186.646 86.3916 186.791 85.4911C186.935 84.5904 187.781 83.9773 188.68 84.1216C189.58 84.266 190.192 85.113 190.048 86.0137Z" fill="white"/>
<path d="M182.794 86.2218C182.823 86.2119 182.919 86.8045 182.549 87.6548C182.362 88.0702 182.052 88.538 181.58 88.9184C181.112 89.3027 180.479 89.5651 179.796 89.6175C179.114 89.6665 178.455 89.5003 177.947 89.1886C177.435 88.8811 177.075 88.4632 176.841 88.079C176.377 87.2906 176.404 86.6891 176.434 86.6947C176.492 86.6782 176.552 87.2449 177.034 87.9429C177.275 88.2846 177.626 88.6505 178.097 88.9146C178.564 89.1819 179.158 89.322 179.777 89.2781C180.395 89.2298 180.968 89.003 181.4 88.6691C181.837 88.3375 182.142 87.9228 182.342 87.5484C182.739 86.7851 182.734 86.2142 182.794 86.2218Z" fill="white"/>
<path d="M25.5306 96.1543C25.5318 96.1588 25.4852 96.1779 25.393 96.211C25.2863 96.2473 25.1511 96.2934 24.9825 96.3509C24.6224 96.4735 24.0947 96.668 23.4373 96.9672C22.1423 97.5739 20.2581 98.6131 18.5739 100.578C17.7322 101.549 16.9782 102.766 16.489 104.195C16.0082 105.623 15.878 107.275 16.1797 108.943C16.5083 110.594 17.2341 112.303 18.5417 113.605C19.1863 114.257 19.9644 114.794 20.8311 115.171C21.7002 115.545 22.6506 115.758 23.6229 115.823C25.5776 115.939 27.4837 115.509 29.2346 114.921C30.9903 114.325 32.6104 113.537 34.184 112.856C35.7545 112.169 37.2828 111.568 38.7763 111.21C40.2646 110.852 41.7206 110.732 43.0164 110.935C45.6276 111.295 47.4801 112.632 48.3332 113.803C48.5677 114.085 48.708 114.382 48.8539 114.621C48.9623 114.881 49.0684 115.094 49.1261 115.277C49.1738 115.45 49.2121 115.588 49.2424 115.698C49.2672 115.793 49.2775 115.842 49.273 115.843C49.2685 115.844 49.2493 115.797 49.2161 115.705C49.1795 115.599 49.1331 115.464 49.0754 115.296C49.0103 115.118 48.8972 114.91 48.7835 114.658C48.632 114.426 48.4876 114.138 48.2508 113.866C47.388 112.737 45.5571 111.452 42.9905 111.123C41.7181 110.935 40.2978 111.063 38.8287 111.426C37.3577 111.788 35.8464 112.39 34.283 113.082C32.7161 113.767 31.0954 114.562 29.3186 115.17C27.5491 115.768 25.6135 116.209 23.6057 116.091C22.607 116.024 21.6251 115.804 20.7261 115.416C19.8282 115.024 19.0202 114.465 18.3553 113.789C17.0059 112.439 16.2674 110.681 15.9373 108.988C15.6347 107.277 15.7766 105.584 16.279 104.123C16.7882 102.666 17.567 101.432 18.4307 100.454C20.1599 98.4754 22.0782 97.454 23.3949 96.872C24.7357 96.3045 25.5306 96.1543 25.5306 96.1543Z" fill="#092C42"/>
<path d="M91.3321 176.374V157.061C91.3321 151.651 86.988 147.247 81.5855 147.179L25.7604 146.482C22.0211 146.435 18.9648 149.458 18.9648 153.202V176.138L91.3321 176.374Z" fill="#0096ED"/>
<path d="M25.8042 162.766H48.4191V152.181H25.8042V162.766Z" fill="#F9F9F9"/>
<path d="M55.5117 176.032C55.4378 176.032 55.3779 169.548 55.3779 161.551C55.3779 153.55 55.4378 147.067 55.5117 147.067C55.5856 147.067 55.6454 153.55 55.6454 161.551C55.6454 169.548 55.5856 176.032 55.5117 176.032Z" fill="#092C42"/>
<path d="M55.284 138.285C55.2664 138.344 54.4745 137.936 53.0931 137.858C51.7405 137.767 49.7339 138.13 48.1381 139.512C46.5527 140.907 45.9202 142.849 45.8263 144.203C45.7155 145.584 46.011 146.425 45.9505 146.434C45.9368 146.439 45.8566 146.236 45.7679 145.852C45.6778 145.469 45.6056 144.897 45.6376 144.19C45.6676 143.484 45.8291 142.642 46.1953 141.777C46.5585 140.913 47.1466 140.032 47.9623 139.31C48.7877 138.6 49.7384 138.136 50.6427 137.894C51.549 137.648 52.4033 137.603 53.106 137.669C53.8101 137.734 54.366 137.883 54.7327 138.025C55.1004 138.165 55.2901 138.272 55.284 138.285Z" fill="#092C42"/>
<path d="M82.9863 147.307L55.5115 73.2773L35.6499 82.7182L58.9553 152.181L82.9863 147.307Z" fill="#0096ED"/>
<path d="M66.6805 167.942C69.1367 173.522 75.6453 176.052 81.2179 173.592C86.7906 171.133 89.317 164.616 86.8609 159.035C84.4048 153.455 77.8962 150.926 72.3235 153.385C66.751 155.844 64.2244 162.362 66.6805 167.942Z" fill="#092C42" fill-opacity="0.4"/>
<path d="M65.0337 163.762C67.5604 169.502 74.256 172.105 79.9889 169.575C85.7216 167.045 88.3206 160.34 85.7939 154.6C83.2672 148.859 76.5718 146.257 70.8389 148.787C65.1061 151.317 62.507 158.022 65.0337 163.762Z" fill="#092C42"/>
<path d="M71.4671 160.924C72.4278 163.107 74.9737 164.097 77.1536 163.135C79.3334 162.173 80.3217 159.623 79.3609 157.44C78.4002 155.258 75.8543 154.268 73.6743 155.23C71.4946 156.192 70.5063 158.742 71.4671 160.924Z" fill="#5F7684"/>
<path d="M71.2375 149.691C71.2331 149.692 71.2145 149.655 71.1823 149.581C71.1453 149.492 71.1005 149.384 71.0454 149.251C70.9225 148.938 70.7551 148.511 70.5438 147.972C70.1106 146.835 69.4983 145.227 68.7453 143.25C67.2439 139.235 65.1831 133.725 62.9069 127.638C61.4222 123.62 60.0303 119.853 58.847 116.652L58.8057 116.54L58.9178 116.502C62.2659 115.362 65.0642 114.409 67.0505 113.733C68.0178 113.412 68.7864 113.157 69.3365 112.975C69.5865 112.896 69.7864 112.833 69.9419 112.784C70.0796 112.742 70.1516 112.724 70.1537 112.73C70.1557 112.735 70.0877 112.765 69.9539 112.818C69.8013 112.876 69.6051 112.95 69.3599 113.043C68.8147 113.24 68.0533 113.515 67.0949 113.862C65.1163 114.56 62.3288 115.544 58.9937 116.721L59.0644 116.571C60.2573 119.769 61.6607 123.531 63.1576 127.544C65.4053 133.642 67.44 139.162 68.9226 143.184C69.6423 145.174 70.2274 146.791 70.6413 147.936C70.833 148.482 70.9845 148.915 71.0959 149.232C71.1409 149.369 71.1776 149.48 71.2079 149.572C71.2317 149.649 71.2417 149.689 71.2375 149.691Z" fill="#092C42"/>
<path d="M45.712 113.656C45.6848 113.587 50.4991 111.612 56.4639 109.245C62.4307 106.877 67.2883 105.014 67.3155 105.083C67.3427 105.152 62.5293 107.126 56.5625 109.494C50.5977 111.861 45.7391 113.725 45.712 113.656Z" fill="#092C42"/>
<path d="M69.7463 170.113C69.7406 170.12 69.6614 170.068 69.5152 169.962C69.3716 169.853 69.1509 169.702 68.8891 169.481C68.3537 169.052 67.6131 168.387 66.7739 167.49C65.0834 165.708 63.1133 162.893 61.5491 159.484C59.9817 156.075 59.0071 152.817 58.3316 150.466C57.9971 149.288 57.7425 148.33 57.5724 147.667C57.4964 147.358 57.434 147.105 57.3835 146.901C57.3433 146.725 57.3264 146.631 57.3353 146.629C57.3442 146.626 57.3784 146.715 57.4354 146.886C57.4987 147.087 57.5772 147.336 57.6727 147.638C57.8824 148.331 58.1668 149.269 58.513 150.412C59.2341 152.747 60.2345 155.985 61.7917 159.372C63.346 162.758 65.2717 165.561 66.9135 167.362C67.7284 168.268 68.4442 168.951 68.9566 169.402C69.4677 169.854 69.76 170.095 69.7463 170.113Z" fill="#092C42"/>
<path d="M84.1863 163.931C84.1759 163.904 84.4495 163.838 84.8436 163.551C85.2355 163.27 85.7325 162.733 86.0362 161.918C86.3486 161.108 86.4 160.047 86.257 158.899C86.1112 157.746 85.882 156.48 85.5962 155.165C85.0206 152.534 84.2523 150.213 83.6289 148.562C83.3207 147.734 83.0446 147.074 82.8602 146.616C82.669 146.16 82.571 145.904 82.5878 145.896C82.6044 145.888 82.7343 146.129 82.9552 146.573C83.1692 147.02 83.4728 147.67 83.8051 148.492C84.4763 150.132 85.2783 152.459 85.8576 155.108C86.1453 156.432 86.3676 157.701 86.5019 158.872C86.6341 160.041 86.5638 161.145 86.2123 161.987C85.8715 162.831 85.3274 163.373 84.9023 163.637C84.6909 163.775 84.5065 163.844 84.3831 163.889C84.2561 163.925 84.189 163.94 84.1863 163.931Z" fill="#092C42"/>
<path d="M78.4453 191.329C78.4453 196.857 82.9203 201.338 88.4406 201.338C93.9609 201.338 98.436 196.857 98.436 191.329C98.436 185.801 93.9609 181.32 88.4406 181.32C82.9203 181.32 78.4453 185.801 78.4453 191.329Z" fill="#5F7684"/>
<path d="M85.0146 191.331C85.0146 193.226 86.5485 194.762 88.4407 194.762C90.3329 194.762 91.8668 193.226 91.8668 191.331C91.8668 189.436 90.3329 187.9 88.4407 187.9C86.5485 187.9 85.0146 189.436 85.0146 191.331Z" fill="#092C42"/>
<path d="M45.6094 191.593C45.6094 197.12 50.0844 201.601 55.6046 201.601C61.1249 201.601 65.6 197.12 65.6 191.593C65.6 186.065 61.1249 181.584 55.6046 181.584C50.0844 181.584 45.6094 186.065 45.6094 191.593Z" fill="#5F7684"/>
<path d="M52.1787 191.594C52.1787 193.489 53.7126 195.025 55.6047 195.025C57.497 195.025 59.0309 193.489 59.0309 191.594C59.0309 189.699 57.497 188.163 55.6047 188.163C53.7126 188.163 52.1787 189.699 52.1787 191.594Z" fill="#092C42"/>
<path d="M12.5186 191.593C12.5186 197.12 16.9936 201.601 22.5138 201.601C28.0342 201.601 32.5092 197.12 32.5092 191.593C32.5092 186.065 28.0342 181.584 22.5138 181.584C16.9936 181.584 12.5186 186.065 12.5186 191.593Z" fill="#5F7684"/>
<path d="M19.0879 191.594C19.0879 193.489 20.6218 195.025 22.5139 195.025C24.4062 195.025 25.9401 193.489 25.9401 191.594C25.9401 189.699 24.4062 188.163 22.5139 188.163C20.6218 188.163 19.0879 189.699 19.0879 191.594Z" fill="#092C42"/>
<path d="M6.98291 191.329C6.98291 182.953 13.7885 176.139 22.1531 176.139H88.6673C97.0319 176.139 103.838 182.953 103.838 191.329C103.838 199.706 97.0319 206.52 88.6673 206.52H22.1531C13.7885 206.52 6.98291 199.706 6.98291 191.329ZM22.1531 181.118C16.5301 181.118 11.9561 185.699 11.9561 191.329C11.9561 196.96 16.5301 201.54 22.1531 201.54H88.6673C94.2903 201.54 98.8643 196.96 98.8643 191.329C98.8643 185.699 94.2903 181.118 88.6673 181.118H22.1531Z" fill="#092C42"/>
<path d="M55.6051 181.106C55.5609 181.106 55.5249 180.015 55.5249 178.67C55.5249 177.324 55.5609 176.233 55.6051 176.233C55.6495 176.233 55.6854 177.324 55.6854 178.67C55.6854 180.015 55.6495 181.106 55.6051 181.106Z" fill="#5F7684"/>
<path d="M43.1383 181.106C43.0941 181.106 43.0581 180.015 43.0581 178.67C43.0581 177.324 43.0941 176.233 43.1383 176.233C43.1826 176.233 43.2186 177.324 43.2186 178.67C43.2186 180.015 43.1826 181.106 43.1383 181.106Z" fill="#5F7684"/>
<path d="M30.6706 181.106C30.6263 181.106 30.5903 180.015 30.5903 178.67C30.5903 177.324 30.6263 176.233 30.6706 176.233C30.715 176.233 30.7509 177.324 30.7509 178.67C30.7509 180.015 30.715 181.106 30.6706 181.106Z" fill="#5F7684"/>
<path d="M19.088 181.585C19.0457 181.597 18.6949 180.564 18.3048 179.277C17.9145 177.989 17.6326 176.935 17.6751 176.922C17.7175 176.909 18.0682 177.942 18.4584 179.23C18.8485 180.517 19.1304 181.572 19.088 181.585Z" fill="#5F7684"/>
<path d="M12.5188 187.837C12.4987 187.876 11.5121 187.412 10.3159 186.8C9.11911 186.187 8.16562 185.659 8.18586 185.62C8.2061 185.58 9.1922 186.044 10.389 186.657C11.5852 187.269 12.5389 187.797 12.5188 187.837Z" fill="#5F7684"/>
<path d="M56.2184 201.755C56.2628 201.755 56.2987 202.846 56.2987 204.191C56.2987 205.537 56.2628 206.627 56.2184 206.627C56.1742 206.627 56.1382 205.537 56.1382 204.191C56.1382 202.846 56.1742 201.755 56.2184 201.755Z" fill="#5F7684"/>
<path d="M43.7511 201.602C43.7954 201.602 43.8314 202.692 43.8314 204.038C43.8314 205.383 43.7954 206.474 43.7511 206.474C43.7067 206.474 43.6709 205.383 43.6709 204.038C43.6709 202.692 43.7067 201.602 43.7511 201.602Z" fill="#5F7684"/>
<path d="M31.2843 201.602C31.3286 201.602 31.3646 202.692 31.3646 204.038C31.3646 205.383 31.3286 206.474 31.2843 206.474C31.2401 206.474 31.2041 205.383 31.2041 204.038C31.2041 202.692 31.2401 201.602 31.2843 201.602Z" fill="#5F7684"/>
<path d="M19.7014 201.277C19.7438 201.29 19.4619 202.345 19.0718 203.632C18.6816 204.92 18.3309 205.953 18.2884 205.94C18.246 205.927 18.5279 204.873 18.9182 203.585C19.3083 202.298 19.6589 201.265 19.7014 201.277Z" fill="#5F7684"/>
<path d="M12.7893 195.534C12.8094 195.573 11.8557 196.102 10.6594 196.714C9.46271 197.326 8.47647 197.79 8.45637 197.751C8.43613 197.711 9.38961 197.183 10.5864 196.571C11.7826 195.958 12.769 195.494 12.7893 195.534Z" fill="#5F7684"/>
<path d="M67.5089 201.754C67.5534 201.754 67.5892 202.845 67.5892 204.19C67.5892 205.536 67.5534 206.626 67.5089 206.626C67.4647 206.626 67.4287 205.536 67.4287 204.19C67.4287 202.845 67.4647 201.754 67.5089 201.754Z" fill="#5F7684"/>
<path d="M79.9757 201.754C80.0202 201.754 80.0561 202.845 80.0561 204.19C80.0561 205.536 80.0202 206.626 79.9757 206.626C79.9315 206.626 79.8955 205.536 79.8955 204.19C79.8955 202.845 79.9315 201.754 79.9757 201.754Z" fill="#5F7684"/>
<path d="M91.5594 201.279C91.6018 201.267 91.9525 202.3 92.3427 203.587C92.7329 204.875 93.0148 205.929 92.9723 205.942C92.9299 205.955 92.5793 204.922 92.189 203.634C91.7989 202.347 91.517 201.292 91.5594 201.279Z" fill="#5F7684"/>
<path d="M98.1282 195.022C98.1483 194.982 99.1347 195.447 100.331 196.059C101.528 196.671 102.481 197.199 102.461 197.239C102.441 197.278 101.455 196.814 100.258 196.202C99.0618 195.59 98.108 195.061 98.1282 195.022Z" fill="#5F7684"/>
<path d="M66.8952 181.262C66.8509 181.262 66.8149 180.171 66.8149 178.826C66.8149 177.48 66.8509 176.39 66.8952 176.39C66.9396 176.39 66.9756 177.48 66.9756 178.826C66.9756 180.171 66.9396 181.262 66.8952 181.262Z" fill="#5F7684"/>
<path d="M79.3629 181.262C79.3185 181.262 79.2827 180.171 79.2827 178.826C79.2827 177.48 79.3185 176.39 79.3629 176.39C79.4072 176.39 79.4432 177.48 79.4432 178.826C79.4432 180.171 79.4072 181.262 79.3629 181.262Z" fill="#5F7684"/>
<path d="M90.9456 181.586C90.9032 181.573 91.1852 180.519 91.5753 179.232C91.9655 177.944 92.3161 176.911 92.3587 176.924C92.401 176.937 92.1191 177.991 91.7289 179.278C91.3388 180.566 90.9881 181.599 90.9456 181.586Z" fill="#5F7684"/>
<path d="M97.8577 187.328C97.8376 187.288 98.7913 186.76 99.9876 186.148C101.184 185.535 102.171 185.071 102.191 185.111C102.211 185.15 101.257 185.679 100.061 186.291C98.8644 186.903 97.878 187.367 97.8577 187.328Z" fill="#5F7684"/>
<path d="M67.5845 57.2936C67.5845 57.2936 67.6257 57.226 67.7164 57.1025C67.8156 56.9704 67.951 56.7899 68.1248 56.5583C68.4893 56.0846 69.0218 55.3819 69.6956 54.468C71.0395 52.639 72.9638 49.9729 75.1252 46.5369C77.3007 43.1115 79.7071 38.9118 82.0515 34.0852C83.2229 31.6714 84.369 29.0991 85.4821 26.398C86.6049 23.7014 87.7338 20.8904 89.055 18.0808C90.3788 15.2741 91.8361 12.5968 93.5647 10.2229C95.292 7.85362 97.2541 5.77556 99.3936 4.12952C101.536 2.49296 103.848 1.28377 106.159 0.627774C108.467 -0.0667137 110.754 -0.118191 112.771 0.151119C114.795 0.430926 116.555 1.0821 117.976 1.853C119.402 2.62797 120.477 3.54424 121.261 4.37025C122.013 5.22819 122.507 5.96803 122.788 6.49658C122.919 6.75525 123.022 6.95705 123.096 7.10461C123.164 7.24211 123.193 7.31529 123.193 7.31529C123.193 7.31529 123.148 7.24982 123.072 7.1167C122.992 6.97264 122.882 6.77581 122.742 6.52341C122.447 6.00594 121.942 5.28097 121.185 4.44155C120.396 3.63391 119.323 2.73922 117.905 1.98481C116.492 1.23462 114.748 0.603274 112.746 0.338776C110.749 0.0847772 108.495 0.146607 106.222 0.840949C103.941 1.49811 101.661 2.69987 99.5439 4.3252C97.43 5.95986 95.4882 8.02364 93.7768 10.3771C92.0648 12.7338 90.6161 15.3982 89.297 18.195C87.9802 20.9951 86.8507 23.8021 85.7241 26.4991C84.6068 29.2005 83.4526 31.7782 82.2732 34.1933C79.912 39.0236 77.4841 43.2212 75.2847 46.6387C73.0995 50.0668 71.1495 52.7193 69.7789 54.5307C69.0917 55.4356 68.5457 56.1283 68.1672 56.5917C67.9845 56.8163 67.8422 56.9914 67.7378 57.1194C67.64 57.2374 67.5845 57.2936 67.5845 57.2936Z" fill="#092C42"/>
<path d="M103.377 27.7637L70.3008 54.9283L76.7015 61.0255L109.386 35.6719L103.377 27.7637Z" fill="#DFDFDF"/>
<path d="M57.6074 84.1163L80.7858 64.8851L68.526 50.668L41.6602 72.1124L57.6074 84.1163Z" fill="#0096ED"/>
<path d="M41.6143 86.7671L26.8227 98.6217L21.8623 92.612L36.0341 81.002L41.6143 86.7671Z" fill="#DFDFDF"/>
<path d="M139.775 16.1885L146.137 25.5924L138.256 30.9391L131.894 21.5352L139.775 16.1885Z" fill="#DFDFDF"/>
<path d="M145.405 24.51L159.597 24.7121L167.471 36.3495L163.634 48.4565L160.219 47.6047L161.992 39.5977L156.153 32.5683L148.962 32.9673L144.059 36.3699L140.963 42.8226L146.507 51.0175L153.126 52.413L153.055 55.6055L142.145 54.6465L133.754 42.2434L137.524 29.8565L146.17 23.9912L145.405 24.51Z" fill="#092C42"/>
<path d="M37.2956 87.5907C39.237 93.3707 45.4901 96.4802 51.2622 94.5362C57.0344 92.5922 60.1397 86.3308 58.1984 80.5509C56.2569 74.771 50.0038 71.6615 44.2318 73.6054C38.4595 75.5495 35.3542 81.811 37.2956 87.5907Z" fill="#092C42" fill-opacity="0.4"/>
<path d="M36.0334 83.2799C38.0306 89.2258 44.4634 92.4247 50.4014 90.425C56.3394 88.425 59.5342 81.9836 57.537 76.0377C55.5397 70.0918 49.1069 66.8927 43.1689 68.8926C37.2309 70.8925 34.0363 77.3339 36.0334 83.2799Z" fill="#092C42"/>
<path d="M42.6969 81.0369C43.4563 83.2979 45.9023 84.5142 48.1602 83.7538C50.4181 82.9934 51.6328 80.5441 50.8734 78.2832C50.1139 76.0223 47.6679 74.806 45.4101 75.5663C43.1522 76.3269 41.9375 78.7762 42.6969 81.0369Z" fill="#5F7684"/>
<path d="M65.0808 53.4181C65.0941 53.4135 65.17 53.5971 65.2991 53.9415C65.4372 54.3241 65.6167 54.8215 65.8364 55.4301C66.2932 56.7515 66.9154 58.5514 67.6412 60.6512L67.6688 60.7313L67.6029 60.7864C66.5133 61.6962 65.322 62.6909 64.0726 63.734C61.4674 65.8999 59.0996 67.8491 57.3771 69.2494C56.5371 69.9252 55.8451 70.4818 55.3286 70.8972C55.1035 71.0713 54.917 71.2156 54.7629 71.3348C54.6317 71.4326 54.5601 71.4804 54.5541 71.4733C54.5483 71.4661 54.6084 71.4045 54.7285 71.2932C54.8737 71.1636 55.0498 71.0066 55.2621 70.817C55.7649 70.385 56.4385 69.8064 57.2564 69.1037C58.9479 67.6659 61.2966 65.6939 63.9018 63.5279C65.1555 62.4901 66.351 61.5005 67.4445 60.5954L67.4062 60.7304C66.7173 58.6182 66.1266 56.8077 65.693 55.4783C65.5008 54.8605 65.3437 54.3556 65.2228 53.9672C65.1178 53.6147 65.0676 53.4226 65.0808 53.4181Z" fill="#092C42"/>
<path d="M123.919 5.69727L100.027 24.5769L110.684 39.5379L135.621 20.0625L123.919 5.69727Z" fill="#0096ED"/>
<path d="M121.783 8.01066C117.861 11.1195 117.198 16.8235 120.303 20.7509C123.408 24.6782 129.104 25.3415 133.026 22.2326C136.948 19.1236 137.611 13.4197 134.506 9.49237C131.401 5.565 125.705 4.90157 121.783 8.01066Z" fill="#092C42" fill-opacity="0.4"/>
<path d="M124.325 5.06678C120.128 8.39356 119.419 14.4973 122.741 18.6996C126.064 22.9021 132.159 23.6119 136.356 20.2853C140.553 16.9585 141.262 10.8548 137.939 6.65231C134.617 2.44981 128.522 1.74 124.325 5.06678Z" fill="#092C42"/>
<path d="M128.053 9.78334C126.457 11.0482 126.188 13.3692 127.451 14.9671C128.714 16.5651 131.032 16.835 132.628 15.5699C134.224 14.305 134.493 11.9842 133.23 10.3863C131.967 8.78835 129.649 8.5183 128.053 9.78334Z" fill="#5F7684"/>
<path d="M126.295 27.3466C126.286 27.3589 126.077 27.2225 125.7 26.9604C125.295 26.6721 124.757 26.2893 124.097 25.8194C122.708 24.8056 120.809 23.4192 118.617 21.8191L118.774 21.8153C117.874 22.5527 116.903 23.3484 115.897 24.1725C113.078 26.4757 110.517 28.5488 108.655 30.0391C107.743 30.761 106.994 31.3542 106.44 31.793C106.195 31.9803 105.994 32.1342 105.83 32.2595C105.688 32.3637 105.611 32.4151 105.605 32.4079C105.6 32.4008 105.665 32.3354 105.796 32.2176C105.951 32.082 106.142 31.9152 106.374 31.7123C106.915 31.2569 107.646 30.6414 108.535 29.8923C110.367 28.3645 112.909 26.2681 115.728 23.965C116.736 23.1438 117.71 22.3509 118.612 21.6163L118.69 21.5527L118.769 21.6125C120.939 23.2434 122.818 24.6561 124.193 25.6893C124.835 26.1841 125.358 26.5871 125.752 26.8907C126.112 27.1747 126.304 27.3345 126.295 27.3466Z" fill="#092C42"/>
</svg>
