<svg width="21" height="19" viewBox="0 0 21 19" fill="none" xmlns="http://www.w3.org/2000/svg">
<path fill-rule="evenodd" clip-rule="evenodd" d="M12.1583 0.8182C13.8329 0.488941 15.3368 0.727798 16.6034 1.33909C16.6725 1.37242 16.7392 1.40603 16.8036 1.43977L18.0448 0.937485C19.3231 0.420186 20.6739 1.50218 20.4493 2.86186C21.058 3.53054 21.1546 4.64783 20.332 5.38366L19.059 6.52234C19.0746 7.92249 18.8825 9.17783 18.2929 10.5771C17.2418 13.0714 15.7345 14.9472 13.8904 16.252C12.5869 17.1743 11.1923 17.7599 9.78686 18.075C8.87843 18.2787 8.10778 18.3422 7.54073 18.3281C5.80975 18.3476 4.21533 17.9815 2.79277 17.3588C1.94636 16.9883 1.32455 16.6055 0.950865 16.3168C-0.400049 15.2732 0.369042 13.1106 2.07554 13.1544C2.40314 13.1628 2.70999 13.158 2.99697 13.1413C2.45358 12.4971 2.16514 11.8492 2.04801 11.3161C2.00733 11.131 1.99717 10.9475 2.01379 10.7703C1.90102 10.6343 1.7959 10.4931 1.69846 10.3471C1.00799 9.31223 0.80426 8.24839 0.861447 7.34002C0.865571 7.28401 0.867119 7.26298 0.869149 7.242C0.870368 7.2294 0.871762 7.21681 0.873993 7.19666L0.873995 7.19665C0.905048 6.93281 0.989811 6.69466 1.11428 6.4884C0.748622 5.32355 0.831628 4.15221 1.17612 3.04938C1.28816 2.69068 1.40612 2.41015 1.50184 2.22188C2.07219 1.10012 3.59946 0.918063 4.41752 1.87431C5.70556 3.37994 6.97781 4.27515 8.19119 4.70893C8.34173 4.76275 8.48635 4.80795 8.6247 4.84543C9.01094 2.40741 10.6157 0.949249 12.1583 0.8182ZM10.3485 6.913C10.3485 6.913 7.15511 7.65356 3.59173 3.48823C3.59173 3.48823 2.20337 6.21882 4.61007 7.88468C4.61007 7.88468 3.82367 8.02357 3.17506 7.56106C3.17506 7.56106 2.89728 9.92109 5.76676 10.8467H4.23951C4.23951 10.8467 4.65646 12.7442 7.34039 13.1606C7.34039 13.1606 6.22981 14.6414 2.61977 14.5489C2.61977 14.5489 4.65646 16.1223 7.75733 16.0759C7.75733 16.0759 13.4955 16.3537 16.2261 9.87443C16.8974 8.28104 16.8277 6.77411 16.7813 6.03327L18.54 4.46019L16.7813 4.78408C16.7813 4.78408 17.9847 3.9049 18.1239 3.07184L16.1799 3.85851C16.1799 3.85851 14.7221 2.53961 12.246 3.07184C12.2457 3.07184 9.97847 3.53462 10.3485 6.913Z" fill="#37474F"/>
</svg>
