<svg width="12" height="21" viewBox="0 0 12 21" fill="none" xmlns="http://www.w3.org/2000/svg">
<path d="M2.57891 20.7248H6.88452V12.1031H10.7639L11.1901 7.81868H6.88452V5.65538C6.88452 5.06091 7.36642 4.57899 7.96091 4.57899H11.1901V0.273438H7.96091C4.98846 0.273438 2.57891 2.68302 2.57891 5.65538V7.81868H0.426132L0 12.1031H2.57891V20.7248Z" fill="#3C5B9A"/>
<mask id="mask0_354_792" style="mask-type:alpha" maskUnits="userSpaceOnUse" x="0" y="0" width="12" height="21">
<path d="M2.57891 20.4514H6.88452V11.8296H10.7639L11.1901 7.54524H6.88452V5.38194C6.88452 4.78748 7.36642 4.30556 7.96091 4.30556H11.1901V0H7.96091C4.98846 0 2.57891 2.40958 2.57891 5.38194V7.54524H0.426132L0 11.8296H2.57891V20.4514Z" fill="white"/>
</mask>
<g mask="url(#mask0_354_792)">
</g>
</svg>
