<svg width="75" height="75" viewBox="0 0 75 75" fill="none" xmlns="http://www.w3.org/2000/svg">
<path fill-rule="evenodd" clip-rule="evenodd" d="M26.6132 65.3226H32.6615C32.7925 65.8846 34.0021 67.6435 34.3874 68.2843C35.8746 70.7589 39.0494 70.885 40.6131 68.2843C41.0094 67.6253 42.2063 65.8918 42.3389 65.3226H48.3872V72.5805H26.6132V65.3226ZM32.5103 60.4839H42.4902L39.1341 65.8982C38.9463 66.1965 37.7902 68.8192 36.5534 67.0253L32.5103 60.4839ZM38.7098 45.9678C43.1033 45.9678 41.7876 46.4359 42.9143 43.3678C43.1493 42.7284 43.0205 42.9204 43.5486 42.6411V58.0644H38.7098V45.9678ZM31.4519 42.6411C32.1178 42.9935 31.8505 42.6864 32.3784 44.2851C33.0536 46.3299 32.2938 45.9678 36.2906 45.9678V58.0644H31.4519V42.6411ZM21.1695 10.4335L24.9128 6.61626C25.7056 6.82924 27.158 7.93439 27.72 7.76061C27.9923 7.67648 28.0394 7.56839 28.2831 7.42026C30.881 5.84254 31.9502 5.95232 33.4836 5.35832C34.017 5.1517 33.7567 5.60286 34.2683 4.0262C34.4622 3.42817 34.6444 2.99437 34.7784 2.41923H40.2219C40.3342 2.90134 40.5135 3.37605 40.6553 3.80052C40.8246 4.307 41.0867 4.78232 41.1293 5.2924C42.6534 5.41913 45.6116 6.73005 46.8114 7.48109C48.1681 8.33024 48.112 7.10493 50.0506 6.65312L53.8679 10.3964C53.3563 12.2954 52.2139 12.4179 52.9403 13.5796L54.5256 16.8455C54.7376 17.4105 55.143 18.7686 55.1917 19.3548C56.1481 19.4343 57.2066 20.0622 58.0647 20.262V25.7055C57.131 25.9232 56.1684 26.5316 55.1917 26.613C55.0688 28.0909 53.7878 31.0408 53.0031 32.2951C52.6937 32.7895 52.5559 32.8018 52.8042 33.3663C53.1155 34.0735 53.6576 34.7906 53.8308 35.5343L50.0877 39.3515C49.2947 39.1383 47.8424 38.0334 47.2804 38.2072C47.0079 38.2913 46.9608 38.3994 46.7173 38.5473C46.4702 38.6973 46.3169 38.7643 46.0189 38.9118C42.7196 40.5467 43.4632 39.8557 41.5169 40.6092C40.9833 40.8159 41.2437 40.3649 40.7322 41.9416C40.538 42.5396 40.356 42.9734 40.2219 43.5483H34.7784C34.5605 42.6131 33.9161 41.214 33.8712 40.6754C32.409 40.5537 30.4337 39.634 29.1836 39.0122C28.8363 38.8393 28.5559 38.7162 28.1891 38.4867C26.8324 37.6375 26.8885 38.8628 24.9499 39.3144L21.1326 35.5713C21.3456 34.7783 22.4508 33.3261 22.277 32.7641C22.1929 32.4916 22.0848 32.4445 21.9369 32.201C20.3589 29.6031 20.4687 28.5338 19.8747 27.0003C19.6535 26.4292 20.0114 26.753 19.3477 26.4691L16.9356 25.7055V20.262L19.236 19.5381C19.7753 19.3404 19.643 19.4603 19.8325 19.0763C19.9043 18.9312 20.3485 17.0814 20.8228 15.9838L21.8249 13.9609C22.4064 12.9074 22.5518 13.3232 21.8252 11.8951L21.1695 10.4335ZM24.3451 3.47776L18.0315 9.866C19.2852 12.3397 19.7537 12.5815 19.1597 13.7114L18.0141 16.3505C17.6135 17.6128 17.8356 17.3403 15.7447 18.0125C14.1415 18.5279 14.5164 17.7947 14.5164 22.9839H7.2582V33.2661L5.62751 31.721L3.96777 33.4534L8.4307 37.9908L13.0414 33.4545L11.2227 31.7206L9.71371 33.3021L9.67761 25.4031H14.5164C14.5164 28.3176 14.1184 27.3138 17.1168 28.3973C18.0565 28.737 17.7407 29.0928 18.5103 30.9354C19.5839 33.5049 20.1076 32.1449 17.9941 36.1391L24.3823 42.4525C25.113 42.0833 25.8514 41.7502 26.6618 41.3245C27.6218 40.8201 27.5713 40.9606 29.0324 41.7339L29.0225 58.9818C29.0257 60.0781 29.0651 59.7405 29.8524 61.0247C30.266 61.6992 30.6411 62.2286 30.9982 62.9031H24.1938V75H50.8067V62.9031H44.0023C44.5387 61.8893 45.9526 60.2883 45.9793 59.1342C46.1007 53.906 45.968 47.0924 45.968 41.7339C46.298 41.5593 46.7115 41.327 47.0762 41.1621C47.8734 40.8019 49.3305 41.7888 50.6554 42.49L56.9688 36.1018C55.7153 33.6281 55.2469 33.3863 55.8409 32.2563L56.9865 29.6173C57.2181 28.8873 57.1257 28.7031 57.7714 28.4365C58.2003 28.2596 58.7873 28.1057 59.2559 27.9552C60.699 27.4914 60.4842 27.9442 60.4842 25.4031H65.3228V33.2661L63.6921 31.721L62.0324 33.4534L66.4952 37.9908L71.1061 33.4545L69.2874 31.7206L67.7781 33.3021L67.7421 22.9839H60.4842C60.4842 17.1975 61.1482 18.7502 57.8835 17.5702C57.1381 17.3009 57.2507 17.1962 57.0225 16.4657L55.894 13.8115C55.2438 12.5718 55.6368 12.4169 57.0064 9.82871L50.6181 3.51507C45.9813 5.86481 48.5793 4.90863 44.1337 3.49769C43.4036 3.26585 43.2195 3.35825 42.9529 2.71254C42.5034 1.62328 42.3703 0 41.7341 0H33.2664C32.7508 0 32.7272 0.602466 32.5657 1.11403C32.3964 1.65082 32.2458 2.16049 32.0866 2.60043C31.7244 3.60238 30.6871 3.35274 28.3281 4.58991C27.0881 5.24007 26.9332 4.84738 24.3451 3.47776Z" fill="#0096ED"/>
<path fill-rule="evenodd" clip-rule="evenodd" d="M58.0642 43.5482H72.5803V60.4837H58.0642V43.5482ZM55.6449 62.903H64.1125V67.7417H56.2498L57.7948 66.111L55.9804 64.3817L51.5264 68.9155L55.9832 73.4518L57.798 71.7094L56.2137 70.1971L66.532 70.1611V62.903H74.9997V41.1289H55.6449V62.903Z" fill="#0096ED"/>
<path fill-rule="evenodd" clip-rule="evenodd" d="M2.41925 43.5482H16.9354V60.4837H2.41925V43.5482ZM0 62.903H8.46783V70.1611H18.75L17.2738 71.7092L18.9346 73.4545L23.4747 68.9886L19.0164 64.451L17.2015 66.1934L18.786 67.7056L10.8871 67.7417V62.903H19.3548V41.1289H0V62.903Z" fill="#0096ED"/>
<path fill-rule="evenodd" clip-rule="evenodd" d="M24.1937 22.9852C24.1937 21.0705 24.8059 18.8791 25.405 17.5432C28.93 9.68484 39.5523 6.63048 46.8598 13.6254C51.3538 17.9274 52.0989 25.3014 48.387 30.5453L47.2964 31.8743C46.0319 33.2403 44.7297 34.2782 42.9419 35.0803C33.842 39.1623 24.1937 32.1324 24.1937 22.9852ZM21.7744 22.078C21.7744 25.1444 21.9166 27.005 23.2841 29.792C24.3977 32.062 25.5079 33.4522 27.3222 34.9776C27.7157 35.3084 27.889 35.4777 28.3171 35.7971C30.3377 37.3048 33.8394 38.7109 36.5929 38.7109C39.6593 38.7109 41.52 38.5685 44.3069 37.2012C47.6643 35.554 50.0689 33.1491 51.7161 29.792C55.4103 22.2623 52.4321 12.8581 44.3053 8.77064C36.9288 5.06082 27.2573 8.0798 23.2841 16.1784C22.6091 17.554 21.7744 20.0434 21.7744 22.078Z" fill="#0096ED"/>
<path fill-rule="evenodd" clip-rule="evenodd" d="M35.0806 31.3002C35.8827 31.3669 36.578 31.6026 37.5001 31.6026L39.4398 18.1187C39.5544 17.3043 39.6451 16.6243 39.7627 15.8658C39.996 14.3599 40.2263 14.653 38.7573 14.4632C37.4865 14.2987 37.4551 13.9999 37.2962 15.3706C37.0145 17.7996 35.0806 30.1353 35.0806 31.3002Z" fill="#0096ED"/>
<path fill-rule="evenodd" clip-rule="evenodd" d="M27.3315 22.947L33.0775 28.7675L34.8116 26.9488L30.8095 23.0214L34.814 18.9373L33.0788 17.2744L27.3315 22.947Z" fill="#0096ED"/>
<path fill-rule="evenodd" clip-rule="evenodd" d="M40.2549 18.9348L44.1889 22.9483L40.2587 26.9527L42 28.7663L47.6673 23.0203L41.9998 17.2744L40.2549 18.9348Z" fill="#0096ED"/>
<path fill-rule="evenodd" clip-rule="evenodd" d="M60.4839 48.387H70.1613V45.9678H60.4839V48.387Z" fill="#0096ED"/>
<path fill-rule="evenodd" clip-rule="evenodd" d="M4.83838 48.387H14.5158V45.9678H4.83838V48.387Z" fill="#0096ED"/>
<path fill-rule="evenodd" clip-rule="evenodd" d="M4.83838 53.2259H14.5158V50.8066H4.83838V53.2259Z" fill="#0096ED"/>
<path fill-rule="evenodd" clip-rule="evenodd" d="M60.4839 53.2259H70.1613V50.8066H60.4839V53.2259Z" fill="#0096ED"/>
<path fill-rule="evenodd" clip-rule="evenodd" d="M4.83838 58.0638H14.5158V55.6445H4.83838V58.0638Z" fill="#0096ED"/>
<path fill-rule="evenodd" clip-rule="evenodd" d="M60.4839 58.0638H70.1613V55.6445H60.4839V58.0638Z" fill="#0096ED"/>
<path fill-rule="evenodd" clip-rule="evenodd" d="M29.0322 70.1607H31.4517V67.7412H29.0322V70.1607Z" fill="#0096ED"/>
<path fill-rule="evenodd" clip-rule="evenodd" d="M43.5483 70.1607H45.9678V67.7412H43.5483V70.1607Z" fill="#0096ED"/>
</svg>
