<svg width="75" height="75" viewBox="0 0 75 75" fill="none" xmlns="http://www.w3.org/2000/svg">
<path fill-rule="evenodd" clip-rule="evenodd" d="M36.2901 64.7176C37.6625 62.6683 39.7211 58.0269 39.9192 55.6452H49.4456C49.0275 57.2108 44.4754 61.1887 42.3881 62.3479C40.3907 63.4571 38.6104 64.1772 36.2901 64.7176ZM25.5545 55.6452H37.3487C36.8949 57.5923 36.1863 59.7933 35.3838 61.3918C34.7251 62.7033 33.1712 65.3226 31.4515 65.3226C30.7079 65.3226 29.4819 64.4082 29.0924 63.9015C28.4541 63.071 28.0591 62.4713 27.57 61.4924C26.1232 58.5983 25.8024 56.2 25.5545 55.6452ZM13.4576 55.6452H22.9837C23.0655 56.6266 24.0125 59.5125 24.4307 60.5492C25.1463 62.3233 25.6491 63.2787 26.6127 64.7176C23.7987 64.0621 21.0194 62.8122 18.9647 61.3275L15.9185 58.7788C15.0821 57.7892 14.0181 56.7048 13.4576 55.6452ZM24.4959 48.387H38.4072C38.4072 49.795 38.2131 50.8705 38.0268 52.2405C37.9539 52.778 38.07 53.2257 37.5 53.2257H25.4032C24.8045 53.2257 24.8888 52.3469 24.7093 51.0466C24.5794 50.105 24.4959 49.3633 24.4959 48.387ZM50.9575 53.2257H40.3729C40.6234 52.1503 40.9777 49.6276 40.9777 48.387H52.6209C52.4433 49.1487 52.1951 50.1298 51.9108 50.8525L50.9575 53.2257ZM9.82848 44.758H19.3548C19.3548 46.3806 20.3801 47.8759 21.9254 48.2359C21.9254 49.6306 22.2547 52.0432 22.5302 53.2257H11.9456C11.594 51.7171 9.82848 49.1453 9.82848 44.758ZM21.7741 44.6069V12.0966H72.5805V44.6069C72.5805 45.3541 71.9671 45.9676 71.2196 45.9676H23.135C22.3875 45.9676 21.7741 45.3541 21.7741 44.6069ZM11.9456 33.8709H19.3548V42.3387H9.82848C9.82848 40.4649 10.1371 39.281 10.5223 37.7401C10.9924 35.8596 11.8002 34.4944 11.9456 33.8709ZM19.3548 25.5544V31.4515H13.4576C14.4186 29.6351 17.5385 26.5155 19.3548 25.5544ZM7.25791 42.4898C7.25791 46.8911 7.6578 50.1322 9.52543 53.8312C9.8344 54.443 10.1235 55.1226 10.4949 55.7346C13.1547 60.1173 16.3752 63.0583 21.0681 65.4237C28.1947 69.0155 37.9056 68.4204 44.4863 63.9924C45.0364 63.6222 45.478 63.348 46.0123 62.9479C50.8815 59.3003 53.7869 54.4161 55.1915 48.387H57.7621C57.2308 49.1805 56.6781 53.4841 54.1043 57.431C53.2632 58.721 53.2573 58.4616 53.8799 59.6773C54.2023 60.3067 54.3794 60.7047 54.7378 61.2398L49.258 66.7984C48.6985 66.5195 48.0806 66.2374 47.4798 65.9253C45.8188 65.0624 46.6399 65.8479 41.9367 67.9449C38.3383 69.5491 36.4719 69.0689 36.0333 70.3582C35.7923 71.0666 35.5436 71.8914 35.383 72.5805H27.52C26.7484 69.2685 26.6109 69.6964 25.2828 69.3742C23.786 69.011 22.4356 68.6035 21.0696 67.9928C19.7053 67.3829 18.5228 66.848 17.389 66.0781C16.5598 65.5152 16.5602 65.327 15.6248 65.8185C14.9177 66.19 14.3707 66.4256 13.76 66.8346L8.12785 61.2771C8.56122 60.6483 8.76657 60.1631 9.12725 59.4758C9.62102 58.5349 9.5825 58.579 8.98404 57.7002C8.17791 56.5164 7.66903 55.4108 7.0551 54.0336C5.45068 50.435 5.9309 48.5689 4.64181 48.1302C3.93337 47.8892 3.10862 47.6402 2.41925 47.4798V39.6168C7.03332 38.542 4.47841 38.8232 7.00701 33.1663C7.6169 31.802 8.15182 30.6195 8.92171 29.4859C9.48477 28.6567 9.67275 28.6569 9.18131 27.7217C8.80982 27.0146 8.57418 26.4676 8.16518 25.8569L13.7227 20.2247C14.2324 20.5782 14.596 20.7554 15.1207 21.0184C16.5895 21.7546 16.1307 21.7976 17.8701 20.7433C18.2473 20.5146 18.9564 20.066 19.3548 19.9596V22.5302L16.9991 24.106C11.6023 27.9748 7.25791 35.4427 7.25791 42.4898ZM21.7741 3.78017C21.7741 3.03274 22.3875 2.41925 23.135 2.41925H71.2196C71.9671 2.41925 72.5805 3.03274 72.5805 3.78017V9.67741H21.7741V3.78017ZM19.3548 17.2378C18.7585 17.2876 18.224 17.6258 17.7553 17.9064C17.2255 18.2234 16.7965 18.4378 16.3305 18.75L13.3062 17.2378L5.10356 25.3656L6.65312 28.4274C5.56493 30.0524 4.7533 31.9113 3.99273 33.9322C2.92743 36.7627 4.00416 36.6422 1.36049 37.3485C0.876049 37.478 0 37.5687 0 38.1048V48.9919C0 49.5202 0.816063 49.6039 1.24096 49.7166C3.97003 50.4407 2.84854 50.1161 4.0179 53.1393C4.85751 55.3097 5.47041 56.9031 6.65312 58.6693L5.14106 61.6935L13.269 69.8962C13.799 69.5982 14.3301 69.3764 14.8118 69.096C15.2911 68.8173 15.6933 68.4952 16.3305 68.3466C18.3984 69.7315 20.8328 70.6678 23.3433 71.465C24.0278 71.6824 24.5061 71.6343 24.7822 72.1429C25.2679 73.037 25.2696 75 26.0079 75H36.8949C37.4232 75 37.507 74.1837 37.6198 73.759C38.1991 71.5756 38.1061 71.8814 39.4471 71.5036C41.9024 70.8115 44.5784 69.6819 46.5723 68.3466L49.5966 69.8589L57.7993 61.7308L56.25 58.6693C58.669 55.0565 59.6938 50.328 59.8096 50.1322C59.932 49.9247 60.6738 49.4489 60.9145 49.2714C61.2076 49.055 61.9372 48.4951 62.1868 48.4267C62.9093 48.2285 68.9138 48.3862 70.1611 48.387C71.9881 48.3881 72.3692 48.5029 73.5558 47.6989C74.2409 47.2346 74.9998 46.1276 74.9998 45.0604V3.32647C74.9998 1.66313 73.3367 0 71.6734 0H22.6813C21.2271 0 20.133 1.10366 19.6527 2.1126C19.1308 3.20927 19.3548 5.38333 19.3548 6.95555C19.3548 10.3831 19.3548 13.8104 19.3548 17.2378Z" fill="#0096ED"/>
<path fill-rule="evenodd" clip-rule="evenodd" d="M26.6126 16.9349H67.7417V41.1284H26.6126V16.9349ZM24.1934 43.5478H70.161V14.5156H24.1934V43.5478Z" fill="#0096ED"/>
<path fill-rule="evenodd" clip-rule="evenodd" d="M29.7505 28.9955L40.2586 39.5807L42.0724 37.8394L33.2285 29.0705L42.0728 20.1483L40.3366 18.4844L29.7505 28.9955Z" fill="#0096ED"/>
<path fill-rule="evenodd" clip-rule="evenodd" d="M52.3521 20.1451L61.1258 28.9962L52.3565 37.8408L54.0156 39.5847L64.6045 29.0706L54.0966 18.4854L52.3521 20.1451Z" fill="#0096ED"/>
<path fill-rule="evenodd" clip-rule="evenodd" d="M43.5474 38.4064C43.8593 38.5558 45.5288 38.9749 45.9674 39.0114L50.8418 19.6655C50.4953 19.5074 48.8256 19.0882 48.3869 19.0518L43.5474 38.4064Z" fill="#0096ED"/>
<path fill-rule="evenodd" clip-rule="evenodd" d="M24.1934 7.25812H26.6126V4.83887H24.1934V7.25812Z" fill="#0096ED"/>
<path fill-rule="evenodd" clip-rule="evenodd" d="M29.0322 7.25812H31.4515V4.83887H29.0322V7.25812Z" fill="#0096ED"/>
<path fill-rule="evenodd" clip-rule="evenodd" d="M33.8711 7.25812H36.2903V4.83887H33.8711V7.25812Z" fill="#0096ED"/>
</svg>
