<svg width="75" height="75" viewBox="0 0 75 75" fill="none" xmlns="http://www.w3.org/2000/svg">
<path fill-rule="evenodd" clip-rule="evenodd" d="M7.25816 70.1613H49.5969C50.3282 70.1613 50.8065 69.683 50.8065 68.9517V41.1291H53.2257V72.5805H7.25816V70.1613ZM21.7743 16.9356H72.5805V38.7096H21.7743V16.9356ZM50.8065 7.25816H53.2257V14.5161H50.8065V7.25816ZM19.3548 15.7257V39.9192C19.3548 40.6508 19.8331 41.1291 20.5644 41.1291H48.387V67.7418H2.4195V12.0969H10.8871C11.6186 12.0969 12.0969 11.6186 12.0969 10.887V2.41925H48.387V14.5161H20.5644C19.8331 14.5161 19.3548 14.9944 19.3548 15.7257ZM9.64007 4.1966L9.67741 9.67741H4.23387L9.64007 4.1966ZM0 10.887V68.9517C0 70.6449 2.26077 70.1613 4.83875 70.1613C4.83875 72.7393 4.35511 75 6.04833 75H54.4355C55.1669 75 55.6452 74.5217 55.6452 73.7904V41.1291H73.7904C74.5217 41.1291 75 40.6508 75 39.9192V15.7257C75 14.9944 74.5217 14.5161 73.7904 14.5161H55.6452V6.04833C55.6452 4.35511 53.3844 4.8387 50.8065 4.8387C50.8065 2.26073 51.2901 0 49.5969 0H10.8871C10.0523 0 8.74943 1.60845 7.9007 2.45718L1.09626 9.26163C0.662463 9.69372 0 10.1182 0 10.887Z" fill="#092C42"/>
<path fill-rule="evenodd" clip-rule="evenodd" d="M38.7098 24.6469C38.7098 20.7919 43.5484 20.9159 43.5484 24.6469V29.0319H38.7098V24.6469ZM36.2905 23.8908V36.2901H38.7098V31.4514H43.5484V36.2901H45.9679V23.7397C45.9679 21.5885 43.9746 19.3545 40.8268 19.3545C38.4932 19.3545 36.2905 21.5574 36.2905 23.8908Z" fill="#092C42"/>
<path fill-rule="evenodd" clip-rule="evenodd" d="M62.9031 24.6469C62.9031 20.7919 67.7419 20.9159 67.7419 24.6469V29.0319H62.9031V24.6469ZM60.4839 23.8908V36.2901H62.9031V31.4514H67.7419V36.2901H70.1613V23.7397C70.1613 21.5885 68.1681 19.3545 65.0202 19.3545C62.6866 19.3545 60.4839 21.5574 60.4839 23.8908Z" fill="#092C42"/>
<path fill-rule="evenodd" clip-rule="evenodd" d="M48.3872 31.4514C48.3872 32.3719 51.0154 34.6004 51.7514 35.3453C53.0464 36.6558 53.4056 36.6558 54.7006 35.3453C55.4366 34.6004 58.0646 32.3719 58.0646 31.4514V19.3545H55.6454V30.6952C55.6454 31.1631 53.6353 32.9916 53.2259 33.2658C52.8164 32.9916 50.8066 31.1631 50.8066 30.6952V19.3545H48.3872V31.4514Z" fill="#092C42"/>
<path fill-rule="evenodd" clip-rule="evenodd" d="M4.83838 54.4358C4.83838 55.2758 7.04586 57.2043 7.90497 58.0225C8.58501 58.6697 8.48714 58.4936 8.47209 59.7235C8.45111 61.4653 8.27857 62.4325 8.97896 63.6016C10.3255 65.8498 12.7051 65.323 15.7254 65.323V62.9036H12.2476C10.127 62.9036 11.135 59.806 10.8774 57.9231C10.7388 56.9105 8.48393 55.3638 7.86258 54.4358C8.4693 53.5296 10.6703 51.9799 10.857 51.0794C11.2329 49.2665 10.0295 45.9682 12.2476 45.9682H15.7254V43.5487C12.8168 43.5487 10.3728 43.0367 9.03707 45.1769C8.27184 46.4028 8.44942 47.2808 8.47209 49.1482C8.48587 50.2833 8.60177 50.182 7.98361 50.7768C7.56465 51.1799 7.25718 51.4878 6.84182 51.9032C6.29656 52.4486 4.83838 53.5695 4.83838 54.4358Z" fill="#092C42"/>
<path fill-rule="evenodd" clip-rule="evenodd" d="M35.0806 45.9682H38.5584C40.6791 45.9682 39.671 49.0658 39.9287 50.9487C40.0673 51.9612 42.322 53.508 42.9434 54.4358C42.3366 55.3422 40.1356 56.8919 39.9489 57.7923C39.573 59.6053 40.7765 62.9036 38.5584 62.9036H35.0806V65.323C37.9891 65.323 40.4332 65.835 41.769 63.6949C42.5342 62.4689 42.3564 61.591 42.3339 59.7236C42.3202 58.5885 42.2042 58.6898 42.8223 58.095C43.2413 57.6919 43.5488 57.384 43.9642 56.9686C46.6797 54.2531 46.9399 54.6952 42.901 50.8493C42.2209 50.2021 42.3189 50.3782 42.3339 49.1483C42.3549 47.4065 42.5274 46.4393 41.827 45.2702C40.4805 43.0219 38.1008 43.5488 35.0806 43.5488V45.9682Z" fill="#092C42"/>
<path fill-rule="evenodd" clip-rule="evenodd" d="M14.5161 7.25832H45.9678V4.83887H14.5161V7.25832Z" fill="#092C42"/>
<path fill-rule="evenodd" clip-rule="evenodd" d="M14.5161 12.0962H45.9678V9.67676H14.5161V12.0962Z" fill="#092C42"/>
<path fill-rule="evenodd" clip-rule="evenodd" d="M26.6129 21.7739H29.0321V32.5097C29.0321 34.2688 26.6129 34.2688 26.6129 32.5097V30.2415H24.1934V32.9634C24.1934 34.8143 25.7828 36.2901 28.1249 36.2901C29.7885 36.2901 31.4515 34.6267 31.4515 32.9634V21.7739H33.8708V19.3545H26.6129V21.7739Z" fill="#092C42"/>
<path fill-rule="evenodd" clip-rule="evenodd" d="M20.7158 62.6013C21.6203 62.8121 22.0814 63.2822 22.984 63.3574L29.2699 48.6252C29.524 48.0184 30.04 47.0332 30.0908 46.4219C29.5629 46.1425 28.4525 45.6615 27.8227 45.5146C27.6747 46.15 27.2361 47.0228 26.9574 47.6734L24.2355 54.0244C23.8526 54.9176 20.7338 61.7945 20.7158 62.6013Z" fill="#092C42"/>
<path fill-rule="evenodd" clip-rule="evenodd" d="M30.5776 50.3853L34.5117 54.3988L30.5817 58.403L32.2412 60.1475C32.8148 59.7724 35.4613 57.0011 36.3283 56.1357C38.3337 54.1339 37.7669 54.172 35.043 51.4481C34.3381 50.7434 32.8325 49.3954 32.3591 48.6885L30.5776 50.3853Z" fill="#092C42"/>
<path fill-rule="evenodd" clip-rule="evenodd" d="M13.3066 54.4364C13.3066 55.2712 14.9151 56.5743 15.7638 57.423C16.4686 58.1276 17.9744 59.4756 18.4478 60.1826L20.2291 58.4858L16.2951 54.4723L20.2251 50.4681L18.484 48.6543C17.3549 50.3009 13.3066 53.2578 13.3066 54.4364Z" fill="#092C42"/>
<path fill-rule="evenodd" clip-rule="evenodd" d="M4.83838 16.9351H16.9352V14.5156H4.83838V16.9351Z" fill="#092C42"/>
<path fill-rule="evenodd" clip-rule="evenodd" d="M4.83838 21.7739H16.9352V19.3545H4.83838V21.7739Z" fill="#092C42"/>
<path fill-rule="evenodd" clip-rule="evenodd" d="M4.83838 26.6118H16.9352V24.1924H4.83838V26.6118Z" fill="#092C42"/>
<path fill-rule="evenodd" clip-rule="evenodd" d="M4.83838 31.4527H16.9352V29.0332H4.83838V31.4527Z" fill="#092C42"/>
<path fill-rule="evenodd" clip-rule="evenodd" d="M4.83838 36.2906H16.9352V33.8711H4.83838V36.2906Z" fill="#092C42"/>
</svg>
