<svg width="75" height="75" viewBox="0 0 75 75" fill="none" xmlns="http://www.w3.org/2000/svg">
<path fill-rule="evenodd" clip-rule="evenodd" d="M2.41817 45.9808H13.3003V50.8175C13.3003 51.5484 13.7783 52.0265 14.5095 52.0265H19.346V72.5817H2.41817V45.9808ZM33.8555 47.7945L35.7055 49.572L33.8555 49.6082V47.7945ZM15.7185 47.7945L17.5687 49.572L15.7185 49.6082V47.7945ZM20.5552 48.8525V45.9808H31.4373V50.8175C31.4373 51.5484 31.9153 52.0265 32.6463 52.0265H37.483V72.5817H21.7642V50.8175C21.7642 49.7055 20.5552 49.5388 20.5552 48.8525ZM14.5095 30.2623C14.5095 28.1661 15.5328 25.8236 16.9643 24.4041C24.117 17.3109 34.4869 26.075 30.6342 33.6911C28.4345 38.0396 23.8656 39.8837 19.5358 37.9316C18.4422 37.4387 17.8301 36.9898 17.0402 36.1952C16.1758 35.3256 15.8461 34.9025 15.3039 33.6996C14.9482 32.9109 14.5095 31.3267 14.5095 30.2623ZM12.0913 29.053H2.41817V2.45241H13.3003V7.28883C13.3003 8.02005 13.7783 8.49809 14.5095 8.49809H19.346V19.9847C17.9148 20.3181 16.5219 21.516 15.5649 22.2493C14.5697 23.012 13.557 24.7463 12.9957 25.8767C12.4385 26.9981 12.4006 27.7255 12.0913 29.053ZM15.7185 4.26615L17.5687 6.04336L15.7185 6.07958V4.26615ZM0 1.24315V30.2623C0 30.9935 0.47804 31.4712 1.20926 31.4712H7.25491V43.5626H1.20926C0.47804 43.5626 0 44.0406 0 44.7719V73.7907C0 74.5219 0.47804 75 1.20926 75H38.692C39.4232 75 39.9012 74.5219 39.9012 73.7907V50.8175C39.9012 49.923 37.2506 47.6377 36.5383 46.9255C35.8261 46.2133 33.5407 43.5626 32.6463 43.5626H19.346C17.8354 43.5626 18.137 45.1147 18.137 46.5856C16.7806 45.6771 15.6575 43.5626 14.5095 43.5626H9.67314V31.4712H12.0913C12.744 34.2729 13.0562 35.9421 15.5264 38.3138C16.3361 39.0912 17.5457 39.828 18.6387 40.3402C22.6227 42.2076 27.5794 41.156 30.6439 38.0837C31.5632 37.1621 32.4287 36.1792 32.9304 34.9293C34.6469 30.653 34.2907 26.2029 31.0247 22.8155C30.1688 21.9274 29.1736 21.1268 28.0149 20.5354C25.6807 19.3437 24.2907 19.3802 21.7642 19.3802V7.28883C21.7642 6.39438 19.1135 4.10902 18.4013 3.39708C17.6893 2.68484 15.404 0.0341797 14.5095 0.0341797H1.20926C0.47804 0.0341797 0 0.512227 0 1.24315Z" fill="#092C42"/>
<path fill-rule="evenodd" clip-rule="evenodd" d="M51.2368 6.83491L52.7121 5.28749C53.58 5.89256 53.683 6.53268 54.713 6.53268C55.3423 6.53268 56.5419 5.71094 57.149 5.49251C59.286 4.72391 59.2471 5.3903 59.2471 2.452H61.6654C61.6654 5.20399 61.5602 4.76567 63.6514 5.45367C64.7628 5.81927 65.2662 6.53268 66.5018 6.53268C66.9924 6.53268 67.7674 5.58945 68.1646 5.32371L69.712 6.79901C69.1069 7.6666 68.4668 7.76996 68.4668 8.79991C68.4668 9.42892 69.2885 10.6288 69.5069 11.2359C70.2755 13.3729 69.6092 13.3341 72.5475 13.3341V15.7523C69.7388 15.7523 70.2738 15.6691 69.5265 17.719C69.1226 18.8267 68.4668 19.5182 68.4668 20.5887C68.4668 21.0793 69.41 21.8544 69.6761 22.2515L68.2005 23.7986C67.3329 23.1938 67.2298 22.5537 66.1995 22.5537C65.6856 22.5537 64.3689 23.3325 63.741 23.5711C61.6236 24.3765 61.6654 23.6961 61.6654 26.6344H59.2471C59.2471 23.8824 59.3523 24.3207 57.2614 23.6327C56.15 23.2671 55.6463 22.5537 54.4107 22.5537C53.9202 22.5537 53.1451 23.497 52.7483 23.7627L51.2009 22.2874C51.8056 21.4198 52.4457 21.3164 52.4457 20.2865C52.4457 19.6575 51.6243 18.4576 51.4059 17.8505C50.637 15.7135 51.3037 15.7523 48.3651 15.7523V13.3341C51.1171 13.3341 50.6787 13.4392 51.3667 11.3481C51.7323 10.2369 52.4457 9.73322 52.4457 8.49768C52.4457 8.00709 51.5025 7.23206 51.2368 6.83491ZM56.829 3.05648C56.0928 3.11781 55.405 3.52576 54.8642 3.81223C52.7833 0.705141 51.5939 2.77496 50.2164 4.15213C48.535 5.83357 46.6693 6.9047 49.7253 8.95088C49.4391 9.49199 49.0309 10.1797 48.9695 10.9159C45.3716 10.9159 45.9469 10.4215 45.9469 16.9616C45.9469 18.4722 47.4989 18.1705 48.9695 18.1705C49.0309 18.9067 49.4391 19.5944 49.7253 20.1355C46.65 22.1945 48.5928 23.3106 50.0655 24.783C51.7466 26.4645 52.8178 28.3302 54.8642 25.2742C55.405 25.5607 56.0928 25.9686 56.829 26.0299C56.829 29.6279 56.3349 29.0526 62.8746 29.0526C64.3852 29.0526 64.0836 27.5005 64.0836 26.0299C64.8201 25.9686 65.5075 25.5607 66.0486 25.2742C68.1292 28.3813 69.3186 26.3114 70.6961 24.934C72.3775 23.2528 74.2432 22.1817 71.1873 20.1355C71.4737 19.5944 71.8816 18.9067 71.943 18.1705C75.5409 18.1705 74.9657 18.6646 74.9657 12.1249C74.9657 10.6142 73.4136 10.9159 71.943 10.9159C71.8816 10.1797 71.4737 9.49199 71.1873 8.95088C74.2625 6.89185 72.3197 5.77574 70.8473 4.30338C69.1659 2.62194 68.095 0.756244 66.0486 3.81223C65.5075 3.52576 64.8201 3.11781 64.0836 3.05648C64.0836 -0.541486 64.5779 0.0337703 58.0379 0.0337703C56.5273 0.0337703 56.829 1.58587 56.829 3.05648Z" fill="#092C42"/>
<path fill-rule="evenodd" clip-rule="evenodd" d="M49.5739 61.6985C49.5739 52.2802 61.2094 47.1074 68.1291 54.0254C73.1825 59.0773 72.2767 68.0017 64.8924 71.5754C62.2169 72.8703 58.7098 72.8781 56.0203 71.5754C52.2205 69.7351 49.5739 66.1398 49.5739 61.6985ZM47.1558 60.7914C47.1558 63.41 47.2068 64.9799 48.4134 67.3931C50.537 71.6394 54.9646 74.9988 59.7006 74.9988C63.9028 74.9988 66.9445 74.0272 69.8649 71.107C76.2298 64.7419 74.7306 53.9687 66.2512 49.7067C59.9071 46.5181 51.8718 49.1188 48.5154 55.8031C47.9331 56.9628 47.1558 59.0738 47.1558 60.7914Z" fill="#092C42"/>
<path fill-rule="evenodd" clip-rule="evenodd" d="M36.2735 17.8687C36.2735 16.6468 36.2796 15.7527 35.0645 15.7527H26.6006V13.3345H35.0645C36.2796 13.3345 36.2735 12.4403 36.2735 11.2185C36.9434 11.667 39.7988 14.2441 40.3545 14.3925V14.6947C39.7988 14.843 36.9434 17.4201 36.2735 17.8687ZM33.8553 8.49806V10.9163H25.3914C24.6602 10.9163 24.1821 11.3943 24.1821 12.1252V16.9619C24.1821 17.6929 24.6602 18.1709 25.3914 18.1709H33.8553C33.8553 19.9872 33.4838 21.7983 35.0645 21.7983C35.5945 21.7983 36.0519 21.4331 36.3807 21.1498C36.7731 20.8113 37.0663 20.5841 37.4436 20.248L42.8121 15.7921C44.4019 14.4266 43.0849 13.536 42.2982 12.9023L36.3807 7.93738C34.9068 6.6668 33.8553 7.48592 33.8553 8.49806Z" fill="#092C42"/>
<path fill-rule="evenodd" clip-rule="evenodd" d="M58.0752 67.1769L53.7685 62.9446L55.5832 61.0576C57.5531 62.4091 57.3078 64.1708 59.738 61.7362C60.6502 60.8225 63.4723 57.8758 64.0833 57.4666L65.9332 59.2439L58.0752 67.1769ZM58.0375 59.8849C56.3394 58.7478 56.2586 56.877 54.1455 59.0155C50.2681 62.9388 49.8102 62.464 52.3321 64.9859L55.9595 68.6133C58.5705 71.2242 58.0011 70.7278 63.7433 64.9859L67.824 60.9052C69.1901 59.5441 69.417 59.2311 67.9755 57.8063C63.6139 53.4961 64.6427 53.3553 60.9472 57.0508C60.2128 57.7852 58.7705 59.394 58.0375 59.8849Z" fill="#092C42"/>
<path fill-rule="evenodd" clip-rule="evenodd" d="M57.1314 39.9355C59.9026 39.9355 59.2473 39.6126 59.2473 32.6809H61.6655C61.6655 39.6126 61.0103 39.9355 63.7815 39.9355C63.3015 40.8431 60.7839 43.356 60.6075 44.0165C59.9724 43.591 57.5241 40.5222 57.1314 39.9355ZM56.8291 31.4717V37.5174C55.0128 37.5174 53.2017 37.1459 53.2017 38.7266C53.2017 39.4598 54.2202 40.5085 54.752 41.106C55.1007 41.4976 55.3086 41.7732 55.6538 42.1692L58.3193 45.3981C59.9169 47.3713 60.4265 48.035 62.0978 45.9602L64.365 43.2395C65.0576 42.3839 67.7112 39.6453 67.7112 38.7266C67.7112 37.1459 65.9001 37.5174 64.0838 37.5174V31.4717C64.0838 30.7407 63.6057 30.2627 62.8748 30.2627H58.0381C57.3071 30.2627 56.8291 30.7407 56.8291 31.4717Z" fill="#092C42"/>
<path fill-rule="evenodd" clip-rule="evenodd" d="M55.62 14.8453C55.4471 13.9515 56.0656 12.2355 56.9384 11.3271C61.5482 6.53006 68.1336 13.4308 63.9746 17.7588C62.0628 19.7483 59.1505 19.8964 57.2407 18.061C56.7881 17.6262 56.4867 17.2933 56.1716 16.7119L55.62 14.8453ZM53.2018 13.9383C53.2018 15.5114 53.1775 16.2926 53.9023 17.7722C54.9892 19.9916 57.4959 21.7977 59.8519 21.7977C61.425 21.7977 62.2064 21.822 63.6858 21.0975C67.9227 19.0221 68.8011 13.6259 66.5053 10.4589C65.8561 9.56357 65.6768 9.41318 64.7946 8.69335C60.4015 5.10882 53.2018 8.63873 53.2018 13.9383Z" fill="#092C42"/>
<path fill-rule="evenodd" clip-rule="evenodd" d="M4.83643 12.1253H16.9278V9.70703H4.83643V12.1253Z" fill="#092C42"/>
<path fill-rule="evenodd" clip-rule="evenodd" d="M4.83643 16.9625H16.9278V14.5439H4.83643V16.9625Z" fill="#092C42"/>
<path fill-rule="evenodd" clip-rule="evenodd" d="M4.83643 55.6546H16.9278V53.2363H4.83643V55.6546Z" fill="#092C42"/>
<path fill-rule="evenodd" clip-rule="evenodd" d="M22.9736 55.6546H35.065V53.2363H22.9736V55.6546Z" fill="#092C42"/>
<path fill-rule="evenodd" clip-rule="evenodd" d="M4.83643 60.4924H16.9278V58.0742H4.83643V60.4924Z" fill="#092C42"/>
<path fill-rule="evenodd" clip-rule="evenodd" d="M22.9736 60.4924H35.065V58.0742H22.9736V60.4924Z" fill="#092C42"/>
<path fill-rule="evenodd" clip-rule="evenodd" d="M4.83643 65.3255H16.9278V62.9072H4.83643V65.3255Z" fill="#092C42"/>
<path fill-rule="evenodd" clip-rule="evenodd" d="M22.9736 65.3255H35.065V62.9072H22.9736V65.3255Z" fill="#092C42"/>
<path fill-rule="evenodd" clip-rule="evenodd" d="M21.7637 30.2622C21.7637 30.9934 22.2417 31.4712 22.9729 31.4712H29.0186V29.0529H24.1819V25.4258H21.7637V30.2622Z" fill="#092C42"/>
<path fill-rule="evenodd" clip-rule="evenodd" d="M4.83643 21.7991H14.5096V19.3809H4.83643V21.7991Z" fill="#092C42"/>
<path fill-rule="evenodd" clip-rule="evenodd" d="M7.25488 7.28932H10.8821V4.87109H7.25488V7.28932Z" fill="#092C42"/>
<path fill-rule="evenodd" clip-rule="evenodd" d="M7.25488 50.8179H10.8821V48.3994H7.25488V50.8179Z" fill="#092C42"/>
<path fill-rule="evenodd" clip-rule="evenodd" d="M25.3921 50.8179H29.0196V48.3994H25.3921V50.8179Z" fill="#092C42"/>
</svg>
