<svg width="75" height="75" viewBox="0 0 75 75" fill="none" xmlns="http://www.w3.org/2000/svg">
<path fill-rule="evenodd" clip-rule="evenodd" d="M2.41751 68.654C2.41751 67.3491 2.08646 65.33 3.77733 65.33H29.0105V66.8411C29.0105 68.503 30.6722 70.165 32.3344 70.165H42.609C44.2713 70.165 45.9332 68.503 45.9332 66.8411V65.33H71.1661C72.857 65.33 72.526 67.3491 72.526 68.654C72.526 70.9655 70.9087 72.5825 68.5975 72.5825H6.34605C4.00096 72.5825 2.41751 70.9991 2.41751 68.654ZM31.428 66.3877V65.33H43.5155C43.5155 66.1299 43.6903 67.7475 42.1556 67.7475H32.7878C32.0411 67.7475 31.428 67.1345 31.428 66.3877ZM21.9419 27.7397C23.8424 29.002 22.9734 29.7327 25.3894 28.3168C29.6563 25.8158 30.2191 28.3515 30.2191 24.2318H32.6366C32.6366 26.1022 32.3964 26.5646 33.8411 26.9561C35.3344 27.3604 35.976 27.483 37.37 28.2622C38.1509 28.6983 39.2392 30.0319 40.7958 27.7072L42.494 29.333C39.8064 31.2177 41.8041 32.0401 42.6303 34.3341C43.8132 37.6192 42.7471 37.5284 45.9332 37.5284V39.9459C41.916 39.9459 44.3101 40.3727 41.9028 44.6793C41.4667 45.46 40.1332 46.5483 42.4581 48.1051L40.832 49.8033C38.8387 46.9605 38.6241 49.3012 33.9617 50.4876C32.3955 50.8861 32.6366 51.268 32.6366 53.2423H30.2191C30.2191 51.3719 30.4597 50.9095 29.0149 50.5183C27.5214 50.1136 26.8797 49.9913 25.4857 49.2122C22.8951 47.7639 24.0147 48.3571 21.909 49.7671L20.3649 48.1375C23.2019 46.1585 20.8574 45.9078 19.6775 41.2707C19.279 39.7048 18.8971 39.9459 16.9227 39.9459V37.5284C18.7931 37.5284 19.2556 37.7687 19.6468 36.3239C20.0514 34.8307 20.1737 34.189 20.9529 32.7951C21.3893 32.0141 22.7229 30.9261 20.3979 29.3692L21.9419 27.7397ZM17.3761 29.3692C17.3761 30.1393 18.4 31.0072 18.8869 31.3333C18.2467 32.5434 17.727 33.6037 17.3761 35.111C13.9354 35.111 14.5053 34.7119 14.5053 41.1545C14.5053 42.6206 15.9413 42.3634 17.3761 42.3634C17.727 43.8707 18.2467 44.9309 18.8869 46.1407C15.9404 48.1139 18.0403 49.298 19.4535 50.7115C20.8671 52.1247 22.0511 54.2246 24.0243 51.2781C25.234 51.9184 26.2944 52.438 27.8016 52.7892C27.8016 56.2296 27.4025 55.6598 33.8455 55.6598C35.3113 55.6598 35.0541 54.2237 35.0541 52.7892C36.5613 52.438 37.6216 51.9184 38.8317 51.2781C40.8049 54.2246 41.989 52.1247 43.4022 50.7115C44.8158 49.298 46.9156 48.1139 43.9689 46.1407C44.6091 44.9309 45.1287 43.8707 45.4799 42.3634C48.9203 42.3634 48.3508 42.7625 48.3508 36.3195C48.3508 35.1623 47.5502 35.111 46.3863 35.111C46.5057 35.0073 46.452 35.0347 46.6546 34.9258C46.8826 34.8035 46.8085 34.8526 47.0741 34.7407C47.4312 34.5907 47.6139 34.5055 47.8974 34.3554C49.8069 35.6341 49.4219 37.2891 52.0148 34.6952L55.1878 31.5222C57.7816 28.9292 56.1263 29.3143 54.8477 27.4051C55.2018 26.7363 55.9839 25.1064 56.0566 24.2318H62.856V58.0773H12.0878V24.2318H23.7221C23.77 24.8075 24.8061 26.7853 23.763 25.8751C22.0205 24.3547 22.4345 23.7819 19.4535 26.7628C18.9006 27.3157 17.3761 28.4992 17.3761 29.3692ZM9.66998 23.0232V59.2862C9.66998 60.0172 10.1479 60.4951 10.8789 60.4951H64.0646C64.7956 60.4951 65.2735 60.0172 65.2735 59.2862V23.0232C65.2735 22.2922 64.7956 21.8143 64.0646 21.8143H59.2296V19.3968H66.3312C67.0779 19.3968 67.691 20.0098 67.691 20.7566V62.9126H7.25247V20.7566C7.25247 20.0098 7.86552 19.3968 8.61258 19.3968H20.5491V21.8143H10.8789C10.1479 21.8143 9.66998 22.2922 9.66998 23.0232ZM44.4222 27.8581C43.9545 27.1601 41.6091 24.6851 40.7958 24.6851C40.026 24.6851 39.1578 25.7092 38.8317 26.1962C37.6216 25.556 36.5613 25.0363 35.0541 24.6851C35.0541 21.3685 35.2821 21.8143 30.5213 21.8143C30.481 20.0081 29.5944 19.1262 31.0999 15.4426C34.0796 8.1501 45.3856 7.69001 48.6357 15.3346C48.8835 15.9178 49.1095 16.4961 49.2499 17.1378C50.2121 21.5393 48.2783 25.8178 44.4222 27.8581ZM27.8016 18.7925L28.0121 22.216C27.7675 23.7291 27.8016 22.5494 27.8016 24.6851C27.3129 24.799 27.1386 24.942 26.5927 24.9873C26.3022 24.3815 26.1364 23.8449 25.9286 23.083C25.5094 21.548 24.9684 21.8143 22.9667 21.8143V16.9793C27.0015 16.9793 24.9675 16.6917 27.0434 12.746C28.506 9.9665 27.6682 11.1795 26.2906 9.12223L27.484 7.89814C27.6355 7.7405 27.7371 7.6065 27.9134 7.42113L29.6148 5.79828C31.6274 7.14613 30.561 8.00646 33.1393 6.60314C37.208 4.38854 37.4719 6.59729 37.4719 2.47404H42.3069C42.3069 6.50913 42.5944 4.47524 46.5402 6.55117C47.4467 7.02819 48.368 8.25431 50.0127 5.79828L53.4526 9.15784C52.1888 11.1117 51.2619 10.0357 52.683 12.647C52.9808 13.1938 53.1454 13.6116 53.3825 14.2141C54.4799 17.0059 53.4117 16.9793 56.8121 16.9793V21.8143C53.4622 21.8143 54.4428 21.8309 53.4251 24.4712L51.9768 27.556C51.9768 28.4721 53.0599 29.032 53.4879 29.6714L50.2007 33.0324C48.0284 31.5321 49.2607 30.8107 46.5402 32.2424C46.083 32.4832 45.272 32.868 44.7243 32.9956C44.602 32.4698 44.2097 31.7888 43.9689 31.3333C44.5145 30.9681 44.668 30.5684 45.2761 30.2231C45.9073 29.8649 46.2258 29.742 46.8126 29.342C47.8154 28.6589 48.5387 27.9434 49.3051 26.9996C54.1225 21.066 52.3105 12.1583 45.3208 8.52611C42.1188 6.86238 37.8228 6.89945 34.5584 8.47559C33.9906 8.74971 33.2654 9.23813 32.7881 9.5759C30.2013 11.4066 27.8016 14.972 27.8016 18.7925ZM35.0541 3.22956C34.1797 3.30225 32.5499 4.08434 31.8814 4.43845C29.9718 3.15979 30.3569 1.50452 27.764 4.09834L24.5909 7.27137C21.9971 9.86431 23.6521 9.47925 24.9308 11.3888C24.5769 12.0576 23.7948 13.6875 23.7221 14.5618C20.602 14.5618 20.5491 14.344 20.5491 16.9793H8.15923C6.49697 16.9793 4.83502 18.6413 4.83502 20.3035V62.9126H3.32393C1.66195 62.9126 0 64.5745 0 66.2365V69.4095C0 72.1969 2.80314 75 5.59051 75H69.353C72.1403 75 74.9435 72.1969 74.9435 69.4095V66.2365C74.9435 64.5745 73.2815 62.9126 71.6195 62.9126H70.1085V20.3035C70.1085 18.6413 68.4465 16.9793 66.7842 16.9793H59.2296C59.2296 14.344 59.1768 14.5618 56.0566 14.5618C55.9839 13.6875 55.2018 12.0576 54.8477 11.3888C56.1263 9.47925 57.7816 9.86431 55.1878 7.27137L52.0148 4.09834C49.4219 1.50452 49.8069 3.15979 47.8974 4.43845C47.2286 4.08434 45.5987 3.30225 44.7243 3.22956C44.7243 -0.68847 45.5666 0.0565576 36.263 0.0565576C34.721 0.0565576 35.0541 1.71005 35.0541 3.22956Z" fill="#092C42"/>
<path fill-rule="evenodd" clip-rule="evenodd" d="M24.1753 38.7383C24.1753 37.2974 24.8193 35.5971 25.5751 34.5476C25.8746 34.1322 26.1978 33.8143 26.4418 33.45C27.266 34.002 28.5668 36.0187 29.6148 36.0187C30.57 36.0187 31.2132 34.8043 31.8814 34.3567C32.5067 34.6875 34.2537 35.4988 35.0541 35.5653C35.0541 39.0758 34.7987 38.7383 38.6805 38.7383C38.6154 41.662 36.8784 44.1432 34.4945 45.28C30.8842 47.0015 26.3531 45.242 24.8823 41.8089C24.5717 41.0843 24.1753 39.6824 24.1753 38.7383ZM37.4719 34.961L37.9014 35.589C38.0436 35.8844 38.0836 36.049 38.2275 36.3208H37.4719V34.961ZM35.8097 33.1478L36.1346 33.231L35.8097 33.1478ZM35.8097 33.1478C35.0005 33.1297 33.3455 32.3444 32.5955 31.8292C32.3007 31.6266 32.5085 31.7883 32.3345 31.6371C33.5037 31.6371 35.3592 32.4752 35.8097 33.1478ZM29.6148 32.9969C29.2838 32.5027 29.0161 32.5263 28.8594 31.9392C29.3072 31.9019 30.1237 31.5819 31.2769 31.4859C30.7663 31.9299 30.1155 32.6615 29.6148 32.9969ZM21.7578 38.1341V39.343C21.7578 43.9056 26.2608 48.4086 30.8235 48.4086H32.0324C36.595 48.4086 41.0981 43.9056 41.0981 39.343V38.1341C41.0981 33.5714 36.595 29.0684 32.0324 29.0684H30.8235C26.2608 29.0684 21.7578 33.5714 21.7578 38.1341Z" fill="#092C42"/>
</svg>
