<svg width="243" height="200" viewBox="0 0 243 200" fill="none" xmlns="http://www.w3.org/2000/svg">
<path d="M121.512 1.74014C158.965 -8.33148 236.85 26.5853 230.325 73.6861C226.483 94.4555 219.409 111.466 210.86 143.981C200.919 181.765 146.87 209.113 104.025 197.164C36.6583 178.384 14.4619 132.959 14.5437 103.708C14.6513 64.9075 44.1737 22.5361 121.512 1.74014Z" fill="#DADFE3" fill-opacity="0.5"/>
<path d="M100.298 128.534C89.4049 112.985 93.1785 91.5476 108.728 80.6498C124.303 69.7396 145.741 73.5123 156.639 89.0662C167.549 104.641 163.776 126.075 148.201 136.99C132.651 147.883 111.214 144.11 100.298 128.534ZM70.1857 149.632C75.669 157.458 82.4401 163.833 90.0127 168.683L94.2161 162.141C101.345 166.719 109.279 169.764 117.468 171.228L116.124 178.866C125.156 180.46 134.495 180.322 143.613 178.327L143.251 176.635L141.963 170.738C149.932 169.006 157.716 165.676 164.814 160.701L169.28 167.077C177.103 161.597 183.482 154.823 188.314 147.229L181.772 143.024C186.368 135.918 189.413 127.987 190.878 119.799L198.515 121.143C200.108 112.107 199.953 102.746 197.963 93.6273L197.938 93.6449L195.741 94.1056L190.369 95.2771C188.638 87.309 185.326 79.5514 180.351 72.4482L186.725 67.9814C181.246 60.1595 174.454 53.7593 166.86 48.9261L162.656 55.4689C155.549 50.8727 147.636 47.8488 139.443 46.3892L140.792 38.7479C131.755 37.1587 122.395 37.3095 113.277 39.3037L114.926 46.8974C106.958 48.6283 99.2 51.9412 92.0977 56.9118L87.6309 50.5372C79.8081 56.0205 73.4034 62.8091 68.5747 70.4064L75.1175 74.6063C70.5213 81.7139 67.4983 89.631 66.0335 97.8184L58.3965 96.4751C56.7819 105.525 56.958 114.872 58.9523 123.986L59.0175 123.978L64.0136 122.887L66.546 122.336C68.2778 130.305 71.6029 138.088 76.5604 145.165L70.1857 149.632Z" fill="#DADFE3"/>
<path d="M238.92 91.5348L192.389 104.276L189.284 97.3975L177.5 71.2821L238.197 40.4834C243.903 55.2067 244.105 73.5067 238.92 91.5348Z" fill="#0096ED"/>
<path d="M238.921 91.5359L192.39 104.277L189.285 97.3986C190.835 91.6827 192.339 85.988 192.339 85.988C192.339 85.988 217.814 84.666 241.769 78.2861C241.147 82.6817 240.192 87.1169 238.921 91.5359Z" fill="#0084D1"/>
<path d="M192.088 84.5563C196.18 93.6748 196.464 102.432 192.721 104.112C188.979 105.792 182.629 99.7571 178.537 90.6342C174.445 81.5111 174.161 72.7582 177.904 71.0785C181.647 69.3986 187.996 75.4334 192.088 84.5563Z" fill="#0084D1"/>
<path d="M190.111 85.4568C193.458 92.9211 193.79 100.045 190.852 101.364C187.91 102.682 182.814 97.6989 179.464 90.2337C176.116 82.7693 175.784 75.645 178.722 74.3265C181.664 73.0087 186.76 77.9925 190.111 85.4568Z" fill="#102542"/>
<path d="M188.629 98.1468C188.729 99.5464 188.629 100.731 188.328 101.606C188.074 102.333 187.678 102.846 187.135 103.088C184.611 104.225 179.838 99.0726 176.483 91.5863C173.124 84.1052 172.452 77.1183 174.975 75.9811C175.518 75.7397 176.164 75.783 176.875 76.0807C177.728 76.4374 178.679 77.1483 179.662 78.1524C181.687 80.2242 183.857 83.5274 185.632 87.4816C187.407 91.44 188.431 95.2612 188.629 98.1468Z" fill="#193966"/>
<path d="M190.228 101.703L187.135 103.086C187.678 102.845 188.074 102.332 188.328 101.604C188.629 100.73 188.729 99.5451 188.629 98.1455C188.431 95.2598 187.407 91.4386 185.632 87.4802C183.857 83.5261 181.686 80.2228 179.662 78.1511C178.679 77.1469 177.728 76.4361 176.875 76.0793C176.164 75.7816 175.518 75.7383 174.975 75.9797L178.068 74.5925C180.592 73.4605 185.365 78.6117 188.72 86.098C192.079 93.5843 192.751 100.57 190.228 101.703Z" fill="#102542"/>
<path d="M186.902 96.1808C186.975 97.2625 186.902 98.1751 186.665 98.8472C186.471 99.4118 186.165 99.8081 185.748 99.993C183.801 100.871 180.118 96.896 177.525 91.1195C174.936 85.3394 174.415 79.9468 176.362 79.0721C176.784 78.8871 177.279 78.9215 177.831 79.1496C178.49 79.4253 179.222 79.9723 179.98 80.7475C181.543 82.3454 183.22 84.8954 184.589 87.9502C185.958 91.0032 186.746 93.9496 186.902 96.1808Z" fill="#102542"/>
<path d="M126.165 146.288C126.165 146.288 132.599 148.58 134.99 148.52C137.381 148.459 144.087 143.51 144.359 140.658C144.63 137.803 133.267 134.297 130.632 135.83C127.991 137.367 124.205 145.254 126.165 146.288Z" fill="#0084D1"/>
<path d="M173.7 92.8656C169.047 94.9373 164.133 94.0458 162.716 90.8713C161.303 87.6967 163.926 83.445 168.579 81.3732C173.226 79.3014 178.14 80.1929 179.558 83.3674C180.971 86.5384 178.348 90.7938 173.7 92.8656Z" fill="#193B69"/>
<path d="M168.217 103.289L162.716 90.8711L179.558 83.3672L185.059 95.7854L168.217 103.289Z" fill="#193B69"/>
<path d="M178.818 104.43C174.17 106.502 169.251 105.611 167.839 102.436C166.426 99.2622 169.048 95.0104 173.696 92.9386C178.348 90.8668 183.263 91.7583 184.675 94.9329C186.092 98.103 183.469 102.359 178.818 104.43Z" fill="#132C4F"/>
<path d="M177.796 102.135C175.001 103.381 172.05 102.846 171.201 100.938C170.349 99.0349 171.925 96.4804 174.721 95.235C177.512 93.9903 180.467 94.525 181.315 96.4329C182.164 98.3364 180.587 100.891 177.796 102.135Z" fill="#1A3C6B"/>
<path d="M176.999 100.348C175.651 100.951 174.225 100.693 173.816 99.7707C173.407 98.8538 174.169 97.6223 175.513 97.0189C176.861 96.42 178.287 96.679 178.696 97.5959C179.106 98.5173 178.347 99.7496 176.999 100.348Z" fill="#102542"/>
<path d="M165.206 96.4927C165.206 96.4927 166.602 92.1422 171.969 90.015C177.34 87.8824 182.526 90.066 182.526 90.066L181.329 87.3697C181.329 87.3697 177.637 84.3379 170.633 87.3442C163.639 90.3461 164.056 93.8916 164.056 93.8916L165.206 96.4927Z" fill="#132C4F"/>
<path d="M123.102 146.256C122.951 144.881 123.881 143.611 125.183 143.413C126.487 143.215 127.667 144.171 127.818 145.544C127.974 146.919 127.038 148.19 125.738 148.388C124.437 148.586 123.257 147.629 123.102 146.256Z" fill="#283D5C"/>
<path d="M129.369 147.159C129.218 145.784 130.149 144.51 131.45 144.316C132.754 144.118 133.93 145.074 134.085 146.448C134.24 147.823 133.306 149.093 132.004 149.291C130.704 149.485 129.524 148.533 129.369 147.159Z" fill="#283D5C"/>
<path d="M131.622 149.327C131.458 149.343 128.71 149.288 125.066 148.388C125.441 146.182 126.001 143.392 126.001 143.392L132.289 144.347L131.622 149.327Z" fill="#283D5C"/>
<path d="M109.659 142.336C109.723 140.958 110.848 139.846 112.165 139.859C113.479 139.872 114.496 141.001 114.426 142.383C114.362 143.766 113.238 144.873 111.921 144.86C110.606 144.847 109.59 143.718 109.659 142.336Z" fill="#283D5C"/>
<path d="M115.702 144.222C115.771 142.844 116.891 141.733 118.209 141.746C119.527 141.759 120.539 142.887 120.47 144.27C120.406 145.653 119.282 146.759 117.968 146.747C116.65 146.734 115.637 145.605 115.702 144.222Z" fill="#283D5C"/>
<path d="M117.584 146.722C117.416 146.713 114.716 146.221 111.261 144.757C111.98 142.638 112.971 139.972 112.971 139.972L119.032 141.91L117.584 146.722Z" fill="#283D5C"/>
<path d="M98.3774 138.923C98.4461 137.546 99.5666 136.434 100.884 136.447C102.203 136.461 103.215 137.589 103.146 138.971C103.081 140.349 101.957 141.461 100.644 141.448C99.3252 141.436 98.3132 140.306 98.3774 138.923Z" fill="#283D5C"/>
<path d="M104.421 140.81C104.49 139.432 105.609 138.32 106.928 138.333C108.246 138.345 109.258 139.475 109.193 140.857C109.125 142.235 108.004 143.347 106.686 143.334C105.369 143.32 104.356 142.192 104.421 140.81Z" fill="#283D5C"/>
<path d="M106.303 143.308C106.139 143.299 103.434 142.808 99.9795 141.339C100.699 139.22 101.694 136.554 101.694 136.554L107.75 138.496L106.303 143.308Z" fill="#283D5C"/>
<path d="M86.7563 133.298C86.8249 131.921 87.9455 130.809 89.2631 130.821C90.5818 130.835 91.593 131.964 91.5287 133.346C91.4601 134.725 90.3395 135.836 89.0219 135.823C87.7041 135.81 86.692 134.681 86.7563 133.298Z" fill="#283D5C"/>
<path d="M92.8042 135.185C92.8684 133.806 93.9924 132.696 95.3066 132.708C96.6244 132.721 97.6364 133.85 97.5722 135.233C97.5034 136.611 96.383 137.722 95.0653 137.71C93.7475 137.696 92.7346 136.568 92.8042 135.185Z" fill="#283D5C"/>
<path d="M94.6826 137.684C94.5187 137.676 91.8136 137.185 88.3589 135.716C89.0785 133.601 90.073 130.931 90.073 130.931L96.1298 132.873L94.6826 137.684Z" fill="#283D5C"/>
<path d="M107.379 88.2258L90.9086 114.225L89.3231 116.271L83.4909 114.66L81.8376 114.204L70.612 111.102L13.083 95.217L16.7315 83.5265L30.1318 48.8916L93.049 80.9298L96.3662 82.6183L107.379 88.2258Z" fill="#F08D65"/>
<path d="M100.415 104.875C122.624 103.992 131.204 87.0343 131.204 87.0343C131.204 87.0343 137.359 90.4194 144.958 90.5577C160.972 89.5024 158.056 79.6942 158.056 79.6942C158.056 79.6942 130.265 73.0095 121.814 74.0128C109.06 75.5208 104.266 79.0652 99.2266 84.0747C92.5973 89.8337 93.894 102.407 100.415 104.875Z" fill="#F08D65"/>
<path d="M178.886 111.532C176.647 113.699 174.277 115.913 171.822 118.109C154.765 133.379 133.512 148.003 121.659 143.673L86.9888 123.235L133.56 90.1849C141.955 80.2436 150.147 78.5595 158.039 77.573C168.652 76.9484 175.311 85.8688 178.21 95.0736C180.217 101.449 180.419 107.958 178.886 111.532Z" fill="#0096ED"/>
<path d="M178.886 111.533C176.647 113.7 174.277 115.913 171.822 118.11C161.153 120.169 149.199 110.826 161.355 110.06C172.515 109.354 176.775 99.8166 178.21 95.0742C180.217 101.45 180.419 107.958 178.886 111.533Z" fill="#0084D1"/>
<path d="M159.624 80.8581C163.074 81.9777 164.366 86.9263 157.436 87.5685C157.436 87.5685 151.022 92.7293 153.762 100.004C155.669 105.078 167.36 109.996 176.634 113.688C175.729 114.554 174.449 115.73 174.449 115.73C174.449 115.73 121.552 115.071 119.346 100.762C117.02 85.6604 140.706 75.736 159.624 80.8581Z" fill="#0096ED"/>
<path d="M171.947 122.838C171.711 122.95 171.478 123.045 171.249 123.123C170.479 123.382 169.751 123.437 169.148 123.226C170.944 125.423 168.143 130.829 162.785 131.526C161.976 131.634 161.102 131.63 160.18 131.492C160.214 131.578 160.244 131.669 160.27 131.768C160.804 133.857 158.525 138.703 154.055 139.172C153.417 139.242 152.741 139.22 152.021 139.09C152.043 139.315 152.048 139.534 152.039 139.75C151.879 144.229 146.052 147.649 138.871 145.974C114.048 140.956 101.686 137.622 87.3468 121.279C86.1065 120.414 85.0549 119.449 84.1766 118.403C82.6607 116.593 81.6697 114.534 81.1315 112.338C77.7975 98.7949 90.7583 82.8841 104.959 84.3393C105.373 84.7532 106.071 84.43 106.821 84.1067C107.553 83.7888 108.337 83.4742 108.943 83.853C111.416 85.3954 114.586 86.8073 117.911 87.9621C122.874 89.6895 128.176 90.8487 132.009 91.0372C133.13 91.9462 134.116 93.0279 135.352 93.6913C153.887 103.646 163.63 109.943 175.975 114.383C178.792 116.623 175.247 121.284 171.947 122.838Z" fill="#F08D65"/>
<path d="M154.046 116.236C154.213 116.301 160.075 119.019 165.412 120.983C166.567 121.41 168.187 122.362 169.156 122.71C170.259 123.107 171.176 123.042 171.947 122.839C171.71 122.951 171.478 123.046 171.249 123.124C170.219 123.477 169.147 123.227 169.147 123.227L154.046 116.236Z" fill="#AB684B"/>
<path d="M147.189 124.313C147.361 124.391 153.103 127.552 158.224 129.913C159.943 130.701 161.024 131.463 162.785 131.528C161.976 131.636 161.102 131.632 160.18 131.493C160.214 131.58 160.244 131.67 160.27 131.769L147.189 124.313Z" fill="#AB684B"/>
<path d="M166.761 133.177C166.739 133.182 166.67 133.169 166.559 133.13C166.761 133.134 166.847 133.147 166.761 133.177Z" fill="#C27655"/>
<path d="M138.036 131.775C138.19 131.844 142.627 133.933 147.231 136.066C149.657 137.186 151.728 139.055 154.055 139.175C153.417 139.245 152.74 139.223 152.021 139.093C152.043 139.318 152.047 139.537 152.038 139.753C152.171 138.573 144.065 134.851 138.036 131.775Z" fill="#AB684B"/>
<path d="M157.613 140.635C157.586 140.644 157.518 140.626 157.406 140.592C157.608 140.596 157.698 140.609 157.613 140.635Z" fill="#C27655"/>
<path d="M142.532 146.405C141.881 146.405 141.209 146.362 140.521 146.271C141.209 146.362 141.881 146.405 142.532 146.405C147.895 146.405 151.845 143.484 152.034 139.84C151.845 143.484 147.895 146.405 142.532 146.405ZM140.491 146.271C140.477 146.267 140.461 146.267 140.447 146.262C140.461 146.267 140.477 146.267 140.491 146.271ZM139.797 146.164C139.793 146.164 139.789 146.159 139.784 146.159C139.789 146.159 139.793 146.164 139.797 146.164Z" fill="#BFDADD"/>
<path d="M152.039 139.836C152.039 139.832 152.039 139.824 152.039 139.819C152.039 139.824 152.039 139.832 152.039 139.836ZM152.039 139.815C152.039 139.81 152.039 139.806 152.039 139.797C152.039 139.806 152.039 139.81 152.039 139.815ZM152.039 139.793C152.039 139.789 152.039 139.785 152.039 139.78C152.039 139.785 152.039 139.789 152.039 139.793ZM152.039 139.767C152.039 139.763 152.039 139.763 152.039 139.758C152.039 139.763 152.039 139.763 152.039 139.767ZM87.5273 121.483C87.4673 121.414 87.4067 121.345 87.3467 121.28C87.3423 121.276 87.3335 121.271 87.3291 121.268C87.3335 121.271 87.3423 121.276 87.3467 121.28C87.4067 121.345 87.4673 121.414 87.5273 121.483Z" fill="#BFDADD"/>
<path d="M139.785 146.161C139.698 146.148 139.612 146.131 139.526 146.113C139.612 146.131 139.698 146.148 139.785 146.161ZM139.522 146.113C139.306 146.07 139.091 146.023 138.871 145.976C136.911 145.58 135.029 145.192 133.22 144.812C135.029 145.192 136.911 145.58 138.871 145.976C139.091 146.023 139.306 146.07 139.522 146.113Z" fill="#092C42"/>
<path d="M142.533 146.405C141.882 146.405 141.21 146.362 140.521 146.272C140.512 146.272 140.499 146.272 140.491 146.272C140.478 146.267 140.461 146.267 140.448 146.263C140.232 146.233 140.017 146.203 139.798 146.164C139.793 146.164 139.789 146.16 139.784 146.16C139.698 146.147 139.612 146.13 139.525 146.112H139.522C139.306 146.069 139.091 146.021 138.871 145.975C136.911 145.578 135.029 145.191 133.22 144.811C132.113 144.574 131.036 144.346 129.981 144.109C129.262 143.954 128.555 143.795 127.858 143.635C127.788 140.646 127.469 137.45 126.492 136.352C126.371 136.21 126.234 136.106 126.087 136.037C123.58 134.892 120.94 134.655 120.94 134.655L120.509 141.796C118.885 141.349 117.326 140.883 115.818 140.388C115.745 137.187 115.409 133.75 114.362 132.57C114.233 132.419 114.087 132.308 113.932 132.234C111.256 131.011 108.444 130.761 108.444 130.761L108.358 132.122C107.708 129.684 106.666 127.406 105.463 126.096L103.042 128.47C102.909 128.318 102.762 128.206 102.607 128.133C100.506 127.169 98.3133 126.811 97.4729 126.699C96.8228 124.282 95.7852 122.03 94.5917 120.733L92.1711 123.103C92.0372 122.951 91.8954 122.839 91.736 122.771C90.1892 122.06 88.5958 121.677 87.5273 121.483C87.4673 121.414 87.4067 121.345 87.3467 121.28C87.3423 121.276 87.3335 121.271 87.3291 121.268C86.0721 120.384 82.436 117.046 81.8379 114.204L83.4912 114.66C84.2541 114.078 84.9948 113.415 85.7013 112.679C88.0743 113.919 90.5424 115.22 93.0581 116.563C114.052 127.759 138.69 141.542 145.582 141.542C146.038 141.542 146.417 141.482 146.711 141.356C149.609 140.121 150.621 139.173 150.94 138.566C151.625 139.049 152.03 139.441 152.043 139.711C152.043 139.729 152.039 139.742 152.039 139.759C152.039 139.763 152.039 139.763 152.039 139.768C152.039 139.772 152.039 139.776 152.039 139.781C152.039 139.785 152.039 139.789 152.039 139.793V139.797C152.039 139.806 152.039 139.811 152.039 139.815V139.819C152.039 139.824 152.039 139.833 152.039 139.836C152.034 139.836 152.034 139.836 152.034 139.841C151.845 143.485 147.895 146.405 142.533 146.405Z" fill="#E47E58"/>
<path d="M153.34 139.213C152.918 139.213 152.478 139.174 152.021 139.092C152.478 139.174 152.918 139.213 153.335 139.213C153.581 139.213 153.821 139.201 154.055 139.174C158.525 138.705 160.804 133.859 160.27 131.77C160.244 131.671 160.214 131.58 160.179 131.494C161.054 133.493 158.5 139.213 153.34 139.213Z" fill="#BFDADD"/>
<path d="M154.055 139.174C153.025 139.122 152.047 138.727 151.069 138.205C151.113 137.939 151 137.797 151 137.797C151 137.797 157.151 135.264 159.18 131.146L160.27 131.77C160.244 131.671 160.214 131.581 160.179 131.494C160.214 131.581 160.244 131.671 160.27 131.77C160.804 133.859 158.525 138.705 154.055 139.174Z" fill="#E47E58"/>
<path d="M161.627 131.607C161.157 131.607 160.675 131.568 160.18 131.494C160.675 131.568 161.157 131.607 161.627 131.607C162.023 131.607 162.411 131.581 162.785 131.529C166.782 131.008 169.358 127.868 169.66 125.395C169.328 128.1 166.283 131.607 161.627 131.607ZM169.66 125.391C169.66 125.387 169.665 125.383 169.665 125.374C169.665 125.383 169.66 125.387 169.66 125.391ZM169.665 125.374C169.665 125.37 169.665 125.361 169.665 125.357C169.665 125.361 169.665 125.37 169.665 125.374ZM169.665 125.352C169.665 125.348 169.669 125.339 169.669 125.336C169.669 125.339 169.665 125.348 169.665 125.352ZM169.669 125.336C169.669 125.327 169.669 125.322 169.669 125.318C169.669 125.322 169.669 125.327 169.669 125.336ZM169.669 125.313C169.673 125.279 169.677 125.24 169.681 125.206C169.677 125.24 169.673 125.279 169.669 125.313ZM169.681 125.202C169.681 125.197 169.681 125.193 169.681 125.188C169.681 125.193 169.681 125.197 169.681 125.202ZM169.681 125.18C169.681 125.176 169.681 125.172 169.681 125.172C169.681 125.172 169.681 125.176 169.681 125.18ZM169.681 125.158C169.681 125.158 169.681 125.154 169.681 125.151C169.681 125.154 169.681 125.158 169.681 125.158ZM169.686 125.142C169.686 125.137 169.686 125.133 169.686 125.133C169.686 125.133 169.686 125.137 169.686 125.142ZM169.686 125.12C169.686 125.115 169.686 125.115 169.686 125.111C169.686 125.115 169.686 125.115 169.686 125.12ZM169.686 125.099V125.094V125.099ZM169.686 125.081C169.686 125.077 169.686 125.077 169.686 125.072C169.686 125.077 169.686 125.077 169.686 125.081ZM169.69 125.06C169.69 125.055 169.69 125.055 169.69 125.055C169.69 125.055 169.69 125.055 169.69 125.06ZM169.69 125.038V125.034V125.038ZM169.69 125.017C169.69 125.017 169.69 125.017 169.69 125.012C169.69 125.017 169.69 125.017 169.69 125.017ZM169.69 124.857V124.853V124.857ZM169.957 123.358C169.669 123.358 169.397 123.315 169.148 123.229C169.397 123.315 169.669 123.358 169.957 123.358C170.109 123.358 170.267 123.345 170.427 123.324C170.267 123.345 170.109 123.358 169.957 123.358ZM169.225 123.328V123.324C169.225 123.328 169.225 123.328 169.225 123.328ZM169.195 123.285C169.195 123.285 169.195 123.285 169.195 123.281C169.195 123.285 169.195 123.285 169.195 123.285ZM169.182 123.273V123.267V123.273Z" fill="#BFDADD"/>
<path d="M162.785 131.528C161.481 131.482 160.55 131.051 159.457 130.507C159.576 130.176 159.671 129.832 159.736 129.483C159.736 129.483 169.268 128.126 168.799 123.19C168.833 123.164 168.872 123.143 168.911 123.116L169.148 123.228C169.152 123.232 169.157 123.237 169.161 123.241C169.164 123.246 169.17 123.25 169.173 123.254C169.178 123.259 169.178 123.263 169.182 123.267V123.272C169.186 123.276 169.191 123.28 169.195 123.28C169.195 123.284 169.195 123.284 169.195 123.284C169.199 123.289 169.199 123.293 169.204 123.298C169.208 123.302 169.212 123.307 169.216 123.31C169.216 123.314 169.221 123.319 169.225 123.323V123.328C169.526 123.741 169.677 124.262 169.69 124.836C169.69 124.839 169.69 124.848 169.69 124.852V124.857C169.69 124.861 169.69 124.866 169.69 124.873C169.69 124.912 169.69 124.955 169.69 124.994C169.69 125.003 169.69 125.007 169.69 125.012C169.69 125.016 169.69 125.016 169.69 125.016C169.69 125.025 169.69 125.029 169.69 125.034V125.037C169.69 125.042 169.69 125.046 169.69 125.055C169.69 125.055 169.69 125.055 169.69 125.059C169.686 125.064 169.686 125.068 169.686 125.072C169.686 125.076 169.686 125.076 169.686 125.081C169.686 125.085 169.686 125.089 169.686 125.094V125.098C169.686 125.103 169.686 125.107 169.686 125.111C169.686 125.115 169.686 125.115 169.686 125.119C169.686 125.124 169.686 125.128 169.686 125.132C169.686 125.132 169.686 125.137 169.686 125.141C169.686 125.146 169.681 125.146 169.681 125.15C169.681 125.154 169.681 125.158 169.681 125.158C169.681 125.163 169.681 125.167 169.681 125.171C169.681 125.171 169.681 125.176 169.681 125.18C169.681 125.184 169.681 125.184 169.681 125.188C169.681 125.192 169.681 125.197 169.681 125.201C169.681 125.201 169.681 125.201 169.681 125.206C169.677 125.24 169.673 125.279 169.669 125.313V125.317C169.669 125.322 169.669 125.326 169.669 125.335C169.669 125.339 169.665 125.347 169.665 125.352V125.356C169.665 125.361 169.665 125.369 169.665 125.374C169.665 125.383 169.66 125.386 169.66 125.391C169.66 125.395 169.66 125.395 169.66 125.395C169.358 127.868 166.783 131.008 162.785 131.528ZM169.957 123.358C169.669 123.358 169.397 123.314 169.148 123.228C169.148 123.228 169.519 123.314 170.03 123.314C170.349 123.314 170.724 123.28 171.099 123.173C170.871 123.241 170.642 123.293 170.427 123.323C170.267 123.344 170.109 123.358 169.957 123.358Z" fill="#E47E58"/>
<path d="M171.525 123.025C171.663 122.969 171.805 122.909 171.947 122.84C174.854 121.47 177.947 117.688 176.72 115.276C178.012 117.809 174.54 121.845 171.525 123.025ZM176.72 115.276C176.72 115.272 176.716 115.268 176.711 115.263C176.716 115.268 176.72 115.272 176.72 115.276ZM176.711 115.259C176.702 115.241 176.689 115.22 176.677 115.198C176.689 115.22 176.702 115.241 176.711 115.259ZM176.677 115.198C176.677 115.195 176.673 115.19 176.673 115.186C176.673 115.19 176.677 115.195 176.677 115.198ZM176.668 115.181C176.664 115.177 176.664 115.173 176.659 115.168C176.664 115.173 176.664 115.177 176.668 115.181ZM176.659 115.164C176.655 115.16 176.655 115.156 176.651 115.152C176.655 115.156 176.655 115.16 176.659 115.164ZM176.651 115.147C176.642 115.134 176.634 115.122 176.625 115.108C176.634 115.122 176.642 115.134 176.651 115.147ZM176.621 115.104C176.621 115.1 176.616 115.095 176.616 115.091C176.616 115.095 176.621 115.1 176.621 115.104ZM176.613 115.087C176.607 115.082 176.607 115.078 176.604 115.074C176.607 115.078 176.607 115.082 176.613 115.087ZM176.599 115.065C176.599 115.065 176.595 115.061 176.595 115.056C176.595 115.061 176.599 115.065 176.599 115.065ZM176.586 115.048C176.586 115.043 176.582 115.04 176.582 115.035C176.582 115.04 176.586 115.043 176.586 115.048ZM176.573 115.026C176.569 115.022 176.569 115.022 176.569 115.018C176.569 115.022 176.569 115.022 176.573 115.026ZM176.561 115.009C176.561 115.005 176.556 115.005 176.556 115C176.556 115 176.561 115.005 176.561 115.009ZM176.548 114.992C176.548 114.988 176.548 114.988 176.543 114.983C176.548 114.988 176.548 114.988 176.548 114.992ZM176.534 114.975C176.534 114.971 176.534 114.971 176.531 114.966C176.534 114.971 176.534 114.971 176.534 114.975ZM176.522 114.949C176.517 114.949 176.517 114.949 176.517 114.945C176.517 114.949 176.517 114.949 176.522 114.949ZM176.509 114.931C176.504 114.931 176.504 114.928 176.504 114.928C176.504 114.928 176.504 114.931 176.509 114.931ZM176.495 114.915C176.491 114.915 176.491 114.91 176.491 114.91C176.491 114.91 176.491 114.915 176.495 114.915ZM176.483 114.897C176.479 114.897 176.479 114.893 176.479 114.893C176.479 114.893 176.479 114.897 176.483 114.897ZM176.466 114.88C176.466 114.876 176.466 114.876 176.466 114.876C176.466 114.876 176.466 114.876 176.466 114.88ZM176.452 114.858H176.449H176.452ZM176.44 114.841C176.436 114.841 176.436 114.841 176.436 114.837C176.436 114.841 176.436 114.841 176.44 114.841ZM176.422 114.824C176.422 114.824 176.422 114.824 176.422 114.819C176.422 114.824 176.422 114.824 176.422 114.824ZM176.409 114.807C176.409 114.807 176.409 114.807 176.406 114.802C176.409 114.807 176.409 114.807 176.409 114.807ZM176.379 114.767H176.375H176.379ZM176.363 114.755C176.363 114.751 176.363 114.751 176.363 114.751C176.363 114.751 176.363 114.751 176.363 114.755ZM176.349 114.738C176.349 114.733 176.345 114.733 176.345 114.733C176.345 114.733 176.349 114.733 176.349 114.738ZM176.333 114.721C176.333 114.716 176.333 114.716 176.333 114.716C176.333 114.716 176.333 114.716 176.333 114.721ZM176.285 114.664H176.281H176.285ZM176.267 114.648C176.267 114.648 176.267 114.648 176.263 114.648C176.267 114.648 176.267 114.648 176.267 114.648ZM176.216 114.596C176.216 114.596 176.216 114.596 176.211 114.596C176.216 114.596 176.216 114.596 176.216 114.596ZM176.199 114.583C176.199 114.578 176.199 114.578 176.194 114.578C176.199 114.578 176.199 114.578 176.199 114.583ZM176.181 114.566C176.181 114.566 176.181 114.561 176.177 114.561C176.181 114.561 176.181 114.566 176.181 114.566ZM176.164 114.548C176.164 114.548 176.164 114.548 176.164 114.544C176.164 114.548 176.164 114.548 176.164 114.548ZM176.13 114.514C176.126 114.514 176.126 114.514 176.126 114.509C176.126 114.514 176.126 114.514 176.13 114.514ZM176.112 114.497C176.108 114.497 176.108 114.497 176.104 114.497C176.108 114.497 176.108 114.497 176.112 114.497ZM176.091 114.484C176.091 114.479 176.091 114.479 176.087 114.479C176.091 114.479 176.091 114.479 176.091 114.484ZM176.052 114.45L176.048 114.445L176.052 114.45ZM176.035 114.432C176.03 114.432 176.03 114.432 176.03 114.427C176.03 114.432 176.03 114.432 176.035 114.432ZM176.018 114.419C176.013 114.415 176.013 114.415 176.009 114.415C176.013 114.415 176.013 114.415 176.018 114.419ZM175.996 114.402L175.992 114.397L175.996 114.402Z" fill="#BFDADD"/>
<path d="M170.75 123.001C170.345 123.001 169.905 122.945 169.437 122.807C171.913 121.425 178.063 118.741 175.975 114.386C175.979 114.39 175.987 114.395 175.992 114.399L175.996 114.403C176.001 114.408 176.005 114.412 176.009 114.417C176.013 114.417 176.013 114.417 176.018 114.42C176.023 114.424 176.026 114.424 176.031 114.429C176.031 114.433 176.031 114.433 176.035 114.433C176.039 114.438 176.044 114.442 176.048 114.447L176.053 114.451C176.057 114.455 176.065 114.459 176.069 114.463C176.078 114.472 176.083 114.476 176.087 114.481C176.091 114.481 176.091 114.481 176.091 114.485C176.095 114.49 176.099 114.494 176.104 114.498C176.108 114.498 176.108 114.498 176.112 114.498C176.117 114.502 176.121 114.506 176.126 114.511C176.126 114.515 176.126 114.515 176.13 114.515C176.138 114.528 176.151 114.536 176.164 114.545C176.164 114.55 176.164 114.55 176.164 114.55C176.169 114.554 176.173 114.558 176.177 114.563C176.181 114.563 176.181 114.567 176.181 114.567C176.186 114.571 176.19 114.576 176.194 114.58C176.199 114.58 176.199 114.58 176.199 114.584C176.203 114.588 176.208 114.593 176.211 114.597C176.216 114.597 176.216 114.597 176.216 114.597C176.229 114.61 176.237 114.623 176.251 114.632C176.254 114.636 176.259 114.645 176.263 114.649C176.267 114.649 176.267 114.649 176.267 114.649C176.272 114.657 176.276 114.662 176.281 114.666H176.285C176.29 114.675 176.293 114.679 176.297 114.683C176.311 114.696 176.319 114.705 176.333 114.718C176.333 114.718 176.333 114.718 176.333 114.722C176.336 114.727 176.341 114.731 176.345 114.735C176.345 114.735 176.349 114.735 176.349 114.739C176.354 114.743 176.358 114.748 176.363 114.752C176.363 114.752 176.363 114.752 176.363 114.757C176.367 114.761 176.371 114.765 176.375 114.769H176.379C176.388 114.782 176.397 114.795 176.406 114.803C176.409 114.809 176.409 114.809 176.409 114.809C176.415 114.813 176.418 114.817 176.422 114.821C176.422 114.825 176.422 114.825 176.422 114.825C176.427 114.83 176.431 114.834 176.436 114.838C176.436 114.843 176.436 114.843 176.44 114.843C176.444 114.847 176.444 114.855 176.449 114.86H176.452C176.457 114.864 176.461 114.873 176.466 114.877C176.466 114.877 176.466 114.877 176.466 114.882C176.47 114.885 176.475 114.891 176.479 114.894C176.479 114.894 176.479 114.898 176.483 114.898C176.483 114.903 176.487 114.907 176.491 114.912C176.491 114.912 176.491 114.916 176.496 114.916C176.496 114.92 176.5 114.925 176.504 114.929C176.504 114.929 176.504 114.933 176.509 114.933C176.513 114.937 176.513 114.942 176.518 114.946C176.518 114.95 176.518 114.95 176.522 114.95C176.526 114.955 176.526 114.964 176.531 114.967C176.534 114.972 176.534 114.972 176.534 114.976C176.539 114.976 176.543 114.98 176.543 114.985C176.548 114.989 176.548 114.989 176.548 114.994C176.552 114.994 176.552 114.998 176.556 115.001C176.556 115.007 176.561 115.007 176.561 115.01C176.565 115.01 176.565 115.015 176.569 115.019C176.569 115.024 176.569 115.024 176.573 115.028C176.573 115.032 176.578 115.032 176.582 115.037C176.582 115.041 176.586 115.045 176.586 115.049C176.591 115.053 176.591 115.058 176.595 115.058C176.595 115.062 176.6 115.067 176.6 115.067C176.604 115.071 176.604 115.076 176.604 115.076C176.607 115.08 176.607 115.083 176.613 115.089C176.613 115.089 176.613 115.092 176.616 115.092C176.616 115.097 176.621 115.101 176.621 115.105C176.625 115.105 176.625 115.11 176.625 115.11C176.634 115.123 176.642 115.135 176.651 115.149V115.153C176.655 115.157 176.655 115.161 176.659 115.165V115.17C176.664 115.174 176.664 115.179 176.668 115.183C176.668 115.183 176.668 115.183 176.673 115.187C176.673 115.192 176.677 115.196 176.677 115.2C176.689 115.222 176.703 115.243 176.711 115.26C176.711 115.265 176.711 115.265 176.711 115.265C176.716 115.269 176.72 115.274 176.72 115.277C177.947 117.69 174.855 121.471 171.947 122.841C171.581 122.936 171.185 123.001 170.75 123.001Z" fill="#E47E58"/>
<path d="M14.958 95.9455L13.0923 95.4374L13.1531 95.2393L14.9791 95.7439C14.9747 95.8126 14.9659 95.8769 14.958 95.9455Z" fill="#F2E3DD"/>
<path d="M57.3201 107.509L14.9575 95.9438C14.9655 95.8752 14.9742 95.8109 14.9786 95.7422L57.3201 107.432C57.3201 107.457 57.3201 107.484 57.3201 107.509Z" fill="#2F2547"/>
<path d="M81.6951 114.164L57.3203 107.509C57.3203 107.484 57.3203 107.457 57.3203 107.432L70.6122 111.101L81.6951 114.164Z" fill="#BFDADD"/>
<path d="M16.7617 83.4541L17.0762 82.4209C17.1026 82.4253 17.1281 82.4332 17.1536 82.442L16.7617 83.4541Z" fill="#F2E3DD"/>
<path d="M70.6122 111.103L57.3203 107.434L14.9788 95.744L13.1528 95.2394L16.7617 83.4545L17.1536 82.4424C23.3874 84.1697 39.337 99.3361 70.8413 108.799C70.7374 109.622 70.6599 110.393 70.6122 111.103Z" fill="#E47E58"/>
<path d="M81.8376 114.205L81.6948 114.166L81.8376 114.205Z" fill="#E47E58"/>
<path d="M170.03 123.315C169.518 123.315 169.148 123.229 169.148 123.229L168.911 123.117C169.057 123.022 169.234 122.919 169.437 122.807C169.905 122.945 170.345 123.001 170.75 123.001C171.185 123.001 171.581 122.936 171.947 122.841C171.805 122.911 171.663 122.97 171.525 123.027C171.379 123.082 171.237 123.13 171.099 123.173C170.724 123.281 170.349 123.315 170.03 123.315Z" fill="#A25D41"/>
<path d="M160.27 131.769L159.18 131.145C159.284 130.938 159.374 130.727 159.456 130.507C160.549 131.05 161.481 131.481 162.785 131.528C162.411 131.58 162.023 131.606 161.627 131.606C161.157 131.606 160.674 131.567 160.179 131.493C160.214 131.58 160.244 131.67 160.27 131.769Z" fill="#A25D41"/>
<path d="M152.043 139.711C152.03 139.441 151.625 139.049 150.94 138.566C151.018 138.428 151.052 138.307 151.069 138.204C152.048 138.726 153.025 139.121 154.055 139.173C153.822 139.199 153.581 139.212 153.335 139.212C152.918 139.212 152.478 139.173 152.021 139.091C152.043 139.302 152.048 139.505 152.043 139.711Z" fill="#A25D41"/>
<path d="M135.352 93.692C132.143 96.3407 108.754 105.678 105.282 101.781C102.905 99.1056 111.985 92.0932 117.911 87.9629C122.874 89.6902 128.175 90.8494 132.009 91.0379C133.129 91.947 135.352 93.692 135.352 93.692Z" fill="#C27655"/>
<path d="M80.9411 111.49C77.4142 110.667 74.0449 109.763 70.8413 108.798C72.1802 98.3698 78.0255 80.176 85.6836 77.5439L96.3665 82.6185C96.4484 83.4967 96.4695 84.4622 96.4264 85.4955C86.36 89.2734 78.8869 100.967 80.9411 111.49Z" fill="#E47E58"/>
<path d="M85.7011 112.681C85.5461 112.599 85.3866 112.517 85.2317 112.435C83.7755 112.134 82.346 111.819 80.941 111.492C78.8869 100.969 86.36 89.275 96.4263 85.4971C96.1074 93.651 92.0713 106.06 85.7011 112.681Z" fill="#E47E58"/>
<path d="M81.6951 114.165L70.6123 111.102C70.6599 110.391 70.7375 109.621 70.8414 108.798C74.045 109.762 77.4142 110.667 80.9412 111.49C80.9976 111.774 81.0628 112.054 81.1314 112.339C81.2821 112.959 81.4714 113.566 81.6951 114.165Z" fill="#D8704C"/>
<path d="M83.491 114.66L81.8376 114.204L81.6949 114.165C81.4712 113.566 81.2818 112.959 81.1312 112.339C81.0626 112.055 80.9973 111.775 80.9409 111.49C82.3459 111.818 83.7754 112.132 85.2316 112.434C85.3865 112.515 85.546 112.597 85.701 112.679C84.9946 113.416 84.2538 114.079 83.491 114.66Z" fill="#D8704C"/>
<path d="M93.5054 137.097C93.4632 137.097 93.4201 137.093 93.3769 137.089C90.0772 136.805 86.1231 134.268 85.6836 130.576L86.2482 121.294C86.2482 121.294 89.0651 121.544 91.7358 122.771C91.8953 122.84 92.0371 122.952 92.171 123.103C94.1264 125.308 93.605 135.417 93.5054 137.097Z" fill="#0096ED"/>
<path d="M94.5915 120.733L92.1709 123.103C94.1263 125.308 93.6049 135.417 93.5053 137.097C94.794 137.188 95.9779 136.929 96.7971 136.253C99.7039 133.854 97.6841 124.094 94.5915 120.733Z" fill="#0084D1"/>
<path d="M94.5145 120.647C92.1969 119.61 90.2758 119.398 89.0056 119.592C87.2008 120.277 86.2485 121.294 86.2485 121.294C86.2485 121.294 89.0654 121.544 91.7362 122.771C91.8957 122.84 92.0374 122.952 92.1714 123.103L94.592 120.733L94.5145 120.647Z" fill="#00A1FF"/>
<path d="M88.3075 133.603C86.4374 132.768 86.4673 130.063 86.4673 130.063L86.6832 122.456L88.6166 123.408C88.6166 123.408 89.2464 129.215 88.3075 133.603Z" fill="#CCEAFB"/>
<path d="M104.373 142.465C104.335 142.461 104.291 142.458 104.248 142.453C100.949 142.169 96.9944 139.636 96.5557 135.94L97.1194 126.662C97.1194 126.662 99.9373 126.912 102.607 128.135C102.762 128.208 102.908 128.32 103.042 128.471C104.993 130.672 104.477 140.781 104.373 142.465Z" fill="#0096ED"/>
<path d="M105.463 126.097L103.042 128.471C104.993 130.671 104.477 140.78 104.373 142.464C105.665 142.555 106.845 142.293 107.668 141.621C110.576 139.221 108.551 129.456 105.463 126.097Z" fill="#0084D1"/>
<path d="M105.386 126.014C103.068 124.977 101.147 124.761 99.8768 124.955C98.0719 125.64 97.1196 126.661 97.1196 126.661C97.1196 126.661 99.9376 126.911 102.607 128.134C102.767 128.207 102.909 128.319 103.042 128.47L105.463 126.096L105.386 126.014Z" fill="#00A1FF"/>
<path d="M99.1698 138.666C97.3007 137.831 97.3306 135.126 97.3306 135.126L97.5499 127.519L99.5785 128.001C99.5785 128.001 100.109 134.273 99.1698 138.666Z" fill="#CCEAFB"/>
<path d="M115.697 146.565C115.654 146.565 115.615 146.561 115.572 146.557C112.269 146.273 108.318 143.736 107.879 140.04L108.444 130.762C108.444 130.762 111.256 131.012 113.931 132.234C114.086 132.308 114.232 132.42 114.362 132.571C116.317 134.772 115.8 144.885 115.697 146.565Z" fill="#0096ED"/>
<path d="M116.787 130.201L114.367 132.57C116.318 134.771 115.801 144.884 115.698 146.564C116.99 146.655 118.17 146.396 118.988 145.72C121.901 143.321 119.876 133.561 116.787 130.201Z" fill="#0084D1"/>
<path d="M116.709 130.114C114.392 129.076 112.471 128.865 111.196 129.058C109.396 129.739 108.443 130.76 108.443 130.76C108.443 130.76 111.256 131.01 113.931 132.233C114.086 132.307 114.232 132.419 114.366 132.569L116.787 130.201L116.709 130.114Z" fill="#00A1FF"/>
<path d="M110.468 143.076C108.599 142.24 108.629 139.535 108.629 139.535L108.844 131.928L110.877 132.41C110.877 132.41 111.408 138.682 110.468 143.076Z" fill="#CCEAFB"/>
<path d="M127.745 149.477C127.706 149.473 127.667 149.473 127.624 149.469C124.533 149.197 120.823 146.824 120.415 143.357L120.94 134.656C120.94 134.656 123.58 134.893 126.087 136.038C126.234 136.107 126.371 136.211 126.491 136.353C128.326 138.417 127.84 147.896 127.745 149.477Z" fill="#0096ED"/>
<path d="M128.766 134.131L126.491 136.353C128.326 138.417 127.84 147.897 127.745 149.478C128.955 149.56 130.062 149.318 130.829 148.685C133.56 146.437 131.665 137.28 128.766 134.131Z" fill="#0084D1"/>
<path d="M128.693 134.054C126.518 133.08 124.717 132.878 123.524 133.063C121.835 133.7 120.939 134.657 120.939 134.657C120.939 134.657 123.58 134.894 126.087 136.039C126.233 136.108 126.371 136.212 126.491 136.354L128.766 134.131L128.693 134.054Z" fill="#00A1FF"/>
<path d="M122.964 145.902C121.323 145.165 121.348 142.792 121.348 142.792L121.543 136.12L123.321 136.543C123.321 136.543 123.786 142.047 122.964 145.902Z" fill="#CCEAFB"/>
<path d="M154.287 79.0536C153.705 80.6515 152.223 81.7499 150.979 81.5129C149.734 81.2716 149.196 79.7856 149.781 78.1878C150.363 76.5899 151.845 75.4915 153.089 75.7284C154.334 75.9698 154.872 77.4548 154.287 79.0536Z" fill="#283D5C"/>
<path d="M153.443 75.8203C153.598 75.8591 157.573 78.211 159.344 80.5716C157.866 82.9147 155.872 85.8311 155.872 85.8311L150.316 81.2216L153.443 75.8203Z" fill="#283D5C"/>
<path d="M159.856 83.5877C159.275 85.1856 157.794 86.284 156.549 86.0427C155.303 85.8058 154.765 84.3152 155.346 82.7219C155.933 81.124 157.415 80.0213 158.659 80.2626C159.904 80.5031 160.442 81.9899 159.856 83.5877Z" fill="#283D5C"/>
<path d="M158.792 83.3719C158.478 84.2333 157.681 84.8235 157.009 84.6949C156.337 84.5654 156.049 83.7639 156.364 82.9025C156.677 82.0454 157.474 81.4508 158.147 81.5802C158.819 81.7097 159.107 82.5104 158.792 83.3719Z" fill="#3B5A87"/>
<path d="M158.306 83.2778C158.121 83.7949 157.638 84.1517 157.237 84.0742C156.832 83.9966 156.661 83.5149 156.85 82.9978C157.035 82.4807 157.518 82.1275 157.918 82.205C158.323 82.2781 158.495 82.7608 158.306 83.2778Z" fill="#283D5C"/>
<path d="M157.247 80.0653C157.268 80.9479 156.898 82.4384 156.436 83.9375L140.577 91.2689C140.439 91.2301 140.37 91.2036 140.37 91.2036L135.167 86.3449L133.22 84.5276C133.22 84.5276 135.184 76.1156 135.917 74.0473V74.0439C136.231 74.0395 141.154 73.4703 148.842 74.1336C150.562 74.6251 155.592 76.9938 157.057 79.6945C157.122 79.8152 157.186 79.9402 157.247 80.0653Z" fill="#0096ED"/>
<path d="M157.246 80.0645C157.267 80.9471 156.897 82.4376 156.436 83.9367C156.1 85.0219 155.713 86.1115 155.394 86.973C148.77 89.4755 140.744 91.3191 140.577 91.2681C140.439 91.2293 140.37 91.2028 140.37 91.2028L135.167 86.3441C136.321 82.1619 143.803 79.7544 143.803 79.7544C143.803 79.7544 144.035 79.7457 144.449 79.7369C146.336 79.6893 152.017 79.573 157.057 79.6937C157.121 79.8144 157.186 79.9394 157.246 80.0645Z" fill="#0084D1"/>
<path d="M144.45 79.7367C144.445 79.771 144.45 79.7543 144.45 79.7367C144.454 79.72 144.454 79.7023 144.45 79.7367C143.876 83.7428 142.499 87.563 140.577 91.2679C140.439 91.2291 140.37 91.2027 140.37 91.2027C137.773 89.3379 135.27 87.3137 133.22 84.5267C133.22 84.5267 135.184 76.1146 135.917 74.0463V74.043C138.303 74.4349 142.283 77.4579 144.45 79.7367Z" fill="#046CA8"/>
<path d="M141.529 76.1233C140.241 74.9307 138.144 74.3538 138.144 74.3538C139.526 74.1468 141.24 74.0693 143.17 74.0693C144.29 74.0693 145.479 74.0949 146.72 74.1425C146.72 74.1425 142.709 74.7325 141.529 76.1233Z" fill="#CCEAFB"/>
<path d="M136.359 79.1335C135.718 80.8 134.137 81.9284 132.836 81.6527C131.531 81.377 130.997 79.8046 131.639 78.1381C132.28 76.4706 133.861 75.3423 135.162 75.6188C136.468 75.8937 137.002 77.466 136.359 79.1335Z" fill="#283D5C"/>
<path d="M135.533 75.7266C135.696 75.7698 139.828 78.3145 141.645 80.8258C140.047 83.2639 137.863 86.176 137.863 86.176L132.143 81.3384L135.533 75.7266Z" fill="#283D5C"/>
<path d="M142.102 83.9884C141.455 85.6549 139.88 86.7833 138.574 86.5076C137.269 86.2319 136.735 84.6604 137.376 82.9931C138.023 81.3256 139.6 80.198 140.904 80.4729C142.21 80.7486 142.743 82.3209 142.102 83.9884Z" fill="#283D5C"/>
<path d="M141.038 83.7636C140.685 84.6815 139.814 85.3016 139.099 85.151C138.385 85.0004 138.087 84.1345 138.44 83.2166C138.794 82.2997 139.664 81.6795 140.379 81.8302C141.093 81.9852 141.391 82.851 141.038 83.7636Z" fill="#3B5A87"/>
<path d="M140.555 83.664C140.336 84.241 139.789 84.6285 139.336 84.5343C138.884 84.4392 138.699 83.8965 138.923 83.3196C139.142 82.7417 139.69 82.3498 140.142 82.4449C140.594 82.54 140.779 83.0862 140.555 83.664Z" fill="#283D5C"/>
<path d="M139.039 78.6333C135.637 79.5811 130.709 82.9581 130.623 83.0181H130.618C128.969 80.7702 122.706 77.7981 120.026 78.3196L120.031 78.3144C122.671 76.2813 127.323 74.2572 131.605 73.7666H131.609C131.609 73.7666 136.257 74.3823 139.039 78.6333Z" fill="#0096ED"/>
<path d="M130.618 83.0185L129.873 91.9221L129.86 91.9133C129.145 91.5125 122.218 87.3268 120.866 85.6937C120.194 84.8886 119.957 79.5946 120.026 78.32C122.706 77.7986 128.968 80.7706 130.618 83.0185Z" fill="#046CA8"/>
<path d="M139.039 78.6338C139.21 79.8097 138.599 84.8755 137.931 86.7366L129.873 91.9222L130.618 83.0186H130.622C130.708 82.9587 135.636 79.586 139.039 78.6338Z" fill="#0084D1"/>
<path d="M122.697 82.607C122.451 84.1097 121.168 85.1526 119.828 84.9368C118.489 84.7175 117.601 83.3266 117.843 81.823C118.084 80.3194 119.368 79.273 120.712 79.4931C122.052 79.708 122.939 81.1042 122.697 82.607Z" fill="#283D5C"/>
<path d="M121.095 79.5781C121.263 79.6124 125.406 81.4172 128.745 83.5621C127.741 85.7722 126.673 88.7231 126.673 88.7231L119.01 84.6307L121.095 79.5781Z" fill="#283D5C"/>
<path d="M129.713 86.535C129.472 88.0378 128.473 89.1274 127.482 88.9679C126.496 88.8093 125.892 87.4607 126.134 85.9572C126.379 84.4501 127.375 83.3649 128.365 83.5243C129.351 83.6828 129.959 85.0314 129.713 86.535Z" fill="#283D5C"/>
<path d="M128.857 86.397C128.731 87.1764 128.21 87.7456 127.694 87.6636C127.181 87.5773 126.867 86.8752 126.992 86.0956C127.12 85.3118 127.637 84.7426 128.155 84.829C128.667 84.9109 128.982 85.613 128.857 86.397Z" fill="#3B5A87"/>
<path d="M128.451 86.3279C128.378 86.7719 128.085 87.0943 127.797 87.0476C127.504 87 127.328 86.6036 127.396 86.1597C127.469 85.7166 127.763 85.3933 128.056 85.44C128.344 85.4875 128.525 85.8884 128.451 86.3279Z" fill="#283D5C"/>
<path d="M125.04 78.5431C123.856 77.9881 122.038 77.9494 121.538 77.9494C121.456 77.9494 121.409 77.9538 121.409 77.9538C126.03 74.9043 131.527 74.1548 131.621 74.1504C131.63 74.1504 131.639 74.1504 131.648 74.1504C132.492 74.1504 134.723 75.1449 134.408 75.1493C131.992 75.2655 126.828 77.1742 125.04 78.5431Z" fill="#CCEAFB"/>
<path d="M127.414 85.0245C127.551 85.598 126.345 87.4716 112.726 95.3022C104.735 96.8658 103.348 93.1698 103.348 93.1698C103.348 93.1698 109.577 86.1793 115.529 81.1955C116.06 80.7516 116.589 80.3252 117.11 79.9201C123.157 79.6099 127.414 85.0245 127.414 85.0245Z" fill="#0096ED"/>
<path d="M127.414 85.0293L127.624 93.4248C123.166 96.1765 114.595 100.747 113.815 100.863C113.738 100.877 113.66 100.889 113.583 100.898C102.001 102.509 103.348 93.1702 103.348 93.1702C103.348 93.1702 104.736 96.8662 112.726 95.3026C112.778 95.2718 112.824 95.2419 112.876 95.2163C124.881 88.3501 127.414 85.0293 127.414 85.0293Z" fill="#00A1FF"/>
<path d="M127.414 85.0293L127.624 93.4203C123.166 96.1764 114.595 100.747 113.815 100.863C113.738 100.877 113.66 100.889 113.582 100.898C114.129 99.825 114.151 98.072 112.876 95.2163C124.88 88.3501 127.414 85.0293 127.414 85.0293Z" fill="#0084D1"/>
<path d="M106.415 93.6157C105.579 93.6157 104.86 93.3055 104.61 92.8827C108.69 88.7348 112.639 84.9578 116.274 82.0801C116.274 82.0801 119.096 82.1108 120.78 83.196C116.486 86.4993 108.164 93.1153 108.164 93.1153C107.609 93.4729 106.984 93.6157 106.415 93.6157Z" fill="#CCEAFB"/>
<path d="M67.6058 58.1663L60.611 53.6133C60.611 53.6133 58.6942 80.9178 51.5269 93.6628C68.6787 100.998 71.9863 101.817 71.9863 101.817C71.9863 101.817 76.453 66.7811 67.6058 58.1663Z" fill="#0D1E36"/>
<path d="M84.6114 68.2676C84.7531 88.9429 78.0042 104.479 65.5119 115.73L54.2828 112.478L42.8777 109.179L0.448508 96.9072C-2.47928 75.3217 9.36446 53.8527 23.229 39.6582L63.4191 58.3907H63.4235L76.5992 64.5328L84.6114 68.2676Z" fill="#224F8C"/>
<path d="M76.5994 64.5318L76.7976 72.3546C76.7976 72.3546 66.9638 106.55 54.2831 112.477L42.8779 109.178C60.6411 92.9734 63.4193 58.3896 63.4193 58.3896H63.4237L76.5994 64.5318Z" fill="#0D1E36"/>
<path d="M87.8249 71.3036L72.1115 58.7217C73.7525 65.7553 66.615 100.563 51.897 108.394C67.1233 112.796 71.5045 114.062 71.5045 114.062C77.4142 110.729 93.2906 90.8417 87.8249 71.3036Z" fill="white"/>
<path d="M84.357 66.3588L66.2151 51.8301C68.1142 59.9497 59.8703 100.141 42.8779 109.178C60.4597 114.265 65.5166 115.729 65.5166 115.729C72.3397 111.878 90.6718 88.9165 84.357 66.3588Z" fill="#224F8C"/>
<path d="M74.903 105.513C74.9118 105.913 74.593 106.249 74.1921 106.258C73.7914 106.27 73.4557 105.952 73.447 105.552C73.4382 105.146 73.7526 104.815 74.1578 104.802C74.5585 104.793 74.8898 105.112 74.903 105.513Z" fill="#153157"/>
<path d="M69.6134 103.66C69.6865 106.611 67.3557 109.061 64.4014 109.134C61.4506 109.213 59.0001 106.878 58.927 103.927C58.8538 100.977 61.1837 98.522 64.1345 98.448C67.0888 98.3748 69.5403 100.709 69.6134 103.66Z" fill="#0D1E36"/>
<path d="M62.9976 101.847C63.0099 102.312 62.6399 102.7 62.1705 102.712C61.7054 102.725 61.3177 102.354 61.3045 101.886C61.2914 101.421 61.6622 101.032 62.1273 101.02C62.5969 101.007 62.9844 101.378 62.9976 101.847Z" fill="#153157"/>
<path d="M66.9384 101.749C66.9516 102.214 66.5808 102.602 66.1112 102.615C65.6461 102.628 65.2586 102.257 65.2454 101.792C65.2331 101.323 65.603 100.935 66.0681 100.922C66.5376 100.909 66.9251 101.28 66.9384 101.749Z" fill="#153157"/>
<path d="M63.0916 105.737C63.1048 106.207 62.7339 106.594 62.2688 106.607C61.8002 106.616 61.4118 106.25 61.3986 105.78C61.3906 105.315 61.7562 104.923 62.2266 104.914C62.6917 104.902 63.0836 105.272 63.0916 105.737Z" fill="#153157"/>
<path d="M67.3345 105.631C67.3477 106.096 66.9769 106.484 66.5074 106.497C66.0423 106.51 65.6548 106.139 65.6415 105.674C65.6283 105.205 65.9991 104.817 66.4642 104.804C66.9338 104.791 67.3213 105.162 67.3345 105.631Z" fill="#153157"/>
<path d="M235.765 53.0061H235.761C234.92 51.7781 230.312 48.2116 229.704 47.2726L238.912 42.417C239.826 45.0436 240.568 47.7758 241.147 50.5904C238.051 52.0086 235.847 53.0061 235.765 53.0061Z" fill="#91D7FF"/>
<path d="M195.495 72.3987L190.274 68.0782L221.051 51.749C221.145 51.8997 225.056 55.6301 226.447 57.4825L195.495 72.3987Z" fill="#91D7FF"/>
<path d="M211.649 153.985C216.462 155.937 219.868 160.644 219.901 166.163C219.948 173.477 214.064 179.43 206.76 179.478C203.118 179.499 199.814 178.05 197.409 175.687C194.426 179.226 191.111 182.632 187.45 185.702C189.96 188.183 192.954 190.181 196.275 191.547V191.534L196.61 190.741L197.412 188.785C200.311 189.979 203.49 190.629 206.824 190.612L206.845 193.606C210.519 193.584 214.03 192.835 217.218 191.49L216.068 188.73C219.078 187.489 221.766 185.646 224.019 183.375L226.143 185.474C228.623 182.962 230.622 179.968 231.987 176.647L229.222 175.51C230.419 172.611 231.07 169.429 231.048 166.095L234.042 166.077C234.02 162.403 233.275 158.893 231.927 155.705L229.17 156.856C227.926 153.845 226.086 151.157 223.816 148.904L225.91 146.78C223.494 144.382 220.628 142.447 217.452 141.088C216.349 143.962 214.433 148.576 211.649 153.985Z" fill="#DADFE3"/>
<path d="M29.3315 167.481C34.1084 175.76 34.2326 184.974 26.785 189.273C19.3427 193.571 9.43142 190.345 4.65018 182.071C-0.126653 173.792 2.03583 163.597 9.47892 159.297C16.9257 154.999 24.5493 159.203 29.3315 167.481Z" fill="#DADFE3"/>
</svg>
