<svg width="219" height="207" viewBox="0 0 219 207" fill="none" xmlns="http://www.w3.org/2000/svg">
<path d="M29.8849 175.581L24.7931 172.078C24.7931 172.078 21.8514 176.353 17.356 173.372C15.0211 171.825 14.8648 169.49 15.1754 167.998C15.5361 166.265 16.7614 164.85 18.3757 164.123C20.219 163.294 23.0021 163.301 26.0175 166.267L33.917 154.786L28.8822 151.322L24.255 158.047C24.255 158.047 15.9376 155.014 10.5833 162.796C5.46021 170.241 10.9473 176.565 13.8054 178.532C15.9911 180.035 23.8003 184.63 29.8849 175.581Z" fill="#EBEBEB"/>
<path d="M33.7324 144.142L38.842 147.657L35.5585 152.43L30.4487 148.914L33.7324 144.142Z" fill="#EBEBEB"/>
<path d="M51.5946 189.666L54.2985 188.953C54.2985 188.953 53.6995 186.683 56.0481 186.02C57.2679 185.675 58.115 186.31 58.5352 186.857C59.0233 187.492 59.1472 188.33 58.9203 189.098C58.6611 189.975 57.8375 190.927 55.9305 191.087L57.5387 197.184L60.2123 196.478L59.2703 192.907C59.2703 192.907 62.7643 190.949 61.6742 186.816C60.6313 182.863 56.8435 182.88 55.3257 183.28C54.1651 183.586 50.2853 184.91 51.5946 189.666Z" fill="#EBEBEB"/>
<path d="M61.2442 200.259L58.5307 200.974L57.8623 198.44L60.5757 197.725L61.2442 200.259Z" fill="#EBEBEB"/>
<path d="M96.5085 18.9411C97.8936 18.104 99.3683 17.4693 100.889 17.0372L101.792 12.7007L109.118 12.5723L110.172 16.8738C111.708 17.2522 113.204 17.8345 114.618 18.6227L118.321 16.1955L123.592 21.2854L121.297 25.0705C122.135 26.4561 122.769 27.9314 123.201 29.4524L127.537 30.3548L127.665 37.6811L123.364 38.7358C122.986 40.2708 122.403 41.7668 121.615 43.1807L124.042 46.8838L118.953 52.1554L115.167 49.8602C113.782 50.6974 112.307 51.3319 110.786 51.7638L109.883 56.1002L102.557 56.2289L101.502 51.9268C99.9671 51.5484 98.4712 50.9658 97.0572 50.178L93.3545 52.6052L88.0829 47.5154L90.3779 43.7302C89.5407 42.3446 88.9058 40.87 88.4739 39.3486L84.1379 38.4462L84.0093 31.1199L88.311 30.0651C88.6894 28.5301 89.2724 27.0341 90.0598 25.6202L87.6329 21.9172L92.7223 16.6457L96.5085 18.9411ZM100.414 28.7009C97.3984 31.8245 97.4858 36.8006 100.609 39.8159C103.733 42.8313 108.709 42.7437 111.724 39.6205C114.739 36.4972 114.652 31.5208 111.528 28.5055C108.405 25.4905 103.429 25.5779 100.414 28.7009Z" fill="#F4F4F4"/>
<path d="M65.8256 3.66832C66.6234 3.18616 67.4728 2.82054 68.3489 2.57159L68.8686 0.0740236L73.0885 0L73.6958 2.47759C74.5801 2.69545 75.442 3.03092 76.2562 3.48482L78.389 2.08685L81.4252 5.01862L80.1033 7.19864C80.5857 7.99671 80.9512 8.84639 81.1999 9.72242L83.6971 10.2422L83.7713 14.4621L81.2937 15.0694C81.0759 15.9536 80.7402 16.8153 80.2865 17.6296L81.6842 19.7625L78.753 22.7987L76.5727 21.4768C75.7746 21.959 74.9251 22.3244 74.049 22.5733L73.5291 25.071L69.3094 25.145L68.702 22.6671C67.8178 22.4493 66.9562 22.1137 66.1418 21.6599L64.0091 23.0579L60.9727 20.1262L62.2946 17.9461C61.8125 17.148 61.4467 16.2987 61.198 15.4224L58.7005 14.9027L58.6265 10.6829L61.1042 10.0754C61.322 9.19123 61.6579 8.3296 62.1114 7.51523L60.7136 5.38248L63.6449 2.34613L65.8256 3.66832ZM68.0751 9.28969C66.3382 11.0887 66.3886 13.9548 68.1877 15.6916C69.9866 17.4283 72.8527 17.3779 74.5894 15.579C76.326 13.7801 76.2759 10.9138 74.4768 9.1771C72.6779 7.44053 69.8119 7.49078 68.0751 9.28969Z" fill="#EBEBEB"/>
<path d="M200.514 82.0149C201.312 81.5327 202.161 81.1672 203.037 80.9183L203.557 78.4207L207.777 78.3467L208.384 80.8241C209.269 81.0421 210.13 81.3776 210.945 81.8315L213.077 80.4335L216.114 83.3652L214.792 85.5453C215.274 86.3434 215.64 87.1931 215.888 88.0692L218.386 88.5889L218.46 92.8086L215.982 93.4161C215.764 94.3002 215.429 95.1618 214.975 95.9763L216.373 98.1091L213.441 101.145L211.261 99.8233C210.463 100.306 209.614 100.671 208.738 100.92L208.218 103.418L203.998 103.492L203.391 101.014C202.506 100.796 201.645 100.46 200.83 100.007L198.698 101.405L195.661 98.4729L196.983 96.2927C196.501 95.4947 196.135 94.6453 195.887 93.7691L193.389 93.2493L193.315 89.0296L195.793 88.422C196.011 87.5379 196.346 86.6763 196.8 85.8619L195.402 83.7292L198.333 80.6928L200.514 82.0149ZM202.764 87.6364C201.027 89.4353 201.077 92.3015 202.876 94.0383C204.675 95.775 207.541 95.7246 209.278 93.9257C211.015 92.1268 210.964 89.2605 209.165 87.5238C207.366 85.7871 204.5 85.8375 202.764 87.6364Z" fill="#EBEBEB"/>
<path d="M211.876 206.876C211.876 206.945 166.442 207 110.409 207C54.3572 207 8.93311 206.945 8.93311 206.876C8.93311 206.807 54.3572 206.751 110.409 206.751C166.442 206.751 211.876 206.807 211.876 206.876Z" fill="#092C42"/>
<path d="M35.8705 181.042C37.1681 181.307 38.2745 182.22 38.971 183.347C39.6673 184.473 39.9883 185.797 40.1146 187.115C40.3588 189.666 39.4747 192.479 38.3715 194.792C35.8871 193.404 34.7295 190.313 34.2408 188.708C33.4683 186.171 33.613 181.117 35.8705 181.042Z" fill="#5F7684"/>
<path d="M41.6785 198.387C41.0452 197.05 41.3045 195.382 42.1817 194.191C43.0589 193 44.4826 192.273 45.9491 192.078C46.6271 191.988 47.3893 192.03 47.8875 192.499C48.3533 192.937 48.4647 193.663 48.2921 194.278C48.1194 194.894 47.7055 195.415 47.2457 195.859C45.6693 197.384 43.8638 198.57 41.6785 198.387Z" fill="#5F7684"/>
<path d="M40.6027 206.592C40.5894 206.592 40.5799 206.404 40.5694 206.065C40.5592 205.691 40.5463 205.208 40.5306 204.628C40.5181 203.424 40.4658 201.705 41.0243 199.907C41.5715 198.117 42.5625 196.674 43.4832 195.867C43.9386 195.457 44.3546 195.183 44.6555 195.022C44.8024 194.935 44.9274 194.888 45.0079 194.849C45.09 194.812 45.1342 194.796 45.137 194.802C45.1605 194.839 44.4471 195.13 43.5727 195.963C42.6918 196.78 41.7402 198.202 41.2016 199.962C40.6536 201.723 40.6824 203.422 40.6619 204.628C40.6574 205.234 40.6536 205.726 40.6417 206.065C40.63 206.405 40.615 206.592 40.6027 206.592Z" fill="#092C42"/>
<path d="M36.1002 184.897C36.1063 184.895 36.1313 184.97 36.173 185.115C36.2179 185.278 36.2755 185.488 36.3468 185.749C36.4945 186.3 36.6979 187.1 36.941 188.091C37.4274 190.074 38.0611 192.822 38.6925 195.872C39.323 198.923 39.8315 201.697 40.1713 203.709C40.3415 204.716 40.4723 205.531 40.5554 206.096C40.593 206.363 40.6236 206.578 40.6474 206.747C40.6664 206.896 40.6732 206.974 40.6669 206.976C40.6605 206.976 40.6414 206.9 40.6104 206.753C40.5778 206.586 40.5359 206.372 40.4841 206.108C40.3755 205.524 40.2255 204.718 40.042 203.732C39.6693 201.727 39.1407 198.958 38.5107 195.909C37.8797 192.861 37.2667 190.111 36.8132 188.122C36.5905 187.144 36.4085 186.345 36.2766 185.766C36.2193 185.502 36.1728 185.289 36.1367 185.123C36.1067 184.976 36.0939 184.898 36.1002 184.897Z" fill="#092C42"/>
<path d="M38.3694 200.668C37.2552 197.755 34.6482 195.459 31.6175 194.723C30.8458 194.535 29.8841 194.509 29.4181 195.152C28.9514 195.796 29.2787 196.706 29.7144 197.372C31.5271 200.142 35.1329 201.605 38.3631 200.883L38.3694 200.668Z" fill="#5F7684"/>
<path d="M32.4567 197.018C32.4597 197.006 32.6321 197.042 32.9428 197.118C33.0984 197.155 33.2888 197.202 33.5023 197.28C33.7156 197.358 33.9676 197.424 34.2275 197.546C34.4905 197.659 34.7821 197.777 35.0765 197.943C35.3803 198.091 35.6856 198.282 36.0059 198.486C36.6351 198.909 37.2898 199.435 37.8895 200.076C38.4833 200.723 38.9605 201.415 39.3318 202.077C39.5071 202.414 39.675 202.733 39.7948 203.049C39.934 203.357 40.0251 203.658 40.1127 203.931C40.2101 204.201 40.2509 204.459 40.3071 204.679C40.3643 204.899 40.3905 205.093 40.4107 205.252C40.4538 205.569 40.4714 205.745 40.4588 205.746C40.4175 205.753 40.3427 205.047 39.9877 203.971C39.8934 203.704 39.7964 203.41 39.6531 203.109C39.5293 202.801 39.3588 202.489 39.1824 202.16C38.809 201.514 38.3365 200.838 37.7534 200.203C37.1643 199.573 36.5247 199.053 35.9108 198.628C35.598 198.424 35.3004 198.23 35.0039 198.078C34.717 197.909 34.4323 197.786 34.1757 197.667C33.1381 197.211 32.4457 197.057 32.4567 197.018Z" fill="#092C42"/>
<path d="M199.416 169.554H33.5842C24.9774 169.554 18 162.577 18 153.97V39.5842C18 30.9771 24.9774 24 33.5842 24H199.416C208.023 24 215 30.9771 215 39.5842V153.97C215 162.577 208.023 169.554 199.416 169.554Z" fill="#5F7684"/>
<path d="M195.598 160.666H37.4035C31.2695 160.666 26.2974 155.694 26.2974 149.56V43.988C26.2974 37.8543 31.2695 32.8818 37.4035 32.8818H195.598C201.731 32.8818 206.704 37.8543 206.704 43.988V149.56C206.704 155.694 201.731 160.666 195.598 160.666Z" fill="white"/>
<path d="M192.674 59.4568H49.6323V54.2383H192.674V59.4568Z" fill="#E0E0E0"/>
<path d="M192.674 71.7318H49.6323V66.5137H192.674V71.7318Z" fill="#E0E0E0"/>
<path d="M192.674 84.0141H49.6323V78.7959H192.674V84.0141Z" fill="#E0E0E0"/>
<path d="M192.674 96.2898H49.6323V91.0713H192.674V96.2898Z" fill="#E0E0E0"/>
<path d="M192.674 108.569H49.6323V103.351H192.674V108.569Z" fill="#E0E0E0"/>
<path d="M192.674 120.846H49.6323V115.628H192.674V120.846Z" fill="#E0E0E0"/>
<path d="M192.674 133.126H49.6323V127.908H192.674V133.126Z" fill="#E0E0E0"/>
<path d="M64.4835 84.8486H50.5518V142.387H64.4835V84.8486Z" fill="#EBEBEB"/>
<path d="M85.7906 100.982H71.8589V142.386H85.7906V100.982Z" fill="#EBEBEB"/>
<path d="M107.098 90.9443H93.1665V142.388H107.098V90.9443Z" fill="#EBEBEB"/>
<path d="M128.405 111.737H114.473V142.385H128.405V111.737Z" fill="#EBEBEB"/>
<path d="M149.713 92.0205H135.781V142.388H149.713V92.0205Z" fill="#EBEBEB"/>
<path d="M171.02 78.7539H157.088V142.388H171.02V78.7539Z" fill="#EBEBEB"/>
<path d="M192.328 70.5059H178.396V142.386H192.328V70.5059Z" fill="#EBEBEB"/>
<path d="M39.0835 55.2021H43.8402" stroke="#EBEBEB" stroke-width="0.3528" stroke-miterlimit="10" stroke-linecap="round" stroke-linejoin="round"/>
<path d="M39.0835 62.041H43.8402" stroke="#EBEBEB" stroke-width="0.3528" stroke-miterlimit="10" stroke-linecap="round" stroke-linejoin="round"/>
<path d="M39.0835 68.8867H43.8402" stroke="#EBEBEB" stroke-width="0.3528" stroke-miterlimit="10" stroke-linecap="round" stroke-linejoin="round"/>
<path d="M39.0835 75.7266H43.8402" stroke="#EBEBEB" stroke-width="0.3528" stroke-miterlimit="10" stroke-linecap="round" stroke-linejoin="round"/>
<path d="M39.0835 82.5703H43.8402" stroke="#EBEBEB" stroke-width="0.3528" stroke-miterlimit="10" stroke-linecap="round" stroke-linejoin="round"/>
<path d="M39.0835 89.4141H43.8402" stroke="#EBEBEB" stroke-width="0.3528" stroke-miterlimit="10" stroke-linecap="round" stroke-linejoin="round"/>
<path d="M39.0835 96.2549H43.8402" stroke="#EBEBEB" stroke-width="0.3528" stroke-miterlimit="10" stroke-linecap="round" stroke-linejoin="round"/>
<path d="M39.0835 103.099H43.8402" stroke="#EBEBEB" stroke-width="0.3528" stroke-miterlimit="10" stroke-linecap="round" stroke-linejoin="round"/>
<path d="M39.0835 109.935H43.8402" stroke="#EBEBEB" stroke-width="0.3528" stroke-miterlimit="10" stroke-linecap="round" stroke-linejoin="round"/>
<path d="M39.0835 116.783H43.8402" stroke="#EBEBEB" stroke-width="0.3528" stroke-miterlimit="10" stroke-linecap="round" stroke-linejoin="round"/>
<path d="M39.0835 123.623H43.8402" stroke="#EBEBEB" stroke-width="0.3528" stroke-miterlimit="10" stroke-linecap="round" stroke-linejoin="round"/>
<path d="M39.0835 130.465H43.8402" stroke="#EBEBEB" stroke-width="0.3528" stroke-miterlimit="10" stroke-linecap="round" stroke-linejoin="round"/>
<path d="M39.0835 137.308H43.8402" stroke="#EBEBEB" stroke-width="0.3528" stroke-miterlimit="10" stroke-linecap="round" stroke-linejoin="round"/>
<path d="M39.0835 144.149H43.8402" stroke="#EBEBEB" stroke-width="0.3528" stroke-miterlimit="10" stroke-linecap="round" stroke-linejoin="round"/>
<path d="M192.718 146.105V150.862" stroke="#EBEBEB" stroke-width="0.3528" stroke-miterlimit="10" stroke-linecap="round" stroke-linejoin="round"/>
<path d="M181.358 146.105V150.862" stroke="#EBEBEB" stroke-width="0.3528" stroke-miterlimit="10" stroke-linecap="round" stroke-linejoin="round"/>
<path d="M169.998 146.105V150.862" stroke="#EBEBEB" stroke-width="0.3528" stroke-miterlimit="10" stroke-linecap="round" stroke-linejoin="round"/>
<path d="M158.636 146.105V150.862" stroke="#EBEBEB" stroke-width="0.3528" stroke-miterlimit="10" stroke-linecap="round" stroke-linejoin="round"/>
<path d="M147.276 146.105V150.862" stroke="#EBEBEB" stroke-width="0.3528" stroke-miterlimit="10" stroke-linecap="round" stroke-linejoin="round"/>
<path d="M135.915 146.105V150.862" stroke="#EBEBEB" stroke-width="0.3528" stroke-miterlimit="10" stroke-linecap="round" stroke-linejoin="round"/>
<path d="M124.554 146.105V150.862" stroke="#EBEBEB" stroke-width="0.3528" stroke-miterlimit="10" stroke-linecap="round" stroke-linejoin="round"/>
<path d="M113.194 146.105V150.862" stroke="#EBEBEB" stroke-width="0.3528" stroke-miterlimit="10" stroke-linecap="round" stroke-linejoin="round"/>
<path d="M101.833 146.105V150.862" stroke="#EBEBEB" stroke-width="0.3528" stroke-miterlimit="10" stroke-linecap="round" stroke-linejoin="round"/>
<path d="M90.4722 146.105V150.862" stroke="#EBEBEB" stroke-width="0.3528" stroke-miterlimit="10" stroke-linecap="round" stroke-linejoin="round"/>
<path d="M79.1113 146.105V150.862" stroke="#EBEBEB" stroke-width="0.3528" stroke-miterlimit="10" stroke-linecap="round" stroke-linejoin="round"/>
<path d="M67.7505 146.105V150.862" stroke="#EBEBEB" stroke-width="0.3528" stroke-miterlimit="10" stroke-linecap="round" stroke-linejoin="round"/>
<path d="M56.3901 146.105V150.862" stroke="#EBEBEB" stroke-width="0.3528" stroke-miterlimit="10" stroke-linecap="round" stroke-linejoin="round"/>
<path d="M45.0288 146.105V150.862" stroke="#EBEBEB" stroke-width="0.3528" stroke-miterlimit="10" stroke-linecap="round" stroke-linejoin="round"/>
<path d="M131.836 47.5925H99.9668V42.3604H131.836V47.5925Z" fill="#EBEBEB"/>
<path d="M47.6844 56.6185L45.911 51.0871C47.7136 48.161 48.7556 44.7162 48.7556 41.0273C48.7556 30.4185 40.1554 21.8184 29.5467 21.8184C18.9378 21.8184 10.3379 30.4185 10.3379 41.0273C10.3379 51.636 18.9378 60.2362 29.5467 60.2362C33.9765 60.2362 38.0528 58.7327 41.3023 56.2136L41.2957 56.2222L47.6844 56.6185Z" fill="#F9F9F9"/>
<path d="M47.6844 56.6181C47.6844 56.6181 47.5529 56.6154 47.2824 56.602C47.0018 56.5873 46.5983 56.5664 46.0687 56.5388C44.9785 56.4788 43.3772 56.3905 41.2925 56.2757C41.2628 56.2741 41.24 56.2486 41.2416 56.2189C41.2423 56.2077 41.2466 56.1969 41.253 56.1885L41.2595 56.1801L41.3356 56.256C39.3745 57.7832 36.4666 59.435 32.6635 60.0649C31.718 60.2242 30.7223 60.3143 29.6903 60.3217C28.6606 60.2794 27.5881 60.2756 26.5037 60.0679C24.3314 59.7283 22.074 58.9909 19.9429 57.7682C17.813 56.5508 15.8138 54.851 14.1914 52.7223C12.5678 50.5986 11.327 48.0438 10.6946 45.2481C10.0477 42.4572 10.0562 39.4268 10.7711 36.4927C10.865 36.1269 10.9593 35.7602 11.0538 35.3924C11.1619 35.0289 11.3088 34.6761 11.4349 34.3161C11.5773 33.9621 11.6725 33.5873 11.8549 33.2481C12.0214 32.9023 12.1885 32.5556 12.3558 32.2079C12.5097 31.853 12.7188 31.5271 12.9205 31.1959L13.5275 30.2007L14.2287 29.2627L14.5806 28.7921C14.7008 28.6375 14.8411 28.4991 14.9707 28.3515C17.0817 25.9501 19.719 24.0687 22.6049 23.0002C25.476 21.9007 28.5287 21.5219 31.4261 21.7934C34.3282 22.0695 37.0539 23.0309 39.3825 24.417C41.7161 25.8057 43.6529 27.6279 45.1159 29.6324C46.5841 31.638 47.5772 33.8224 48.1556 35.9632C48.4717 37.0306 48.6058 38.1007 48.7476 39.1284C48.7921 40.1655 48.8792 41.1658 48.8031 42.1268C48.5755 45.9869 47.2465 49.0422 45.9552 51.1138L45.9605 51.0709C46.5243 52.875 46.9583 54.2641 47.2545 55.212C47.3966 55.6716 47.505 56.0224 47.5806 56.2673C47.6529 56.5028 47.6844 56.6181 47.6844 56.6181C47.6844 56.6181 47.6384 56.4915 47.5581 56.2517C47.4763 56.0052 47.3591 55.6522 47.2055 55.1896C46.8979 54.2542 46.4471 52.8831 45.8616 51.1025C45.8568 51.0877 45.8594 51.0717 45.8669 51.0593C47.1333 48.9874 48.4328 45.9462 48.6407 42.1177C48.7119 41.1644 48.6206 40.1728 48.5728 39.1455C48.4277 38.1275 48.2915 37.0682 47.9745 36.0123C47.3943 33.8945 46.4049 31.7361 44.9474 29.7559C43.4951 27.7767 41.576 25.9796 39.2672 24.6115C36.9632 23.2459 34.2698 22.3005 31.4032 22.0312C28.5407 21.7666 25.5269 22.1435 22.6936 23.2305C19.8453 24.2866 17.2431 26.145 15.1589 28.5153C15.031 28.661 14.8923 28.7974 14.7736 28.9502L14.4265 29.4147L13.7339 30.3405L13.1348 31.3229C12.9356 31.6497 12.7287 31.9713 12.577 32.3217C12.4117 32.6648 12.2469 33.0069 12.0824 33.3482C11.9017 33.6828 11.8083 34.0531 11.6675 34.4022C11.5428 34.7578 11.3974 35.1056 11.2906 35.4644C11.1971 35.8275 11.1041 36.1896 11.0112 36.5506C10.3037 39.4461 10.2922 42.4394 10.9282 45.1959C11.5494 47.9575 12.7711 50.4829 14.3717 52.5847C15.9714 54.6915 17.944 56.3765 20.0476 57.586C22.1525 58.8006 24.3837 59.5371 26.5334 59.8805C27.6064 60.0902 28.6688 60.0972 29.689 60.1437C30.7116 60.1403 31.6987 60.0553 32.6368 59.9014C36.4099 59.294 39.3062 57.6729 41.2692 56.1704C41.2928 56.152 41.3268 56.1562 41.3451 56.1798C41.3606 56.1995 41.3598 56.2272 41.3451 56.2464L41.3386 56.2548L41.2992 56.1677C43.3655 56.3105 44.9528 56.4201 46.0335 56.4948C46.5689 56.5334 46.9771 56.5627 47.2608 56.5831C47.5377 56.6036 47.6844 56.6181 47.6844 56.6181Z" fill="#092C42"/>
<path d="M24.1327 41.0216C24.1327 42.0995 23.2591 42.9731 22.1816 42.9731C21.1036 42.9731 20.23 42.0995 20.23 41.0216C20.23 39.9439 21.1036 39.0703 22.1816 39.0703C23.2591 39.0703 24.1327 39.9439 24.1327 41.0216Z" fill="#092C42"/>
<path d="M31.9429 41.0216C31.9429 42.0995 31.0692 42.9731 29.9915 42.9731C28.9138 42.9731 28.04 42.0995 28.04 41.0216C28.04 39.9439 28.9138 39.0703 29.9915 39.0703C31.0692 39.0703 31.9429 39.9439 31.9429 41.0216Z" fill="#092C42"/>
<path d="M39.7307 40.0463C40.2695 40.9798 39.9497 42.1732 39.0163 42.712C38.0829 43.2509 36.8895 42.9312 36.3507 41.9979C35.8118 41.0644 36.1315 39.8708 37.0648 39.332C37.9983 38.7933 39.1917 39.113 39.7307 40.0463Z" fill="#092C42"/>
<path d="M40.5061 127.208L20.3026 125.097L11.7774 105.697L5.13672 107.43C5.13672 107.43 10.0451 127.929 15.531 131.105C21.0169 134.282 39.7844 134.859 39.7844 134.859L40.5061 127.208Z" fill="#0096ED"/>
<path d="M35.5977 131.105C35.5977 136.048 39.6048 140.056 44.5482 140.056C49.4915 140.056 53.4989 136.048 53.4989 131.105C53.4989 126.162 49.4915 122.154 44.5482 122.154C39.6048 122.154 35.5977 126.162 35.5977 131.105Z" fill="#092C42"/>
<path d="M44.5486 140.068C42.1545 140.068 39.9039 139.135 38.2109 137.443C36.5183 135.75 35.5859 133.5 35.5859 131.105C35.5859 128.711 36.5183 126.46 38.2109 124.768C39.9039 123.075 42.1545 122.143 44.5486 122.143C46.9425 122.143 49.1932 123.075 50.886 124.768C52.5787 126.46 53.511 128.712 53.511 131.105C53.511 133.499 52.5787 135.75 50.886 137.443C49.1932 139.135 46.9425 140.068 44.5486 140.068ZM44.5486 122.167C42.1608 122.167 39.9162 123.097 38.2277 124.785C36.5396 126.473 35.6098 128.718 35.6098 131.105C35.6098 133.493 36.5396 135.738 38.2277 137.426C39.9162 139.114 42.1608 140.044 44.5486 140.044C46.936 140.044 49.1808 139.114 50.869 137.426C52.5574 135.738 53.4872 133.493 53.4872 131.105C53.4872 128.718 52.5574 126.473 50.869 124.785C49.1808 123.097 46.936 122.167 44.5486 122.167Z" fill="#092C42"/>
<path d="M10.2349 126.12C10.2349 129.828 13.2402 132.833 16.9477 132.833C20.6552 132.833 23.6608 129.828 23.6608 126.12C23.6608 122.413 20.6552 119.407 16.9477 119.407C13.2402 119.407 10.2349 122.413 10.2349 126.12Z" fill="#092C42"/>
<path d="M2.48779 103.394C2.48779 106.423 4.94338 108.879 7.97267 108.879C11.0018 108.879 13.4574 106.423 13.4574 103.394C13.4574 100.365 11.0018 97.9092 7.97267 97.9092C4.94338 97.9092 2.48779 100.365 2.48779 103.394Z" fill="#092C42"/>
<path d="M12.0148 104.234L16.5239 100.426C17.0199 100.007 17.0826 99.2653 16.6636 98.7692L16.5526 98.6378C16.1337 98.1418 15.392 98.0793 14.896 98.4982L10.3867 102.306L12.0148 104.234Z" fill="#092C42"/>
<path d="M10.7858 99.1689V93.4362C10.7858 92.787 10.2595 92.2607 9.61028 92.2607H9.4382C8.78899 92.2607 8.2627 92.787 8.2627 93.4362V99.1689C8.2627 99.2624 8.33862 99.3384 8.4322 99.3384H10.6163C10.71 99.3384 10.7858 99.2624 10.7858 99.1689Z" fill="#092C42"/>
<path d="M7.97043 99.0534L6.71886 93.4592C6.5772 92.8256 5.94864 92.427 5.31505 92.5686L5.14717 92.6063C4.51358 92.7479 4.11495 93.3765 4.25661 94.0101L5.50818 99.6043C5.52855 99.6957 5.61914 99.7531 5.71055 99.7328L7.84194 99.2559C7.93335 99.2354 7.9908 99.1448 7.97043 99.0534Z" fill="#092C42"/>
<path d="M5.20904 99.826L2.34274 94.8614C2.01813 94.2991 1.29924 94.1065 0.736957 94.4311L0.587964 94.5171C0.025677 94.8417 -0.166912 95.5607 0.157693 96.1229L3.024 101.087C3.07072 101.169 3.17435 101.196 3.25543 101.15L5.14697 100.058C5.22806 100.011 5.2559 99.9071 5.20904 99.826Z" fill="#092C42"/>
<path d="M134.257 174.876L128.217 177.445L110.788 136.463L116.827 133.895L134.257 174.876Z" fill="#0096ED"/>
<path d="M119.417 134.677C120.874 129.953 118.226 124.943 113.502 123.486C108.779 122.029 103.769 124.677 102.312 129.401C100.855 134.125 103.503 139.135 108.227 140.592C112.95 142.049 117.961 139.401 119.417 134.677Z" fill="#092C42"/>
<path d="M110.875 141.006C109.987 141.006 109.095 140.873 108.222 140.603C105.935 139.898 104.059 138.344 102.94 136.227C101.821 134.111 101.594 131.685 102.299 129.397C103.005 127.11 104.559 125.234 106.676 124.115C108.793 122.997 111.218 122.769 113.505 123.475C115.793 124.18 117.669 125.735 118.788 127.851C119.906 129.967 120.134 132.393 119.428 134.681C118.723 136.968 117.169 138.844 115.052 139.963C113.743 140.655 112.315 141.006 110.875 141.006ZM110.852 123.097C109.416 123.097 107.993 123.446 106.687 124.137C104.576 125.252 103.026 127.123 102.322 129.405C101.619 131.686 101.846 134.105 102.961 136.216C104.077 138.327 105.948 139.877 108.229 140.581C110.511 141.284 112.93 141.058 115.041 139.942C117.152 138.826 118.702 136.955 119.406 134.673L119.417 134.677L119.406 134.673C120.109 132.392 119.882 129.973 118.767 127.862C117.651 125.751 115.78 124.201 113.498 123.497C112.628 123.229 111.738 123.097 110.852 123.097Z" fill="#092C42"/>
<path d="M128.937 158.97C130.03 155.427 128.044 151.669 124.501 150.576C120.958 149.484 117.2 151.47 116.108 155.013C115.015 158.555 117.001 162.313 120.544 163.406C124.087 164.499 127.844 162.512 128.937 158.97Z" fill="#092C42"/>
<path d="M137.841 176.143C136.882 173.27 133.775 171.718 130.902 172.677C128.029 173.636 126.477 176.743 127.436 179.616C128.395 182.49 131.502 184.042 134.375 183.082C137.249 182.123 138.8 179.017 137.841 176.143Z" fill="#092C42"/>
<path d="M128.538 178.364L125.467 183.404C125.129 183.958 125.304 184.682 125.859 185.02L126.006 185.109C126.56 185.447 127.283 185.272 127.621 184.717L130.693 179.677L128.538 178.364Z" fill="#092C42"/>
<path d="M131.308 182.778L133.123 188.216C133.329 188.831 133.995 189.164 134.61 188.959L134.774 188.904C135.389 188.699 135.722 188.033 135.516 187.417L133.701 181.979C133.672 181.89 133.576 181.842 133.487 181.872L131.415 182.564C131.326 182.593 131.278 182.689 131.308 182.778Z" fill="#092C42"/>
<path d="M134.015 181.996L136.973 186.907C137.309 187.463 138.031 187.642 138.587 187.307L138.734 187.218C139.291 186.883 139.47 186.161 139.135 185.605L136.176 180.694C136.128 180.614 136.024 180.588 135.944 180.637L134.073 181.764C133.993 181.812 133.967 181.916 134.015 181.996Z" fill="#092C42"/>
<path d="M136.39 180.389L140.681 184.191C141.167 184.621 141.91 184.576 142.34 184.09L142.454 183.962C142.885 183.476 142.84 182.733 142.354 182.302L138.063 178.501C137.993 178.439 137.886 178.445 137.824 178.515L136.376 180.15C136.314 180.22 136.32 180.327 136.39 180.389Z" fill="#092C42"/>
<path d="M41.8711 121.796C41.8711 121.796 42.5168 184.627 77.7771 185.856C113.037 187.085 114.515 122.246 114.515 121.796C114.515 121.796 110.351 112.426 78.1931 112.793C46.0354 113.159 41.8711 121.796 41.8711 121.796Z" fill="#0096ED"/>
<path d="M61.682 110.734H91.4861C93.4309 110.734 95.0074 109.157 95.0074 107.213V106.697C95.0074 104.752 93.4309 103.176 91.4861 103.176H61.682C59.7372 103.176 58.1606 104.752 58.1606 106.697V107.213C58.1606 109.157 59.7372 110.734 61.682 110.734Z" fill="#092C42"/>
<path d="M75.3042 54.8621H77.8773V41.8516H75.3042V54.8621Z" fill="#092C42"/>
<path d="M106.631 86.2205C106.631 90.3958 110.016 93.7807 114.191 93.7807C118.366 93.7807 121.751 90.3958 121.751 86.2205C121.751 82.045 118.366 78.6602 114.191 78.6602C110.016 78.6602 106.631 82.045 106.631 86.2205Z" fill="#0096ED"/>
<path d="M30.3037 85.7234C30.3037 89.8987 33.6884 93.2836 37.8639 93.2836C42.0393 93.2836 45.4241 89.8987 45.4241 85.7234C45.4241 81.548 42.0393 78.1631 37.8639 78.1631C33.6884 78.1631 30.3037 81.548 30.3037 85.7234Z" fill="#0096ED"/>
<path d="M75.0901 52.0403C75.0901 52.0403 44.349 51.6708 39.4827 78.2966C34.6163 104.922 60.6135 105.419 68.0905 105.924C71.4812 106.153 78.7348 106.176 85.1359 106.065C99.3067 105.819 109.32 103.076 112.727 89.9291C113.124 88.3961 113.393 86.8219 113.493 85.2204C114.394 70.8108 104.64 51.3309 75.0901 52.0403Z" fill="#0096ED"/>
<path d="M97.3911 92.5947L52.7301 93.292C48.0488 93.3652 44.1949 89.6295 44.1217 84.9482C44.0486 80.267 47.7843 76.4129 52.4655 76.3398L97.1265 75.6427C101.808 75.5695 105.662 79.3051 105.735 83.9864C105.808 88.6673 102.072 92.5216 97.3911 92.5947Z" fill="#092C42"/>
<path d="M61.9971 84.0242C61.7084 85.4985 60.2789 86.4597 58.8045 86.1708C57.33 85.8821 56.3688 84.4525 56.6577 82.9782C56.9466 81.5037 58.3761 80.5427 59.8505 80.8315C61.325 81.1203 62.286 82.5498 61.9971 84.0242Z" fill="white"/>
<path d="M93.1982 83.5253C92.9096 84.9998 91.4799 85.9608 90.0055 85.6719C88.5312 85.3831 87.57 83.9537 87.8589 82.4793C88.1476 81.0048 89.5773 80.0436 91.0516 80.3325C92.526 80.6214 93.4871 82.0509 93.1982 83.5253Z" fill="white"/>
<path d="M88.7087 146.749C88.2193 153.445 82.3942 158.477 75.6978 157.988C69.0015 157.498 63.9697 151.673 64.4592 144.976C64.9486 138.28 70.7739 133.249 77.4703 133.738C84.1667 134.227 89.1983 140.053 88.7087 146.749Z" fill="#092C42"/>
<path d="M85.4193 146.507C85.0627 151.387 80.8176 155.053 75.9381 154.697C71.0585 154.34 67.3919 150.095 67.7486 145.215C68.1052 140.336 72.3501 136.669 77.2298 137.026C82.1093 137.383 85.776 141.627 85.4193 146.507Z" fill="white"/>
<path d="M81.1473 148.118C81.1133 148.097 81.0873 147.573 81.0652 146.657C81.0433 145.74 81.0251 144.435 81.0236 142.839L81.1213 143.014C79.7946 142.241 78.2498 141.34 76.5633 140.356L76.8179 140.36C75.3876 141.163 73.8371 142.035 72.2187 142.944C72.0942 143.152 72.3862 142.662 72.3562 142.713V142.714V142.717V142.722L72.3561 142.733L72.3557 142.755L72.3551 142.799L72.3538 142.885L72.3512 143.058L72.346 143.403L72.3352 144.087C72.3277 144.54 72.3201 144.988 72.3128 145.429C72.2958 146.309 72.2795 147.164 72.2639 147.988L72.1397 147.766C73.8058 148.784 75.3241 149.711 76.6425 150.517L76.4419 150.514C77.8474 149.758 79.0049 149.154 79.822 148.739C80.6391 148.324 81.1131 148.098 81.1473 148.118C81.1814 148.138 80.7729 148.405 79.9963 148.879C79.2204 149.352 78.0742 150.034 76.6375 150.864L76.5392 150.921L76.4366 150.861C75.1023 150.083 73.5651 149.187 71.8787 148.203L71.7529 148.13L71.7544 147.98C71.7627 147.156 71.7714 146.301 71.7804 145.421C71.7858 144.98 71.7914 144.532 71.7969 144.079L71.8063 143.396L71.8111 143.051L71.8136 142.877L71.8149 142.791L71.8154 142.747L71.8158 142.726V142.715L71.8159 142.709L71.8161 142.706V142.705C71.7857 142.755 72.0786 142.265 71.9553 142.472C73.579 141.572 75.1347 140.71 76.5697 139.915L76.7001 139.843L76.8244 139.919C78.4902 140.936 80.0164 141.869 81.3272 142.67L81.4285 142.731L81.4251 142.845C81.3761 144.503 81.3193 145.836 81.2709 146.744C81.2219 147.652 81.1813 148.138 81.1473 148.118Z" fill="#0096ED"/>
<path d="M72.3496 41.5915C72.3496 43.9337 74.2483 45.8324 76.5905 45.8324C78.9327 45.8324 80.8313 43.9337 80.8313 41.5915C80.8313 39.2493 78.9327 37.3506 76.5905 37.3506C74.2483 37.3506 72.3496 39.2493 72.3496 41.5915Z" fill="#0096ED"/>
<path d="M69.8187 82.7701C70.021 82.7919 69.92 83.7432 70.5138 85.0081C70.8008 85.6362 71.2785 86.3229 71.958 86.9063C72.6323 87.4903 73.5298 87.9384 74.5137 88.0401C75.4999 88.1184 76.464 87.8403 77.233 87.388C78.0072 86.9375 78.6013 86.3486 78.9972 85.7829C79.8103 84.6464 79.8834 83.6927 80.0863 83.708C80.1654 83.7095 80.2481 83.9496 80.2483 84.3999C80.2512 84.8492 80.1207 85.5064 79.7534 86.2372C79.39 86.9675 78.7565 87.7494 77.8435 88.3621C76.9405 88.9741 75.7155 89.3901 74.4 89.2825C73.0872 89.1498 71.9581 88.519 71.1811 87.7536C70.3943 86.9856 69.913 86.1021 69.6879 85.318C69.4592 84.5328 69.4498 83.8626 69.534 83.4213C69.6158 82.9785 69.7406 82.7573 69.8187 82.7701Z" fill="white"/>
<path d="M110.749 95.1839C110.703 95.1578 111.255 94.3216 111.785 92.8117C112.329 91.31 112.804 89.1365 113.032 86.7053C113.275 84.2727 113.238 82.0526 113.175 80.4521C113.138 79.6516 113.101 79.0032 113.065 78.5559C113.032 78.1083 113.023 77.8595 113.04 77.8574C113.057 77.8553 113.099 78.1004 113.161 78.5462C113.227 78.9914 113.292 79.6395 113.352 80.4422C113.459 82.0463 113.525 84.2792 113.28 86.7293C113.051 89.1775 112.544 91.3696 111.951 92.8727C111.662 93.6273 111.365 94.2123 111.137 94.601C110.9 94.986 110.763 95.1931 110.749 95.1839Z" fill="#092C42"/>
<path d="M39.5523 77.4288C39.5686 77.4341 39.5136 77.6778 39.4004 78.1125C39.3412 78.3292 39.272 78.5948 39.2092 78.9076C39.144 79.2197 39.0532 79.5711 38.9935 79.9679C38.8439 80.7554 38.7269 81.7037 38.6568 82.7598C38.6021 83.8168 38.6031 84.9822 38.7055 86.1997C38.819 87.4165 39.0233 88.564 39.2634 89.5951C39.5185 90.6225 39.8006 91.5354 40.0866 92.2842C40.2151 92.6644 40.3664 92.9943 40.4856 93.2899C40.6024 93.5868 40.7173 93.836 40.8139 94.0388C41.0017 94.4468 41.0987 94.677 41.0835 94.6852C41.0684 94.6932 40.9424 94.4785 40.7267 94.0817C40.6164 93.8847 40.4879 93.6401 40.3582 93.3467C40.2261 93.0547 40.0623 92.7271 39.9221 92.3479C39.6126 91.6012 39.3101 90.6852 39.0401 89.6501C38.7852 88.6115 38.5717 87.4521 38.4569 86.2217C38.3533 84.9908 38.3593 83.812 38.4274 82.745C38.5108 81.6787 38.6473 80.7238 38.8204 79.9341C38.8917 79.5363 38.9952 79.1849 39.0738 78.8742C39.15 78.5625 39.2334 78.2991 39.3073 78.0856C39.4496 77.6571 39.5358 77.4234 39.5523 77.4288Z" fill="#092C42"/>
<path d="M41.7241 121.742C41.7258 121.738 41.7884 121.756 41.9093 121.796C42.0409 121.84 42.2177 121.901 42.443 121.977C42.9232 122.146 43.6092 122.388 44.4864 122.698C44.9305 122.856 45.4228 123.032 45.9605 123.224C46.5031 123.405 47.1012 123.576 47.7389 123.775C49.0192 124.155 50.46 124.647 52.0975 125.032C52.912 125.241 53.765 125.46 54.6534 125.688C55.543 125.912 56.4839 126.079 57.4495 126.288C59.377 126.731 61.4685 127.032 63.6618 127.387C68.0646 127.985 72.9407 128.395 78.0709 128.417C83.2028 128.396 88.0803 127.987 92.4838 127.389C94.6775 127.035 96.7692 126.734 98.6969 126.292C99.6626 126.082 100.604 125.916 101.493 125.692C102.382 125.464 103.235 125.245 104.049 125.037C105.687 124.652 107.128 124.16 108.408 123.78C109.046 123.581 109.644 123.41 110.186 123.229C110.724 123.037 111.216 122.862 111.66 122.703C112.537 122.394 113.223 122.152 113.703 121.983C113.929 121.907 114.106 121.847 114.237 121.802C114.358 121.762 114.421 121.744 114.422 121.748C114.424 121.752 114.364 121.778 114.246 121.826C114.117 121.876 113.943 121.944 113.721 122.03C113.245 122.21 112.564 122.467 111.693 122.795C111.251 122.96 110.76 123.142 110.224 123.342C109.684 123.53 109.087 123.707 108.45 123.913C107.172 124.306 105.733 124.81 104.095 125.207C103.28 125.421 102.427 125.645 101.538 125.879C100.648 126.108 99.706 126.28 98.7391 126.494C96.8092 126.946 94.7144 127.255 92.5165 127.617C88.1047 128.228 83.2154 128.646 78.0709 128.667C72.9281 128.645 68.0402 128.227 63.629 127.615C61.4315 127.252 59.3369 126.943 57.4072 126.491C56.4406 126.276 55.4988 126.105 54.6087 125.875C53.7199 125.641 52.8667 125.417 52.052 125.203C50.4143 124.806 48.9747 124.301 47.6965 123.908C47.06 123.702 46.4633 123.525 45.9223 123.337C45.3865 123.137 44.8962 122.954 44.4537 122.789C43.5827 122.461 42.9017 122.204 42.4251 122.024C42.2033 121.938 42.0295 121.87 41.9 121.819C41.7821 121.772 41.7227 121.746 41.7241 121.742Z" fill="#092C42"/>
<path d="M41.8711 121.796C41.8711 121.796 46.0354 113.159 78.1931 112.793C110.351 112.426 114.515 121.796 114.515 121.796C114.515 121.796 82.0772 137.795 41.8711 121.796Z" fill="#092C42" fill-opacity="0.301961"/>
<path d="M71.1991 54.0323C71.1992 54.0365 71.1617 54.0428 71.0885 54.0508C71.0005 54.0588 70.8938 54.0684 70.7635 54.0803C70.4783 54.1099 70.0554 54.1188 69.5152 54.1838C68.4326 54.2818 66.87 54.4952 64.9783 54.9357C63.0868 55.373 60.8743 56.0819 58.5452 57.1612C56.2164 58.2366 53.7876 59.7109 51.4965 61.5864C49.2193 63.4805 47.3106 65.5861 45.8128 67.6687C44.3109 69.7511 43.1951 71.7892 42.407 73.5634C41.6156 75.337 41.1096 76.8308 40.808 77.8748C40.6418 78.3929 40.5528 78.8064 40.4697 79.0807C40.4333 79.2064 40.4035 79.3092 40.3791 79.3942C40.3572 79.4646 40.344 79.5001 40.3398 79.4992C40.3356 79.4982 40.3406 79.4609 40.3542 79.3885C40.3722 79.3018 40.394 79.197 40.4206 79.069C40.4881 78.7903 40.5622 78.3722 40.7146 77.8484C40.9884 76.7931 41.4707 75.2843 42.2456 73.4918C43.0174 71.699 44.1241 69.6388 45.626 67.5346C47.1239 65.4301 49.0424 63.303 51.3377 61.3939C53.6469 59.5034 56.0987 58.0237 58.4489 56.9524C60.7995 55.8771 63.0322 55.1813 64.9388 54.7637C66.8458 54.3429 68.4187 54.1556 69.5071 54.0869C70.0501 54.0368 70.4749 54.0435 70.7613 54.03C70.892 54.0281 70.9992 54.0266 71.0877 54.0254C71.1613 54.0257 71.1989 54.028 71.1991 54.0323Z" fill="white"/>
<path d="M41.1193 90.9164C41.0905 90.9282 40.9051 90.5706 40.6822 89.9597C40.4591 89.3497 40.2118 88.4816 40.0571 87.4999C39.904 86.5175 39.874 85.6151 39.8999 84.9662C39.9252 84.3164 39.9923 83.9194 40.0234 83.9219C40.1017 83.9254 39.9932 85.5252 40.3036 87.4612C40.6002 89.3988 41.1928 90.8891 41.1193 90.9164Z" fill="white"/>
<path d="M33.0565 88.4405C33.0447 88.4506 32.948 88.363 32.7972 88.1822C32.6462 88.0018 32.4496 87.7207 32.2553 87.345C31.8647 86.6029 31.5251 85.4232 31.6964 84.1246C31.8696 82.8259 32.5051 81.7755 33.0758 81.1609C33.3614 80.849 33.6243 80.6288 33.8172 80.4941C34.0098 80.3588 34.1261 80.2996 34.1349 80.3122C34.1625 80.3481 33.7307 80.6406 33.2095 81.2761C32.6895 81.9017 32.1089 82.9196 31.9437 84.1575C31.7806 85.3952 32.0756 86.5291 32.4145 87.2688C32.752 88.0181 33.0925 88.4132 33.0565 88.4405Z" fill="white"/>
<path d="M76.8721 38.6378C76.8616 38.6848 76.4346 38.5277 75.7445 38.6102C75.0717 38.6809 74.1045 39.0686 73.5304 39.9497C72.968 40.8386 73.0181 41.8797 73.2339 42.5207C73.4462 43.1827 73.7668 43.5054 73.7283 43.5343C73.7176 43.5445 73.6288 43.4757 73.4969 43.3219C73.3645 43.169 73.2013 42.9195 73.0676 42.5793C72.7961 41.9174 72.703 40.7931 73.3205 39.8149C73.9528 38.8467 75.0136 38.4633 75.7284 38.4345C76.0935 38.4147 76.3882 38.4589 76.5824 38.5159C76.7772 38.5717 76.8767 38.624 76.8721 38.6378Z" fill="white"/>
<path d="M118.628 82.6301C118.575 82.6865 117.83 81.9752 116.704 81.4362C115.583 80.8854 114.563 80.7402 114.575 80.6643C114.573 80.6027 115.646 80.6398 116.813 81.2117C117.984 81.774 118.677 82.5936 118.628 82.6301Z" fill="white"/>
<path d="M52.929 166.512C52.9251 166.514 52.9045 166.483 52.868 166.42C52.8255 166.343 52.774 166.25 52.7112 166.137C52.5681 165.867 52.3741 165.501 52.1294 165.039C52.0043 164.797 51.8666 164.53 51.7166 164.24C51.5776 163.941 51.4273 163.617 51.2664 163.27C50.9403 162.576 50.573 161.783 50.2168 160.885C50.0332 160.438 49.8411 159.97 49.6411 159.482C49.458 158.988 49.2677 158.473 49.0706 157.941C48.659 156.882 48.3104 155.719 47.8993 154.51C47.1484 152.069 46.4114 149.358 45.7647 146.483C45.1319 143.604 44.6469 140.837 44.2652 138.312C43.9127 135.784 43.633 133.501 43.4799 131.576C43.3866 130.615 43.3305 129.744 43.2825 128.978C43.229 128.213 43.1931 127.554 43.1773 127.015C43.1601 126.492 43.1464 126.078 43.1363 125.773C43.1346 125.643 43.1331 125.537 43.1318 125.449C43.1324 125.376 43.1346 125.339 43.1389 125.339C43.1432 125.339 43.1494 125.376 43.1574 125.448C43.1652 125.536 43.1749 125.641 43.1866 125.77C43.2082 126.075 43.2374 126.488 43.2743 127.009C43.3049 127.548 43.355 128.205 43.4217 128.968C43.4828 129.732 43.5512 130.601 43.6557 131.559C43.831 133.479 44.1282 135.756 44.4926 138.278C44.8861 140.796 45.3769 143.556 46.0083 146.429C46.6536 149.297 47.3819 152.003 48.1189 154.441C48.5229 155.649 48.8632 156.812 49.2654 157.871C49.4572 158.404 49.6426 158.918 49.8209 159.413C50.0151 159.901 50.2017 160.37 50.3802 160.818C50.725 161.718 51.0801 162.514 51.3933 163.213C51.5473 163.562 51.691 163.887 51.8239 164.189C51.9665 164.482 52.0975 164.751 52.2163 164.995C52.4431 165.466 52.6231 165.839 52.7558 166.114C52.8096 166.232 52.8538 166.328 52.8905 166.408C52.9196 166.475 52.9328 166.51 52.929 166.512Z" fill="white"/>
<path d="M34.1602 127.451C34.1553 127.52 32.5875 127.464 30.659 127.327C28.7299 127.189 27.1704 127.022 27.1753 126.953C27.1802 126.885 28.7475 126.94 30.6767 127.078C32.6052 127.215 34.1651 127.382 34.1602 127.451Z" fill="white"/>
<path d="M16.1342 117.218C16.0738 117.251 15.2572 115.861 14.3108 114.114C13.3642 112.367 12.6461 110.924 12.7067 110.891C12.7673 110.858 13.5835 112.248 14.5303 113.995C15.4766 115.742 16.1948 117.185 16.1342 117.218Z" fill="white"/>
<path d="M69.9178 181.622C69.9148 181.639 69.7156 181.614 69.3565 181.554C68.9965 181.499 68.4823 181.378 67.8581 181.192C67.232 181.01 66.5044 180.733 65.721 180.371C64.9437 179.997 64.114 179.531 63.2958 178.962C62.4828 178.384 61.7634 177.761 61.1484 177.156C60.5425 176.541 60.0358 175.95 59.6527 175.423C59.2663 174.898 58.9785 174.456 58.8052 174.135C58.627 173.818 58.536 173.639 58.5509 173.631C58.5915 173.606 58.9922 174.304 59.7924 175.315C60.1893 175.824 60.7033 176.395 61.3096 176.992C61.9252 177.58 62.6383 178.189 63.4394 178.758C64.2458 179.319 65.0593 179.784 65.8207 180.164C66.5879 180.532 67.2995 180.823 67.912 181.024C69.1348 181.435 69.927 181.576 69.9178 181.622Z" fill="white"/>
<path d="M77.2688 159.453C77.2694 159.462 77.154 159.473 76.9332 159.488C76.7125 159.492 76.3857 159.54 75.965 159.515C75.1241 159.513 73.8984 159.378 72.4518 158.945C71.7273 158.733 70.9607 158.416 70.1636 158.025C69.3826 157.604 68.5605 157.12 67.784 156.489C66.2158 155.255 64.7605 153.523 63.8207 151.405C62.9139 149.271 62.6424 147.025 62.8116 145.037C62.8801 144.038 63.088 143.107 63.3137 142.249C63.572 141.399 63.8636 140.623 64.2035 139.948C64.8748 138.596 65.6128 137.608 66.1856 136.992C66.4545 136.668 66.713 136.462 66.8669 136.304C67.0279 136.152 67.1151 136.076 67.121 136.082C67.14 136.102 66.8022 136.422 66.2589 137.056C65.7128 137.687 65.0052 138.68 64.3625 140.025C64.0369 140.695 63.7592 141.465 63.5128 142.305C63.2992 143.153 63.1017 144.071 63.0407 145.054C62.8867 147.012 63.1616 149.215 64.0496 151.305C64.9706 153.381 66.392 155.085 67.9276 156.309C68.6875 156.936 69.4932 157.418 70.2588 157.841C71.0404 158.235 71.7924 158.557 72.5045 158.777C73.926 159.226 75.1348 159.387 75.9686 159.418C76.8026 159.454 77.2677 159.426 77.2688 159.453Z" fill="white"/>
<path d="M19.2588 121.719C19.2387 121.759 18.8883 121.58 18.2838 121.443C17.682 121.303 16.8127 121.249 15.8938 121.467C14.9756 121.69 14.2252 122.132 13.7526 122.53C13.2761 122.926 13.0451 123.245 13.0089 123.218C12.9885 123.206 13.1705 122.846 13.6357 122.398C14.0954 121.95 14.8726 121.457 15.8355 121.224C16.7993 120.995 17.7151 121.082 18.328 121.272C18.9457 121.46 19.2718 121.699 19.2588 121.719Z" fill="white"/>
<path d="M90.0108 74.0838C90.0108 74.1527 84.1279 74.2086 76.8727 74.2086C69.615 74.2086 63.7334 74.1527 63.7334 74.0838C63.7334 74.0149 69.615 73.959 76.8727 73.959C84.1279 73.959 90.0108 74.0149 90.0108 74.0838Z" fill="white"/>
<path d="M67.591 104.04C67.5915 104.049 67.5151 104.061 67.3689 104.076C67.1932 104.091 66.9818 104.11 66.728 104.131C66.4494 104.155 66.1083 104.178 65.7114 104.184C65.3147 104.192 64.8625 104.215 64.3629 104.199C63.363 104.197 62.1728 104.128 60.8575 103.989C59.544 103.836 58.1065 103.603 56.6189 103.258C55.1332 102.903 53.7426 102.469 52.4985 102.021C51.2591 101.558 50.1633 101.088 49.2675 100.645C48.8133 100.435 48.4189 100.214 48.0677 100.029C47.7152 99.8461 47.4198 99.6739 47.1813 99.5285C46.9639 99.3956 46.783 99.2851 46.6325 99.1931C46.5085 99.1141 46.4454 99.0691 46.4499 99.0617C46.4543 99.0542 46.5257 99.0847 46.6576 99.1495C46.8141 99.2302 47.0023 99.327 47.2284 99.4434C47.4736 99.5757 47.7747 99.7348 48.1319 99.905C48.4879 100.077 48.8861 100.287 49.3429 100.485C50.2441 100.907 51.3406 101.357 52.5766 101.804C53.8173 102.239 55.2003 102.662 56.6762 103.015C58.1538 103.358 59.5803 103.596 60.8841 103.761C62.1898 103.912 63.3719 103.998 64.3664 104.023C64.8635 104.05 65.3137 104.04 65.7091 104.044C66.1047 104.051 66.4452 104.043 66.7236 104.035C66.978 104.031 67.1898 104.028 67.3657 104.026C67.5127 104.027 67.5903 104.032 67.591 104.04Z" fill="white"/>
<path d="M105.836 125.637C105.838 125.641 105.799 125.658 105.722 125.689C105.631 125.723 105.517 125.765 105.378 125.818C105.054 125.933 104.609 126.091 104.044 126.292C103.466 126.501 102.755 126.744 101.917 126.99C101.081 127.24 100.136 127.553 99.0696 127.818C98.5377 127.959 97.9811 128.106 97.4016 128.259C96.821 128.41 96.209 128.535 95.5796 128.681C94.3229 128.986 92.9622 129.225 91.534 129.494C88.6678 129.978 85.494 130.383 82.1452 130.599C78.794 130.795 75.5937 130.781 72.6895 130.652C71.2387 130.559 69.8589 130.488 68.5742 130.34C67.9315 130.272 67.3089 130.223 66.7142 130.144C66.1202 130.063 65.5498 129.985 65.0049 129.911C63.9136 129.777 62.9377 129.583 62.0773 129.437C61.2158 129.296 60.4801 129.141 59.8807 129.005C59.2962 128.875 58.8347 128.772 58.5 128.697C58.3547 128.662 58.2371 128.634 58.1424 128.611C58.0621 128.591 58.0215 128.578 58.0225 128.574C58.0234 128.569 58.0658 128.574 58.148 128.586C58.244 128.603 58.3632 128.623 58.5107 128.648C58.8474 128.712 59.3117 128.799 59.8999 128.91C60.5014 129.031 61.2388 129.171 62.1011 129.3C62.9625 129.432 63.9383 129.614 65.0288 129.736C65.5733 129.805 66.1432 129.878 66.7366 129.953C67.3307 130.027 67.9523 130.07 68.5937 130.134C69.8763 130.273 71.2531 130.336 72.7004 130.422C75.5974 130.539 78.7883 130.545 82.1299 130.35C85.4692 130.135 88.6344 129.738 91.495 129.268C92.9207 129.005 94.2793 128.774 95.5351 128.479C96.1639 128.337 96.7755 128.218 97.356 128.072C97.9356 127.925 98.4924 127.783 99.0242 127.648C100.092 127.394 101.038 127.094 101.877 126.856C102.717 126.624 103.432 126.394 104.014 126.2C104.584 126.018 105.034 125.875 105.361 125.771C105.504 125.728 105.62 125.693 105.713 125.665C105.793 125.642 105.835 125.633 105.836 125.637Z" fill="white"/>
</svg>
