<svg width="362" height="209" viewBox="0 0 362 209" fill="none" xmlns="http://www.w3.org/2000/svg">
<path d="M358.294 130.805C362.217 104.598 358.835 78.0826 342.479 55.4579C323.753 29.5564 294.092 11.2593 262.563 6.06441C256.946 5.13892 251.259 4.63472 245.565 4.60258C232.01 4.52624 218.423 6.64212 205.572 10.9737C183.813 18.3083 165.108 31.1273 148.191 46.4083C140.68 53.1929 133.345 61.8709 123.394 65.0484C113.069 68.345 101.961 64.1046 91.9141 61.5095C73.035 56.6332 45.3434 46.1266 26.5499 56.1231C1.87509 69.2479 -5.47482 98.1226 3.97507 120.697C13.425 143.272 42.2996 144.847 45.4497 162.172C48.5995 179.497 63.8244 205.221 96.899 202.596C129.973 199.971 142.573 171.622 163.572 180.021C170.957 182.975 176.761 188.411 183.045 193.101C191.795 199.629 201.29 204.075 212.062 206.123C227.466 209.052 244.285 207.506 259.858 206.757C277.708 205.898 296.913 206.557 314.239 200.315C332.849 193.611 344.597 178.926 350.904 160.507C354.224 150.809 356.793 140.83 358.294 130.805Z" fill="#0096ED"/>
<path d="M358.294 130.805C362.217 104.598 358.835 78.0826 342.479 55.4579C323.753 29.5564 294.092 11.2593 262.563 6.06441C256.946 5.13892 251.259 4.63472 245.565 4.60258C232.01 4.52624 218.423 6.64212 205.572 10.9737C183.813 18.3083 165.108 31.1273 148.191 46.4083C140.68 53.1929 133.345 61.8709 123.394 65.0484C113.069 68.345 101.961 64.1046 91.9141 61.5095C73.035 56.6332 45.3434 46.1266 26.5499 56.1231C1.87509 69.2479 -5.47482 98.1226 3.97507 120.697C13.425 143.272 42.2996 144.847 45.4497 162.172C48.5995 179.497 63.8244 205.221 96.899 202.596C129.973 199.971 142.573 171.622 163.572 180.021C170.957 182.975 176.761 188.411 183.045 193.101C191.795 199.629 201.29 204.075 212.062 206.123C227.466 209.052 244.285 207.506 259.858 206.757C277.708 205.898 296.913 206.557 314.239 200.315C332.849 193.611 344.597 178.926 350.904 160.507C354.224 150.809 356.793 140.83 358.294 130.805Z" fill="white" fill-opacity="0.701961"/>
<path d="M223.947 182.646H315.034" stroke="#092C42" stroke-width="0.3528" stroke-miterlimit="10" stroke-linecap="round" stroke-linejoin="round"/>
<path d="M315.034 182.648C318.656 182.648 321.596 179.708 321.596 176.086" stroke="#092C42" stroke-width="0.3528" stroke-miterlimit="10" stroke-linecap="round" stroke-linejoin="round"/>
<path d="M321.596 176.086V7.56348" stroke="#092C42" stroke-width="0.3528" stroke-miterlimit="10" stroke-linecap="round" stroke-linejoin="round"/>
<path d="M321.596 7.56239C321.596 3.94003 318.656 1 315.034 1" stroke="#092C42" stroke-width="0.3528" stroke-miterlimit="10" stroke-linecap="round" stroke-linejoin="round"/>
<path d="M315.633 1H52.0859" stroke="#092C42" stroke-width="0.3528" stroke-miterlimit="10" stroke-linecap="round" stroke-linejoin="round"/>
<path d="M51.4867 1C47.8642 1 44.9243 3.94003 44.9243 7.56239" stroke="#092C42" stroke-width="0.3528" stroke-miterlimit="10" stroke-linecap="round" stroke-linejoin="round"/>
<path d="M44.9243 7.56348V176.086" stroke="#092C42" stroke-width="0.3528" stroke-miterlimit="10" stroke-linecap="round" stroke-linejoin="round"/>
<path d="M44.9243 176.086C44.9243 179.708 47.8642 182.648 51.4867 182.648" stroke="#092C42" stroke-width="0.3528" stroke-miterlimit="10" stroke-linecap="round" stroke-linejoin="round"/>
<path d="M51.4873 182.646H142.574" stroke="#092C42" stroke-width="0.3528" stroke-miterlimit="10" stroke-linecap="round" stroke-linejoin="round"/>
<path d="M315.296 163.222H50.6997V8.34863H315.296V163.222Z" stroke="#092C42" stroke-width="0.3528" stroke-miterlimit="10" stroke-linecap="round" stroke-linejoin="round"/>
<path d="M223.947 182.646V200.995H142.573V182.646H223.947Z" stroke="#092C42" stroke-width="0.3528" stroke-miterlimit="10" stroke-linecap="round" stroke-linejoin="round"/>
<path d="M223.947 200.996H238.122V208H128.398V200.996H142.573" stroke="#092C42" stroke-width="0.3528" stroke-miterlimit="10" stroke-linecap="round" stroke-linejoin="round"/>
<path d="M90.2694 57.4362H69.6631V29.9609H85.8539L90.2694 34.2751V57.4362Z" fill="white" stroke="#092C42" stroke-width="0.3528" stroke-miterlimit="22.9256" stroke-linejoin="round"/>
<path d="M86.4077 33.8232V34.9479L90.2695 34.2798L86.4077 33.8232Z" fill="#092C42" stroke="#092C42" stroke-width="0.3528" stroke-miterlimit="22.9256" stroke-linejoin="round"/>
<path d="M85.854 29.9609V34.281H90.2694L85.854 29.9609Z" fill="white" stroke="#092C42" stroke-width="0.3528" stroke-miterlimit="22.9256" stroke-linejoin="round"/>
<path d="M72.2798 35.9297H88.1434" stroke="#092C42" stroke-width="0.3528" stroke-miterlimit="10" stroke-linecap="round" stroke-linejoin="round"/>
<path d="M72.2798 39.8555H88.1434" stroke="#092C42" stroke-width="0.3528" stroke-miterlimit="10" stroke-linecap="round" stroke-linejoin="round"/>
<path d="M72.2798 43.7793H88.1434" stroke="#092C42" stroke-width="0.3528" stroke-miterlimit="10" stroke-linecap="round" stroke-linejoin="round"/>
<path d="M72.2798 47.707H88.1434" stroke="#092C42" stroke-width="0.3528" stroke-miterlimit="10" stroke-linecap="round" stroke-linejoin="round"/>
<path d="M72.2798 51.6318H88.1434" stroke="#092C42" stroke-width="0.3528" stroke-miterlimit="10" stroke-linecap="round" stroke-linejoin="round"/>
<path d="M32.0771 90.6328H39.46" stroke="#092C42" stroke-width="0.3528" stroke-miterlimit="10" stroke-linecap="round" stroke-linejoin="round"/>
<path d="M23.9165 90.6328H30.7459" stroke="#092C42" stroke-width="0.3528" stroke-miterlimit="10" stroke-linecap="round" stroke-linejoin="round"/>
<path d="M36.603 92.9648H39.46" stroke="#092C42" stroke-width="0.3528" stroke-miterlimit="10" stroke-linecap="round" stroke-linejoin="round"/>
<path d="M23.9165 92.9648H35.2717" stroke="#092C42" stroke-width="0.3528" stroke-miterlimit="10" stroke-linecap="round" stroke-linejoin="round"/>
<path d="M38.333 95.2979H39.4596" stroke="#092C42" stroke-width="0.3528" stroke-miterlimit="10" stroke-linecap="round" stroke-linejoin="round"/>
<path d="M32.21 95.2979H36.4697" stroke="#092C42" stroke-width="0.3528" stroke-miterlimit="10" stroke-linecap="round" stroke-linejoin="round"/>
<path d="M23.9165 95.2979H31.0121" stroke="#092C42" stroke-width="0.3528" stroke-miterlimit="10" stroke-linecap="round" stroke-linejoin="round"/>
<path d="M23.9165 97.627H39.4599" stroke="#092C42" stroke-width="0.3528" stroke-miterlimit="10" stroke-linecap="round" stroke-linejoin="round"/>
<path d="M36.8691 99.959H39.4599" stroke="#092C42" stroke-width="0.3528" stroke-miterlimit="10" stroke-linecap="round" stroke-linejoin="round"/>
<path d="M27.9502 99.959H34.2065" stroke="#092C42" stroke-width="0.3528" stroke-miterlimit="10" stroke-linecap="round" stroke-linejoin="round"/>
<path d="M23.9165 99.959H26.0869" stroke="#092C42" stroke-width="0.3528" stroke-miterlimit="10" stroke-linecap="round" stroke-linejoin="round"/>
<path d="M31.0122 102.29H39.46" stroke="#092C42" stroke-width="0.3528" stroke-miterlimit="10" stroke-linecap="round" stroke-linejoin="round"/>
<path d="M23.9165 102.29H29.5479" stroke="#092C42" stroke-width="0.3528" stroke-miterlimit="10" stroke-linecap="round" stroke-linejoin="round"/>
<path d="M35.2715 104.622H39.4597" stroke="#092C42" stroke-width="0.3528" stroke-miterlimit="10" stroke-linecap="round" stroke-linejoin="round"/>
<path d="M31.145 104.622H34.0734" stroke="#092C42" stroke-width="0.3528" stroke-miterlimit="10" stroke-linecap="round" stroke-linejoin="round"/>
<path d="M23.9165 104.622H29.5479" stroke="#092C42" stroke-width="0.3528" stroke-miterlimit="10" stroke-linecap="round" stroke-linejoin="round"/>
<path d="M79.3937 121.965H62.3994V99.3066H75.7522L79.3937 102.865V121.965Z" fill="#0096ED" stroke="#092C42" stroke-width="0.3528" stroke-miterlimit="22.9256" stroke-linejoin="round"/>
<path d="M76.2085 102.493V103.421L79.3935 102.87L76.2085 102.493Z" fill="#092C42" stroke="#092C42" stroke-width="0.3528" stroke-miterlimit="22.9256" stroke-linejoin="round"/>
<path d="M75.752 99.3066V102.869H79.3935L75.752 99.3066Z" fill="white" stroke="#092C42" stroke-width="0.3528" stroke-miterlimit="22.9256" stroke-linejoin="round"/>
<path d="M64.5571 104.229H77.6399" stroke="#092C42" stroke-width="0.3528" stroke-miterlimit="10" stroke-linecap="round" stroke-linejoin="round"/>
<path d="M64.5571 107.467H77.6399" stroke="#092C42" stroke-width="0.3528" stroke-miterlimit="10" stroke-linecap="round" stroke-linejoin="round"/>
<path d="M64.5571 110.703H77.6399" stroke="#092C42" stroke-width="0.3528" stroke-miterlimit="10" stroke-linecap="round" stroke-linejoin="round"/>
<path d="M64.5571 113.939H77.6399" stroke="#092C42" stroke-width="0.3528" stroke-miterlimit="10" stroke-linecap="round" stroke-linejoin="round"/>
<path d="M64.5571 117.178H77.6399" stroke="#092C42" stroke-width="0.3528" stroke-miterlimit="10" stroke-linecap="round" stroke-linejoin="round"/>
<path d="M61.5278 59.976H40.9214V32.501H57.1122L61.5278 36.815V59.976Z" fill="#0096ED" stroke="#092C42" stroke-width="0.3528" stroke-miterlimit="22.9256" stroke-linejoin="round"/>
<path d="M57.666 36.3643V37.4889L61.5278 36.821L57.666 36.3643Z" fill="#092C42" stroke="#092C42" stroke-width="0.3528" stroke-miterlimit="22.9256" stroke-linejoin="round"/>
<path d="M57.1118 32.501V36.821H61.5274L57.1118 32.501Z" fill="white" stroke="#092C42" stroke-width="0.3528" stroke-miterlimit="22.9256" stroke-linejoin="round"/>
<path d="M43.5376 38.4697H59.4012" stroke="#092C42" stroke-width="0.3528" stroke-miterlimit="10" stroke-linecap="round" stroke-linejoin="round"/>
<path d="M43.5376 42.3945H59.4012" stroke="#092C42" stroke-width="0.3528" stroke-miterlimit="10" stroke-linecap="round" stroke-linejoin="round"/>
<path d="M43.5376 46.3193H59.4012" stroke="#092C42" stroke-width="0.3528" stroke-miterlimit="10" stroke-linecap="round" stroke-linejoin="round"/>
<path d="M43.5376 50.2451H59.4012" stroke="#092C42" stroke-width="0.3528" stroke-miterlimit="10" stroke-linecap="round" stroke-linejoin="round"/>
<path d="M43.5376 54.1719H59.4012" stroke="#092C42" stroke-width="0.3528" stroke-miterlimit="10" stroke-linecap="round" stroke-linejoin="round"/>
<path d="M105.662 72.5425H85.0552V45.0674H101.246L105.662 49.3816V72.5425Z" fill="#0096ED" stroke="#092C42" stroke-width="0.3528" stroke-miterlimit="22.9256" stroke-linejoin="round"/>
<path d="M101.8 48.9307V50.0554L105.662 49.3874L101.8 48.9307Z" fill="#092C42" stroke="#092C42" stroke-width="0.3528" stroke-miterlimit="22.9256" stroke-linejoin="round"/>
<path d="M101.247 45.0674V49.3874H105.662L101.247 45.0674Z" fill="white" stroke="#092C42" stroke-width="0.3528" stroke-miterlimit="22.9256" stroke-linejoin="round"/>
<path d="M87.6719 51.0371H103.535" stroke="#092C42" stroke-width="0.3528" stroke-miterlimit="10" stroke-linecap="round" stroke-linejoin="round"/>
<path d="M87.6719 54.9619H103.535" stroke="#092C42" stroke-width="0.3528" stroke-miterlimit="10" stroke-linecap="round" stroke-linejoin="round"/>
<path d="M87.6719 58.8857H103.535" stroke="#092C42" stroke-width="0.3528" stroke-miterlimit="10" stroke-linecap="round" stroke-linejoin="round"/>
<path d="M87.6719 62.8135H103.535" stroke="#092C42" stroke-width="0.3528" stroke-miterlimit="10" stroke-linecap="round" stroke-linejoin="round"/>
<path d="M87.6719 66.7383H103.535" stroke="#092C42" stroke-width="0.3528" stroke-miterlimit="10" stroke-linecap="round" stroke-linejoin="round"/>
<path d="M133.308 102.994H112.701V75.5186H128.892L133.308 79.8326V102.994Z" fill="white" stroke="#092C42" stroke-width="0.3528" stroke-miterlimit="22.9256" stroke-linejoin="round"/>
<path d="M129.446 79.3818V80.5066L133.308 79.8386L129.446 79.3818Z" fill="#092C42" stroke="#092C42" stroke-width="0.3528" stroke-miterlimit="22.9256" stroke-linejoin="round"/>
<path d="M128.892 75.5186V79.8386H133.307L128.892 75.5186Z" fill="white" stroke="#092C42" stroke-width="0.3528" stroke-miterlimit="22.9256" stroke-linejoin="round"/>
<path d="M115.318 81.4873H131.181" stroke="#092C42" stroke-width="0.3528" stroke-miterlimit="10" stroke-linecap="round" stroke-linejoin="round"/>
<path d="M115.318 85.4121H131.181" stroke="#092C42" stroke-width="0.3528" stroke-miterlimit="10" stroke-linecap="round" stroke-linejoin="round"/>
<path d="M115.318 89.3369H131.181" stroke="#092C42" stroke-width="0.3528" stroke-miterlimit="10" stroke-linecap="round" stroke-linejoin="round"/>
<path d="M115.318 93.2627H131.181" stroke="#092C42" stroke-width="0.3528" stroke-miterlimit="10" stroke-linecap="round" stroke-linejoin="round"/>
<path d="M115.318 97.1865H131.181" stroke="#092C42" stroke-width="0.3528" stroke-miterlimit="10" stroke-linecap="round" stroke-linejoin="round"/>
<path d="M75.8017 88.8832H53.1261C50.6306 88.8832 48.6074 86.8602 48.6074 84.3645V57.4103C48.6074 54.9148 50.6306 52.8916 53.1261 52.8916H75.8017C78.2972 52.8916 80.3202 54.9148 80.3202 57.4103V84.3645C80.3202 86.8602 78.2972 88.8832 75.8017 88.8832Z" fill="white" stroke="#092C42" stroke-width="0.3528" stroke-miterlimit="22.9256" stroke-linejoin="round"/>
<path d="M76.7967 52.8916H52.1311C50.185 52.8916 48.6074 54.4692 48.6074 56.4153V57.1704H80.3202V56.4153C80.3202 54.4692 78.7428 52.8916 76.7967 52.8916Z" fill="#092C42" stroke="#092C42" stroke-width="0.3528" stroke-miterlimit="22.9256" stroke-linejoin="round"/>
<path d="M53.1377 63.4629H75.7898" stroke="#092C42" stroke-width="0.3528" stroke-miterlimit="10" stroke-linecap="round" stroke-linejoin="round"/>
<path d="M53.1377 69H75.7898" stroke="#092C42" stroke-width="0.3528" stroke-miterlimit="10" stroke-linecap="round" stroke-linejoin="round"/>
<path d="M53.1377 74.5381H75.7898" stroke="#092C42" stroke-width="0.3528" stroke-miterlimit="10" stroke-linecap="round" stroke-linejoin="round"/>
<path d="M53.1377 80.0732H75.7898" stroke="#092C42" stroke-width="0.3528" stroke-miterlimit="10" stroke-linecap="round" stroke-linejoin="round"/>
<path d="M72.2449 54.906C72.2449 54.35 71.7942 53.8994 71.2382 53.8994C70.6822 53.8994 70.2314 54.35 70.2314 54.906C70.2314 55.4621 70.6822 55.9129 71.2382 55.9129C71.7942 55.9129 72.2449 55.4621 72.2449 54.906Z" fill="white"/>
<path d="M75.5618 54.906C75.5618 54.35 75.1111 53.8994 74.5551 53.8994C73.9991 53.8994 73.5483 54.35 73.5483 54.906C73.5483 55.4621 73.9991 55.9129 74.5551 55.9129C75.1111 55.9129 75.5618 55.4621 75.5618 54.906Z" fill="white"/>
<path d="M78.8778 54.906C78.8778 54.35 78.427 53.8994 77.871 53.8994C77.315 53.8994 76.8643 54.35 76.8643 54.906C76.8643 55.4621 77.315 55.9129 77.871 55.9129C78.427 55.9129 78.8778 55.4621 78.8778 54.906Z" fill="white"/>
<path d="M54.0688 107.318H41.1142C38.6187 107.318 36.5957 105.295 36.5957 102.8V86.8779C36.5957 84.3824 38.6187 82.3594 41.1142 82.3594H54.0688C56.5644 82.3594 58.5875 84.3824 58.5875 86.8779V102.8C58.5875 105.295 56.5644 107.318 54.0688 107.318Z" fill="white" stroke="#092C42" stroke-width="0.3528" stroke-miterlimit="22.9256" stroke-linejoin="round"/>
<path d="M56.1439 82.3594H39.0391C37.6896 82.3594 36.5957 83.4533 36.5957 84.8028V85.3265H58.5875V84.8028C58.5875 83.4533 57.4933 82.3594 56.1439 82.3594Z" fill="#092C42" stroke="#092C42" stroke-width="0.3528" stroke-miterlimit="22.9256" stroke-linejoin="round"/>
<path d="M39.7373 89.6895H55.4457" stroke="#092C42" stroke-width="0.3528" stroke-miterlimit="10" stroke-linecap="round" stroke-linejoin="round"/>
<path d="M39.7373 93.5293H55.4457" stroke="#092C42" stroke-width="0.3528" stroke-miterlimit="10" stroke-linecap="round" stroke-linejoin="round"/>
<path d="M39.7373 97.3682H55.4457" stroke="#092C42" stroke-width="0.3528" stroke-miterlimit="10" stroke-linecap="round" stroke-linejoin="round"/>
<path d="M39.7373 101.209H55.4457" stroke="#092C42" stroke-width="0.3528" stroke-miterlimit="10" stroke-linecap="round" stroke-linejoin="round"/>
<path d="M52.9875 83.7549C52.9875 83.3692 52.675 83.0566 52.2894 83.0566C51.9038 83.0566 51.5913 83.3692 51.5913 83.7549C51.5913 84.1403 51.9038 84.453 52.2894 84.453C52.675 84.453 52.9875 84.1403 52.9875 83.7549Z" fill="white"/>
<path d="M55.2873 83.7549C55.2873 83.3692 54.9748 83.0566 54.5892 83.0566C54.2036 83.0566 53.8911 83.3692 53.8911 83.7549C53.8911 84.1403 54.2036 84.453 54.5892 84.453C54.9748 84.453 55.2873 84.1403 55.2873 83.7549Z" fill="white"/>
<path d="M57.5873 83.7549C57.5873 83.3692 57.2748 83.0566 56.8892 83.0566C56.5036 83.0566 56.1909 83.3692 56.1909 83.7549C56.1909 84.1403 56.5036 84.453 56.8892 84.453C57.2748 84.453 57.5873 84.1403 57.5873 83.7549Z" fill="white"/>
<path d="M47.4751 114.83H54.8579" stroke="#092C42" stroke-width="0.3528" stroke-miterlimit="10" stroke-linecap="round" stroke-linejoin="round"/>
<path d="M39.314 114.83H46.1433" stroke="#092C42" stroke-width="0.3528" stroke-miterlimit="10" stroke-linecap="round" stroke-linejoin="round"/>
<path d="M52.001 117.162H54.858" stroke="#092C42" stroke-width="0.3528" stroke-miterlimit="10" stroke-linecap="round" stroke-linejoin="round"/>
<path d="M39.314 117.162H50.6692" stroke="#092C42" stroke-width="0.3528" stroke-miterlimit="10" stroke-linecap="round" stroke-linejoin="round"/>
<path d="M53.731 119.495H54.8575" stroke="#092C42" stroke-width="0.3528" stroke-miterlimit="10" stroke-linecap="round" stroke-linejoin="round"/>
<path d="M47.6079 119.495H51.8676" stroke="#092C42" stroke-width="0.3528" stroke-miterlimit="10" stroke-linecap="round" stroke-linejoin="round"/>
<path d="M39.314 119.495H46.4096" stroke="#092C42" stroke-width="0.3528" stroke-miterlimit="10" stroke-linecap="round" stroke-linejoin="round"/>
<path d="M39.314 121.824H54.8573" stroke="#092C42" stroke-width="0.3528" stroke-miterlimit="10" stroke-linecap="round" stroke-linejoin="round"/>
<path d="M52.2671 124.156H54.8579" stroke="#092C42" stroke-width="0.3528" stroke-miterlimit="10" stroke-linecap="round" stroke-linejoin="round"/>
<path d="M43.3481 124.156H49.6044" stroke="#092C42" stroke-width="0.3528" stroke-miterlimit="10" stroke-linecap="round" stroke-linejoin="round"/>
<path d="M39.314 124.156H41.4843" stroke="#092C42" stroke-width="0.3528" stroke-miterlimit="10" stroke-linecap="round" stroke-linejoin="round"/>
<path d="M46.4102 126.487H54.8579" stroke="#092C42" stroke-width="0.3528" stroke-miterlimit="10" stroke-linecap="round" stroke-linejoin="round"/>
<path d="M39.314 126.487H44.9454" stroke="#092C42" stroke-width="0.3528" stroke-miterlimit="10" stroke-linecap="round" stroke-linejoin="round"/>
<path d="M50.6694 128.819H54.8576" stroke="#092C42" stroke-width="0.3528" stroke-miterlimit="10" stroke-linecap="round" stroke-linejoin="round"/>
<path d="M46.543 128.819H49.4715" stroke="#092C42" stroke-width="0.3528" stroke-miterlimit="10" stroke-linecap="round" stroke-linejoin="round"/>
<path d="M39.314 128.819H44.9454" stroke="#092C42" stroke-width="0.3528" stroke-miterlimit="10" stroke-linecap="round" stroke-linejoin="round"/>
<path d="M99.6567 111.699H107.04" stroke="#092C42" stroke-width="0.3528" stroke-miterlimit="10" stroke-linecap="round" stroke-linejoin="round"/>
<path d="M91.4966 111.699H98.3258" stroke="#092C42" stroke-width="0.3528" stroke-miterlimit="10" stroke-linecap="round" stroke-linejoin="round"/>
<path d="M104.183 114.031H107.04" stroke="#092C42" stroke-width="0.3528" stroke-miterlimit="10" stroke-linecap="round" stroke-linejoin="round"/>
<path d="M91.4966 114.031H102.852" stroke="#092C42" stroke-width="0.3528" stroke-miterlimit="10" stroke-linecap="round" stroke-linejoin="round"/>
<path d="M105.913 116.364H107.04" stroke="#092C42" stroke-width="0.3528" stroke-miterlimit="10" stroke-linecap="round" stroke-linejoin="round"/>
<path d="M99.7905 116.364H104.05" stroke="#092C42" stroke-width="0.3528" stroke-miterlimit="10" stroke-linecap="round" stroke-linejoin="round"/>
<path d="M91.4966 116.364H98.592" stroke="#092C42" stroke-width="0.3528" stroke-miterlimit="10" stroke-linecap="round" stroke-linejoin="round"/>
<path d="M91.4966 118.693H107.04" stroke="#092C42" stroke-width="0.3528" stroke-miterlimit="10" stroke-linecap="round" stroke-linejoin="round"/>
<path d="M104.449 121.025H107.04" stroke="#092C42" stroke-width="0.3528" stroke-miterlimit="10" stroke-linecap="round" stroke-linejoin="round"/>
<path d="M95.5303 121.025H101.787" stroke="#092C42" stroke-width="0.3528" stroke-miterlimit="10" stroke-linecap="round" stroke-linejoin="round"/>
<path d="M91.4966 121.025H93.6669" stroke="#092C42" stroke-width="0.3528" stroke-miterlimit="10" stroke-linecap="round" stroke-linejoin="round"/>
<path d="M98.5918 123.356H107.04" stroke="#092C42" stroke-width="0.3528" stroke-miterlimit="10" stroke-linecap="round" stroke-linejoin="round"/>
<path d="M91.4966 123.356H97.1278" stroke="#092C42" stroke-width="0.3528" stroke-miterlimit="10" stroke-linecap="round" stroke-linejoin="round"/>
<path d="M102.852 125.689H107.04" stroke="#092C42" stroke-width="0.3528" stroke-miterlimit="10" stroke-linecap="round" stroke-linejoin="round"/>
<path d="M98.7256 125.689H101.654" stroke="#092C42" stroke-width="0.3528" stroke-miterlimit="10" stroke-linecap="round" stroke-linejoin="round"/>
<path d="M91.4966 125.689H97.1278" stroke="#092C42" stroke-width="0.3528" stroke-miterlimit="10" stroke-linecap="round" stroke-linejoin="round"/>
<path d="M116.925 58.8193H124.308" stroke="#092C42" stroke-width="0.3528" stroke-miterlimit="10" stroke-linecap="round" stroke-linejoin="round"/>
<path d="M108.765 58.8193H115.594" stroke="#092C42" stroke-width="0.3528" stroke-miterlimit="10" stroke-linecap="round" stroke-linejoin="round"/>
<path d="M121.451 61.1514H124.308" stroke="#092C42" stroke-width="0.3528" stroke-miterlimit="10" stroke-linecap="round" stroke-linejoin="round"/>
<path d="M108.765 61.1514H120.12" stroke="#092C42" stroke-width="0.3528" stroke-miterlimit="10" stroke-linecap="round" stroke-linejoin="round"/>
<path d="M123.181 63.4844H124.308" stroke="#092C42" stroke-width="0.3528" stroke-miterlimit="10" stroke-linecap="round" stroke-linejoin="round"/>
<path d="M117.059 63.4844H121.318" stroke="#092C42" stroke-width="0.3528" stroke-miterlimit="10" stroke-linecap="round" stroke-linejoin="round"/>
<path d="M108.765 63.4844H115.86" stroke="#092C42" stroke-width="0.3528" stroke-miterlimit="10" stroke-linecap="round" stroke-linejoin="round"/>
<path d="M108.765 65.8135H124.308" stroke="#092C42" stroke-width="0.3528" stroke-miterlimit="10" stroke-linecap="round" stroke-linejoin="round"/>
<path d="M121.717 68.1455H124.308" stroke="#092C42" stroke-width="0.3528" stroke-miterlimit="10" stroke-linecap="round" stroke-linejoin="round"/>
<path d="M112.799 68.1455H119.055" stroke="#092C42" stroke-width="0.3528" stroke-miterlimit="10" stroke-linecap="round" stroke-linejoin="round"/>
<path d="M108.765 68.1455H110.935" stroke="#092C42" stroke-width="0.3528" stroke-miterlimit="10" stroke-linecap="round" stroke-linejoin="round"/>
<path d="M115.86 70.4756H124.308" stroke="#092C42" stroke-width="0.3528" stroke-miterlimit="10" stroke-linecap="round" stroke-linejoin="round"/>
<path d="M108.765 70.4756H114.396" stroke="#092C42" stroke-width="0.3528" stroke-miterlimit="10" stroke-linecap="round" stroke-linejoin="round"/>
<path d="M120.12 72.8086H124.308" stroke="#092C42" stroke-width="0.3528" stroke-miterlimit="10" stroke-linecap="round" stroke-linejoin="round"/>
<path d="M115.994 72.8086H118.922" stroke="#092C42" stroke-width="0.3528" stroke-miterlimit="10" stroke-linecap="round" stroke-linejoin="round"/>
<path d="M108.765 72.8086H114.396" stroke="#092C42" stroke-width="0.3528" stroke-miterlimit="10" stroke-linecap="round" stroke-linejoin="round"/>
<path d="M35.9404 64.084H43.3232" stroke="#092C42" stroke-width="0.3528" stroke-miterlimit="10" stroke-linecap="round" stroke-linejoin="round"/>
<path d="M27.7803 64.084H34.6095" stroke="#092C42" stroke-width="0.3528" stroke-miterlimit="10" stroke-linecap="round" stroke-linejoin="round"/>
<path d="M40.4663 66.416H43.3233" stroke="#092C42" stroke-width="0.3528" stroke-miterlimit="10" stroke-linecap="round" stroke-linejoin="round"/>
<path d="M27.7803 66.416H39.1355" stroke="#092C42" stroke-width="0.3528" stroke-miterlimit="10" stroke-linecap="round" stroke-linejoin="round"/>
<path d="M42.1968 68.749H43.3233" stroke="#092C42" stroke-width="0.3528" stroke-miterlimit="10" stroke-linecap="round" stroke-linejoin="round"/>
<path d="M36.0737 68.749H40.3333" stroke="#092C42" stroke-width="0.3528" stroke-miterlimit="10" stroke-linecap="round" stroke-linejoin="round"/>
<path d="M27.7803 68.749H34.8757" stroke="#092C42" stroke-width="0.3528" stroke-miterlimit="10" stroke-linecap="round" stroke-linejoin="round"/>
<path d="M27.7803 71.0781H43.3235" stroke="#092C42" stroke-width="0.3528" stroke-miterlimit="10" stroke-linecap="round" stroke-linejoin="round"/>
<path d="M40.7329 73.4102H43.3235" stroke="#092C42" stroke-width="0.3528" stroke-miterlimit="10" stroke-linecap="round" stroke-linejoin="round"/>
<path d="M31.814 73.4102H38.0704" stroke="#092C42" stroke-width="0.3528" stroke-miterlimit="10" stroke-linecap="round" stroke-linejoin="round"/>
<path d="M27.7803 73.4102H29.9505" stroke="#092C42" stroke-width="0.3528" stroke-miterlimit="10" stroke-linecap="round" stroke-linejoin="round"/>
<path d="M34.8755 75.7412H43.3232" stroke="#092C42" stroke-width="0.3528" stroke-miterlimit="10" stroke-linecap="round" stroke-linejoin="round"/>
<path d="M27.7803 75.7412H33.4115" stroke="#092C42" stroke-width="0.3528" stroke-miterlimit="10" stroke-linecap="round" stroke-linejoin="round"/>
<path d="M39.1353 78.0742H43.3233" stroke="#092C42" stroke-width="0.3528" stroke-miterlimit="10" stroke-linecap="round" stroke-linejoin="round"/>
<path d="M35.0088 78.0742H37.9372" stroke="#092C42" stroke-width="0.3528" stroke-miterlimit="10" stroke-linecap="round" stroke-linejoin="round"/>
<path d="M27.7803 78.0742H33.4115" stroke="#092C42" stroke-width="0.3528" stroke-miterlimit="10" stroke-linecap="round" stroke-linejoin="round"/>
<path d="M82.1045 82.5587V105.721H102.709V78.2461H86.5223L82.1045 82.5587Z" fill="white" stroke="#092C42" stroke-width="0.3528" stroke-miterlimit="22.9256" stroke-linejoin="round"/>
<path d="M85.9671 82.1084V83.233L82.1055 82.5651L85.9671 82.1084Z" fill="#092C42" stroke="#092C42" stroke-width="0.3528" stroke-miterlimit="22.9256" stroke-linejoin="round"/>
<path d="M86.5204 78.2451V82.5651H82.105L86.5204 78.2451Z" fill="white" stroke="#092C42" stroke-width="0.3528" stroke-miterlimit="22.9256" stroke-linejoin="round"/>
<path d="M100.095 84.2139H84.231" stroke="#092C42" stroke-width="0.3528" stroke-miterlimit="10" stroke-linecap="round" stroke-linejoin="round"/>
<path d="M100.095 88.1396H84.231" stroke="#092C42" stroke-width="0.3528" stroke-miterlimit="10" stroke-linecap="round" stroke-linejoin="round"/>
<path d="M100.095 92.0635H84.231" stroke="#092C42" stroke-width="0.3528" stroke-miterlimit="10" stroke-linecap="round" stroke-linejoin="round"/>
<path d="M100.095 95.9902H84.231" stroke="#092C42" stroke-width="0.3528" stroke-miterlimit="10" stroke-linecap="round" stroke-linejoin="round"/>
<path d="M102.709 99.3076V105.721H82.1045V99.3076H102.709Z" fill="#092C42" stroke="#092C42" stroke-width="0.3528" stroke-miterlimit="22.9256" stroke-linejoin="round"/>
<path d="M105.894 91.222H91.6348V84.3545H105.894V91.222Z" fill="#092C42" stroke="#092C42" stroke-width="0.3528" stroke-miterlimit="22.9256" stroke-linejoin="round"/>
<path d="M97.4869 85.3301C98.2136 85.3301 98.5237 85.7593 98.5237 86.4593V87.0138C98.5237 87.7469 98.1802 88.1298 97.4474 88.1298H96.9919V89.9523H96.4766V85.3301H97.4869ZM97.4474 87.6677C97.8303 87.6677 98.0152 87.4894 98.0152 87.0467V86.4328C98.0152 86.0103 97.8632 85.799 97.4869 85.799H96.9919V87.6677H97.4474Z" fill="white"/>
<path d="M100.028 85.3301C100.748 85.3301 101.078 85.766 101.078 86.4789V88.8099C101.078 89.5165 100.748 89.9523 100.028 89.9523H98.9458V85.3301H100.028ZM100.022 89.4834C100.392 89.4834 100.57 89.2524 100.57 88.83V86.4526C100.57 86.03 100.392 85.799 100.015 85.799H99.4609V89.4834H100.022Z" fill="white"/>
<path d="M103.137 87.4826V87.9513H102.074V89.9523H101.559V85.3301H103.395V85.799H102.074V87.4826H103.137Z" fill="white"/>
<path d="M349.465 104.007L345.829 103.915L345.777 105.983" stroke="#092C42" stroke-opacity="0.2" stroke-width="0.3528" stroke-miterlimit="10" stroke-linecap="round" stroke-linejoin="round"/>
<path d="M345.777 105.981C344.862 106.078 343.975 106.272 343.13 106.561" stroke="#092C42" stroke-opacity="0.2" stroke-width="0.3528" stroke-miterlimit="10" stroke-linecap="round" stroke-linejoin="round"/>
<path d="M343.131 106.561L342.111 104.688L338.916 106.426L339.905 108.243" stroke="#092C42" stroke-opacity="0.2" stroke-width="0.3528" stroke-miterlimit="10" stroke-linecap="round" stroke-linejoin="round"/>
<path d="M339.905 108.244C339.173 108.778 338.501 109.39 337.905 110.071" stroke="#092C42" stroke-opacity="0.2" stroke-width="0.3528" stroke-miterlimit="10" stroke-linecap="round" stroke-linejoin="round"/>
<path d="M337.905 110.069L336.082 108.954L334.185 112.058L335.946 113.134" stroke="#092C42" stroke-opacity="0.2" stroke-width="0.3528" stroke-miterlimit="10" stroke-linecap="round" stroke-linejoin="round"/>
<path d="M335.947 113.136C335.583 113.953 335.309 114.818 335.132 115.72" stroke="#092C42" stroke-opacity="0.2" stroke-width="0.3528" stroke-miterlimit="10" stroke-linecap="round" stroke-linejoin="round"/>
<path d="M335.132 115.72L332.995 115.666L332.904 119.302L334.971 119.354" stroke="#092C42" stroke-opacity="0.2" stroke-width="0.3528" stroke-miterlimit="10" stroke-linecap="round" stroke-linejoin="round"/>
<path d="M334.972 119.353C335.068 120.268 335.263 121.154 335.551 121.999" stroke="#092C42" stroke-opacity="0.2" stroke-width="0.3528" stroke-miterlimit="10" stroke-linecap="round" stroke-linejoin="round"/>
<path d="M335.551 122.002L333.677 123.022L335.416 126.217L337.232 125.228" stroke="#092C42" stroke-opacity="0.2" stroke-width="0.3528" stroke-miterlimit="10" stroke-linecap="round" stroke-linejoin="round"/>
<path d="M337.232 125.227C337.766 125.958 338.378 126.63 339.059 127.226" stroke="#092C42" stroke-opacity="0.2" stroke-width="0.3528" stroke-miterlimit="10" stroke-linecap="round" stroke-linejoin="round"/>
<path d="M339.059 127.226L337.945 129.049L341.048 130.946L342.125 129.184" stroke="#092C42" stroke-opacity="0.2" stroke-width="0.3528" stroke-miterlimit="10" stroke-linecap="round" stroke-linejoin="round"/>
<path d="M342.125 129.184C342.942 129.547 343.807 129.821 344.709 129.998" stroke="#092C42" stroke-opacity="0.2" stroke-width="0.3528" stroke-miterlimit="10" stroke-linecap="round" stroke-linejoin="round"/>
<path d="M344.709 130L344.656 132.137L348.292 132.228L348.344 130.161" stroke="#092C42" stroke-opacity="0.2" stroke-width="0.3528" stroke-miterlimit="10" stroke-linecap="round" stroke-linejoin="round"/>
<path d="M348.343 130.16C349.258 130.064 350.145 129.869 350.99 129.58" stroke="#092C42" stroke-opacity="0.2" stroke-width="0.3528" stroke-miterlimit="10" stroke-linecap="round" stroke-linejoin="round"/>
<path d="M350.99 129.58L352.01 131.454L355.205 129.715L354.216 127.898" stroke="#092C42" stroke-opacity="0.2" stroke-width="0.3528" stroke-miterlimit="10" stroke-linecap="round" stroke-linejoin="round"/>
<path d="M354.216 127.898C354.948 127.365 355.619 126.753 356.215 126.071" stroke="#092C42" stroke-opacity="0.2" stroke-width="0.3528" stroke-miterlimit="10" stroke-linecap="round" stroke-linejoin="round"/>
<path d="M356.216 126.072L358.039 127.187L359.936 124.084L358.175 123.007" stroke="#092C42" stroke-opacity="0.2" stroke-width="0.3528" stroke-miterlimit="10" stroke-linecap="round" stroke-linejoin="round"/>
<path d="M358.175 123.007C358.538 122.19 358.812 121.325 358.989 120.423" stroke="#092C42" stroke-opacity="0.2" stroke-width="0.3528" stroke-miterlimit="10" stroke-linecap="round" stroke-linejoin="round"/>
<path d="M358.989 120.422L361.125 120.476L361.217 116.84L359.149 116.788" stroke="#092C42" stroke-opacity="0.2" stroke-width="0.3528" stroke-miterlimit="10" stroke-linecap="round" stroke-linejoin="round"/>
<path d="M359.149 116.788C359.053 115.873 358.858 114.986 358.57 114.142" stroke="#092C42" stroke-opacity="0.2" stroke-width="0.3528" stroke-miterlimit="10" stroke-linecap="round" stroke-linejoin="round"/>
<path d="M358.57 114.143L360.444 113.123L358.705 109.929L356.889 110.917" stroke="#092C42" stroke-opacity="0.2" stroke-width="0.3528" stroke-miterlimit="10" stroke-linecap="round" stroke-linejoin="round"/>
<path d="M356.888 110.916C356.354 110.183 355.742 109.512 355.061 108.916" stroke="#092C42" stroke-opacity="0.2" stroke-width="0.3528" stroke-miterlimit="10" stroke-linecap="round" stroke-linejoin="round"/>
<path d="M355.061 108.914L356.176 107.091L353.072 105.194L351.996 106.955" stroke="#092C42" stroke-opacity="0.2" stroke-width="0.3528" stroke-miterlimit="10" stroke-linecap="round" stroke-linejoin="round"/>
<path d="M351.996 106.957C351.179 106.593 350.313 106.319 349.412 106.143" stroke="#092C42" stroke-opacity="0.2" stroke-width="0.3528" stroke-miterlimit="10" stroke-linecap="round" stroke-linejoin="round"/>
<path d="M349.412 106.144L349.465 104.007" stroke="#092C42" stroke-opacity="0.2" stroke-width="0.3528" stroke-miterlimit="10" stroke-linecap="round" stroke-linejoin="round"/>
<path d="M346.84 126.822C342.007 126.701 338.187 122.684 338.308 117.85C338.43 113.017 342.447 109.197 347.281 109.318C352.114 109.44 355.934 113.457 355.813 118.29C355.691 123.124 351.674 126.944 346.84 126.822Z" stroke="#092C42" stroke-opacity="0.2" stroke-width="0.3528" stroke-miterlimit="10" stroke-linecap="round" stroke-linejoin="round"/>
<path d="M339.191 76.8298L335.555 76.7383L335.503 78.8058" stroke="#092C42" stroke-opacity="0.2" stroke-width="0.3528" stroke-miterlimit="10" stroke-linecap="round" stroke-linejoin="round"/>
<path d="M335.503 78.8066C334.587 78.9026 333.701 79.0977 332.856 79.3863" stroke="#092C42" stroke-opacity="0.2" stroke-width="0.3528" stroke-miterlimit="10" stroke-linecap="round" stroke-linejoin="round"/>
<path d="M332.856 79.3856L331.836 77.5117L328.642 79.2507L329.63 81.067" stroke="#092C42" stroke-opacity="0.2" stroke-width="0.3528" stroke-miterlimit="10" stroke-linecap="round" stroke-linejoin="round"/>
<path d="M329.63 81.0674C328.898 81.601 328.227 82.2133 327.631 82.8946" stroke="#092C42" stroke-opacity="0.2" stroke-width="0.3528" stroke-miterlimit="10" stroke-linecap="round" stroke-linejoin="round"/>
<path d="M327.631 82.893L325.808 81.7783L323.911 84.8818L325.672 85.9584" stroke="#092C42" stroke-opacity="0.2" stroke-width="0.3528" stroke-miterlimit="10" stroke-linecap="round" stroke-linejoin="round"/>
<path d="M325.672 85.96C325.308 86.777 325.034 87.6423 324.857 88.544" stroke="#092C42" stroke-opacity="0.2" stroke-width="0.3528" stroke-miterlimit="10" stroke-linecap="round" stroke-linejoin="round"/>
<path d="M324.858 88.543L322.721 88.4893L322.629 92.1253L324.697 92.1772" stroke="#092C42" stroke-opacity="0.2" stroke-width="0.3528" stroke-miterlimit="10" stroke-linecap="round" stroke-linejoin="round"/>
<path d="M324.697 92.1777C324.793 93.093 324.988 93.9796 325.276 94.8244" stroke="#092C42" stroke-opacity="0.2" stroke-width="0.3528" stroke-miterlimit="10" stroke-linecap="round" stroke-linejoin="round"/>
<path d="M325.276 94.8242L323.402 95.8444L325.141 99.039L326.958 98.0504" stroke="#092C42" stroke-opacity="0.2" stroke-width="0.3528" stroke-miterlimit="10" stroke-linecap="round" stroke-linejoin="round"/>
<path d="M326.958 98.0518C327.491 98.7836 328.104 99.4551 328.785 100.051" stroke="#092C42" stroke-opacity="0.2" stroke-width="0.3528" stroke-miterlimit="10" stroke-linecap="round" stroke-linejoin="round"/>
<path d="M328.785 100.05L327.67 101.873L330.774 103.77L331.851 102.009" stroke="#092C42" stroke-opacity="0.2" stroke-width="0.3528" stroke-miterlimit="10" stroke-linecap="round" stroke-linejoin="round"/>
<path d="M331.851 102.01C332.667 102.373 333.533 102.647 334.435 102.824" stroke="#092C42" stroke-opacity="0.2" stroke-width="0.3528" stroke-miterlimit="10" stroke-linecap="round" stroke-linejoin="round"/>
<path d="M334.435 102.823L334.381 104.96L338.017 105.051L338.069 102.984" stroke="#092C42" stroke-opacity="0.2" stroke-width="0.3528" stroke-miterlimit="10" stroke-linecap="round" stroke-linejoin="round"/>
<path d="M338.069 102.986C338.984 102.89 339.871 102.695 340.716 102.406" stroke="#092C42" stroke-opacity="0.2" stroke-width="0.3528" stroke-miterlimit="10" stroke-linecap="round" stroke-linejoin="round"/>
<path d="M340.715 102.404L341.735 104.278L344.93 102.539L343.941 100.723" stroke="#092C42" stroke-opacity="0.2" stroke-width="0.3528" stroke-miterlimit="10" stroke-linecap="round" stroke-linejoin="round"/>
<path d="M343.941 100.725C344.673 100.191 345.345 99.5787 345.941 98.8975" stroke="#092C42" stroke-opacity="0.2" stroke-width="0.3528" stroke-miterlimit="10" stroke-linecap="round" stroke-linejoin="round"/>
<path d="M345.941 98.8957L347.764 100.01L349.662 96.9069L347.9 95.8301" stroke="#092C42" stroke-opacity="0.2" stroke-width="0.3528" stroke-miterlimit="10" stroke-linecap="round" stroke-linejoin="round"/>
<path d="M347.9 95.829C348.263 95.0122 348.537 94.1467 348.714 93.2451" stroke="#092C42" stroke-opacity="0.2" stroke-width="0.3528" stroke-miterlimit="10" stroke-linecap="round" stroke-linejoin="round"/>
<path d="M348.714 93.2467L350.851 93.3004L350.943 89.6642L348.875 89.6123" stroke="#092C42" stroke-opacity="0.2" stroke-width="0.3528" stroke-miterlimit="10" stroke-linecap="round" stroke-linejoin="round"/>
<path d="M348.875 89.6107C348.779 88.6955 348.584 87.8089 348.295 86.9639" stroke="#092C42" stroke-opacity="0.2" stroke-width="0.3528" stroke-miterlimit="10" stroke-linecap="round" stroke-linejoin="round"/>
<path d="M348.295 86.9656L350.169 85.9456L348.43 82.751L346.614 83.7397" stroke="#092C42" stroke-opacity="0.2" stroke-width="0.3528" stroke-miterlimit="10" stroke-linecap="round" stroke-linejoin="round"/>
<path d="M346.614 83.7397C346.081 83.0077 345.468 82.3361 344.787 81.7402" stroke="#092C42" stroke-opacity="0.2" stroke-width="0.3528" stroke-miterlimit="10" stroke-linecap="round" stroke-linejoin="round"/>
<path d="M344.787 81.7408L345.901 79.9178L342.798 78.0205L341.721 79.7818" stroke="#092C42" stroke-opacity="0.2" stroke-width="0.3528" stroke-miterlimit="10" stroke-linecap="round" stroke-linejoin="round"/>
<path d="M341.721 79.78C340.904 79.4167 340.039 79.1425 339.137 78.9658" stroke="#092C42" stroke-opacity="0.2" stroke-width="0.3528" stroke-miterlimit="10" stroke-linecap="round" stroke-linejoin="round"/>
<path d="M339.137 78.9678L339.191 76.8311" stroke="#092C42" stroke-opacity="0.2" stroke-width="0.3528" stroke-miterlimit="10" stroke-linecap="round" stroke-linejoin="round"/>
<path d="M336.566 99.6465C331.732 99.5249 327.912 95.508 328.034 90.6745C328.156 85.8409 332.173 82.0209 337.006 82.1425C341.84 82.2639 345.66 86.2809 345.538 91.1145C345.417 95.9481 341.4 99.7679 336.566 99.6465Z" stroke="#092C42" stroke-opacity="0.2" stroke-width="0.3528" stroke-miterlimit="10" stroke-linecap="round" stroke-linejoin="round"/>
<path d="M162.229 42.9753V39.3379H160.161" stroke="#092C42" stroke-opacity="0.2" stroke-width="0.3528" stroke-miterlimit="10" stroke-linecap="round" stroke-linejoin="round"/>
<path d="M160.161 39.3383C160.042 38.4259 159.825 37.5443 159.515 36.707" stroke="#092C42" stroke-opacity="0.2" stroke-width="0.3528" stroke-miterlimit="10" stroke-linecap="round" stroke-linejoin="round"/>
<path d="M159.515 36.707L161.363 35.6401L159.544 32.4902L157.753 33.5241" stroke="#092C42" stroke-opacity="0.2" stroke-width="0.3528" stroke-miterlimit="10" stroke-linecap="round" stroke-linejoin="round"/>
<path d="M157.753 33.5232C157.201 32.805 156.572 32.1491 155.876 31.5703" stroke="#092C42" stroke-opacity="0.2" stroke-width="0.3528" stroke-miterlimit="10" stroke-linecap="round" stroke-linejoin="round"/>
<path d="M155.877 31.5705L156.945 29.7201L153.795 27.9014L152.763 29.6891" stroke="#092C42" stroke-opacity="0.2" stroke-width="0.3528" stroke-miterlimit="10" stroke-linecap="round" stroke-linejoin="round"/>
<path d="M152.763 29.6893C151.937 29.3469 151.065 29.0943 150.159 28.9404" stroke="#092C42" stroke-opacity="0.2" stroke-width="0.3528" stroke-miterlimit="10" stroke-linecap="round" stroke-linejoin="round"/>
<path d="M150.159 28.9412V26.8037H146.521V28.8718" stroke="#092C42" stroke-opacity="0.2" stroke-width="0.3528" stroke-miterlimit="10" stroke-linecap="round" stroke-linejoin="round"/>
<path d="M146.521 28.8721C145.609 28.9911 144.727 29.2082 143.89 29.5181" stroke="#092C42" stroke-opacity="0.2" stroke-width="0.3528" stroke-miterlimit="10" stroke-linecap="round" stroke-linejoin="round"/>
<path d="M143.891 29.5176L142.824 27.6699L139.674 29.4885L140.708 31.2793" stroke="#092C42" stroke-opacity="0.2" stroke-width="0.3528" stroke-miterlimit="10" stroke-linecap="round" stroke-linejoin="round"/>
<path d="M140.708 31.2793C139.989 31.8313 139.334 32.4602 138.755 33.1562" stroke="#092C42" stroke-opacity="0.2" stroke-width="0.3528" stroke-miterlimit="10" stroke-linecap="round" stroke-linejoin="round"/>
<path d="M138.755 33.1562L136.904 32.0879L135.085 35.2379L136.873 36.2701" stroke="#092C42" stroke-opacity="0.2" stroke-width="0.3528" stroke-miterlimit="10" stroke-linecap="round" stroke-linejoin="round"/>
<path d="M136.873 36.2686C136.53 37.0943 136.278 37.9664 136.124 38.8721" stroke="#092C42" stroke-opacity="0.2" stroke-width="0.3528" stroke-miterlimit="10" stroke-linecap="round" stroke-linejoin="round"/>
<path d="M136.124 38.873H133.987V42.5104H136.055" stroke="#092C42" stroke-opacity="0.2" stroke-width="0.3528" stroke-miterlimit="10" stroke-linecap="round" stroke-linejoin="round"/>
<path d="M136.056 42.5107C136.175 43.4233 136.392 44.3047 136.702 45.142" stroke="#092C42" stroke-opacity="0.2" stroke-width="0.3528" stroke-miterlimit="10" stroke-linecap="round" stroke-linejoin="round"/>
<path d="M136.701 45.1406L134.854 46.2075L136.672 49.3574L138.463 48.3235" stroke="#092C42" stroke-opacity="0.2" stroke-width="0.3528" stroke-miterlimit="10" stroke-linecap="round" stroke-linejoin="round"/>
<path d="M138.463 48.3242C139.015 49.0424 139.644 49.6984 140.34 50.2771" stroke="#092C42" stroke-opacity="0.2" stroke-width="0.3528" stroke-miterlimit="10" stroke-linecap="round" stroke-linejoin="round"/>
<path d="M140.34 50.2773L139.271 52.1277L142.421 53.9464L143.454 52.1585" stroke="#092C42" stroke-opacity="0.2" stroke-width="0.3528" stroke-miterlimit="10" stroke-linecap="round" stroke-linejoin="round"/>
<path d="M143.453 52.1592C144.279 52.5018 145.151 52.7543 146.057 52.9083" stroke="#092C42" stroke-opacity="0.2" stroke-width="0.3528" stroke-miterlimit="10" stroke-linecap="round" stroke-linejoin="round"/>
<path d="M146.057 52.9082V55.0457H149.695V52.9774" stroke="#092C42" stroke-opacity="0.2" stroke-width="0.3528" stroke-miterlimit="10" stroke-linecap="round" stroke-linejoin="round"/>
<path d="M149.694 52.976C150.607 52.857 151.488 52.6398 152.326 52.3301" stroke="#092C42" stroke-opacity="0.2" stroke-width="0.3528" stroke-miterlimit="10" stroke-linecap="round" stroke-linejoin="round"/>
<path d="M152.326 52.3302L153.393 54.1778L156.542 52.3592L155.508 50.5684" stroke="#092C42" stroke-opacity="0.2" stroke-width="0.3528" stroke-miterlimit="10" stroke-linecap="round" stroke-linejoin="round"/>
<path d="M155.509 50.5702C156.227 50.0183 156.883 49.3894 157.462 48.6934" stroke="#092C42" stroke-opacity="0.2" stroke-width="0.3528" stroke-miterlimit="10" stroke-linecap="round" stroke-linejoin="round"/>
<path d="M157.461 48.6939L159.312 49.7623L161.131 46.6123L159.343 45.5801" stroke="#092C42" stroke-opacity="0.2" stroke-width="0.3528" stroke-miterlimit="10" stroke-linecap="round" stroke-linejoin="round"/>
<path d="M159.343 45.5791C159.685 44.7535 159.938 43.8814 160.092 42.9756" stroke="#092C42" stroke-opacity="0.2" stroke-width="0.3528" stroke-miterlimit="10" stroke-linecap="round" stroke-linejoin="round"/>
<path d="M160.091 42.9756H162.229" stroke="#092C42" stroke-opacity="0.2" stroke-width="0.3528" stroke-miterlimit="10" stroke-linecap="round" stroke-linejoin="round"/>
<path d="M139.354 40.9247C139.354 36.0896 143.273 32.1699 148.108 32.1699C152.943 32.1699 156.863 36.0896 156.863 40.9247C156.863 45.7598 152.943 49.6795 148.108 49.6795C143.273 49.6795 139.354 45.7598 139.354 40.9247Z" stroke="#092C42" stroke-opacity="0.2" stroke-width="0.3528" stroke-miterlimit="10" stroke-linecap="round" stroke-linejoin="round"/>
<path d="M189.138 32.0201V28.3828H187.07" stroke="#092C42" stroke-opacity="0.2" stroke-width="0.3528" stroke-miterlimit="10" stroke-linecap="round" stroke-linejoin="round"/>
<path d="M187.07 28.3843C186.951 27.4718 186.734 26.5902 186.424 25.7529" stroke="#092C42" stroke-opacity="0.2" stroke-width="0.3528" stroke-miterlimit="10" stroke-linecap="round" stroke-linejoin="round"/>
<path d="M186.424 25.7519L188.272 24.685L186.453 21.5352L184.663 22.5691" stroke="#092C42" stroke-opacity="0.2" stroke-width="0.3528" stroke-miterlimit="10" stroke-linecap="round" stroke-linejoin="round"/>
<path d="M184.662 22.5701C184.11 21.8518 183.481 21.1958 182.785 20.6172" stroke="#092C42" stroke-opacity="0.2" stroke-width="0.3528" stroke-miterlimit="10" stroke-linecap="round" stroke-linejoin="round"/>
<path d="M182.786 20.6164L183.854 18.7658L180.704 16.9473L179.672 18.735" stroke="#092C42" stroke-opacity="0.2" stroke-width="0.3528" stroke-miterlimit="10" stroke-linecap="round" stroke-linejoin="round"/>
<path d="M179.672 18.7363C178.846 18.3937 177.974 18.1412 177.068 17.9873" stroke="#092C42" stroke-opacity="0.2" stroke-width="0.3528" stroke-miterlimit="10" stroke-linecap="round" stroke-linejoin="round"/>
<path d="M177.069 17.9861V15.8486H173.431V17.9167" stroke="#092C42" stroke-opacity="0.2" stroke-width="0.3528" stroke-miterlimit="10" stroke-linecap="round" stroke-linejoin="round"/>
<path d="M173.431 17.916C172.519 18.0351 171.637 18.2523 170.8 18.562" stroke="#092C42" stroke-opacity="0.2" stroke-width="0.3528" stroke-miterlimit="10" stroke-linecap="round" stroke-linejoin="round"/>
<path d="M170.8 18.5626L169.733 16.7148L166.583 18.5335L167.617 20.3243" stroke="#092C42" stroke-opacity="0.2" stroke-width="0.3528" stroke-miterlimit="10" stroke-linecap="round" stroke-linejoin="round"/>
<path d="M167.617 20.3252C166.899 20.8772 166.243 21.5062 165.664 22.2022" stroke="#092C42" stroke-opacity="0.2" stroke-width="0.3528" stroke-miterlimit="10" stroke-linecap="round" stroke-linejoin="round"/>
<path d="M165.664 22.2013L163.813 21.1328L161.995 24.2828L163.783 25.315" stroke="#092C42" stroke-opacity="0.2" stroke-width="0.3528" stroke-miterlimit="10" stroke-linecap="round" stroke-linejoin="round"/>
<path d="M163.783 25.3164C163.441 26.1422 163.188 27.0143 163.034 27.9201" stroke="#092C42" stroke-opacity="0.2" stroke-width="0.3528" stroke-miterlimit="10" stroke-linecap="round" stroke-linejoin="round"/>
<path d="M163.034 27.918H160.896V31.5552H162.965" stroke="#092C42" stroke-opacity="0.2" stroke-width="0.3528" stroke-miterlimit="10" stroke-linecap="round" stroke-linejoin="round"/>
<path d="M162.964 31.5547C163.083 32.4672 163.301 33.3487 163.61 34.1859" stroke="#092C42" stroke-opacity="0.2" stroke-width="0.3528" stroke-miterlimit="10" stroke-linecap="round" stroke-linejoin="round"/>
<path d="M163.61 34.1885L161.763 35.2553L163.581 38.4054L165.372 37.3714" stroke="#092C42" stroke-opacity="0.2" stroke-width="0.3528" stroke-miterlimit="10" stroke-linecap="round" stroke-linejoin="round"/>
<path d="M165.372 37.3701C165.924 38.0885 166.553 38.7443 167.249 39.323" stroke="#092C42" stroke-opacity="0.2" stroke-width="0.3528" stroke-miterlimit="10" stroke-linecap="round" stroke-linejoin="round"/>
<path d="M167.249 39.3242L166.181 41.1746L169.331 42.9933L170.363 41.2056" stroke="#092C42" stroke-opacity="0.2" stroke-width="0.3528" stroke-miterlimit="10" stroke-linecap="round" stroke-linejoin="round"/>
<path d="M170.363 41.2051C171.189 41.5475 172.061 41.8001 172.966 41.9541" stroke="#092C42" stroke-opacity="0.2" stroke-width="0.3528" stroke-miterlimit="10" stroke-linecap="round" stroke-linejoin="round"/>
<path d="M172.967 41.9531V44.0906H176.604V42.0223" stroke="#092C42" stroke-opacity="0.2" stroke-width="0.3528" stroke-miterlimit="10" stroke-linecap="round" stroke-linejoin="round"/>
<path d="M176.604 42.0248C177.517 41.9059 178.398 41.6886 179.235 41.3789" stroke="#092C42" stroke-opacity="0.2" stroke-width="0.3528" stroke-miterlimit="10" stroke-linecap="round" stroke-linejoin="round"/>
<path d="M179.235 41.3761L180.302 43.2238L183.452 41.4051L182.418 39.6143" stroke="#092C42" stroke-opacity="0.2" stroke-width="0.3528" stroke-miterlimit="10" stroke-linecap="round" stroke-linejoin="round"/>
<path d="M182.418 39.6152C183.136 39.0632 183.792 38.4343 184.371 37.7383" stroke="#092C42" stroke-opacity="0.2" stroke-width="0.3528" stroke-miterlimit="10" stroke-linecap="round" stroke-linejoin="round"/>
<path d="M184.371 37.7397L186.221 38.808L188.04 35.658L186.252 34.626" stroke="#092C42" stroke-opacity="0.2" stroke-width="0.3528" stroke-miterlimit="10" stroke-linecap="round" stroke-linejoin="round"/>
<path d="M186.252 34.6252C186.595 33.7994 186.847 32.9273 187.001 32.0215" stroke="#092C42" stroke-opacity="0.2" stroke-width="0.3528" stroke-miterlimit="10" stroke-linecap="round" stroke-linejoin="round"/>
<path d="M187.001 32.0215H189.138" stroke="#092C42" stroke-opacity="0.2" stroke-width="0.3528" stroke-miterlimit="10" stroke-linecap="round" stroke-linejoin="round"/>
<path d="M166.263 29.9706C166.263 25.1355 170.182 21.2158 175.017 21.2158C179.853 21.2158 183.772 25.1355 183.772 29.9706C183.772 34.8058 179.853 38.7254 175.017 38.7254C170.182 38.7254 166.263 34.8058 166.263 29.9706V29.9706Z" stroke="#092C42" stroke-opacity="0.2" stroke-width="0.3528" stroke-miterlimit="10" stroke-linecap="round" stroke-linejoin="round"/>
<path d="M85.1667 130.955C89.6807 133.399 91.3593 139.039 88.916 143.552C86.4728 148.067 80.8327 149.745 76.3188 147.302C71.8049 144.859 70.1262 139.219 72.5695 134.705C75.0128 130.191 80.6527 128.512 85.1667 130.955Z" stroke="#092C42" stroke-opacity="0.2" stroke-width="0.3528" stroke-miterlimit="10" stroke-linecap="round" stroke-linejoin="round"/>
<path d="M84.1201 132.889C87.5666 134.755 88.8482 139.061 86.9828 142.507C85.1172 145.954 80.811 147.235 77.3646 145.37C73.9181 143.504 72.6363 139.198 74.5019 135.752C76.3673 132.305 80.6737 131.024 84.1201 132.889Z" stroke="#092C42" stroke-opacity="0.2" stroke-width="0.3528" stroke-miterlimit="10" stroke-linecap="round" stroke-linejoin="round"/>
<path d="M94.3507 145.499L89.3322 142.782L88.5 144.32L93.5187 147.036" stroke="#092C42" stroke-opacity="0.2" stroke-width="0.3528" stroke-miterlimit="10"/>
<path d="M93.5186 147.037C93.2888 147.462 93.4467 147.992 93.8712 148.222" stroke="#092C42" stroke-opacity="0.2" stroke-width="0.3528" stroke-miterlimit="10"/>
<path d="M93.8711 148.224L103.433 153.399" stroke="#092C42" stroke-opacity="0.2" stroke-width="0.3528" stroke-miterlimit="10"/>
<path d="M103.433 153.398C103.857 153.627 104.388 153.469 104.617 153.045" stroke="#092C42" stroke-opacity="0.2" stroke-width="0.3528" stroke-miterlimit="10"/>
<path d="M104.618 153.046L105.45 151.509" stroke="#092C42" stroke-opacity="0.2" stroke-width="0.3528" stroke-miterlimit="10"/>
<path d="M105.45 151.507C105.68 151.082 105.522 150.552 105.097 150.322" stroke="#092C42" stroke-opacity="0.2" stroke-width="0.3528" stroke-miterlimit="10"/>
<path d="M105.097 150.324L95.5352 145.148" stroke="#092C42" stroke-opacity="0.2" stroke-width="0.3528" stroke-miterlimit="10"/>
<path d="M95.5348 145.147C95.1104 144.917 94.5799 145.075 94.3501 145.499" stroke="#092C42" stroke-opacity="0.2" stroke-width="0.3528" stroke-miterlimit="10"/>
<path d="M237.073 32.4997C237.073 38.1067 232.527 42.6531 226.92 42.6531C221.318 42.6531 216.771 38.1067 216.771 32.4997C216.771 26.8979 221.318 22.3516 226.92 22.3516" stroke="#092C42" stroke-opacity="0.2" stroke-width="0.3528" stroke-miterlimit="10" stroke-linecap="round" stroke-linejoin="round"/>
<path d="M237.073 32.4997H226.919V22.3516" stroke="#092C42" stroke-opacity="0.2" stroke-width="0.3528" stroke-miterlimit="10" stroke-linecap="round" stroke-linejoin="round"/>
<path d="M226.919 22.3516C232.526 22.3516 237.073 26.8979 237.073 32.4997" stroke="#092C42" stroke-opacity="0.2" stroke-width="0.3528" stroke-miterlimit="10" stroke-linecap="round" stroke-linejoin="round"/>
<path d="M236.021 25.5017L241.271 21.3018H248.621" stroke="#092C42" stroke-opacity="0.2" stroke-width="0.3528" stroke-miterlimit="10" stroke-linecap="round" stroke-linejoin="round"/>
<path d="M252.821 21.3018H262.621" stroke="#092C42" stroke-opacity="0.2" stroke-width="0.3528" stroke-miterlimit="10" stroke-linecap="round" stroke-linejoin="round"/>
<path d="M252.821 24.4502H262.621" stroke="#092C42" stroke-opacity="0.2" stroke-width="0.3528" stroke-miterlimit="10" stroke-linecap="round" stroke-linejoin="round"/>
<path d="M252.821 27.6016H262.621" stroke="#092C42" stroke-opacity="0.2" stroke-width="0.3528" stroke-miterlimit="10" stroke-linecap="round" stroke-linejoin="round"/>
<path d="M252.821 30.751H262.621" stroke="#092C42" stroke-opacity="0.2" stroke-width="0.3528" stroke-miterlimit="10" stroke-linecap="round" stroke-linejoin="round"/>
<path d="M124.315 140.707L123.936 138.856H117.292L117.671 140.707L118.008 142.354L120.267 153.382H138.012L135.416 140.707H124.315Z" stroke="#092C42" stroke-opacity="0.2" stroke-width="0.3528" stroke-miterlimit="10" stroke-linecap="round" stroke-linejoin="round"/>
<path d="M138.012 153.381L141.284 141.561H135.692" stroke="#092C42" stroke-opacity="0.2" stroke-width="0.3528" stroke-miterlimit="10" stroke-linecap="round" stroke-linejoin="round"/>
<path d="M149.23 140.707L148.851 138.856H142.207L142.586 140.707L142.923 142.354L145.182 153.382H162.927L160.331 140.707H149.23Z" stroke="#092C42" stroke-opacity="0.2" stroke-width="0.3528" stroke-miterlimit="10" stroke-linecap="round" stroke-linejoin="round"/>
<path d="M162.927 153.381L166.199 141.561H160.607" stroke="#092C42" stroke-opacity="0.2" stroke-width="0.3528" stroke-miterlimit="10" stroke-linecap="round" stroke-linejoin="round"/>
<path d="M186.913 111.21C187.447 111.21 187.881 111.635 187.881 112.158V118.166C187.881 118.689 187.447 119.114 186.913 119.114C186.378 119.114 185.945 118.689 185.945 118.166V112.158C185.945 111.635 186.378 111.21 186.913 111.21Z" fill="#092C42"/>
<path d="M184.591 111.21C185.125 111.21 185.558 111.635 185.558 112.158V118.166C185.558 118.689 185.125 119.114 184.591 119.114C184.056 119.114 183.623 118.689 183.623 118.166V112.158C183.623 111.635 184.056 111.21 184.591 111.21Z" fill="#092C42"/>
<path d="M182.267 111.21C182.802 111.21 183.235 111.635 183.235 112.158V118.166C183.235 118.689 182.802 119.114 182.267 119.114C181.733 119.114 181.299 118.689 181.299 118.166V112.158C181.299 111.635 181.733 111.21 182.267 111.21Z" fill="#092C42"/>
<path d="M179.945 111.21C180.479 111.21 180.913 111.635 180.913 112.158V118.166C180.913 118.689 180.479 119.114 179.945 119.114C179.41 119.114 178.977 118.689 178.977 118.166V112.158C178.977 111.635 179.41 111.21 179.945 111.21Z" fill="#092C42"/>
<path d="M177.621 111.21C178.156 111.21 178.589 111.635 178.589 112.158V118.166C178.589 118.689 178.156 119.114 177.621 119.114C177.087 119.114 176.653 118.689 176.653 118.166V112.158C176.653 111.635 177.087 111.21 177.621 111.21Z" fill="#092C42"/>
<path d="M175.298 111.21C175.833 111.21 176.266 111.635 176.266 112.158V118.166C176.266 118.689 175.833 119.114 175.298 119.114C174.764 119.114 174.331 118.689 174.331 118.166V112.158C174.331 111.635 174.764 111.21 175.298 111.21Z" fill="#092C42"/>
<path d="M172.975 111.21C173.51 111.21 173.943 111.635 173.943 112.158V118.166C173.943 118.689 173.51 119.114 172.975 119.114C172.441 119.114 172.007 118.689 172.007 118.166V112.158C172.007 111.635 172.441 111.21 172.975 111.21Z" fill="#092C42"/>
<path d="M170.652 111.21C171.187 111.21 171.62 111.635 171.62 112.158V118.166C171.62 118.689 171.187 119.114 170.652 119.114C170.118 119.114 169.685 118.689 169.685 118.166V112.158C169.685 111.635 170.118 111.21 170.652 111.21Z" fill="#092C42"/>
<path d="M168.329 111.21C168.864 111.21 169.297 111.635 169.297 112.158V118.166C169.297 118.689 168.864 119.114 168.329 119.114C167.795 119.114 167.361 118.689 167.361 118.166V112.158C167.361 111.635 167.795 111.21 168.329 111.21Z" fill="#092C42"/>
<path d="M166.006 111.21C166.541 111.21 166.974 111.635 166.974 112.158V118.166C166.974 118.689 166.541 119.114 166.006 119.114C165.472 119.114 165.039 118.689 165.039 118.166V112.158C165.039 111.635 165.472 111.21 166.006 111.21Z" fill="#092C42"/>
<path d="M163.684 111.21C164.218 111.21 164.651 111.635 164.651 112.158V118.166C164.651 118.689 164.218 119.114 163.684 119.114C163.149 119.114 162.716 118.689 162.716 118.166V112.158C162.716 111.635 163.149 111.21 163.684 111.21Z" fill="#092C42"/>
<path d="M162.022 111.21C162.03 111.21 161.987 111.316 162.045 111.488C162.22 111.659 162.329 111.896 162.329 112.158V118.166C162.329 118.427 162.22 118.665 162.045 118.836C161.753 119.008 161.226 119.114 160.699 119.114C159.607 119.114 158.916 118.689 159.155 118.166L161.631 112.158C161.87 111.635 162.045 111.21 162.022 111.21Z" fill="#092C42"/>
<path d="M162.022 111.21C161.999 111.21 161.782 111.635 161.538 112.158L158.473 118.166C158.229 118.689 157.146 119.114 156.054 119.114C154.961 119.114 154.519 118.689 155.066 118.166L161.073 112.158C161.326 111.913 161.555 111.69 161.764 111.488C161.937 111.316 162.022 111.21 162.022 111.21Z" fill="#092C42"/>
<path d="M162.022 111.21C162.022 111.21 161.916 111.294 161.744 111.467C161.541 111.677 161.318 111.906 161.074 112.158L155.067 118.166C154.543 118.713 154.118 118.252 154.118 117.135C154.118 116.018 154.543 114.92 155.067 114.682L161.074 111.684C161.598 111.446 162.022 111.234 162.022 111.21Z" fill="#092C42"/>
<path d="M162.022 111.211C162.022 111.187 161.598 111.356 161.074 111.589L155.067 113.986C154.543 114.219 154.118 113.502 154.118 112.386C154.118 112.112 154.145 111.849 154.193 111.612C154.217 111.493 154.246 111.381 154.28 111.278C154.297 111.217 154.315 111.189 154.335 111.169C154.354 111.144 154.374 111.121 154.396 111.098C154.568 110.919 154.805 110.809 155.067 110.809H161.074C161.336 110.809 161.573 110.919 161.744 111.098C161.766 111.121 161.786 111.144 161.806 111.169C161.825 111.197 161.843 111.22 161.86 111.212L161.948 111.214C161.996 111.214 162.022 111.211 162.022 111.211Z" fill="#092C42"/>
<path d="M162.022 109.422C162.022 109.969 161.598 110.412 161.074 110.412H155.067C154.543 110.412 154.118 109.969 154.118 109.422C154.118 108.876 154.543 108.433 155.067 108.433H161.074C161.598 108.433 162.022 108.876 162.022 109.422Z" fill="#092C42"/>
<path d="M162.022 107.049C162.022 107.596 161.598 108.039 161.074 108.039H155.067C154.543 108.039 154.118 107.596 154.118 107.049C154.118 106.502 154.543 106.06 155.067 106.06H161.074C161.598 106.06 162.022 106.502 162.022 107.049Z" fill="#092C42"/>
<path d="M162.022 104.674C162.022 105.221 161.598 105.664 161.074 105.664H155.067C154.543 105.664 154.118 105.221 154.118 104.674C154.118 104.128 154.543 103.685 155.067 103.685H161.074C161.598 103.685 162.022 104.128 162.022 104.674Z" fill="#092C42"/>
<path d="M162.022 102.3C162.022 102.847 161.598 103.29 161.074 103.29H155.067C154.543 103.29 154.118 102.847 154.118 102.3C154.118 101.754 154.543 101.311 155.067 101.311H161.074C161.598 101.311 162.022 101.754 162.022 102.3Z" fill="#092C42"/>
<path d="M162.022 99.9252C162.022 100.472 161.598 100.915 161.074 100.915H155.067C154.543 100.915 154.118 100.472 154.118 99.9252C154.118 99.3786 154.543 98.9355 155.067 98.9355H161.074C161.598 98.9355 162.022 99.3786 162.022 99.9252Z" fill="#092C42"/>
<path d="M162.022 97.5502C162.022 98.0966 161.598 98.5397 161.074 98.5397H155.067C154.543 98.5397 154.118 98.0966 154.118 97.5502C154.118 97.0036 154.543 96.5605 155.067 96.5605H161.074C161.598 96.5605 162.022 97.0036 162.022 97.5502Z" fill="#092C42"/>
<path d="M162.022 94.5878C162.022 94.8611 161.996 95.1251 161.948 95.3619C161.924 95.4805 161.894 95.5923 161.86 95.6957C161.843 95.7566 161.825 95.7845 161.806 95.8048C161.786 95.8292 161.766 95.8527 161.744 95.875C161.573 96.054 161.336 96.1649 161.074 96.1649H155.067C154.805 96.1649 154.568 96.054 154.396 95.875C154.374 95.8527 154.354 95.8292 154.335 95.8048C154.315 95.7762 154.297 95.7533 154.28 95.7615L154.193 95.7591C154.145 95.7592 154.118 95.7628 154.118 95.7628C154.118 95.7866 154.543 95.6171 155.067 95.3844L161.074 92.9872C161.598 92.7545 162.022 93.471 162.022 94.5878Z" fill="#092C42"/>
<path d="M162.022 89.8373C162.022 90.954 161.598 92.0521 161.074 92.2899L155.067 95.2887C154.543 95.5264 154.118 95.7385 154.118 95.7621C154.118 95.7621 154.224 95.6779 154.396 95.5048C154.6 95.295 154.822 95.0658 155.067 94.8137L161.074 88.8067C161.598 88.2591 162.022 88.7204 162.022 89.8373Z" fill="#092C42"/>
<path d="M160.153 87.8574C161.208 87.8574 161.62 88.2821 161.074 88.806L155.067 94.813C154.813 95.0594 154.583 95.2828 154.377 95.4837C154.204 95.6553 154.118 95.7614 154.118 95.7614C154.141 95.7614 154.364 95.3368 154.618 94.813L157.783 88.806C158.037 88.2821 159.098 87.8574 160.153 87.8574Z" fill="#092C42"/>
<path d="M155.666 87.8574C156.721 87.8574 157.374 88.2821 157.125 88.806L154.528 94.813C154.279 95.3368 154.095 95.7614 154.118 95.7614C154.118 95.7614 154.134 95.6553 154.126 95.4837C154.123 95.438 154.12 95.3914 154.117 95.3432C154.083 95.2928 154.054 95.2389 154.031 95.1822C153.983 95.0687 153.957 94.9439 153.957 94.813V88.806C153.957 88.675 153.983 88.5502 154.031 88.4368C154.054 88.3801 154.083 88.326 154.117 88.2756C154.178 88.2251 154.253 88.1781 154.336 88.1353C154.666 87.9635 155.148 87.8574 155.666 87.8574Z" fill="#092C42"/>
<path d="M152.649 87.8574C153.165 87.8574 153.583 88.2821 153.583 88.806V94.813C153.583 95.3368 153.165 95.7614 152.649 95.7614C152.132 95.7614 151.714 95.3368 151.714 94.813V88.806C151.714 88.2821 152.132 87.8574 152.649 87.8574Z" fill="#092C42"/>
<path d="M150.405 87.8574C150.921 87.8574 151.34 88.2821 151.34 88.806V94.813C151.34 95.3368 150.921 95.7614 150.405 95.7614C149.889 95.7614 149.47 95.3368 149.47 94.813V88.806C149.47 88.2821 149.889 87.8574 150.405 87.8574Z" fill="#092C42"/>
<path d="M148.161 87.8574C148.678 87.8574 149.096 88.2821 149.096 88.806V94.813C149.096 95.3368 148.678 95.7614 148.161 95.7614C147.645 95.7614 147.227 95.3368 147.227 94.813V88.806C147.227 88.2821 147.645 87.8574 148.161 87.8574Z" fill="#092C42"/>
<path d="M146.574 99.4177V84.333C149.814 84.333 152.44 86.9595 152.44 90.1992V93.5513C152.44 96.7912 149.814 99.4177 146.574 99.4177Z" fill="white" stroke="#092C42" stroke-width="0.3528" stroke-miterlimit="22.9256" stroke-linejoin="round"/>
<path d="M131.49 113.969L147.18 106.224C148.691 105.479 149.647 103.94 149.647 102.255V81.7792C149.647 80.094 148.691 78.5551 147.18 77.8092L131.49 70.0645V113.969Z" fill="white" stroke="#092C42" stroke-width="0.3528" stroke-miterlimit="22.9256" stroke-linejoin="round"/>
<path d="M160.824 122.581H172.414" stroke="#092C42" stroke-width="0.3528" stroke-miterlimit="10" stroke-linecap="round" stroke-linejoin="round"/>
<path d="M158.506 124.61H163.142" stroke="#092C42" stroke-width="0.3528" stroke-miterlimit="10" stroke-linecap="round" stroke-linejoin="round"/>
<path d="M165.75 92.5752V103.875" stroke="#092C42" stroke-width="0.3528" stroke-miterlimit="10" stroke-linecap="round" stroke-linejoin="round"/>
<path d="M163.721 96.6317V89.6777" stroke="#092C42" stroke-width="0.3528" stroke-miterlimit="10" stroke-linecap="round" stroke-linejoin="round"/>
<path d="M150.393 110.829V116.624" stroke="#092C42" stroke-width="0.3528" stroke-miterlimit="10" stroke-linecap="round" stroke-linejoin="round"/>
<path d="M152.421 108.801V114.016" stroke="#092C42" stroke-width="0.3528" stroke-miterlimit="10" stroke-linecap="round" stroke-linejoin="round"/>
<path d="M252.106 70.041H255.123" stroke="#092C42" stroke-width="3.175" stroke-miterlimit="10" stroke-linecap="round" stroke-linejoin="round"/>
<path d="M228.98 106.238H241.046V70.041H252.106" stroke="#092C42" stroke-width="1.4111" stroke-miterlimit="10" stroke-linecap="round" stroke-linejoin="round"/>
<path d="M252.106 143.104H255.793" stroke="#092C42" stroke-width="3.175" stroke-miterlimit="10" stroke-linecap="round" stroke-linejoin="round"/>
<path d="M226.634 117.297H240.711V143.104H252.106" stroke="#092C42" stroke-width="1.4111" stroke-miterlimit="10" stroke-linecap="round" stroke-linejoin="round"/>
<path d="M333.3 101.632H260.676C256.907 101.632 253.852 98.5766 253.852 94.8072V44.7136C253.852 40.9442 256.907 37.8887 260.676 37.8887H333.3C337.07 37.8887 340.125 40.9442 340.125 44.7136V94.8072C340.125 98.5766 337.07 101.632 333.3 101.632Z" fill="#092C42" stroke="#092C42" stroke-width="0.3528" stroke-miterlimit="22.9256" stroke-linejoin="round"/>
<path d="M331.628 97.7398H262.349C259.663 97.7398 257.485 95.5623 257.485 92.8762V46.6421C257.485 43.956 259.663 41.7783 262.349 41.7783H331.628C334.314 41.7783 336.492 43.956 336.492 46.6421V92.8762C336.492 95.5623 334.314 97.7398 331.628 97.7398Z" fill="white" stroke="#092C42" stroke-width="0.3528" stroke-miterlimit="22.9256" stroke-linejoin="round"/>
<path d="M330.348 53.4162H267.705V51.1309H330.348V53.4162Z" fill="#E0E0E0"/>
<path d="M330.348 58.7921H267.705V56.5068H330.348V58.7921Z" fill="#E0E0E0"/>
<path d="M330.348 64.171H267.705V61.8857H330.348V64.171Z" fill="#E0E0E0"/>
<path d="M330.348 69.5471H267.705V67.2617H330.348V69.5471Z" fill="#E0E0E0"/>
<path d="M330.348 74.924H267.705V72.6387H330.348V74.924Z" fill="#E0E0E0"/>
<path d="M330.348 80.3009H267.705V78.0156H330.348V80.3009Z" fill="#E0E0E0"/>
<path d="M330.348 85.6788H267.705V83.3936H330.348V85.6788Z" fill="#E0E0E0"/>
<path d="M274.209 64.5361H268.107V89.7345H274.209V64.5361Z" fill="#092C42"/>
<path d="M283.54 71.6016H277.438V89.7339H283.54V71.6016Z" fill="#0096ED"/>
<path d="M292.871 67.2061H286.77V89.735H292.871V67.2061Z" fill="#092C42"/>
<path d="M302.202 76.3115H296.101V89.7334H302.202V76.3115Z" fill="#0096ED"/>
<path d="M311.534 67.6768H305.433V89.7347H311.534V67.6768Z" fill="#092C42"/>
<path d="M320.865 61.8672H314.764V89.7348H320.865V61.8672Z" fill="#0096ED"/>
<path d="M330.196 58.2549H324.095V89.734H330.196V58.2549Z" fill="#092C42"/>
<path d="M263.085 51.5537H265.168" stroke="#092C42" stroke-width="0.3528" stroke-miterlimit="10" stroke-linecap="round" stroke-linejoin="round"/>
<path d="M263.085 54.5488H265.168" stroke="#092C42" stroke-width="0.3528" stroke-miterlimit="10" stroke-linecap="round" stroke-linejoin="round"/>
<path d="M263.085 57.5469H265.168" stroke="#092C42" stroke-width="0.3528" stroke-miterlimit="10" stroke-linecap="round" stroke-linejoin="round"/>
<path d="M263.085 60.542H265.168" stroke="#092C42" stroke-width="0.3528" stroke-miterlimit="10" stroke-linecap="round" stroke-linejoin="round"/>
<path d="M263.085 63.5391H265.168" stroke="#092C42" stroke-width="0.3528" stroke-miterlimit="10" stroke-linecap="round" stroke-linejoin="round"/>
<path d="M263.085 66.5361H265.168" stroke="#092C42" stroke-width="0.3528" stroke-miterlimit="10" stroke-linecap="round" stroke-linejoin="round"/>
<path d="M263.085 69.5322H265.168" stroke="#092C42" stroke-width="0.3528" stroke-miterlimit="10" stroke-linecap="round" stroke-linejoin="round"/>
<path d="M263.085 72.5293H265.168" stroke="#092C42" stroke-width="0.3528" stroke-miterlimit="10" stroke-linecap="round" stroke-linejoin="round"/>
<path d="M263.085 75.5234H265.168" stroke="#092C42" stroke-width="0.3528" stroke-miterlimit="10" stroke-linecap="round" stroke-linejoin="round"/>
<path d="M263.085 78.5225H265.168" stroke="#092C42" stroke-width="0.3528" stroke-miterlimit="10" stroke-linecap="round" stroke-linejoin="round"/>
<path d="M263.085 81.5176H265.168" stroke="#092C42" stroke-width="0.3528" stroke-miterlimit="10" stroke-linecap="round" stroke-linejoin="round"/>
<path d="M263.085 84.5137H265.168" stroke="#092C42" stroke-width="0.3528" stroke-miterlimit="10" stroke-linecap="round" stroke-linejoin="round"/>
<path d="M263.085 87.5107H265.168" stroke="#092C42" stroke-width="0.3528" stroke-miterlimit="10" stroke-linecap="round" stroke-linejoin="round"/>
<path d="M263.085 90.5068H265.168" stroke="#092C42" stroke-width="0.3528" stroke-miterlimit="10" stroke-linecap="round" stroke-linejoin="round"/>
<path d="M330.368 91.3633V93.4463" stroke="#092C42" stroke-width="0.3528" stroke-miterlimit="10" stroke-linecap="round" stroke-linejoin="round"/>
<path d="M325.393 91.3633V93.4463" stroke="#092C42" stroke-width="0.3528" stroke-miterlimit="10" stroke-linecap="round" stroke-linejoin="round"/>
<path d="M320.417 91.3633V93.4463" stroke="#092C42" stroke-width="0.3528" stroke-miterlimit="10" stroke-linecap="round" stroke-linejoin="round"/>
<path d="M315.442 91.3633V93.4463" stroke="#092C42" stroke-width="0.3528" stroke-miterlimit="10" stroke-linecap="round" stroke-linejoin="round"/>
<path d="M310.467 91.3633V93.4463" stroke="#092C42" stroke-width="0.3528" stroke-miterlimit="10" stroke-linecap="round" stroke-linejoin="round"/>
<path d="M305.491 91.3633V93.4463" stroke="#092C42" stroke-width="0.3528" stroke-miterlimit="10" stroke-linecap="round" stroke-linejoin="round"/>
<path d="M300.516 91.3633V93.4463" stroke="#092C42" stroke-width="0.3528" stroke-miterlimit="10" stroke-linecap="round" stroke-linejoin="round"/>
<path d="M295.541 91.3633V93.4463" stroke="#092C42" stroke-width="0.3528" stroke-miterlimit="10" stroke-linecap="round" stroke-linejoin="round"/>
<path d="M290.565 91.3633V93.4463" stroke="#092C42" stroke-width="0.3528" stroke-miterlimit="10" stroke-linecap="round" stroke-linejoin="round"/>
<path d="M285.59 91.3633V93.4463" stroke="#092C42" stroke-width="0.3528" stroke-miterlimit="10" stroke-linecap="round" stroke-linejoin="round"/>
<path d="M280.615 91.3633V93.4463" stroke="#092C42" stroke-width="0.3528" stroke-miterlimit="10" stroke-linecap="round" stroke-linejoin="round"/>
<path d="M275.64 91.3633V93.4463" stroke="#092C42" stroke-width="0.3528" stroke-miterlimit="10" stroke-linecap="round" stroke-linejoin="round"/>
<path d="M270.665 91.3633V93.4463" stroke="#092C42" stroke-width="0.3528" stroke-miterlimit="10" stroke-linecap="round" stroke-linejoin="round"/>
<path d="M265.689 91.3633V93.4463" stroke="#092C42" stroke-width="0.3528" stroke-miterlimit="10" stroke-linecap="round" stroke-linejoin="round"/>
<path d="M303.705 48.221H289.748V45.9297H303.705V48.221Z" fill="#092C42"/>
<path d="M333.301 173.114H260.677C256.908 173.114 253.852 170.058 253.852 166.289V116.195C253.852 112.426 256.908 109.37 260.677 109.37H333.301C337.07 109.37 340.126 112.426 340.126 116.195V166.289C340.126 170.058 337.07 173.114 333.301 173.114Z" fill="#092C42" stroke="#092C42" stroke-width="0.3528" stroke-miterlimit="22.9256" stroke-linejoin="round"/>
<path d="M331.628 169.221H262.349C259.663 169.221 257.485 167.044 257.485 164.358V118.124C257.485 115.437 259.663 113.26 262.349 113.26H331.628C334.314 113.26 336.492 115.437 336.492 118.124V164.358C336.492 167.044 334.314 169.221 331.628 169.221Z" fill="white" stroke="#092C42" stroke-width="0.3528" stroke-miterlimit="22.9256" stroke-linejoin="round"/>
<path d="M283.724 163.81C272 163.81 262.461 154.272 262.461 142.548C262.461 132.407 269.673 123.632 279.61 121.683L280.621 126.834C273.14 128.302 267.711 134.91 267.711 142.548C267.711 151.377 274.894 158.56 283.724 158.56C285.487 158.56 287.218 158.276 288.868 157.716L290.553 162.689C288.359 163.433 286.062 163.81 283.724 163.81Z" fill="#092C42"/>
<path d="M298.786 137.1C296.501 130.78 290.447 126.534 283.723 126.534C282.679 126.534 281.635 126.635 280.62 126.834L279.611 121.682C280.958 121.418 282.341 121.284 283.723 121.284C292.651 121.284 300.689 126.922 303.724 135.315L298.786 137.1Z" fill="#0096ED"/>
<path d="M290.552 162.685L288.868 157.713C295.369 155.51 299.736 149.413 299.736 142.544C299.736 140.672 299.417 138.839 298.787 137.097L303.724 135.312C304.562 137.627 304.986 140.061 304.986 142.544C304.986 151.665 299.186 159.759 290.552 162.685Z" fill="#A8A8A8"/>
<path d="M318.019 132.059H312.117V126.157H318.019V132.059Z" fill="#092C42"/>
<path d="M318.019 146.503H312.117V140.601H318.019V146.503Z" fill="#0096ED"/>
<path d="M318.019 160.947H312.117V155.045H318.019V160.947Z" fill="#A8A8A8"/>
<path d="M321.125 129.263H331.066" stroke="#092C42" stroke-width="0.3528" stroke-miterlimit="10" stroke-linecap="round" stroke-linejoin="round"/>
<path d="M321.125 143.241H331.066" stroke="#092C42" stroke-width="0.3528" stroke-miterlimit="10" stroke-linecap="round" stroke-linejoin="round"/>
<path d="M278.259 142.933H288.199" stroke="#092C42" stroke-width="0.3528" stroke-miterlimit="10" stroke-linecap="round" stroke-linejoin="round"/>
<path d="M321.125 157.841H331.066" stroke="#092C42" stroke-width="0.3528" stroke-miterlimit="10" stroke-linecap="round" stroke-linejoin="round"/>
<path d="M36.0002 207.999H24.4502" stroke="#092C42" stroke-width="0.2646" stroke-miterlimit="10" stroke-linecap="round" stroke-linejoin="round"/>
<path d="M328.421 207.999H42.2998" stroke="#092C42" stroke-width="0.2646" stroke-miterlimit="10" stroke-linecap="round" stroke-linejoin="round"/>
<path d="M350.471 207.999H332.096" stroke="#092C42" stroke-width="0.2646" stroke-miterlimit="10" stroke-linecap="round" stroke-linejoin="round"/>
<path d="M175.017 114.704C175.017 118.324 177.951 121.259 181.571 121.259C185.191 121.259 188.126 118.324 188.126 114.704C188.126 111.084 185.191 108.149 181.571 108.149C177.951 108.149 175.017 111.084 175.017 114.704Z" fill="#092C42"/>
<path d="M236.398 113.942C237.465 110.483 235.526 106.814 232.067 105.747C228.608 104.68 224.938 106.619 223.872 110.079C222.805 113.538 224.744 117.207 228.203 118.274C231.662 119.341 235.331 117.401 236.398 113.942Z" fill="#092C42"/>
<path d="M179.611 104.51C179.611 104.51 180.084 150.521 205.905 151.421C231.726 152.322 232.808 104.84 232.808 104.51C232.808 104.51 229.759 97.6483 206.21 97.9169C182.66 98.1854 179.611 104.51 179.611 104.51Z" fill="#0096ED"/>
<path d="M194.119 96.408H215.945C217.369 96.408 218.524 95.2534 218.524 93.8292V93.4518C218.524 92.0275 217.369 90.873 215.945 90.873H194.119C192.695 90.873 191.541 92.0275 191.541 93.4518V93.8292C191.541 95.2534 192.695 96.408 194.119 96.408Z" fill="#092C42"/>
<path d="M204.095 55.4926H205.979V45.9648H204.095V55.4926Z" fill="#092C42"/>
<path d="M227.035 78.4574C227.035 81.515 229.514 83.9937 232.571 83.9937C235.629 83.9937 238.108 81.515 238.108 78.4574C238.108 75.3996 235.629 72.9209 232.571 72.9209C229.514 72.9209 227.035 75.3996 227.035 78.4574Z" fill="#0096ED"/>
<path d="M171.14 78.0912C171.14 81.1488 173.619 83.6275 176.676 83.6275C179.734 83.6275 182.213 81.1488 182.213 78.0912C182.213 75.0334 179.734 72.5547 176.676 72.5547C173.619 72.5547 171.14 75.0334 171.14 78.0912Z" fill="#0096ED"/>
<path d="M203.937 53.4259C203.937 53.4259 181.425 53.1553 177.861 72.6535C174.298 92.1517 193.336 92.5157 198.811 92.8851C201.294 93.0526 206.606 93.0698 211.294 92.9885C221.671 92.8082 229.004 90.7997 231.499 81.1721C231.79 80.0495 231.986 78.8966 232.059 77.7239C232.719 67.1716 225.576 52.9064 203.937 53.4259Z" fill="#0096ED"/>
<path d="M220.27 83.1248L187.564 83.6354C184.136 83.689 181.314 80.9534 181.26 77.5253C181.207 74.0972 183.942 71.2748 187.37 71.2213L220.076 70.7107C223.504 70.6571 226.326 73.3928 226.38 76.8209C226.433 80.2488 223.698 83.0713 220.27 83.1248Z" fill="#092C42"/>
<path d="M194.35 76.8472C194.139 77.9269 193.092 78.6308 192.012 78.4192C190.933 78.2078 190.229 77.1608 190.44 76.0812C190.652 75.0015 191.699 74.2977 192.778 74.5092C193.858 74.7207 194.562 75.7675 194.35 76.8472Z" fill="white"/>
<path d="M217.199 76.4821C216.987 77.5618 215.94 78.2656 214.861 78.0541C213.781 77.8425 213.077 76.7958 213.289 75.7161C213.5 74.6363 214.547 73.9324 215.627 74.144C216.706 74.3555 217.41 75.4024 217.199 76.4821Z" fill="white"/>
<path d="M213.909 122.784C213.551 127.687 209.285 131.372 204.381 131.014C199.477 130.655 195.793 126.389 196.151 121.486C196.509 116.582 200.775 112.897 205.679 113.256C210.583 113.614 214.268 117.88 213.909 122.784Z" fill="#092C42"/>
<path d="M211.502 122.605C211.241 126.179 208.132 128.864 204.559 128.602C200.985 128.341 198.3 125.233 198.561 121.659C198.823 118.086 201.931 115.401 205.505 115.662C209.078 115.923 211.763 119.032 211.502 122.605Z" fill="white"/>
<path d="M208.372 123.786C208.347 123.771 208.328 123.387 208.312 122.716C208.296 122.045 208.283 121.089 208.282 119.921L208.353 120.049C207.382 119.482 206.25 118.823 205.015 118.102L205.202 118.105C204.154 118.694 203.019 119.332 201.834 119.998C201.743 120.15 201.956 119.791 201.934 119.828V119.829V119.831V119.835L201.934 119.843L201.934 119.859L201.934 119.891L201.933 119.955L201.931 120.081L201.927 120.334L201.919 120.835C201.914 121.167 201.908 121.494 201.903 121.817C201.89 122.462 201.878 123.088 201.867 123.691L201.776 123.529C202.996 124.274 204.108 124.953 205.073 125.543L204.926 125.541C205.956 124.987 206.803 124.546 207.402 124.241C208 123.937 208.347 123.772 208.372 123.786C208.397 123.801 208.098 123.996 207.529 124.344C206.961 124.69 206.122 125.19 205.07 125.798L204.998 125.839L204.923 125.796C203.945 125.226 202.82 124.569 201.585 123.849L201.493 123.795L201.494 123.686C201.5 123.082 201.506 122.456 201.513 121.812C201.517 121.488 201.521 121.161 201.525 120.829L201.532 120.328L201.535 120.076L201.537 119.949L201.538 119.885L201.538 119.854L201.539 119.838V119.83L201.539 119.826L201.539 119.824V119.823C201.517 119.859 201.731 119.5 201.641 119.652C202.83 118.993 203.969 118.362 205.02 117.779L205.116 117.727L205.207 117.782C206.426 118.527 207.544 119.21 208.504 119.797L208.578 119.842L208.576 119.925C208.54 121.139 208.498 122.115 208.463 122.78C208.427 123.445 208.397 123.802 208.372 123.786Z" fill="#0096ED"/>
<path d="M201.932 45.7746C201.932 47.4898 203.322 48.8802 205.037 48.8802C206.752 48.8802 208.143 47.4898 208.143 45.7746C208.143 44.0594 206.752 42.6689 205.037 42.6689C203.322 42.6689 201.932 44.0594 201.932 45.7746Z" fill="#0096ED"/>
<path d="M200.077 75.9281C200.225 75.9441 200.151 76.6408 200.586 77.567C200.796 78.027 201.146 78.5299 201.643 78.9571C202.137 79.3848 202.794 79.7129 203.515 79.7874C204.237 79.8448 204.943 79.6411 205.506 79.3099C206.073 78.98 206.508 78.5487 206.798 78.1344C207.394 77.3022 207.447 76.6038 207.596 76.615C207.654 76.6161 207.714 76.7919 207.714 77.1216C207.716 77.4507 207.621 77.9319 207.352 78.4671C207.086 79.0019 206.622 79.5745 205.953 80.0232C205.292 80.4714 204.395 80.776 203.432 80.6972C202.47 80.6001 201.643 80.1381 201.074 79.5776C200.498 79.0152 200.146 78.3682 199.981 77.794C199.813 77.219 199.807 76.7282 199.868 76.405C199.928 76.0808 200.019 75.9188 200.077 75.9281Z" fill="white"/>
<path d="M230.05 85.0203C230.017 85.0012 230.421 84.3888 230.809 83.2831C231.208 82.1834 231.556 80.5917 231.722 78.8114C231.9 77.03 231.873 75.4042 231.827 74.2321C231.8 73.6459 231.773 73.1711 231.746 72.8436C231.723 72.5157 231.716 72.3335 231.728 72.332C231.741 72.3305 231.772 72.51 231.817 72.8364C231.865 73.1624 231.912 73.6371 231.956 74.2249C232.035 75.3996 232.083 77.0347 231.904 78.829C231.736 80.6218 231.365 82.2271 230.93 83.3278C230.719 83.8804 230.501 84.3088 230.335 84.5934C230.161 84.8754 230.061 85.0271 230.05 85.0203Z" fill="#092C42"/>
<path d="M177.913 72.0176C177.925 72.0215 177.885 72.2 177.802 72.5183C177.759 72.677 177.708 72.8715 177.662 73.1006C177.614 73.3291 177.548 73.5864 177.504 73.8771C177.394 74.4537 177.309 75.1482 177.257 75.9216C177.217 76.6956 177.218 77.549 177.293 78.4406C177.376 79.3317 177.526 80.172 177.702 80.9271C177.888 81.6794 178.095 82.348 178.304 82.8963C178.398 83.1747 178.509 83.4163 178.597 83.6328C178.682 83.8503 178.766 84.0328 178.837 84.1813C178.975 84.48 179.046 84.6486 179.034 84.6546C179.023 84.6605 178.931 84.5032 178.773 84.2127C178.692 84.0684 178.598 83.8892 178.503 83.6744C178.407 83.4606 178.287 83.2207 178.184 82.943C177.957 82.3961 177.736 81.7254 177.538 80.9674C177.351 80.2068 177.195 79.3577 177.111 78.4567C177.035 77.5553 177.039 76.6921 177.089 75.9107C177.15 75.1299 177.25 74.4306 177.377 73.8523C177.429 73.561 177.505 73.3037 177.563 73.0761C177.618 72.8478 177.68 72.655 177.734 72.4986C177.838 72.1848 177.901 72.0137 177.913 72.0176Z" fill="#092C42"/>
<path d="M179.503 104.467C179.505 104.464 179.55 104.478 179.639 104.507C179.735 104.539 179.865 104.583 180.03 104.64C180.381 104.764 180.884 104.941 181.526 105.167C181.851 105.283 182.212 105.412 182.606 105.553C183.003 105.685 183.441 105.811 183.908 105.956C184.846 106.234 185.901 106.595 187.1 106.877C187.696 107.03 188.321 107.19 188.972 107.357C189.623 107.521 190.312 107.643 191.019 107.797C192.431 108.121 193.962 108.341 195.568 108.601C198.793 109.039 202.364 109.34 206.12 109.356C209.878 109.34 213.45 109.041 216.675 108.603C218.281 108.343 219.813 108.123 221.225 107.799C221.932 107.646 222.621 107.524 223.273 107.36C223.923 107.193 224.548 107.033 225.144 106.88C226.344 106.598 227.399 106.238 228.336 105.959C228.803 105.814 229.241 105.689 229.639 105.556C230.032 105.416 230.393 105.287 230.718 105.171C231.36 104.945 231.863 104.768 232.214 104.644C232.379 104.588 232.509 104.544 232.605 104.511C232.694 104.482 232.739 104.469 232.741 104.472C232.742 104.475 232.698 104.494 232.612 104.529C232.517 104.566 232.39 104.615 232.227 104.678C231.878 104.81 231.38 104.998 230.742 105.238C230.418 105.359 230.059 105.493 229.667 105.639C229.271 105.777 228.834 105.907 228.367 106.057C227.431 106.345 226.377 106.714 225.178 107.005C224.581 107.162 223.956 107.326 223.306 107.497C222.654 107.665 221.964 107.791 221.256 107.947C219.842 108.279 218.309 108.505 216.699 108.77C213.468 109.217 209.888 109.523 206.12 109.539C202.354 109.522 198.775 109.216 195.545 108.768C193.935 108.503 192.401 108.276 190.988 107.945C190.28 107.788 189.591 107.662 188.939 107.494C188.288 107.323 187.663 107.159 187.067 107.002C185.867 106.711 184.813 106.341 183.877 106.053C183.411 105.903 182.974 105.773 182.578 105.635C182.185 105.489 181.826 105.355 181.502 105.234C180.864 104.994 180.366 104.806 180.017 104.674C179.854 104.611 179.727 104.561 179.632 104.524C179.546 104.489 179.502 104.47 179.503 104.467Z" fill="#092C42"/>
<path d="M179.611 104.51C179.611 104.51 182.66 98.1854 206.21 97.9169C229.759 97.6483 232.808 104.51 232.808 104.51C232.808 104.51 209.054 116.226 179.611 104.51Z" fill="black" fill-opacity="0.301961"/>
<path d="M201.088 54.883C201.088 54.8861 201.061 54.8907 201.007 54.8965C200.943 54.9024 200.865 54.9095 200.769 54.9181C200.56 54.9398 200.251 54.9464 199.855 54.9939C199.062 55.0657 197.918 55.222 196.533 55.5445C195.148 55.8648 193.527 56.384 191.822 57.1743C190.116 57.9618 188.338 59.0414 186.66 60.4149C184.992 61.802 183.595 63.3439 182.498 64.869C181.398 66.394 180.581 67.8865 180.004 69.1857C179.424 70.4846 179.054 71.5784 178.833 72.343C178.711 72.7224 178.646 73.0252 178.585 73.2261C178.558 73.3181 178.536 73.3934 178.519 73.4557C178.503 73.5072 178.493 73.5332 178.49 73.5325C178.487 73.5318 178.49 73.5045 178.5 73.4515C178.514 73.388 178.53 73.3112 178.549 73.2175C178.598 73.0134 178.653 72.7072 178.764 72.3237C178.965 71.5509 179.318 70.446 179.885 69.1333C180.451 67.8204 181.261 66.3117 182.361 64.7708C183.458 63.2296 184.863 61.672 186.544 60.274C188.235 58.8895 190.03 57.8059 191.751 57.0214C193.473 56.234 195.108 55.7244 196.504 55.4186C197.9 55.1105 199.052 54.9733 199.849 54.923C200.247 54.8863 200.558 54.8912 200.768 54.8813C200.863 54.8799 200.942 54.8788 201.007 54.8779C201.061 54.8781 201.088 54.8798 201.088 54.883Z" fill="white"/>
<path d="M179.061 81.8926C179.04 81.9013 178.904 81.6394 178.741 81.192C178.578 80.7453 178.397 80.1096 178.283 79.3907C178.171 78.6713 178.149 78.0105 178.168 77.5353C178.187 77.0594 178.236 76.7687 178.259 76.7705C178.316 76.7731 178.237 77.9446 178.464 79.3624C178.681 80.7813 179.115 81.8726 179.061 81.8926Z" fill="white"/>
<path d="M173.156 80.0835C173.148 80.0909 173.077 80.0267 172.966 79.8943C172.856 79.7622 172.712 79.5564 172.57 79.2813C172.284 78.7378 172.035 77.8739 172.16 76.9229C172.287 75.9719 172.752 75.2027 173.17 74.7526C173.38 74.5242 173.572 74.3629 173.713 74.2643C173.854 74.1652 173.94 74.1219 173.946 74.1311C173.966 74.1574 173.65 74.3716 173.268 74.837C172.888 75.2951 172.462 76.0405 172.341 76.947C172.222 77.8534 172.438 78.6838 172.686 79.2255C172.933 79.7742 173.183 80.0635 173.156 80.0835Z" fill="white"/>
<path d="M205.243 43.6124C205.235 43.6468 204.922 43.5317 204.417 43.5922C203.924 43.6439 203.216 43.9279 202.796 44.5731C202.384 45.224 202.421 45.9864 202.579 46.4559C202.734 46.9406 202.969 47.1769 202.941 47.1981C202.933 47.2056 202.868 47.1552 202.771 47.0426C202.674 46.9306 202.555 46.7479 202.457 46.4987C202.258 46.014 202.19 45.1907 202.642 44.4744C203.105 43.7653 203.882 43.4846 204.405 43.4635C204.673 43.449 204.888 43.4814 205.031 43.5231C205.173 43.5639 205.246 43.6022 205.243 43.6124Z" fill="white"/>
<path d="M235.82 75.8266C235.781 75.8678 235.235 75.347 234.411 74.9523C233.59 74.5489 232.843 74.4426 232.852 74.387C232.851 74.3419 233.636 74.3691 234.491 74.7879C235.348 75.1997 235.856 75.7998 235.82 75.8266Z" fill="white"/>
<path d="M187.709 137.254C187.706 137.255 187.691 137.233 187.664 137.186C187.633 137.13 187.596 137.062 187.55 136.979C187.445 136.782 187.303 136.513 187.124 136.175C187.032 135.998 186.931 135.803 186.821 135.59C186.72 135.371 186.61 135.134 186.492 134.88C186.253 134.371 185.984 133.791 185.723 133.133C185.589 132.806 185.448 132.463 185.301 132.106C185.167 131.744 185.028 131.367 184.884 130.977C184.582 130.202 184.327 129.35 184.026 128.465C183.476 126.677 182.936 124.692 182.463 122.586C181.999 120.478 181.644 118.452 181.365 116.603C181.106 114.751 180.902 113.079 180.79 111.67C180.721 110.966 180.68 110.328 180.645 109.768C180.606 109.208 180.58 108.725 180.568 108.33C180.555 107.947 180.545 107.644 180.538 107.42C180.537 107.325 180.536 107.248 180.535 107.183C180.535 107.13 180.537 107.103 180.54 107.103C180.543 107.102 180.547 107.129 180.553 107.183C180.559 107.247 180.566 107.324 180.575 107.418C180.591 107.642 180.612 107.944 180.639 108.326C180.661 108.72 180.698 109.202 180.747 109.76C180.792 110.319 180.842 110.956 180.918 111.658C181.047 113.064 181.264 114.731 181.531 116.578C181.819 118.422 182.179 120.443 182.641 122.547C183.114 124.647 183.647 126.629 184.187 128.415C184.483 129.299 184.732 130.15 185.026 130.926C185.167 131.316 185.303 131.693 185.433 132.055C185.575 132.413 185.712 132.756 185.843 133.084C186.095 133.743 186.355 134.326 186.585 134.838C186.697 135.093 186.803 135.332 186.9 135.553C187.004 135.767 187.1 135.964 187.187 136.143C187.353 136.488 187.485 136.761 187.582 136.962C187.622 137.048 187.654 137.119 187.681 137.178C187.702 137.227 187.712 137.252 187.709 137.254Z" fill="white"/>
<path d="M200.15 148.321C200.148 148.333 200.002 148.315 199.739 148.271C199.475 148.23 199.099 148.142 198.642 148.006C198.183 147.872 197.65 147.67 197.077 147.404C196.507 147.131 195.9 146.789 195.301 146.372C194.705 145.95 194.178 145.493 193.728 145.05C193.284 144.6 192.913 144.167 192.633 143.781C192.35 143.397 192.139 143.072 192.012 142.838C191.882 142.605 191.815 142.474 191.826 142.468C191.856 142.45 192.149 142.961 192.735 143.702C193.026 144.074 193.402 144.493 193.846 144.93C194.297 145.361 194.819 145.806 195.406 146.223C195.996 146.634 196.592 146.974 197.15 147.253C197.711 147.522 198.233 147.735 198.681 147.883C199.577 148.183 200.157 148.287 200.15 148.321Z" fill="white"/>
<path d="M205.532 132.086C205.533 132.092 205.448 132.1 205.287 132.111C205.125 132.114 204.886 132.149 204.578 132.131C203.962 132.13 203.064 132.031 202.005 131.714C201.474 131.558 200.913 131.326 200.329 131.04C199.757 130.731 199.155 130.377 198.587 129.914C197.438 129.011 196.373 127.743 195.684 126.192C195.02 124.629 194.821 122.984 194.945 121.528C194.996 120.797 195.148 120.115 195.313 119.487C195.502 118.864 195.716 118.296 195.965 117.802C196.456 116.811 196.997 116.088 197.416 115.637C197.613 115.4 197.802 115.249 197.915 115.133C198.033 115.022 198.097 114.966 198.101 114.971C198.115 114.985 197.868 115.22 197.47 115.684C197.07 116.146 196.552 116.873 196.081 117.858C195.843 118.349 195.639 118.913 195.459 119.528C195.302 120.149 195.158 120.821 195.113 121.541C195 122.975 195.202 124.588 195.852 126.119C196.526 127.639 197.567 128.887 198.692 129.783C199.248 130.242 199.838 130.595 200.399 130.905C200.971 131.193 201.522 131.429 202.044 131.59C203.085 131.919 203.97 132.037 204.58 132.06C205.191 132.086 205.532 132.066 205.532 132.086Z" fill="white"/>
<path d="M214.864 69.567C214.864 69.6174 210.556 69.6584 205.243 69.6584C199.928 69.6584 195.621 69.6174 195.621 69.567C195.621 69.5166 199.928 69.4756 205.243 69.4756C210.556 69.4756 214.864 69.5166 214.864 69.567Z" fill="white"/>
<path d="M198.446 91.506C198.447 91.5123 198.391 91.5211 198.284 91.5325C198.155 91.5435 198 91.5568 197.814 91.5728C197.61 91.5902 197.36 91.6066 197.07 91.6111C196.779 91.6174 196.448 91.6339 196.082 91.6226C195.35 91.6208 194.478 91.5706 193.515 91.4685C192.553 91.3562 191.501 91.1858 190.411 90.9331C189.323 90.673 188.305 90.3557 187.394 90.027C186.486 89.6886 185.684 89.3444 185.028 89.0194C184.695 88.8662 184.406 88.7037 184.149 88.5683C183.891 88.4347 183.675 88.3086 183.5 88.202C183.341 88.1048 183.208 88.0238 183.098 87.9565C183.007 87.8986 182.961 87.8657 182.965 87.8602C182.968 87.8547 183.02 87.8771 183.117 87.9245C183.231 87.9836 183.369 88.0545 183.535 88.1398C183.714 88.2366 183.935 88.3531 184.196 88.4777C184.457 88.6039 184.749 88.7577 185.083 88.9026C185.743 89.2113 186.546 89.541 187.451 89.8687C188.36 90.1867 189.372 90.4969 190.453 90.7553C191.535 91.0062 192.58 91.1805 193.535 91.3014C194.491 91.4119 195.357 91.4752 196.085 91.4934C196.449 91.513 196.779 91.5055 197.068 91.5089C197.358 91.5142 197.607 91.5083 197.811 91.5018C197.997 91.4993 198.152 91.4974 198.281 91.4957C198.389 91.4964 198.446 91.4996 198.446 91.506Z" fill="white"/>
<path d="M226.453 107.318C226.454 107.321 226.426 107.334 226.369 107.356C226.303 107.381 226.22 107.412 226.117 107.451C225.881 107.535 225.554 107.651 225.141 107.798C224.718 107.951 224.197 108.129 223.583 108.309C222.971 108.492 222.279 108.721 221.498 108.916C221.109 109.019 220.701 109.126 220.277 109.239C219.851 109.349 219.403 109.44 218.942 109.548C218.022 109.771 217.026 109.946 215.98 110.143C213.881 110.497 211.557 110.794 209.104 110.952C206.65 111.095 204.306 111.086 202.18 110.991C201.117 110.923 200.107 110.871 199.166 110.762C198.695 110.712 198.239 110.677 197.804 110.619C197.369 110.56 196.951 110.502 196.552 110.448C195.753 110.35 195.038 110.208 194.408 110.101C193.777 109.998 193.239 109.884 192.8 109.785C192.372 109.689 192.034 109.614 191.789 109.559C191.682 109.534 191.596 109.513 191.527 109.496C191.468 109.481 191.438 109.472 191.439 109.469C191.44 109.466 191.471 109.469 191.531 109.478C191.601 109.49 191.689 109.505 191.797 109.523C192.043 109.57 192.383 109.634 192.814 109.715C193.254 109.804 193.794 109.907 194.426 110C195.057 110.098 195.771 110.231 196.57 110.32C196.968 110.371 197.386 110.424 197.82 110.479C198.255 110.533 198.711 110.565 199.18 110.611C200.12 110.713 201.128 110.76 202.188 110.823C204.309 110.908 206.646 110.912 209.093 110.77C211.538 110.612 213.856 110.321 215.951 109.977C216.995 109.785 217.99 109.616 218.91 109.4C219.37 109.296 219.818 109.208 220.243 109.102C220.668 108.994 221.075 108.89 221.465 108.791C222.246 108.605 222.94 108.385 223.554 108.211C224.169 108.041 224.692 107.873 225.119 107.731C225.536 107.597 225.866 107.492 226.105 107.416C226.21 107.385 226.295 107.359 226.363 107.339C226.422 107.322 226.452 107.315 226.453 107.318Z" fill="white"/>
</svg>
